<svg width="88" height="88" viewBox="0 0 88 88" fill="none" xmlns="http://www.w3.org/2000/svg">
<path d="M54.1286 47.1441C56.6512 43.6627 56.3479 38.7598 53.2186 35.6297C49.8338 32.244 44.4054 32.1482 40.9089 35.3582V34.911C40.9089 29.9922 36.9174 25.9997 31.9999 25.9997C27.0824 25.9997 23.0909 29.9922 23.0909 34.911V35.3582C19.5944 32.1642 14.166 32.244 10.7812 35.6297C7.63596 38.7758 7.33261 43.6627 9.87118 47.1441C5.44863 47.6552 2 51.4241 2 55.9916C2 60.9104 5.99147 64.9029 10.909 64.9029H11.356L10.7972 65.4619C7.31664 68.9434 7.31664 74.5808 10.7972 78.0623C14.1979 81.464 19.6902 81.5438 23.1708 78.254C23.7455 82.6138 27.4815 85.9995 31.9999 85.9995C36.5182 85.9995 40.2543 82.6298 40.829 78.254C44.3256 81.5278 49.8019 81.464 53.2026 78.0623C56.6832 74.5808 56.6832 68.9434 53.2026 65.4619L52.6438 64.9029H53.0908C58.0083 64.9029 61.9998 60.9104 61.9998 55.9916C61.9838 51.4241 58.5512 47.6552 54.1286 47.1441Z" fill="#B6FF5A"/>
<path d="M63.0092 35.3777C105.064 35.3777 80.5361 -7.10525 59.5005 29.3157C80.5196 -7.10525 31.4641 -7.10525 52.4997 29.3157C31.4806 -7.10525 6.95284 35.3777 48.991 35.3777C6.93636 35.3777 31.4641 77.8606 52.4997 41.4396C31.4806 77.8606 80.5361 77.8606 59.5005 41.4396C80.5196 77.8771 105.047 35.3777 63.0092 35.3777Z" fill="#5452FF"/>
<path d="M64.5717 20.5317C63.9634 21.1951 63.3546 21.9113 62.7468 22.6824C73.6309 -4.8891 38.3647 -4.89412 49.2445 22.6673L56.6046 69.7357M64.5717 20.5317C64.3013 21.3902 63.9856 22.2756 63.6218 23.1876C82.0625 -0.0346782 99.7035 30.5146 70.3836 34.8728C71.3548 35.0138 72.2788 35.1831 73.157 35.3783M64.5717 20.5317C66.1022 15.6707 66.1768 11.6692 65.2767 8.55154C63.8439 3.58916 59.9616 1 55.9939 1C52.0262 1 48.1447 3.5893 46.7141 8.55194C45.8162 11.6666 45.8917 15.6634 47.4201 20.518C43.9812 16.7689 40.5585 14.7063 37.4128 13.9271C32.4001 12.6856 28.2172 14.7529 26.2329 18.1887C24.7539 20.7496 24.5438 23.9885 26.0149 27.0129C23.9987 28.5443 22.586 30.83 22.1982 33.4484C18.3889 31.1493 13.3648 31.631 10.074 34.9227C6.95001 38.0475 6.34669 42.7184 8.26535 46.441C4.08205 47.5971 1 51.4365 1 55.9916C1 60.8839 4.54969 64.9522 9.21213 65.758C6.24531 69.6437 6.53794 75.2163 10.09 78.7693C13.467 82.1472 18.6999 82.5818 22.5409 80.0287C23.7966 84.0584 27.5559 86.9995 31.9999 86.9995C36.446 86.9995 40.2088 84.0675 41.4618 80.0237C45.3085 82.5667 50.5292 82.1508 53.9098 78.7693C56.3638 76.3147 57.2621 72.896 56.6046 69.7357M64.5717 20.5317C68.017 16.7738 71.446 14.7071 74.5968 13.9271C79.6112 12.6857 83.7952 14.7527 85.7796 18.1887C87.7641 21.6248 87.463 26.2812 83.8814 30.0023C81.6319 32.3393 78.1301 34.2742 73.157 35.3783M73.157 35.3783C72.2788 35.5733 71.3547 35.7424 70.3835 35.8832C99.6793 40.2436 82.0555 70.7872 63.633 47.5885C63.9965 48.5 64.3119 49.3849 64.5819 50.243M73.157 35.3783C78.126 36.4831 81.6249 38.4183 83.8725 40.7557C87.4519 44.4783 87.7515 49.136 85.7674 52.5727C83.7831 56.0095 79.6002 58.0775 74.5872 56.8351C71.4421 56.0556 68.0201 53.9925 64.5819 50.243M64.5819 50.243C63.9739 49.58 63.3654 48.8643 62.7579 48.0936C68.0921 61.6125 62.3226 68.4974 56.3455 68.7482C56.4491 69.0736 56.5355 69.4032 56.6046 69.7357M64.5819 50.243C66.1086 55.095 66.1836 59.09 65.2861 62.2034C63.9275 66.9162 60.3587 69.4886 56.6046 69.7357" stroke="black" stroke-width="2"/>
</svg>
