<svg xmlns="http://www.w3.org/2000/svg" width="30" height="30" viewBox="0 0 30 30" fill="none">
  <mask id="mask0_824_6740" style="mask-type:alpha" maskUnits="userSpaceOnUse" x="0" y="0" width="30" height="30">
    <rect width="30" height="30" fill="#D9D9D9"/>
  </mask>
  <g mask="url(#mask0_824_6740)">
    <path d="M7.01937 26.2504C6.44396 26.2504 5.96354 26.0576 5.57812 25.6722C5.19271 25.2868 5 24.8064 5 24.231V8.26973C5 7.69431 5.19271 7.21389 5.57812 6.82848C5.96354 6.44306 6.44396 6.25035 7.01937 6.25035H9.23063V3.46191H10.5769V6.25035H19.5194V3.46191H20.7694V6.25035H22.9806C23.556 6.25035 24.0365 6.44306 24.4219 6.82848C24.8073 7.21389 25 7.69431 25 8.26973V24.231C25 24.8064 24.8073 25.2868 24.4219 25.6722C24.0365 26.0576 23.556 26.2504 22.9806 26.2504H7.01937ZM7.01937 25.0004H22.9806C23.1731 25.0004 23.3495 24.9202 23.5097 24.76C23.6699 24.5998 23.75 24.4235 23.75 24.231V13.2697H6.25V24.231C6.25 24.4235 6.3301 24.5998 6.49031 24.76C6.65052 24.9202 6.82687 25.0004 7.01937 25.0004ZM6.25 12.0194H23.75V8.26973C23.75 8.07723 23.6699 7.90087 23.5097 7.74066C23.3495 7.58046 23.1731 7.50035 22.9806 7.50035H7.01937C6.82687 7.50035 6.65052 7.58046 6.49031 7.74066C6.3301 7.90087 6.25 8.07723 6.25 8.26973V12.0194ZM15 17.6925C14.7421 17.6925 14.5173 17.5968 14.3256 17.4054C14.1342 17.2139 14.0384 16.9891 14.0384 16.731C14.0384 16.4731 14.1342 16.2484 14.3256 16.0569C14.5173 15.8655 14.7421 15.7697 15 15.7697C15.2579 15.7697 15.4827 15.8655 15.6744 16.0569C15.8658 16.2484 15.9616 16.4731 15.9616 16.731C15.9616 16.9891 15.8658 17.2139 15.6744 17.4054C15.4827 17.5968 15.2579 17.6925 15 17.6925ZM10 17.6925C9.74208 17.6925 9.51729 17.5968 9.32563 17.4054C9.13417 17.2139 9.03844 16.9891 9.03844 16.731C9.03844 16.4731 9.13417 16.2484 9.32563 16.0569C9.51729 15.8655 9.74208 15.7697 10 15.7697C10.2579 15.7697 10.4827 15.8655 10.6744 16.0569C10.8658 16.2484 10.9616 16.4731 10.9616 16.731C10.9616 16.9891 10.8658 17.2139 10.6744 17.4054C10.4827 17.5968 10.2579 17.6925 10 17.6925ZM20 17.6925C19.7421 17.6925 19.5173 17.5968 19.3256 17.4054C19.1342 17.2139 19.0384 16.9891 19.0384 16.731C19.0384 16.4731 19.1342 16.2484 19.3256 16.0569C19.5173 15.8655 19.7421 15.7697 20 15.7697C20.2579 15.7697 20.4827 15.8655 20.6744 16.0569C20.8658 16.2484 20.9616 16.4731 20.9616 16.731C20.9616 16.9891 20.8658 17.2139 20.6744 17.4054C20.4827 17.5968 20.2579 17.6925 20 17.6925ZM15 22.5004C14.7421 22.5004 14.5173 22.4046 14.3256 22.2132C14.1342 22.0217 14.0384 21.7969 14.0384 21.5388C14.0384 21.2809 14.1342 21.0561 14.3256 20.8644C14.5173 20.673 14.7421 20.5772 15 20.5772C15.2579 20.5772 15.4827 20.673 15.6744 20.8644C15.8658 21.0561 15.9616 21.2809 15.9616 21.5388C15.9616 21.7969 15.8658 22.0217 15.6744 22.2132C15.4827 22.4046 15.2579 22.5004 15 22.5004ZM10 22.5004C9.74208 22.5004 9.51729 22.4046 9.32563 22.2132C9.13417 22.0217 9.03844 21.7969 9.03844 21.5388C9.03844 21.2809 9.13417 21.0561 9.32563 20.8644C9.51729 20.673 9.74208 20.5772 10 20.5772C10.2579 20.5772 10.4827 20.673 10.6744 20.8644C10.8658 21.0561 10.9616 21.2809 10.9616 21.5388C10.9616 21.7969 10.8658 22.0217 10.6744 22.2132C10.4827 22.4046 10.2579 22.5004 10 22.5004ZM20 22.5004C19.7421 22.5004 19.5173 22.4046 19.3256 22.2132C19.1342 22.0217 19.0384 21.7969 19.0384 21.5388C19.0384 21.2809 19.1342 21.0561 19.3256 20.8644C19.5173 20.673 19.7421 20.5772 20 20.5772C20.2579 20.5772 20.4827 20.673 20.6744 20.8644C20.8658 21.0561 20.9616 21.2809 20.9616 21.5388C20.9616 21.7969 20.8658 22.0217 20.6744 22.2132C20.4827 22.4046 20.2579 22.5004 20 22.5004Z" fill="#232323"/>
  </g>
</svg>