<svg xmlns="http://www.w3.org/2000/svg" width="13" height="16" viewBox="0 0 13 16" fill="none">
  <path d="M1.50011 16C1.08457 16 0.730631 15.8601 0.438286 15.5804C0.146095 15.3006 0 14.9618 0 14.564V6.76933C0 6.37156 0.146095 6.03274 0.438286 5.75289C0.730631 5.47319 1.08457 5.33333 1.50011 5.33333H2.78571V3.55556C2.78571 2.56519 3.14615 1.72504 3.86704 1.03511C4.58776 0.345037 5.46542 0 6.5 0C7.53458 0 8.41224 0.345037 9.13296 1.03511C9.85385 1.72504 10.2143 2.56519 10.2143 3.55556V5.33333H11.4999C11.9154 5.33333 12.2694 5.47319 12.5617 5.75289C12.8539 6.03274 13 6.37156 13 6.76933V14.564C13 14.9618 12.8539 15.3006 12.5617 15.5804C12.2694 15.8601 11.9154 16 11.4999 16H1.50011ZM1.50011 15.1111H11.4999C11.6666 15.1111 11.8035 15.0599 11.9108 14.9573C12.0179 14.8547 12.0714 14.7236 12.0714 14.564V6.76933C12.0714 6.60978 12.0179 6.47867 11.9108 6.376C11.8035 6.27348 11.6666 6.22222 11.4999 6.22222H1.50011C1.33343 6.22222 1.19646 6.27348 1.08921 6.376C0.982119 6.47867 0.928571 6.60978 0.928571 6.76933V14.564C0.928571 14.7236 0.982119 14.8547 1.08921 14.9573C1.19646 15.0599 1.33343 15.1111 1.50011 15.1111ZM6.5 12C6.8917 12 7.22173 11.8715 7.49009 11.6144C7.7586 11.3576 7.89286 11.0416 7.89286 10.6667C7.89286 10.2917 7.7586 9.97578 7.49009 9.71889C7.22173 9.46185 6.8917 9.33333 6.5 9.33333C6.1083 9.33333 5.77827 9.46185 5.50991 9.71889C5.2414 9.97578 5.10714 10.2917 5.10714 10.6667C5.10714 11.0416 5.2414 11.3576 5.50991 11.6144C5.77827 11.8715 6.1083 12 6.5 12ZM3.71429 5.33333H9.28571V3.55556C9.28571 2.81481 9.01488 2.18519 8.47322 1.66667C7.93155 1.14815 7.27381 0.888889 6.5 0.888889C5.72619 0.888889 5.06845 1.14815 4.52679 1.66667C3.98512 2.18519 3.71429 2.81481 3.71429 3.55556V5.33333Z" fill="#747474"/>
</svg>