<svg width="30" height="30" viewBox="0 0 30 30" fill="none" xmlns="http://www.w3.org/2000/svg">
<path d="M11.4613 30L10.8588 25.1796C10.3268 25.0193 9.75153 24.7671 9.13292 24.4229C8.51431 24.079 7.98819 23.7106 7.55458 23.3175L3.10875 25.2083L0 19.7917L3.84292 16.8942C3.79375 16.5931 3.75319 16.2828 3.72125 15.9633C3.68903 15.6439 3.67292 15.3335 3.67292 15.0321C3.67292 14.7521 3.68903 14.4578 3.72125 14.1492C3.75319 13.8403 3.79375 13.4925 3.84292 13.1058L0 10.2083L3.10875 4.85583L7.5225 6.71458C8.02028 6.30014 8.55875 5.92625 9.13792 5.59292C9.71681 5.25958 10.2797 5.00208 10.8267 4.82042L11.4613 0H17.6796L18.2821 4.8525C18.921 5.07695 19.4856 5.33444 19.9758 5.625C20.4661 5.91556 20.971 6.27875 21.4904 6.71458L26.0321 4.85583L29.1408 10.2083L25.1696 13.2021C25.2615 13.546 25.3129 13.8617 25.3238 14.1492C25.3343 14.4364 25.3396 14.72 25.3396 15C25.3396 15.2586 25.3289 15.5315 25.3075 15.8187C25.2861 16.1062 25.2369 16.454 25.16 16.8621L29.0671 19.7917L25.9583 25.2083L21.4904 23.2854C20.971 23.7212 20.4485 24.0951 19.9229 24.4071C19.3974 24.719 18.8504 24.9658 18.2821 25.1475L17.6796 30H11.4613ZM12.9037 28.3333H16.1633L16.7787 23.8204C17.6185 23.5982 18.3743 23.2932 19.0462 22.9054C19.7185 22.5176 20.4028 21.9861 21.0992 21.3108L25.2563 23.0833L26.9133 20.25L23.2658 17.5096C23.4047 17.0351 23.4967 16.5987 23.5417 16.2004C23.5864 15.8018 23.6087 15.4017 23.6087 15C23.6087 14.5769 23.5864 14.1768 23.5417 13.7996C23.4967 13.4226 23.4047 13.0076 23.2658 12.5546L26.9775 9.75L25.3204 6.91667L21.0671 8.69875C20.5629 8.14542 19.9 7.62667 19.0783 7.1425C18.2569 6.65861 17.4797 6.33764 16.7467 6.17958L16.2371 1.66667H12.9133L12.3942 6.1475C11.5544 6.32694 10.7825 6.61597 10.0783 7.01458C9.37444 7.41292 8.67417 7.96042 7.9775 8.65708L3.82042 6.91667L2.16333 9.75L5.77875 12.4488C5.63986 12.8226 5.54264 13.2286 5.48708 13.6667C5.43153 14.1047 5.40375 14.5599 5.40375 15.0321C5.40375 15.4551 5.43153 15.875 5.48708 16.2917C5.54264 16.7083 5.62917 17.1143 5.74667 17.5096L2.16333 20.25L3.82042 23.0833L7.94542 21.3333C8.59931 21.9936 9.27819 22.5231 9.98208 22.9217C10.6862 23.32 11.4796 23.6303 12.3621 23.8525L12.9037 28.3333ZM14.5254 19.1667C15.6879 19.1667 16.6731 18.7628 17.4808 17.955C18.2883 17.1475 18.6921 16.1625 18.6921 15C18.6921 13.8375 18.2883 12.8525 17.4808 12.045C16.6731 11.2372 15.6879 10.8333 14.5254 10.8333C13.3568 10.8333 12.3701 11.2372 11.5654 12.045C10.761 12.8525 10.3588 13.8375 10.3588 15C10.3588 16.1625 10.761 17.1475 11.5654 17.955C12.3701 18.7628 13.3568 19.1667 14.5254 19.1667Z" fill="#747474"/>
</svg>
