<svg width="24" height="24" viewBox="0 0 24 24" fill="none" xmlns="http://www.w3.org/2000/svg">
<mask id="mask0_1570_2505" style="mask-type:alpha" maskUnits="userSpaceOnUse" x="0" y="0" width="24" height="24">
<rect width="24" height="24" fill="#D9D9D9"/>
</mask>
<g mask="url(#mask0_1570_2505)">
<path d="M10.425 15.9462L17.6208 8.75044L16.8246 7.95422L10.425 14.3538L7.21875 11.1475L6.42253 11.9438L10.425 15.9462ZM4.81744 21C4.29956 21 3.86719 20.8266 3.52031 20.4797C3.17344 20.1328 3 19.7004 3 19.1826V4.81744C3 4.29956 3.17344 3.86719 3.52031 3.52031C3.86719 3.17344 4.29956 3 4.81744 3H19.1826C19.7004 3 20.1328 3.17344 20.4797 3.52031C20.8266 3.86719 21 4.29956 21 4.81744V19.1826C21 19.7004 20.8266 20.1328 20.4797 20.4797C20.1328 20.8266 19.7004 21 19.1826 21H4.81744Z" fill="#232323"/>
</g>
</svg>
