<svg width="44" height="44" viewBox="0 0 44 44" fill="none" xmlns="http://www.w3.org/2000/svg">
<path d="M31.052 17.8941C51.078 17.8941 39.3981 -2.33583 29.3812 15.0075C39.3903 -2.33583 16.0305 -2.33583 26.0475 15.0075C16.0384 -2.33583 4.35849 17.8941 24.3767 17.8941C4.35065 17.8941 16.0305 38.1241 26.0475 20.7808C16.0384 38.1241 39.3981 38.1241 29.3812 20.7808C39.3903 38.1319 51.0702 17.8941 31.052 17.8941Z" fill="#232323"/>
<path d="M23.0774 5.05798C22.6902 6.4011 22.6741 8.06059 23.1707 10.025C21.7182 8.6136 20.2735 7.7983 18.9171 7.46235C16.4373 6.84818 14.3425 7.87095 13.3457 9.59698C12.6293 10.8374 12.5109 12.3875 13.1582 13.8447C12.308 14.5408 11.6937 15.5146 11.454 16.6271C9.59364 15.6637 7.24878 15.9565 5.6865 17.5192C4.19485 19.0113 3.85538 21.2103 4.66888 23.0246C2.7131 23.6817 1.3 25.5317 1.3 27.7103C1.3 30.0295 2.8993 31.9775 5.05451 32.5099C3.79426 34.4278 4.00746 37.028 5.6941 38.7151C7.30798 40.3294 9.77206 40.5963 11.6613 39.495C12.3659 41.3638 14.1698 42.6998 16.2857 42.6998C18.4027 42.6998 20.2086 41.3673 20.9121 39.4923C22.8026 40.5893 25.2611 40.3316 26.8772 38.7151C28.0378 37.5542 28.5007 35.9609 28.266 34.4552C30.0565 34.2383 31.7088 32.9589 32.3513 30.7303C32.7383 29.3878 32.7545 27.7292 32.2587 25.766C33.7109 27.1776 35.1553 27.9931 36.5115 28.3292C38.9914 28.9438 41.0863 27.9207 42.083 26.1941C43.0798 24.4677 42.9189 22.1415 41.1482 20.3C40.179 19.292 38.7499 18.4474 36.8001 17.8946C38.7518 17.3421 40.1822 16.4975 41.1524 15.4896C42.9242 13.6489 43.0858 11.3232 42.0889 9.59698C41.092 7.87082 38.9966 6.84825 36.5161 7.46233C35.1572 7.79874 33.7096 8.61586 32.2541 10.031C32.7514 8.06382 32.735 6.40222 32.3468 5.0577C31.638 2.60295 29.7046 1.3 27.7114 1.3C25.7181 1.3 23.7851 2.60305 23.0774 5.05798Z" stroke="#232323" stroke-width="1.4"/>
</svg>
