<svg width="40" height="40" viewBox="0 0 40 40" fill="none" xmlns="http://www.w3.org/2000/svg">
<g id="person_search">
<mask id="mask0_824_14480" style="mask-type:alpha" maskUnits="userSpaceOnUse" x="0" y="0" width="40" height="40">
<rect id="Bounding box" width="40" height="40" fill="#D9D9D9"/>
</mask>
<g mask="url(#mask0_824_14480)">
<path id="person_search_2" d="M18.3334 17.293C16.9584 17.293 15.7813 16.8043 14.8022 15.827C13.823 14.8496 13.3334 13.6747 13.3334 12.3023C13.3334 10.9298 13.823 9.75491 14.8022 8.77755C15.7813 7.8002 16.9584 7.31152 18.3334 7.31152C19.7084 7.31152 20.8855 7.8002 21.8647 8.77755C22.8438 9.75491 23.3334 10.9298 23.3334 12.3023C23.3334 13.6747 22.8438 14.8496 21.8647 15.827C20.8855 16.8043 19.7084 17.293 18.3334 17.293ZM18.3334 15.6294C19.2501 15.6294 20.0348 15.3036 20.6876 14.6521C21.3404 14.0005 21.6667 13.2172 21.6667 12.3023C21.6667 11.3873 21.3404 10.604 20.6876 9.95246C20.0348 9.30089 19.2501 8.9751 18.3334 8.9751C17.4167 8.9751 16.632 9.30089 15.9792 9.95246C15.3265 10.604 15.0001 11.3873 15.0001 12.3023C15.0001 13.2172 15.3265 14.0005 15.9792 14.6521C16.632 15.3036 17.4167 15.6294 18.3334 15.6294ZM35.3592 34.8246L30.923 30.397C30.3824 30.7724 29.8216 31.0497 29.2405 31.2288C28.6594 31.4079 28.0815 31.4975 27.5067 31.4975C25.9104 31.4975 24.5592 30.9431 23.4534 29.8343C22.3479 28.7258 21.7951 27.3796 21.7951 25.7956C21.7951 24.2116 22.3505 22.8677 23.4613 21.7639C24.5719 20.6604 25.9206 20.1086 27.5076 20.1086C29.0945 20.1086 30.4409 20.6622 31.5467 21.7693C32.6523 22.8767 33.2051 24.2213 33.2051 25.8031C33.2051 26.3811 33.1154 26.9602 32.9359 27.5402C32.7565 28.1203 32.4787 28.6801 32.1026 29.2196L36.5384 33.6477L35.3592 34.8246ZM27.5001 29.8339C28.6454 29.8339 29.6048 29.448 30.3784 28.6761C31.1517 27.9039 31.5384 26.9462 31.5384 25.8031C31.5384 24.6599 31.1517 23.7022 30.3784 22.93C29.6048 22.1581 28.6454 21.7722 27.5001 21.7722C26.3548 21.7722 25.3954 22.1581 24.6217 22.93C23.8484 23.7022 23.4618 24.6599 23.4618 25.8031C23.4618 26.9462 23.8484 27.9039 24.6217 28.6761C25.3954 29.448 26.3548 29.8339 27.5001 29.8339ZM6.66675 29.3224V26.5933C6.66675 25.8851 6.8655 25.241 7.263 24.661C7.6605 24.081 8.20105 23.6149 8.88466 23.2628C10.0877 22.67 11.6476 22.1134 13.5642 21.5929C15.4809 21.0725 17.5547 20.8976 19.7855 21.0681C19.623 21.3539 19.4773 21.6284 19.3484 21.8916C19.2198 22.1544 19.1176 22.4271 19.0417 22.7096C17.0545 22.6134 15.2159 22.8122 13.5259 23.306C11.8356 23.7998 10.5567 24.2717 9.68925 24.7217C9.26175 24.9244 8.92897 25.1911 8.69091 25.5219C8.45258 25.853 8.33341 26.2101 8.33341 26.5933V27.6588H18.6572C18.7105 27.9274 18.7858 28.2057 18.883 28.4935C18.9802 28.7816 19.0887 29.0578 19.2084 29.3224H6.66675Z" fill="#232323"/>
</g>
</g>
</svg>
