<svg width="512" height="310" viewBox="0 0 512 310" fill="none" xmlns="http://www.w3.org/2000/svg">
<path d="M115.07 197.164C97.7271 232.107 95.1704 258.94 100.567 277.631C106.691 298.841 123.047 309.5 139.444 309.5C155.841 309.5 172.192 298.841 178.307 277.631C183.69 258.958 181.131 232.159 163.818 197.266C185.376 229.715 207.303 245.334 226.164 250.009C247.587 255.318 264.994 246.483 273.195 232.279C281.395 218.074 280.348 198.575 265.049 182.665C251.573 168.65 227.079 157.452 188.185 155C227.099 152.55 251.607 141.356 265.092 127.346C280.4 111.442 281.453 91.9496 273.252 77.7499C265.051 63.5503 247.639 54.7173 226.206 60.0234C207.319 64.6993 185.355 80.3366 163.761 112.837C181.104 77.8932 183.66 51.0597 178.264 32.3691C172.14 11.159 155.784 0.500003 139.387 0.500003C122.99 0.500003 106.638 11.1591 100.524 32.3693C95.14 51.046 97.7011 77.8535 115.025 112.759C93.4628 80.3117 71.5314 64.6957 52.6672 60.0234C31.2435 54.7173 13.8369 63.5504 5.63608 77.7499C-2.56468 91.9495 -1.51693 111.442 13.7816 127.346C27.2575 141.355 51.7507 152.549 90.6446 155C51.7312 157.45 27.224 168.644 13.739 182.654C-1.5691 198.558 -2.62176 218.05 5.57908 232.25C13.7799 246.45 31.1913 255.283 52.6244 249.977C71.512 245.301 93.4754 229.663 115.07 197.164Z" fill="#1DDFEC" stroke="#232323"/>
<path d="M230.07 197.164C212.727 232.107 210.17 258.94 215.567 277.631C221.691 298.841 238.047 309.5 254.444 309.5C270.841 309.5 287.192 298.841 293.307 277.631C298.69 258.958 296.131 232.159 278.818 197.266C300.376 229.715 322.303 245.334 341.164 250.009C362.587 255.318 379.994 246.483 388.195 232.279C396.395 218.074 395.348 198.575 380.049 182.665C366.573 168.65 342.079 157.452 303.185 155C342.099 152.55 366.607 141.356 380.092 127.346C395.4 111.442 396.453 91.9496 388.252 77.7499C380.051 63.5503 362.639 54.7173 341.206 60.0234C322.319 64.6993 300.355 80.3366 278.761 112.837C296.104 77.8932 298.66 51.0597 293.264 32.3691C287.14 11.159 270.784 0.500003 254.387 0.500003C237.99 0.500003 221.638 11.1591 215.524 32.3693C210.14 51.046 212.701 77.8535 230.025 112.759C208.463 80.3117 186.531 64.6957 167.667 60.0234C146.243 54.7173 128.837 63.5504 120.636 77.7499C112.435 91.9495 113.483 111.442 128.782 127.346C142.257 141.355 166.751 152.549 205.645 155C166.731 157.45 142.224 168.644 128.739 182.654C113.431 198.558 112.378 218.05 120.579 232.25C128.78 246.45 146.191 255.283 167.624 249.977C186.512 245.301 208.475 229.663 230.07 197.164Z" fill="#21BFC9" stroke="#232323"/>
<path d="M348.07 197.164C330.727 232.107 328.17 258.94 333.567 277.631C339.691 298.841 356.047 309.5 372.444 309.5C388.841 309.5 405.192 298.841 411.307 277.631C416.69 258.958 414.131 232.159 396.818 197.266C418.376 229.715 440.303 245.334 459.164 250.009C480.587 255.318 497.994 246.483 506.195 232.279C514.395 218.074 513.348 198.575 498.049 182.665C484.573 168.65 460.079 157.452 421.185 155C460.099 152.55 484.607 141.356 498.092 127.346C513.4 111.442 514.453 91.9496 506.252 77.7499C498.051 63.5503 480.639 54.7173 459.206 60.0234C440.319 64.6993 418.355 80.3366 396.761 112.837C414.104 77.8932 416.66 51.0597 411.264 32.3691C405.14 11.159 388.784 0.500003 372.387 0.500003C355.99 0.500003 339.638 11.1591 333.524 32.3693C328.14 51.046 330.701 77.8535 348.025 112.759C326.463 80.3117 304.531 64.6957 285.667 60.0234C264.243 54.7173 246.837 63.5504 238.636 77.7499C230.435 91.9495 231.483 111.442 246.782 127.346C260.257 141.355 284.751 152.549 323.645 155C284.731 157.45 260.224 168.644 246.739 182.654C231.431 198.558 230.378 218.05 238.579 232.25C246.78 246.45 264.191 255.283 285.624 249.977C304.512 245.301 326.475 229.663 348.07 197.164Z" fill="#00B1B1" stroke="#232323"/>
</svg>
