<svg width="543" height="311" viewBox="0 0 543 311" fill="none" xmlns="http://www.w3.org/2000/svg">
<path d="M254.745 136.751L254.745 136.75L304.005 55.6837C304.005 55.6836 304.005 55.6836 304.005 55.6835C323.68 23.341 286.666 -13.6727 254.324 6.00231L173.258 55.2618C161.988 62.0766 147.923 62.0755 136.743 55.2627L136.743 55.2623L55.6764 6.00231C23.3338 -13.6728 -13.6801 23.3411 5.99499 55.6837L55.2544 136.749C62.0692 148.02 62.0682 162.084 55.2553 173.264L55.255 173.265L5.99499 254.331C-13.68 286.673 23.3336 323.687 55.6762 304.012C55.6762 304.012 55.6763 304.012 55.6764 304.012L136.742 254.753C148.012 247.938 162.077 247.939 173.257 254.752L173.257 254.752L254.324 304.012C254.324 304.012 254.324 304.012 254.324 304.012C286.666 323.687 323.68 286.674 304.005 254.331C304.005 254.331 304.005 254.331 304.005 254.331L254.746 173.265C247.931 161.995 247.932 147.931 254.745 136.751Z" fill="#FAFF77" stroke="#232323"/>
<path d="M369.745 136.751L369.745 136.75L419.005 55.6837C419.005 55.6836 419.005 55.6836 419.005 55.6835C438.68 23.341 401.666 -13.6727 369.324 6.00231L288.258 55.2618C276.988 62.0766 262.923 62.0755 251.743 55.2627L251.743 55.2623L170.676 6.00231C138.334 -13.6728 101.32 23.3411 120.995 55.6837L170.254 136.749C177.069 148.02 177.068 162.084 170.255 173.264L170.255 173.265L120.995 254.331C101.32 286.673 138.334 323.687 170.676 304.012C170.676 304.012 170.676 304.012 170.676 304.012L251.742 254.753C263.012 247.938 277.077 247.939 288.257 254.752L288.257 254.752L369.324 304.012C369.324 304.012 369.324 304.012 369.324 304.012C401.666 323.687 438.68 286.674 419.005 254.331C419.005 254.331 419.005 254.331 419.005 254.331L369.746 173.265C362.931 161.995 362.932 147.931 369.745 136.751Z" fill="#FEE92B" stroke="#232323"/>
<path d="M487.745 136.751L487.745 136.75L537.005 55.6837C537.005 55.6836 537.005 55.6836 537.005 55.6835C556.68 23.341 519.666 -13.6727 487.324 6.00231L406.258 55.2618C394.988 62.0766 380.923 62.0755 369.743 55.2627L369.743 55.2623L288.676 6.00231C256.334 -13.6728 219.32 23.3411 238.995 55.6837L288.254 136.749C295.069 148.02 295.068 162.084 288.255 173.264L288.255 173.265L238.995 254.331C219.32 286.673 256.334 323.687 288.676 304.012C288.676 304.012 288.676 304.012 288.676 304.012L369.742 254.753C381.012 247.938 395.077 247.939 406.257 254.752L406.257 254.752L487.324 304.012C487.324 304.012 487.324 304.012 487.324 304.012C519.666 323.687 556.68 286.674 537.005 254.331C537.005 254.331 537.005 254.331 537.005 254.331L487.746 173.265C480.931 161.995 480.932 147.931 487.745 136.751Z" fill="#FFCF32" stroke="#232323"/>
</svg>
