<svg width="543" height="311" viewBox="0 0 543 311" fill="none" xmlns="http://www.w3.org/2000/svg">
<path d="M78.7236 140.157C58.1251 130.081 41.1342 120.817 29.487 113.314C23.5067 109.461 18.9149 106.06 15.9659 103.241C14.4934 101.834 13.4072 100.55 12.7671 99.4077C12.1326 98.2759 11.8851 97.1876 12.2775 96.2443C12.669 95.293 13.6123 94.6904 14.8633 94.3324C16.1243 93.9716 17.7999 93.8276 19.8351 93.8708C23.9112 93.9571 29.5581 94.7982 36.5079 96.3035C50.0451 99.2356 68.6159 104.708 90.3533 112.142C75.158 94.9141 63.0003 79.8418 55.1086 68.4516C51.0571 62.604 48.1162 57.7072 46.469 53.9772C45.6466 52.1148 45.1335 50.5144 44.9775 49.2156C44.8229 47.9282 45.0084 46.8286 45.7296 46.1074C46.4508 45.3862 47.5504 45.2007 48.8378 45.3553C50.1366 45.5113 51.737 46.0244 53.5994 46.8468C57.3294 48.494 62.2262 51.4349 68.0738 55.4864C79.4637 63.3778 94.5354 75.5351 111.763 90.7298C104.33 69.0315 98.8781 50.4621 95.9562 36.9159C94.456 29.9609 93.6176 24.3068 93.5274 20.2249C93.4823 18.1868 93.6227 16.509 93.9774 15.2468C94.329 13.9955 94.9226 13.0486 95.8654 12.6558C96.8084 12.2629 97.8957 12.5085 99.0263 13.1414C100.166 13.7795 101.448 14.8629 102.852 16.3322C105.665 19.275 109.058 23.8592 112.905 29.8344C120.399 41.4728 129.664 58.4658 139.779 79.1047C141.203 56.2047 143.259 36.9562 145.734 23.3205C147.005 16.3197 148.389 10.7748 149.865 6.96996C150.602 5.0702 151.373 3.57452 152.183 2.54499C152.986 1.52434 153.897 0.877808 154.918 0.877808C155.94 0.877808 156.851 1.52436 157.654 2.54518C158.464 3.57488 159.235 5.07089 159.972 6.97129C161.447 10.7774 162.832 16.3248 164.103 23.3308C166.578 36.9769 168.634 56.2461 170.058 79.1859C180.174 58.546 189.459 41.5332 196.973 29.8749C200.83 23.8896 204.234 19.2952 207.054 16.3449C208.462 14.8719 209.746 13.7854 210.888 13.145C212.02 12.5105 213.109 12.2629 214.052 12.6553C214.052 12.6555 214.053 12.6557 214.053 12.6558L213.861 13.1174C219.77 15.5457 212.659 46.9064 197.396 91.4L78.7236 140.157ZM78.7236 140.157C55.7861 141.581 36.5378 143.637 22.9121 146.112C15.9163 147.382 10.379 148.767 6.58042 150.243C4.68379 150.98 3.19092 151.751 2.16343 152.561C1.14464 153.364 0.5 154.275 0.5 155.296C0.5 156.318 1.14655 157.229 2.16737 158.032C3.19707 158.842 4.69308 159.613 6.59348 160.349C10.3996 161.825 15.947 163.21 22.953 164.481C36.5991 166.956 55.8683 169.012 78.8081 170.436C58.1682 180.552 41.1554 189.837 29.4971 197.35C23.5118 201.208 18.9174 204.611 15.9671 207.432C14.4941 208.84 13.4076 210.124 12.7672 211.266C12.1324 212.399 11.8849 213.487 12.278 214.431C12.6707 215.373 13.6159 215.967 14.8654 216.319C16.1257 216.674 17.8007 216.814 19.8356 216.769C23.9112 216.679 29.5577 215.84 36.5076 214.34C50.0448 211.418 68.6156 205.965 90.3533 198.532C75.1581 215.76 63.0003 230.832 55.1086 242.222C51.0571 248.07 48.1162 252.967 46.469 256.697C45.6466 258.559 45.1335 260.16 44.9775 261.458C44.8229 262.746 45.0084 263.845 45.7296 264.567C46.4508 265.288 47.5504 265.473 48.838 265.319C50.1369 265.163 51.7376 264.65 53.6006 263.827C57.3319 262.18 62.2311 259.239 68.0838 255.188C79.485 247.295 94.5786 235.136 111.847 219.939C104.412 241.679 98.9392 260.271 95.9971 273.829C94.4867 280.789 93.6381 286.445 93.5401 290.529C93.4912 292.567 93.6283 294.245 93.9806 295.508C94.3299 296.759 94.9222 297.707 95.8654 298.1C96.8089 298.493 97.8977 298.245 99.0299 297.611C100.172 296.971 101.456 295.884 102.863 294.412C105.682 291.463 109.083 286.871 112.936 280.891C120.439 269.244 129.703 252.253 139.779 231.654C141.203 254.592 143.259 273.84 145.734 287.466C147.005 294.461 148.39 299.999 149.865 303.797C150.602 305.694 151.373 307.187 152.183 308.214C152.986 309.233 153.897 309.878 154.918 309.878C155.94 309.878 156.851 309.231 157.654 308.211C158.464 307.181 159.235 305.685 159.972 303.786C161.447 299.981 162.832 294.436 164.103 287.435C166.578 273.799 168.634 254.551 170.058 231.651C180.173 252.291 189.438 269.304 196.942 280.962C200.794 286.947 204.195 291.542 207.02 294.492C208.43 295.966 209.718 297.052 210.866 297.693C212.005 298.328 213.099 298.573 214.051 298.182L214.053 298.181C214.996 297.789 215.589 296.842 215.941 295.59C216.296 294.328 216.436 292.65 216.391 290.612C216.301 286.53 215.462 280.876 213.962 273.921C211.04 260.375 205.588 241.806 198.155 220.107C215.383 235.302 230.455 247.459 241.845 255.351C247.692 259.402 252.589 262.343 256.319 263.99C258.181 264.813 259.782 265.326 261.081 265.482C262.368 265.636 263.468 265.451 264.189 264.73C264.91 264.009 265.096 262.909 264.941 261.622C264.785 260.323 264.272 258.722 263.449 256.86C261.802 253.13 258.861 248.233 254.81 242.386C246.918 230.995 234.76 215.923 219.565 198.695C241.303 206.129 259.873 211.602 273.411 214.534C280.36 216.039 286.007 216.88 290.083 216.966C292.118 217.009 293.794 216.866 295.055 216.505C296.306 216.147 297.249 215.545 297.64 214.594C298.034 213.65 297.786 212.562 297.151 211.429C296.511 210.287 295.424 209.003 293.951 207.595C291.001 204.775 286.407 201.371 280.421 197.513C268.761 189.998 251.744 180.711 231.099 170.593C254.084 169.092 273.379 166.996 287.037 164.501C294.048 163.22 299.598 161.83 303.405 160.352C305.306 159.614 306.803 158.843 307.833 158.032C308.853 157.229 309.5 156.318 309.5 155.296C309.5 154.274 308.853 153.364 307.833 152.561C306.803 151.751 305.308 150.98 303.408 150.243C299.603 148.767 294.058 147.382 287.057 146.112C273.422 143.637 254.173 141.581 231.273 140.157C251.912 130.042 268.905 120.777 280.543 113.283C286.519 109.436 291.103 106.042 294.046 103.23C295.515 101.825 296.598 100.544 297.236 99.4041C297.869 98.2735 298.115 97.1862 297.722 96.2432C297.329 95.3004 296.382 94.7068 295.131 94.3553C293.868 94.0008 292.19 93.8607 290.152 93.9064C286.068 93.9979 280.412 94.8389 273.451 96.3442C259.895 99.2761 241.306 104.748 219.569 112.219C234.763 94.993 246.919 79.9221 254.81 68.5228C258.862 62.67 261.802 57.7655 263.45 54.0238C264.272 52.1555 264.785 50.5485 264.941 49.2422C265.096 47.9467 264.91 46.8411 264.192 46.1106L264.189 46.1074C263.468 45.3862 262.368 45.2007 261.081 45.3553C259.782 45.5113 258.181 46.0244 256.319 46.8468C252.589 48.494 247.692 51.4349 241.845 55.4864C230.454 63.3781 215.382 75.5358 198.154 90.7311L78.7236 140.157Z" fill="#7D8FFF" stroke="#232323"/>
<path d="M193.724 140.157C173.125 130.081 156.134 120.817 144.487 113.314C138.507 109.461 133.915 106.06 130.966 103.241C129.493 101.834 128.407 100.55 127.767 99.4077C127.133 98.2759 126.885 97.1876 127.278 96.2443C127.669 95.293 128.612 94.6904 129.863 94.3324C131.124 93.9716 132.8 93.8276 134.835 93.8708C138.911 93.9571 144.558 94.7982 151.508 96.3035C165.045 99.2356 183.616 104.708 205.353 112.142C190.158 94.9141 178 79.8418 170.109 68.4516C166.057 62.604 163.116 57.7072 161.469 53.9772C160.647 52.1148 160.133 50.5144 159.977 49.2156C159.823 47.9282 160.008 46.8286 160.73 46.1074C161.451 45.3862 162.55 45.2007 163.838 45.3553C165.137 45.5113 166.737 46.0244 168.599 46.8468C172.329 48.494 177.226 51.4349 183.074 55.4864C194.464 63.3778 209.535 75.5351 226.763 90.7298C219.33 69.0315 213.878 50.4621 210.956 36.9159C209.456 29.9609 208.618 24.3068 208.527 20.2249C208.482 18.1868 208.623 16.509 208.977 15.2468C209.329 13.9955 209.923 13.0486 210.865 12.6558C211.808 12.2629 212.896 12.5085 214.026 13.1414C215.166 13.7795 216.448 14.8629 217.852 16.3322C220.665 19.275 224.058 23.8592 227.905 29.8344C235.399 41.4728 244.664 58.4658 254.779 79.1047C256.203 56.2047 258.259 36.9562 260.734 23.3205C262.005 16.3197 263.389 10.7748 264.865 6.96996C265.602 5.0702 266.373 3.57452 267.183 2.54499C267.986 1.52434 268.897 0.877808 269.918 0.877808C270.94 0.877808 271.851 1.52436 272.654 2.54518C273.464 3.57488 274.235 5.07089 274.972 6.97129C276.447 10.7774 277.832 16.3248 279.103 23.3308C281.578 36.9769 283.634 56.2461 285.058 79.1859C295.174 58.546 304.459 41.5332 311.973 29.8749C315.83 23.8896 319.234 19.2952 322.054 16.3449C323.462 14.8719 324.746 13.7854 325.888 13.145C327.02 12.5105 328.109 12.2629 329.052 12.6553C329.052 12.6555 329.053 12.6557 329.053 12.6558L328.861 13.1174C334.77 15.5457 327.659 46.9064 312.396 91.4L193.724 140.157ZM193.724 140.157C170.786 141.581 151.538 143.637 137.912 146.112C130.916 147.382 125.379 148.767 121.58 150.243C119.684 150.98 118.191 151.751 117.163 152.561C116.145 153.364 115.5 154.275 115.5 155.296C115.5 156.318 116.147 157.229 117.167 158.032C118.197 158.842 119.693 159.613 121.593 160.349C125.4 161.825 130.947 163.21 137.953 164.481C151.599 166.956 170.868 169.012 193.808 170.436C173.168 180.552 156.155 189.837 144.497 197.35C138.512 201.208 133.917 204.611 130.967 207.432C129.494 208.84 128.408 210.124 127.767 211.266C127.132 212.399 126.885 213.487 127.278 214.431C127.671 215.373 128.616 215.967 129.865 216.319C131.126 216.674 132.801 216.814 134.836 216.769C138.911 216.679 144.558 215.84 151.508 214.34C165.045 211.418 183.616 205.965 205.353 198.532C190.158 215.76 178 230.832 170.109 242.222C166.057 248.07 163.116 252.967 161.469 256.697C160.647 258.559 160.133 260.16 159.977 261.458C159.823 262.746 160.008 263.845 160.73 264.567C161.451 265.288 162.55 265.473 163.838 265.319C165.137 265.163 166.738 264.65 168.601 263.827C172.332 262.18 177.231 259.239 183.084 255.188C194.485 247.295 209.579 235.136 226.847 219.939C219.412 241.679 213.939 260.271 210.997 273.829C209.487 280.789 208.638 286.445 208.54 290.529C208.491 292.567 208.628 294.245 208.981 295.508C209.33 296.759 209.922 297.707 210.865 298.1C211.809 298.493 212.898 298.245 214.03 297.611C215.172 296.971 216.456 295.884 217.863 294.412C220.682 291.463 224.083 286.871 227.936 280.891C235.439 269.244 244.703 252.253 254.779 231.654C256.203 254.592 258.259 273.84 260.734 287.466C262.005 294.461 263.39 299.999 264.865 303.797C265.602 305.694 266.373 307.187 267.183 308.214C267.986 309.233 268.897 309.878 269.918 309.878C270.94 309.878 271.851 309.231 272.654 308.211C273.464 307.181 274.235 305.685 274.972 303.786C276.447 299.981 277.832 294.436 279.103 287.435C281.578 273.799 283.634 254.551 285.058 231.651C295.173 252.291 304.438 269.304 311.942 280.962C315.794 286.947 319.195 291.542 322.02 294.492C323.43 295.966 324.718 297.052 325.866 297.693C327.005 298.328 328.099 298.573 329.051 298.182L329.053 298.181C329.996 297.789 330.589 296.842 330.941 295.59C331.296 294.328 331.436 292.65 331.391 290.612C331.301 286.53 330.462 280.876 328.962 273.921C326.04 260.375 320.588 241.806 313.155 220.107C330.383 235.302 345.455 247.459 356.845 255.351C362.692 259.402 367.589 262.343 371.319 263.99C373.181 264.813 374.782 265.326 376.081 265.482C377.368 265.636 378.468 265.451 379.189 264.73C379.91 264.009 380.096 262.909 379.941 261.622C379.785 260.323 379.272 258.722 378.449 256.86C376.802 253.13 373.861 248.233 369.81 242.386C361.918 230.995 349.76 215.923 334.565 198.695C356.303 206.129 374.873 211.602 388.411 214.534C395.36 216.039 401.007 216.88 405.083 216.966C407.118 217.009 408.794 216.866 410.055 216.505C411.306 216.147 412.249 215.545 412.64 214.594C413.034 213.65 412.786 212.562 412.151 211.429C411.511 210.287 410.424 209.003 408.951 207.595C406.001 204.775 401.407 201.371 395.421 197.513C383.761 189.998 366.744 180.711 346.099 170.593C369.084 169.092 388.379 166.996 402.037 164.501C409.048 163.22 414.598 161.83 418.405 160.352C420.306 159.614 421.803 158.843 422.833 158.032C423.853 157.229 424.5 156.318 424.5 155.296C424.5 154.274 423.853 153.364 422.833 152.561C421.803 151.751 420.308 150.98 418.408 150.243C414.603 148.767 409.058 147.382 402.057 146.112C388.422 143.637 369.173 141.581 346.273 140.157C366.912 130.042 383.905 120.777 395.543 113.283C401.519 109.436 406.103 106.042 409.046 103.23C410.515 101.825 411.598 100.544 412.236 99.4041C412.869 98.2735 413.115 97.1862 412.722 96.2432C412.329 95.3004 411.382 94.7068 410.131 94.3553C408.868 94.0008 407.19 93.8607 405.152 93.9064C401.068 93.9979 395.412 94.8389 388.451 96.3442C374.895 99.2761 356.306 104.748 334.569 112.219C349.763 94.993 361.919 79.9221 369.81 68.5228C373.862 62.67 376.802 57.7655 378.45 54.0238C379.272 52.1555 379.785 50.5485 379.941 49.2422C380.096 47.9467 379.91 46.8411 379.192 46.1106L379.189 46.1074C378.468 45.3862 377.368 45.2007 376.081 45.3553C374.782 45.5113 373.181 46.0244 371.319 46.8468C367.589 48.494 362.692 51.4349 356.845 55.4864C345.454 63.3781 330.382 75.5358 313.154 90.7311L193.724 140.157Z" fill="#5452FF" stroke="#232323"/>
<path d="M311.724 140.157C291.125 130.081 274.134 120.817 262.487 113.314C256.507 109.461 251.915 106.06 248.966 103.241C247.493 101.834 246.407 100.55 245.767 99.4077C245.133 98.2759 244.885 97.1876 245.278 96.2443C245.669 95.293 246.612 94.6904 247.863 94.3324C249.124 93.9716 250.8 93.8276 252.835 93.8708C256.911 93.9571 262.558 94.7982 269.508 96.3035C283.045 99.2356 301.616 104.708 323.353 112.142C308.158 94.9141 296 79.8418 288.109 68.4516C284.057 62.604 281.116 57.7072 279.469 53.9772C278.647 52.1148 278.133 50.5144 277.977 49.2156C277.823 47.9282 278.008 46.8286 278.73 46.1074C279.451 45.3862 280.55 45.2007 281.838 45.3553C283.137 45.5113 284.737 46.0244 286.599 46.8468C290.329 48.494 295.226 51.4349 301.074 55.4864C312.464 63.3778 327.535 75.5351 344.763 90.7298C337.33 69.0315 331.878 50.4621 328.956 36.9159C327.456 29.9609 326.618 24.3068 326.527 20.2249C326.482 18.1868 326.623 16.509 326.977 15.2468C327.329 13.9955 327.923 13.0486 328.865 12.6558C329.808 12.2629 330.896 12.5085 332.026 13.1414C333.166 13.7795 334.448 14.8629 335.852 16.3322C338.665 19.275 342.058 23.8592 345.905 29.8344C353.399 41.4728 362.664 58.4658 372.779 79.1047C374.203 56.2047 376.259 36.9562 378.734 23.3205C380.005 16.3197 381.389 10.7748 382.865 6.96996C383.602 5.0702 384.373 3.57452 385.183 2.54499C385.986 1.52434 386.897 0.877808 387.918 0.877808C388.94 0.877808 389.851 1.52436 390.654 2.54518C391.464 3.57488 392.235 5.07089 392.972 6.97129C394.447 10.7774 395.832 16.3248 397.103 23.3308C399.578 36.9769 401.634 56.2461 403.058 79.1859C413.174 58.546 422.459 41.5332 429.973 29.8749C433.83 23.8896 437.234 19.2952 440.054 16.3449C441.462 14.8719 442.746 13.7854 443.888 13.145C445.02 12.5105 446.109 12.2629 447.052 12.6553C447.052 12.6555 447.053 12.6557 447.053 12.6558L446.861 13.1174C452.77 15.5457 445.659 46.9064 430.396 91.4L311.724 140.157ZM311.724 140.157C288.786 141.581 269.538 143.637 255.912 146.112C248.916 147.382 243.379 148.767 239.58 150.243C237.684 150.98 236.191 151.751 235.163 152.561C234.145 153.364 233.5 154.275 233.5 155.296C233.5 156.318 234.147 157.229 235.167 158.032C236.197 158.842 237.693 159.613 239.593 160.349C243.4 161.825 248.947 163.21 255.953 164.481C269.599 166.956 288.868 169.012 311.808 170.436C291.168 180.552 274.155 189.837 262.497 197.35C256.512 201.208 251.917 204.611 248.967 207.432C247.494 208.84 246.408 210.124 245.767 211.266C245.132 212.399 244.885 213.487 245.278 214.431C245.671 215.373 246.616 215.967 247.865 216.319C249.126 216.674 250.801 216.814 252.836 216.769C256.911 216.679 262.558 215.84 269.508 214.34C283.045 211.418 301.616 205.965 323.353 198.532C308.158 215.76 296 230.832 288.109 242.222C284.057 248.07 281.116 252.967 279.469 256.697C278.647 258.559 278.133 260.16 277.977 261.458C277.823 262.746 278.008 263.845 278.73 264.567C279.451 265.288 280.55 265.473 281.838 265.319C283.137 265.163 284.738 264.65 286.601 263.827C290.332 262.18 295.231 259.239 301.084 255.188C312.485 247.295 327.579 235.136 344.847 219.939C337.412 241.679 331.939 260.271 328.997 273.829C327.487 280.789 326.638 286.445 326.54 290.529C326.491 292.567 326.628 294.245 326.981 295.508C327.33 296.759 327.922 297.707 328.865 298.1C329.809 298.493 330.898 298.245 332.03 297.611C333.172 296.971 334.456 295.884 335.863 294.412C338.682 291.463 342.083 286.871 345.936 280.891C353.439 269.244 362.703 252.253 372.779 231.654C374.203 254.592 376.259 273.84 378.734 287.466C380.005 294.461 381.39 299.999 382.865 303.797C383.602 305.694 384.373 307.187 385.183 308.214C385.986 309.233 386.897 309.878 387.918 309.878C388.94 309.878 389.851 309.231 390.654 308.211C391.464 307.181 392.235 305.685 392.972 303.786C394.447 299.981 395.832 294.436 397.103 287.435C399.578 273.799 401.634 254.551 403.058 231.651C413.173 252.291 422.438 269.304 429.942 280.962C433.794 286.947 437.195 291.542 440.02 294.492C441.43 295.966 442.718 297.052 443.866 297.693C445.005 298.328 446.099 298.573 447.051 298.182L447.053 298.181C447.996 297.789 448.589 296.842 448.941 295.59C449.296 294.328 449.436 292.65 449.391 290.612C449.301 286.53 448.462 280.876 446.962 273.921C444.04 260.375 438.588 241.806 431.155 220.107C448.383 235.302 463.455 247.459 474.845 255.351C480.692 259.402 485.589 262.343 489.319 263.99C491.181 264.813 492.782 265.326 494.081 265.482C495.368 265.636 496.468 265.451 497.189 264.73C497.91 264.009 498.096 262.909 497.941 261.622C497.785 260.323 497.272 258.722 496.449 256.86C494.802 253.13 491.861 248.233 487.81 242.386C479.918 230.995 467.76 215.923 452.565 198.695C474.303 206.129 492.873 211.602 506.411 214.534C513.36 216.039 519.007 216.88 523.083 216.966C525.118 217.009 526.794 216.866 528.055 216.505C529.306 216.147 530.249 215.545 530.64 214.594C531.034 213.65 530.786 212.562 530.151 211.429C529.511 210.287 528.424 209.003 526.951 207.595C524.001 204.775 519.407 201.371 513.421 197.513C501.761 189.998 484.744 180.711 464.099 170.593C487.084 169.092 506.379 166.996 520.037 164.501C527.048 163.22 532.598 161.83 536.405 160.352C538.306 159.614 539.803 158.843 540.833 158.032C541.853 157.229 542.5 156.318 542.5 155.296C542.5 154.274 541.853 153.364 540.833 152.561C539.803 151.751 538.308 150.98 536.408 150.243C532.603 148.767 527.058 147.382 520.057 146.112C506.422 143.637 487.173 141.581 464.273 140.157C484.912 130.042 501.905 120.777 513.543 113.283C519.519 109.436 524.103 106.042 527.046 103.23C528.515 101.825 529.598 100.544 530.236 99.4041C530.869 98.2735 531.115 97.1862 530.722 96.2432C530.329 95.3004 529.382 94.7068 528.131 94.3553C526.868 94.0008 525.19 93.8607 523.152 93.9064C519.068 93.9979 513.412 94.8389 506.451 96.3442C492.895 99.2761 474.306 104.748 452.569 112.219C467.763 94.993 479.919 79.9221 487.81 68.5228C491.862 62.67 494.802 57.7655 496.45 54.0238C497.272 52.1555 497.785 50.5485 497.941 49.2422C498.096 47.9467 497.91 46.8411 497.192 46.1106L497.189 46.1074C496.468 45.3862 495.368 45.2007 494.081 45.3553C492.782 45.5113 491.181 46.0244 489.319 46.8468C485.589 48.494 480.692 51.4349 474.845 55.4864C463.454 63.3781 448.382 75.5358 431.154 90.7311L311.724 140.157Z" fill="#3D3CDF" stroke="#232323"/>
</svg>
