<svg width="500" height="500" viewBox="0 0 567 567" fill="none" xmlns="http://www.w3.org/2000/svg">
<path d="M400.931 0C396.106 93.6959 473.304 170.894 567 166.069C497.428 228.948 497.428 338.052 567 400.931C473.304 396.106 396.106 473.304 400.931 567C338.052 497.428 228.948 497.428 166.069 567C170.894 473.304 93.6959 396.106 0 400.931C69.5715 338.052 69.5715 228.948 0 166.069C93.6959 170.894 170.894 93.6959 166.069 0C228.792 69.5715 338.052 69.5715 400.931 0Z" fill="#D8FF3B"/>
<path d="M137.828 206.969C144.141 206.969 148.141 209.062 148.172 212.531C148.141 215.969 144.141 218.062 137.828 218.031C131.547 218.062 127.453 215.969 127.453 212.531C127.453 209.062 131.547 206.969 137.828 206.969ZM137.828 210.062C133.859 210.062 131.578 210.906 131.609 212.531C131.578 214.125 133.859 214.938 137.828 214.938C141.766 214.938 144.047 214.125 144.047 212.531C144.047 210.906 141.766 210.062 137.828 210.062ZM147.703 224.875V234.562H127.859V224.875H147.703ZM131.797 228.031V231.375H143.797V228.031H131.797ZM150.797 219.688V222.875H124.859V219.688H150.797ZM160.516 208C164.922 207.969 168.266 210.906 168.266 214.906C168.266 219 164.922 221.875 160.516 221.875C156.078 221.875 152.703 219 152.703 214.906C152.703 210.906 156.078 207.969 160.516 208ZM160.516 211.406C158.266 211.406 156.609 212.688 156.641 214.906C156.609 217.188 158.266 218.5 160.516 218.5C162.703 218.5 164.359 217.188 164.391 214.906C164.359 212.688 162.703 211.406 160.516 211.406ZM175.078 206.438V213.125H178.922V216.375H175.078V223.062H171.078V206.438H175.078ZM175.078 224.25V234.906H171.078V227.469H155.922V224.25H175.078ZM203.984 206.438V234.938H199.953V206.438H203.984ZM188.547 208.438C192.828 208.438 196.016 212.375 196.016 218.562C196.016 224.812 192.828 228.719 188.547 228.719C184.172 228.719 180.984 224.812 181.016 218.562C180.984 212.375 184.172 208.438 188.547 208.438ZM188.547 212.031C186.328 212.031 184.859 214.344 184.859 218.562C184.859 222.812 186.328 225.094 188.547 225.094C190.703 225.094 192.172 222.812 192.172 218.562C192.172 214.344 190.703 212.031 188.547 212.031ZM237.766 206.438V213.438H241.609V216.781H237.766V223.594H233.766V206.438H237.766ZM237.766 224.844V234.562H219.172V224.844H237.766ZM223.109 227.969V231.375H233.828V227.969H223.109ZM232.078 209V212.156H215.203V209H221.672V206.281H225.641V209H232.078ZM223.641 213.031C227.766 213.031 230.641 215.125 230.641 218.125C230.641 221.219 227.766 223.281 223.641 223.281C219.453 223.281 216.578 221.219 216.578 218.125C216.578 215.125 219.453 213.031 223.641 213.031ZM223.641 216.031C221.734 216.031 220.453 216.781 220.484 218.125C220.453 219.562 221.734 220.344 223.641 220.344C225.547 220.344 226.859 219.562 226.859 218.125C226.859 216.781 225.547 216.031 223.641 216.031ZM249.859 209.688C249.828 216.781 249.141 223.156 245.516 228.781L242.422 227.156C245.344 222.734 246.219 218.422 246.422 212.906H243.359V209.688H249.859ZM256.234 209.688C256.219 212.188 256.172 214.672 255.953 217.094H258.391V207.062H262.141V233.625H258.391V220.312H255.547C254.938 223.797 253.859 227.141 251.891 230.219L248.859 228.531C252.031 223.688 252.688 218.672 252.828 212.906H250.672V209.688H256.234ZM267.734 206.438V234.875H263.922V206.438H267.734ZM294.953 206.469V223.969H291.172V216.969H288.953V223.656H285.234V206.844H288.953V213.75H291.172V206.469H294.953ZM284.328 209.156V212.312H270.359V209.156H275.391V206.594H279.359V209.156H284.328ZM277.391 213.219C281.016 213.219 283.578 215.219 283.609 218.188C283.578 221.094 281.016 223.156 277.391 223.156C273.828 223.156 271.234 221.094 271.234 218.188C271.234 215.219 273.828 213.219 277.391 213.219ZM277.391 216.062C275.828 216.062 274.797 216.781 274.797 218.188C274.797 219.531 275.828 220.281 277.391 220.281C278.953 220.281 279.984 219.531 280.016 218.188C279.984 216.781 278.953 216.062 277.391 216.062ZM281.422 225.438C281.391 227.516 282.312 229.656 284.578 231.062C286.828 229.578 287.828 227.328 287.859 225.438V224.844H291.828V225.438C291.797 228.094 293.391 230.594 297.172 231.562L295.328 234.531C292.578 233.703 290.766 232.047 289.797 229.938C288.859 232.031 287.219 233.875 284.641 234.812C281.984 233.891 280.312 232.156 279.422 230.062C278.375 232.062 276.594 233.688 273.984 234.531L272.109 231.562C275.797 230.5 277.453 227.938 277.453 225.438V224.844H281.422V225.438ZM312.859 208.406V211.594H303.859V220.156C307.984 220.125 310.906 219.953 314.172 219.344L314.547 222.531C310.766 223.188 307.359 223.375 302.172 223.375H299.891V208.406H312.859ZM322.141 206.469V227.156H318.172V217.031H311.203V213.875H318.172V206.469H322.141ZM322.828 231.25V234.438H303.234V225.438H307.234V231.25H322.828ZM341.297 207.281C345.609 207.281 348.891 209.969 348.891 213.781C348.891 217.531 345.609 220.25 341.297 220.25C336.891 220.25 333.641 217.531 333.641 213.781C333.641 209.969 336.891 207.281 341.297 207.281ZM341.297 210.531C339.109 210.531 337.484 211.719 337.516 213.781C337.484 215.812 339.109 217.031 341.297 217.031C343.453 217.031 345.047 215.812 345.047 213.781C345.047 211.719 343.453 210.531 341.297 210.531ZM357.016 206.438V220.688H353.016V206.438H357.016ZM357.016 221.875V229.594H341.891V231.438H357.797V234.562H337.984V226.688H353.047V224.938H337.922V221.875H357.016ZM371.234 210.906C371.234 214.344 373.234 217.656 377.734 219.062L375.609 222.156C372.594 221.156 370.484 219.219 369.266 216.719C368.031 219.594 365.828 221.844 362.578 222.938L360.422 219.812C365.172 218.219 367.203 214.438 367.234 210.531V207.938H371.234V210.906ZM383.422 206.438V213.094H387.266V216.406H383.422V223.312H379.422V206.438H383.422ZM374.109 223.875C379.984 223.875 383.703 225.906 383.703 229.375C383.703 232.875 379.984 234.875 374.109 234.875C368.109 234.875 364.359 232.875 364.359 229.375C364.359 225.906 368.109 223.875 374.109 223.875ZM374.109 227C370.359 227 368.328 227.812 368.359 229.375C368.328 231 370.359 231.75 374.109 231.75C377.797 231.75 379.766 231 379.766 229.375C379.766 227.812 377.797 227 374.109 227ZM414.516 217.531V220.656H388.516V217.531H414.516ZM411.422 212.844V215.969H391.766V207H411.203V210.188H395.734V212.844H411.422ZM411.297 222.344V229.781H395.453V231.531H412.047V234.625H391.547V226.938H407.359V225.344H391.516V222.344H411.297ZM432.172 209.281V211.562C432.141 214.25 432.141 217.75 431.391 222.469L427.453 222.156C428.094 218.031 428.156 214.984 428.203 212.469H417.422V209.281H432.172ZM425.078 217.438V225.688C427.875 225.578 430.719 225.375 433.328 225.031L433.578 228C427.734 229 421.266 229.094 416.297 229.062L415.922 225.875C417.516 225.859 419.297 225.859 421.141 225.812V217.438H425.078ZM438.703 206.438V217.875H442.578V221.188H438.703V234.875H434.672V206.438H438.703ZM113.734 264.438V292.875H109.703V264.438H113.734ZM105.203 267.406C105.203 276.031 102.172 283.188 92.0156 288L89.9219 284.812C97.2656 281.344 100.5 276.844 101.141 270.531H91.4531V267.406H105.203ZM141.453 282.562V292.906H137.484V285.719H121.922V282.562H141.453ZM141.453 264.438V281.25H137.484V274.594H132.734C131.969 277.812 129.062 280 125.422 280C121.109 280 117.828 277.031 117.859 272.906C117.828 268.875 121.109 265.938 125.422 265.969C129.094 265.938 132.016 268.125 132.766 271.312H137.484V264.438H141.453ZM125.422 269.312C123.266 269.312 121.609 270.688 121.641 272.906C121.609 275.25 123.266 276.594 125.422 276.594C127.516 276.594 129.141 275.25 129.141 272.906C129.141 270.688 127.516 269.312 125.422 269.312ZM178.453 278.281V281.469H152.516V278.281H163.484V274.5H167.422V278.281H178.453ZM167.484 265.844C167.484 269.156 170.672 272.312 177.078 273.094L175.547 276.188C170.75 275.469 167.219 273.453 165.422 270.594C163.594 273.453 160.062 275.484 155.266 276.188L153.859 273.094C160.141 272.312 163.422 269.062 163.422 265.844V264.906H167.484V265.844ZM175.297 283.469V292.875H171.328V286.562H155.391V283.469H175.297ZM211.359 264.469V284.906H207.359V264.469H211.359ZM212.109 289.188V292.375H192.297V282.844H196.328V289.188H212.109ZM195.766 266.281C200.141 266.281 203.547 269.281 203.547 273.438C203.547 277.688 200.141 280.656 195.766 280.656C191.391 280.656 187.984 277.688 187.984 273.438C187.984 269.281 191.391 266.281 195.766 266.281ZM195.766 269.75C193.547 269.719 191.859 271.125 191.891 273.438C191.859 275.812 193.547 277.188 195.766 277.188C197.922 277.188 199.609 275.812 199.609 273.438C199.609 271.125 197.922 269.719 195.766 269.75ZM225.578 268.906C225.578 272.344 227.578 275.656 232.078 277.062L229.953 280.156C226.938 279.156 224.828 277.219 223.609 274.719C222.375 277.594 220.172 279.844 216.922 280.938L214.766 277.812C219.516 276.219 221.547 272.438 221.578 268.531V265.938H225.578V268.906ZM237.766 264.438V271.094H241.609V274.406H237.766V281.312H233.766V264.438H237.766ZM228.453 281.875C234.328 281.875 238.047 283.906 238.047 287.375C238.047 290.875 234.328 292.875 228.453 292.875C222.453 292.875 218.703 290.875 218.703 287.375C218.703 283.906 222.453 281.875 228.453 281.875ZM228.453 285C224.703 285 222.672 285.812 222.703 287.375C222.672 289 224.703 289.75 228.453 289.75C232.141 289.75 234.109 289 234.109 287.375C234.109 285.812 232.141 285 228.453 285ZM259.266 266.031V269.188H253.609C253.641 272.547 255.641 275.984 260.141 277.469L258.172 280.531C255.016 279.531 252.859 277.469 251.641 274.906C250.359 277.75 248.094 280.047 244.734 281.125L242.703 277.969C247.375 276.469 249.5 272.734 249.547 269.188H243.828V266.031H259.266ZM266.828 282.625V292.875H262.859V285.812H247.297V282.625H266.828ZM266.828 264.438V281.375H262.859V274.531H258.453V271.281H262.859V264.438H266.828ZM294.328 264.469V284.906H290.328V264.469H294.328ZM295.078 289.188V292.375H275.266V282.844H279.297V289.188H295.078ZM278.734 266.281C283.109 266.281 286.516 269.281 286.516 273.438C286.516 277.688 283.109 280.656 278.734 280.656C274.359 280.656 270.953 277.688 270.953 273.438C270.953 269.281 274.359 266.281 278.734 266.281ZM278.734 269.75C276.516 269.719 274.828 271.125 274.859 273.438C274.828 275.812 276.516 277.188 278.734 277.188C280.891 277.188 282.578 275.812 282.578 273.438C282.578 271.125 280.891 269.719 278.734 269.75ZM320.578 266.094C320.578 269.25 323.922 272.781 330.172 273.625L328.672 276.781C323.875 276.078 320.344 273.875 318.547 270.938C316.703 273.906 313.156 276.125 308.359 276.844L306.891 273.719C313.109 272.844 316.453 269.375 316.484 266.094V265.156H320.578V266.094ZM331.547 278.406V281.594H320.828V286.5H316.891V281.594H305.516V278.406H331.547ZM328.672 289.188V292.375H308.578V284.031H312.547V289.188H328.672ZM355.766 264.438V272.406H359.609V275.688H355.766V284.812H351.734V264.438H355.766ZM348.016 266.562C348.016 274.25 343.203 279.625 334.672 282.031L333.016 278.875C339.375 277.094 342.984 273.797 343.641 269.812H334.266V266.562H348.016ZM356.734 289.188V292.375H337.266V282.719H341.297V289.188H356.734ZM386.859 275.531V278.656H360.859V275.531H386.859ZM383.766 270.844V273.969H364.109V265H383.547V268.188H368.078V270.844H383.766ZM383.641 280.344V287.781H367.797V289.531H384.391V292.625H363.891V284.938H379.703V283.344H363.859V280.344H383.641ZM401.484 264.844C408.016 264.844 411.797 266.562 411.828 269.688C411.797 272.844 408.016 274.562 401.484 274.562C394.922 274.562 391.109 272.844 391.109 269.688C391.109 266.562 394.922 264.844 401.484 264.844ZM401.484 267.75C397.297 267.75 395.266 268.438 395.297 269.688C395.266 271.094 397.297 271.625 401.484 271.625C405.703 271.625 407.703 271.094 407.703 269.688C407.703 268.438 405.703 267.75 401.484 267.75ZM414.453 275.906V279.062H388.516V275.906H414.453ZM411.297 280.719V287.969H395.453V289.688H412.047V292.688H391.547V285.188H407.359V283.625H391.516V280.719H411.297ZM449.578 286.281V289.562H423.547V286.281H434.516V280.469H426.297V266.531H446.672V280.469H438.484V286.281H449.578ZM430.234 269.719V277.344H442.734V269.719H430.234ZM458.859 266.438C463.203 266.438 466.328 270.375 466.359 276.562C466.328 282.812 463.203 286.719 458.859 286.719C454.516 286.719 451.328 282.812 451.359 276.562C451.328 270.375 454.516 266.438 458.859 266.438ZM458.859 270.031C456.672 270.031 455.203 272.344 455.203 276.562C455.203 280.812 456.672 283.094 458.859 283.094C461.078 283.094 462.516 280.812 462.547 276.562C462.516 272.344 461.078 270.031 458.859 270.031ZM473.641 264.438V275.156H477.828V278.469H473.641V292.875H469.641V264.438H473.641ZM111.781 333.219V336.469H107.75V350.812H103.75V322.438H107.75V333.219H111.781ZM90.1875 325.156V340.562C93.8281 340.516 97.7344 340.172 101.844 339.344L102.25 342.656C97.5 343.625 92.875 343.875 88.6875 343.875H86.2188V325.156H90.1875ZM122.188 324.344C126.688 324.312 130.062 327.25 130.062 331.312C130.062 335.406 126.688 338.312 122.188 338.312C117.688 338.312 114.281 335.406 114.281 331.312C114.281 327.25 117.688 324.312 122.188 324.344ZM122.188 327.781C119.938 327.781 118.219 329.094 118.25 331.312C118.219 333.562 119.938 334.844 122.188 334.844C124.438 334.844 126.156 333.562 126.188 331.312C126.156 329.094 124.469 327.781 122.188 327.781ZM136.875 322.438V350.938H132.906V322.438H136.875ZM113.094 341.875C118.156 341.906 125.188 341.812 131.281 340.969L131.594 343.844C125.281 345.062 118.531 345.125 113.562 345.125L113.094 341.875ZM160.969 322.969C167.281 322.969 171.281 325.062 171.312 328.531C171.281 331.969 167.281 334.062 160.969 334.031C154.688 334.062 150.594 331.969 150.594 328.531C150.594 325.062 154.688 322.969 160.969 322.969ZM160.969 326.062C157 326.062 154.719 326.906 154.75 328.531C154.719 330.125 157 330.938 160.969 330.938C164.906 330.938 167.188 330.125 167.188 328.531C167.188 326.906 164.906 326.062 160.969 326.062ZM170.844 340.875V350.562H151V340.875H170.844ZM154.938 344.031V347.375H166.938V344.031H154.938ZM173.938 335.688V338.875H148V335.688H173.938ZM183.656 324C188.062 323.969 191.406 326.906 191.406 330.906C191.406 335 188.062 337.875 183.656 337.875C179.219 337.875 175.844 335 175.844 330.906C175.844 326.906 179.219 323.969 183.656 324ZM183.656 327.406C181.406 327.406 179.75 328.688 179.781 330.906C179.75 333.188 181.406 334.5 183.656 334.5C185.844 334.5 187.5 333.188 187.531 330.906C187.5 328.688 185.844 327.406 183.656 327.406ZM198.219 322.438V329.125H202.062V332.375H198.219V339.062H194.219V322.438H198.219ZM198.219 340.25V350.906H194.219V343.469H179.062V340.25H198.219ZM221.719 330.188C221.719 334.781 224.062 339.688 228.844 341.688L226.688 344.812C223.328 343.391 221.016 340.562 219.75 337.094C218.453 340.859 216.094 343.984 212.75 345.531L210.469 342.375C215.188 340.281 217.625 335 217.625 330.188V328.438H211.594V325.188H227.656V328.438H221.719V330.188ZM234.5 322.438V350.875H230.469V322.438H234.5ZM261.531 335.156V338.312H253.281V344.375H264.375V347.625H238.344V344.375H249.312V338.312H241.406V324.438H261.312V327.625H245.406V335.156H261.531ZM292 335.188V338.156H265.969V335.188H292ZM288.875 339.562V346.281H272.938V347.906H289.719V350.625H268.969V343.75H284.938V342.312H268.938V339.562H288.875ZM288.844 322.938V329.625H273.188V331.156H289.344V333.844H269.219V327.094H284.844V325.656H269.156V322.938H288.844ZM315.531 324.781V338.438H301.875V324.781H315.531ZM305.812 327.969V335.312H311.594V327.969H305.812ZM323.594 322.438V330.625H327.438V333.906H323.594V343.188H319.594V322.438H323.594ZM324.625 347.188V350.375H305.156V341.156H309.125V347.188H324.625ZM354.688 333.531V336.656H328.688V333.531H354.688ZM351.594 328.844V331.969H331.938V323H351.375V326.188H335.906V328.844H351.594ZM351.469 338.344V345.781H335.625V347.531H352.219V350.625H331.719V342.938H347.531V341.344H331.688V338.344H351.469ZM364.188 324.438C368.031 324.438 370.891 327.609 371.469 332.719H376.406V322.438H380.344V350.938H376.406V335.906H371.5C371.078 341.375 368.156 344.719 364.188 344.719C359.875 344.719 356.781 340.812 356.812 334.562C356.781 328.375 359.875 324.438 364.188 324.438ZM364.188 328.031C362.062 328.031 360.594 330.344 360.625 334.562C360.594 338.812 362.062 341.094 364.188 341.094C366.344 341.094 367.75 338.812 367.75 334.562C367.75 330.344 366.344 328.031 364.188 328.031ZM417.406 344.312V347.562H391.375V344.312H402.344V339.062H394.125V324.25H398.125V328.656H410.531V324.25H414.5V339.062H406.312V344.312H417.406ZM398.125 335.875H410.531V331.844H398.125V335.875ZM428.156 329.594C428.156 334.188 429.438 338.938 433.312 341.438L431.156 344.531C428.703 343.047 427.141 340.609 426.25 337.688C425.219 340.906 423.516 343.594 420.938 345.156L418.5 342.219C422.719 339.594 424.281 334.594 424.281 329.781V324.875H428.156V329.594ZM443.688 322.438V350.875H439.875V322.438H443.688ZM437.719 322.844V349.562H434V335.281H430.312V332.031H434V322.844H437.719ZM472.719 344.281V347.562H446.688V344.281H452.5V337.312C450.297 336 448.969 333.984 448.969 331.469C448.969 326.875 453.469 323.812 459.656 323.812C465.812 323.812 470.344 326.875 470.375 331.469C470.359 333.922 469.062 335.922 466.938 337.25V344.281H472.719ZM459.656 326.969C455.594 326.969 452.906 328.594 452.906 331.469C452.906 334.25 455.594 335.969 459.656 335.969C463.688 335.969 466.406 334.25 466.438 331.469C466.406 328.594 463.688 326.969 459.656 326.969ZM456.438 344.281H462.906V338.75C461.891 338.953 460.797 339.062 459.656 339.062C458.516 339.062 457.438 338.969 456.438 338.75V344.281ZM478.031 348.281C476.562 348.281 475.375 347.094 475.406 345.656C475.375 344.219 476.562 343.062 478.031 343.062C479.406 343.062 480.625 344.219 480.625 345.656C480.625 347.094 479.406 348.281 478.031 348.281Z" fill="#232323"/>
</svg>
