<svg width="301.5" height="110.7" viewBox="0 0 395 145" fill="none" xmlns="http://www.w3.org/2000/svg">
<path d="M51.8281 0.96875C58.1406 0.96875 62.1406 3.0625 62.1719 6.53125C62.1406 9.96875 58.1406 12.0625 51.8281 12.0312C45.5469 12.0625 41.4531 9.96875 41.4531 6.53125C41.4531 3.0625 45.5469 0.96875 51.8281 0.96875ZM51.8281 4.0625C47.8594 4.0625 45.5781 4.90625 45.6094 6.53125C45.5781 8.125 47.8594 8.9375 51.8281 8.9375C55.7656 8.9375 58.0469 8.125 58.0469 6.53125C58.0469 4.90625 55.7656 4.0625 51.8281 4.0625ZM61.7031 18.875V28.5625H41.8594V18.875H61.7031ZM45.7969 22.0312V25.375H57.7969V22.0312H45.7969ZM64.7969 13.6875V16.875H38.8594V13.6875H64.7969ZM74.5156 2C78.9219 1.96875 82.2656 4.90625 82.2656 8.90625C82.2656 13 78.9219 15.875 74.5156 15.875C70.0781 15.875 66.7031 13 66.7031 8.90625C66.7031 4.90625 70.0781 1.96875 74.5156 2ZM74.5156 5.40625C72.2656 5.40625 70.6094 6.6875 70.6406 8.90625C70.6094 11.1875 72.2656 12.5 74.5156 12.5C76.7031 12.5 78.3594 11.1875 78.3906 8.90625C78.3594 6.6875 76.7031 5.40625 74.5156 5.40625ZM89.0781 0.4375V7.125H92.9219V10.375H89.0781V17.0625H85.0781V0.4375H89.0781ZM89.0781 18.25V28.9062H85.0781V21.4688H69.9219V18.25H89.0781ZM117.984 0.4375V28.9375H113.953V0.4375H117.984ZM102.547 2.4375C106.828 2.4375 110.016 6.375 110.016 12.5625C110.016 18.8125 106.828 22.7188 102.547 22.7188C98.1719 22.7188 94.9844 18.8125 95.0156 12.5625C94.9844 6.375 98.1719 2.4375 102.547 2.4375ZM102.547 6.03125C100.328 6.03125 98.8594 8.34375 98.8594 12.5625C98.8594 16.8125 100.328 19.0938 102.547 19.0938C104.703 19.0938 106.172 16.8125 106.172 12.5625C106.172 8.34375 104.703 6.03125 102.547 6.03125ZM151.766 0.4375V7.4375H155.609V10.7812H151.766V17.5938H147.766V0.4375H151.766ZM151.766 18.8438V28.5625H133.172V18.8438H151.766ZM137.109 21.9688V25.375H147.828V21.9688H137.109ZM146.078 3V6.15625H129.203V3H135.672V0.28125H139.641V3H146.078ZM137.641 7.03125C141.766 7.03125 144.641 9.125 144.641 12.125C144.641 15.2188 141.766 17.2812 137.641 17.2812C133.453 17.2812 130.578 15.2188 130.578 12.125C130.578 9.125 133.453 7.03125 137.641 7.03125ZM137.641 10.0312C135.734 10.0312 134.453 10.7812 134.484 12.125C134.453 13.5625 135.734 14.3438 137.641 14.3438C139.547 14.3438 140.859 13.5625 140.859 12.125C140.859 10.7812 139.547 10.0312 137.641 10.0312ZM163.859 3.6875C163.828 10.7812 163.141 17.1562 159.516 22.7812L156.422 21.1562C159.344 16.7344 160.219 12.4219 160.422 6.90625H157.359V3.6875H163.859ZM170.234 3.6875C170.219 6.1875 170.172 8.67188 169.953 11.0938H172.391V1.0625H176.141V27.625H172.391V14.3125H169.547C168.938 17.7969 167.859 21.1406 165.891 24.2188L162.859 22.5312C166.031 17.6875 166.688 12.6719 166.828 6.90625H164.672V3.6875H170.234ZM181.734 0.4375V28.875H177.922V0.4375H181.734ZM208.953 0.46875V17.9688H205.172V10.9688H202.953V17.6562H199.234V0.84375H202.953V7.75H205.172V0.46875H208.953ZM198.328 3.15625V6.3125H184.359V3.15625H189.391V0.59375H193.359V3.15625H198.328ZM191.391 7.21875C195.016 7.21875 197.578 9.21875 197.609 12.1875C197.578 15.0938 195.016 17.1562 191.391 17.1562C187.828 17.1562 185.234 15.0938 185.234 12.1875C185.234 9.21875 187.828 7.21875 191.391 7.21875ZM191.391 10.0625C189.828 10.0625 188.797 10.7812 188.797 12.1875C188.797 13.5312 189.828 14.2812 191.391 14.2812C192.953 14.2812 193.984 13.5312 194.016 12.1875C193.984 10.7812 192.953 10.0625 191.391 10.0625ZM195.422 19.4375C195.391 21.5156 196.312 23.6562 198.578 25.0625C200.828 23.5781 201.828 21.3281 201.859 19.4375V18.8438H205.828V19.4375C205.797 22.0938 207.391 24.5938 211.172 25.5625L209.328 28.5312C206.578 27.7031 204.766 26.0469 203.797 23.9375C202.859 26.0312 201.219 27.875 198.641 28.8125C195.984 27.8906 194.312 26.1562 193.422 24.0625C192.375 26.0625 190.594 27.6875 187.984 28.5312L186.109 25.5625C189.797 24.5 191.453 21.9375 191.453 19.4375V18.8438H195.422V19.4375ZM226.859 2.40625V5.59375H217.859V14.1562C221.984 14.125 224.906 13.9531 228.172 13.3438L228.547 16.5312C224.766 17.1875 221.359 17.375 216.172 17.375H213.891V2.40625H226.859ZM236.141 0.46875V21.1562H232.172V11.0312H225.203V7.875H232.172V0.46875H236.141ZM236.828 25.25V28.4375H217.234V19.4375H221.234V25.25H236.828ZM255.297 1.28125C259.609 1.28125 262.891 3.96875 262.891 7.78125C262.891 11.5312 259.609 14.25 255.297 14.25C250.891 14.25 247.641 11.5312 247.641 7.78125C247.641 3.96875 250.891 1.28125 255.297 1.28125ZM255.297 4.53125C253.109 4.53125 251.484 5.71875 251.516 7.78125C251.484 9.8125 253.109 11.0312 255.297 11.0312C257.453 11.0312 259.047 9.8125 259.047 7.78125C259.047 5.71875 257.453 4.53125 255.297 4.53125ZM271.016 0.4375V14.6875H267.016V0.4375H271.016ZM271.016 15.875V23.5938H255.891V25.4375H271.797V28.5625H251.984V20.6875H267.047V18.9375H251.922V15.875H271.016ZM285.234 4.90625C285.234 8.34375 287.234 11.6562 291.734 13.0625L289.609 16.1562C286.594 15.1562 284.484 13.2188 283.266 10.7188C282.031 13.5938 279.828 15.8438 276.578 16.9375L274.422 13.8125C279.172 12.2188 281.203 8.4375 281.234 4.53125V1.9375H285.234V4.90625ZM297.422 0.4375V7.09375H301.266V10.4062H297.422V17.3125H293.422V0.4375H297.422ZM288.109 17.875C293.984 17.875 297.703 19.9062 297.703 23.375C297.703 26.875 293.984 28.875 288.109 28.875C282.109 28.875 278.359 26.875 278.359 23.375C278.359 19.9062 282.109 17.875 288.109 17.875ZM288.109 21C284.359 21 282.328 21.8125 282.359 23.375C282.328 25 284.359 25.75 288.109 25.75C291.797 25.75 293.766 25 293.766 23.375C293.766 21.8125 291.797 21 288.109 21ZM328.516 11.5312V14.6562H302.516V11.5312H328.516ZM325.422 6.84375V9.96875H305.766V1H325.203V4.1875H309.734V6.84375H325.422ZM325.297 16.3438V23.7812H309.453V25.5312H326.047V28.625H305.547V20.9375H321.359V19.3438H305.516V16.3438H325.297ZM346.172 3.28125V5.5625C346.141 8.25 346.141 11.75 345.391 16.4688L341.453 16.1562C342.094 12.0312 342.156 8.98438 342.203 6.46875H331.422V3.28125H346.172ZM339.078 11.4375V19.6875C341.875 19.5781 344.719 19.375 347.328 19.0312L347.578 22C341.734 23 335.266 23.0938 330.297 23.0625L329.922 19.875C331.516 19.8594 333.297 19.8594 335.141 19.8125V11.4375H339.078ZM352.703 0.4375V11.875H356.578V15.1875H352.703V28.875H348.672V0.4375H352.703ZM27.7344 58.4375V86.875H23.7031V58.4375H27.7344ZM19.2031 61.4062C19.2031 70.0312 16.1719 77.1875 6.01562 82L3.92188 78.8125C11.2656 75.3438 14.5 70.8438 15.1406 64.5312H5.45312V61.4062H19.2031ZM55.4531 76.5625V86.9062H51.4844V79.7188H35.9219V76.5625H55.4531ZM55.4531 58.4375V75.25H51.4844V68.5938H46.7344C45.9688 71.8125 43.0625 74 39.4219 74C35.1094 74 31.8281 71.0312 31.8594 66.9062C31.8281 62.875 35.1094 59.9375 39.4219 59.9688C43.0938 59.9375 46.0156 62.125 46.7656 65.3125H51.4844V58.4375H55.4531ZM39.4219 63.3125C37.2656 63.3125 35.6094 64.6875 35.6406 66.9062C35.6094 69.25 37.2656 70.5938 39.4219 70.5938C41.5156 70.5938 43.1406 69.25 43.1406 66.9062C43.1406 64.6875 41.5156 63.3125 39.4219 63.3125ZM92.4531 72.2812V75.4688H66.5156V72.2812H77.4844V68.5H81.4219V72.2812H92.4531ZM81.4844 59.8438C81.4844 63.1562 84.6719 66.3125 91.0781 67.0938L89.5469 70.1875C84.75 69.4688 81.2188 67.4531 79.4219 64.5938C77.5938 67.4531 74.0625 69.4844 69.2656 70.1875L67.8594 67.0938C74.1406 66.3125 77.4219 63.0625 77.4219 59.8438V58.9062H81.4844V59.8438ZM89.2969 77.4688V86.875H85.3281V80.5625H69.3906V77.4688H89.2969ZM125.359 58.4688V78.9062H121.359V58.4688H125.359ZM126.109 83.1875V86.375H106.297V76.8438H110.328V83.1875H126.109ZM109.766 60.2812C114.141 60.2812 117.547 63.2812 117.547 67.4375C117.547 71.6875 114.141 74.6562 109.766 74.6562C105.391 74.6562 101.984 71.6875 101.984 67.4375C101.984 63.2812 105.391 60.2812 109.766 60.2812ZM109.766 63.75C107.547 63.7188 105.859 65.125 105.891 67.4375C105.859 69.8125 107.547 71.1875 109.766 71.1875C111.922 71.1875 113.609 69.8125 113.609 67.4375C113.609 65.125 111.922 63.7188 109.766 63.75ZM139.578 62.9062C139.578 66.3438 141.578 69.6562 146.078 71.0625L143.953 74.1562C140.938 73.1562 138.828 71.2188 137.609 68.7188C136.375 71.5938 134.172 73.8438 130.922 74.9375L128.766 71.8125C133.516 70.2188 135.547 66.4375 135.578 62.5312V59.9375H139.578V62.9062ZM151.766 58.4375V65.0938H155.609V68.4062H151.766V75.3125H147.766V58.4375H151.766ZM142.453 75.875C148.328 75.875 152.047 77.9062 152.047 81.375C152.047 84.875 148.328 86.875 142.453 86.875C136.453 86.875 132.703 84.875 132.703 81.375C132.703 77.9062 136.453 75.875 142.453 75.875ZM142.453 79C138.703 79 136.672 79.8125 136.703 81.375C136.672 83 138.703 83.75 142.453 83.75C146.141 83.75 148.109 83 148.109 81.375C148.109 79.8125 146.141 79 142.453 79ZM173.266 60.0312V63.1875H167.609C167.641 66.5469 169.641 69.9844 174.141 71.4688L172.172 74.5312C169.016 73.5312 166.859 71.4688 165.641 68.9062C164.359 71.75 162.094 74.0469 158.734 75.125L156.703 71.9688C161.375 70.4688 163.5 66.7344 163.547 63.1875H157.828V60.0312H173.266ZM180.828 76.625V86.875H176.859V79.8125H161.297V76.625H180.828ZM180.828 58.4375V75.375H176.859V68.5312H172.453V65.2812H176.859V58.4375H180.828ZM208.328 58.4688V78.9062H204.328V58.4688H208.328ZM209.078 83.1875V86.375H189.266V76.8438H193.297V83.1875H209.078ZM192.734 60.2812C197.109 60.2812 200.516 63.2812 200.516 67.4375C200.516 71.6875 197.109 74.6562 192.734 74.6562C188.359 74.6562 184.953 71.6875 184.953 67.4375C184.953 63.2812 188.359 60.2812 192.734 60.2812ZM192.734 63.75C190.516 63.7188 188.828 65.125 188.859 67.4375C188.828 69.8125 190.516 71.1875 192.734 71.1875C194.891 71.1875 196.578 69.8125 196.578 67.4375C196.578 65.125 194.891 63.7188 192.734 63.75ZM234.578 60.0938C234.578 63.25 237.922 66.7812 244.172 67.625L242.672 70.7812C237.875 70.0781 234.344 67.875 232.547 64.9375C230.703 67.9062 227.156 70.125 222.359 70.8438L220.891 67.7188C227.109 66.8438 230.453 63.375 230.484 60.0938V59.1562H234.578V60.0938ZM245.547 72.4062V75.5938H234.828V80.5H230.891V75.5938H219.516V72.4062H245.547ZM242.672 83.1875V86.375H222.578V78.0312H226.547V83.1875H242.672ZM269.766 58.4375V66.4062H273.609V69.6875H269.766V78.8125H265.734V58.4375H269.766ZM262.016 60.5625C262.016 68.25 257.203 73.625 248.672 76.0312L247.016 72.875C253.375 71.0938 256.984 67.7969 257.641 63.8125H248.266V60.5625H262.016ZM270.734 83.1875V86.375H251.266V76.7188H255.297V83.1875H270.734ZM300.859 69.5312V72.6562H274.859V69.5312H300.859ZM297.766 64.8438V67.9688H278.109V59H297.547V62.1875H282.078V64.8438H297.766ZM297.641 74.3438V81.7812H281.797V83.5312H298.391V86.625H277.891V78.9375H293.703V77.3438H277.859V74.3438H297.641ZM315.484 58.8438C322.016 58.8438 325.797 60.5625 325.828 63.6875C325.797 66.8438 322.016 68.5625 315.484 68.5625C308.922 68.5625 305.109 66.8438 305.109 63.6875C305.109 60.5625 308.922 58.8438 315.484 58.8438ZM315.484 61.75C311.297 61.75 309.266 62.4375 309.297 63.6875C309.266 65.0938 311.297 65.625 315.484 65.625C319.703 65.625 321.703 65.0938 321.703 63.6875C321.703 62.4375 319.703 61.75 315.484 61.75ZM328.453 69.9062V73.0625H302.516V69.9062H328.453ZM325.297 74.7188V81.9688H309.453V83.6875H326.047V86.6875H305.547V79.1875H321.359V77.625H305.516V74.7188H325.297ZM363.578 80.2812V83.5625H337.547V80.2812H348.516V74.4688H340.297V60.5312H360.672V74.4688H352.484V80.2812H363.578ZM344.234 63.7188V71.3438H356.734V63.7188H344.234ZM372.859 60.4375C377.203 60.4375 380.328 64.375 380.359 70.5625C380.328 76.8125 377.203 80.7188 372.859 80.7188C368.516 80.7188 365.328 76.8125 365.359 70.5625C365.328 64.375 368.516 60.4375 372.859 60.4375ZM372.859 64.0312C370.672 64.0312 369.203 66.3438 369.203 70.5625C369.203 74.8125 370.672 77.0938 372.859 77.0938C375.078 77.0938 376.516 74.8125 376.547 70.5625C376.516 66.3438 375.078 64.0312 372.859 64.0312ZM387.641 58.4375V69.1562H391.828V72.4688H387.641V86.875H383.641V58.4375H387.641ZM25.7812 127.219V130.469H21.75V144.812H17.75V116.438H21.75V127.219H25.7812ZM4.1875 119.156V134.562C7.82812 134.516 11.7344 134.172 15.8438 133.344L16.25 136.656C11.5 137.625 6.875 137.875 2.6875 137.875H0.21875V119.156H4.1875ZM36.1875 118.344C40.6875 118.312 44.0625 121.25 44.0625 125.312C44.0625 129.406 40.6875 132.312 36.1875 132.312C31.6875 132.312 28.2812 129.406 28.2812 125.312C28.2812 121.25 31.6875 118.312 36.1875 118.344ZM36.1875 121.781C33.9375 121.781 32.2188 123.094 32.25 125.312C32.2188 127.562 33.9375 128.844 36.1875 128.844C38.4375 128.844 40.1562 127.562 40.1875 125.312C40.1562 123.094 38.4688 121.781 36.1875 121.781ZM50.875 116.438V144.938H46.9062V116.438H50.875ZM27.0938 135.875C32.1562 135.906 39.1875 135.812 45.2812 134.969L45.5938 137.844C39.2812 139.062 32.5312 139.125 27.5625 139.125L27.0938 135.875ZM74.9688 116.969C81.2812 116.969 85.2812 119.062 85.3125 122.531C85.2812 125.969 81.2812 128.062 74.9688 128.031C68.6875 128.062 64.5938 125.969 64.5938 122.531C64.5938 119.062 68.6875 116.969 74.9688 116.969ZM74.9688 120.062C71 120.062 68.7188 120.906 68.75 122.531C68.7188 124.125 71 124.938 74.9688 124.938C78.9062 124.938 81.1875 124.125 81.1875 122.531C81.1875 120.906 78.9062 120.062 74.9688 120.062ZM84.8438 134.875V144.562H65V134.875H84.8438ZM68.9375 138.031V141.375H80.9375V138.031H68.9375ZM87.9375 129.688V132.875H62V129.688H87.9375ZM97.6562 118C102.062 117.969 105.406 120.906 105.406 124.906C105.406 129 102.062 131.875 97.6562 131.875C93.2188 131.875 89.8438 129 89.8438 124.906C89.8438 120.906 93.2188 117.969 97.6562 118ZM97.6562 121.406C95.4062 121.406 93.75 122.688 93.7812 124.906C93.75 127.188 95.4062 128.5 97.6562 128.5C99.8438 128.5 101.5 127.188 101.531 124.906C101.5 122.688 99.8438 121.406 97.6562 121.406ZM112.219 116.438V123.125H116.062V126.375H112.219V133.062H108.219V116.438H112.219ZM112.219 134.25V144.906H108.219V137.469H93.0625V134.25H112.219ZM135.719 124.188C135.719 128.781 138.062 133.688 142.844 135.688L140.688 138.812C137.328 137.391 135.016 134.562 133.75 131.094C132.453 134.859 130.094 137.984 126.75 139.531L124.469 136.375C129.188 134.281 131.625 129 131.625 124.188V122.438H125.594V119.188H141.656V122.438H135.719V124.188ZM148.5 116.438V144.875H144.469V116.438H148.5ZM175.531 129.156V132.312H167.281V138.375H178.375V141.625H152.344V138.375H163.312V132.312H155.406V118.438H175.312V121.625H159.406V129.156H175.531ZM206 129.188V132.156H179.969V129.188H206ZM202.875 133.562V140.281H186.938V141.906H203.719V144.625H182.969V137.75H198.938V136.312H182.938V133.562H202.875ZM202.844 116.938V123.625H187.188V125.156H203.344V127.844H183.219V121.094H198.844V119.656H183.156V116.938H202.844ZM229.531 118.781V132.438H215.875V118.781H229.531ZM219.812 121.969V129.312H225.594V121.969H219.812ZM237.594 116.438V124.625H241.438V127.906H237.594V137.188H233.594V116.438H237.594ZM238.625 141.188V144.375H219.156V135.156H223.125V141.188H238.625ZM268.688 127.531V130.656H242.688V127.531H268.688ZM265.594 122.844V125.969H245.938V117H265.375V120.188H249.906V122.844H265.594ZM265.469 132.344V139.781H249.625V141.531H266.219V144.625H245.719V136.938H261.531V135.344H245.688V132.344H265.469ZM278.188 118.438C282.031 118.438 284.891 121.609 285.469 126.719H290.406V116.438H294.344V144.938H290.406V129.906H285.5C285.078 135.375 282.156 138.719 278.188 138.719C273.875 138.719 270.781 134.812 270.812 128.562C270.781 122.375 273.875 118.438 278.188 118.438ZM278.188 122.031C276.062 122.031 274.594 124.344 274.625 128.562C274.594 132.812 276.062 135.094 278.188 135.094C280.344 135.094 281.75 132.812 281.75 128.562C281.75 124.344 280.344 122.031 278.188 122.031ZM331.406 138.312V141.562H305.375V138.312H316.344V133.062H308.125V118.25H312.125V122.656H324.531V118.25H328.5V133.062H320.312V138.312H331.406ZM312.125 129.875H324.531V125.844H312.125V129.875ZM342.156 123.594C342.156 128.188 343.438 132.938 347.312 135.438L345.156 138.531C342.703 137.047 341.141 134.609 340.25 131.688C339.219 134.906 337.516 137.594 334.938 139.156L332.5 136.219C336.719 133.594 338.281 128.594 338.281 123.781V118.875H342.156V123.594ZM357.688 116.438V144.875H353.875V116.438H357.688ZM351.719 116.844V143.562H348V129.281H344.312V126.031H348V116.844H351.719ZM386.719 138.281V141.562H360.688V138.281H366.5V131.312C364.297 130 362.969 127.984 362.969 125.469C362.969 120.875 367.469 117.812 373.656 117.812C379.812 117.812 384.344 120.875 384.375 125.469C384.359 127.922 383.062 129.922 380.938 131.25V138.281H386.719ZM373.656 120.969C369.594 120.969 366.906 122.594 366.906 125.469C366.906 128.25 369.594 129.969 373.656 129.969C377.688 129.969 380.406 128.25 380.438 125.469C380.406 122.594 377.688 120.969 373.656 120.969ZM370.438 138.281H376.906V132.75C375.891 132.953 374.797 133.062 373.656 133.062C372.516 133.062 371.438 132.969 370.438 132.75V138.281ZM392.031 142.281C390.562 142.281 389.375 141.094 389.406 139.656C389.375 138.219 390.562 137.062 392.031 137.062C393.406 137.062 394.625 138.219 394.625 139.656C394.625 141.094 393.406 142.281 392.031 142.281Z" fill="#232323"/>
</svg>
