<svg width="543" height="311" viewBox="0 0 543 311" fill="none" xmlns="http://www.w3.org/2000/svg">
<path d="M309.5 130.44V129.94H309H276.835C291.915 116.012 297.518 93.7167 289.187 73.6583L288.995 73.1974L288.534 73.388L255.894 86.8778C265.508 67.9463 262.359 44.3097 246.592 28.4643L246.238 28.1089L245.884 28.4634L223.152 51.2009C223.595 31.0258 211.851 11.7143 192.089 3.52713L191.627 3.33595L191.436 3.79722L178.034 36.0557C171.582 15.6635 152.501 0.879517 130.029 0.879517H129.529V1.37952V34.3344C115.55 19.75 93.6214 14.4265 73.858 22.614L73.3967 22.8051L73.5872 23.2667L86.4781 54.4989C67.551 44.8825 43.9197 48.0313 28.078 63.8032L27.7229 64.1567L28.0772 64.511L52.2776 88.7173C31.8081 87.9281 12.0006 99.752 3.74287 119.811L3.55298 120.273L4.01382 120.464L34.0797 132.922C14.4929 139.707 0.5 158.355 0.5 180.319V180.819H1H36.1655C20.3746 194.632 14.351 217.504 22.8255 237.995L23.0166 238.457L23.4788 238.266L53.0767 226.008C44.7301 244.546 48.2208 267.104 63.4092 282.296L63.7628 282.649L64.1164 282.296L89.0661 257.34C87.2427 278.625 99.2228 299.505 119.998 308.126L120.46 308.318L120.652 307.856L133.063 277.86C140.385 296.589 158.661 309.88 179.971 309.88H180.471V309.38V274.989C194.226 291.284 217.452 297.662 238.229 289.04L238.691 288.848L238.5 288.386L225.649 257.365C244.182 265.713 266.734 262.221 281.923 247.03L282.276 246.676L281.923 246.323L258.505 222.899C279.419 224.241 299.868 212.338 308.344 191.918L308.535 191.457L308.074 191.265L275.978 177.906C295.499 170.986 309.5 152.338 309.5 130.44Z" fill="#FF89FA" stroke="#232323"/>
<path d="M424.5 130.44V129.94H424H391.835C406.915 116.012 412.518 93.7167 404.187 73.6583L403.995 73.1974L403.534 73.388L370.894 86.8778C380.508 67.9463 377.359 44.3097 361.592 28.4643L361.238 28.1089L360.884 28.4634L338.152 51.2009C338.595 31.0258 326.851 11.7143 307.089 3.52713L306.627 3.33595L306.436 3.79722L293.034 36.0557C286.582 15.6635 267.501 0.879517 245.029 0.879517H244.529V1.37952V34.3344C230.55 19.75 208.621 14.4265 188.858 22.614L188.397 22.8051L188.587 23.2667L201.478 54.4989C182.551 44.8825 158.92 48.0313 143.078 63.8032L142.723 64.1567L143.077 64.511L167.278 88.7173C146.808 87.9281 127.001 99.752 118.743 119.811L118.553 120.273L119.014 120.464L149.08 132.922C129.493 139.707 115.5 158.355 115.5 180.319V180.819H116H151.166C135.375 194.632 129.351 217.504 137.825 237.995L138.017 238.457L138.479 238.266L168.077 226.008C159.73 244.546 163.221 267.104 178.409 282.296L178.763 282.649L179.116 282.296L204.066 257.34C202.243 278.625 214.223 299.505 234.998 308.126L235.46 308.318L235.652 307.856L248.063 277.86C255.385 296.589 273.661 309.88 294.971 309.88H295.471V309.38V274.989C309.226 291.284 332.452 297.662 353.229 289.04L353.691 288.848L353.5 288.386L340.649 257.365C359.182 265.713 381.734 262.221 396.923 247.03L397.276 246.676L396.923 246.323L373.505 222.899C394.419 224.241 414.868 212.338 423.344 191.918L423.535 191.457L423.074 191.265L390.978 177.906C410.499 170.986 424.5 152.338 424.5 130.44Z" fill="#F557EF" stroke="#232323"/>
<path d="M542.5 130.44V129.94H542H509.835C524.915 116.012 530.518 93.7167 522.187 73.6583L521.995 73.1974L521.534 73.388L488.894 86.8778C498.508 67.9463 495.359 44.3097 479.592 28.4643L479.238 28.1089L478.884 28.4634L456.152 51.2009C456.595 31.0258 444.851 11.7143 425.089 3.52713L424.627 3.33595L424.436 3.79722L411.034 36.0557C404.582 15.6635 385.501 0.879517 363.029 0.879517H362.529V1.37952V34.3344C348.55 19.75 326.621 14.4265 306.858 22.614L306.397 22.8051L306.587 23.2667L319.478 54.4989C300.551 44.8825 276.92 48.0313 261.078 63.8032L260.723 64.1567L261.077 64.511L285.278 88.7173C264.808 87.9281 245.001 99.752 236.743 119.811L236.553 120.273L237.014 120.464L267.08 132.922C247.493 139.707 233.5 158.355 233.5 180.319V180.819H234H269.166C253.375 194.632 247.351 217.504 255.825 237.995L256.017 238.457L256.479 238.266L286.077 226.008C277.73 244.546 281.221 267.104 296.409 282.296L296.763 282.649L297.116 282.296L322.066 257.34C320.243 278.625 332.223 299.505 352.998 308.126L353.46 308.318L353.652 307.856L366.063 277.86C373.385 296.589 391.661 309.88 412.971 309.88H413.471V309.38V274.989C427.226 291.284 450.452 297.662 471.229 289.04L471.691 288.848L471.5 288.386L458.649 257.365C477.182 265.713 499.734 262.221 514.923 247.03L515.276 246.676L514.923 246.323L491.505 222.899C512.419 224.241 532.868 212.338 541.344 191.918L541.535 191.457L541.074 191.265L508.978 177.906C528.499 170.986 542.5 152.338 542.5 130.44Z" fill="#DE31D7" stroke="#232323"/>
</svg>
