<svg width="543" height="311" viewBox="0 0 543 311" fill="none" xmlns="http://www.w3.org/2000/svg">
<path d="M32.2064 156.195C51.9993 152.896 71.0025 159.396 89.2992 166.858C76.8447 189.443 69.3692 214.499 67.6985 239.56L67.6983 239.564C66.8535 253.925 70.233 268.296 78.6872 280.977L78.7147 281.018L78.7497 281.053C79.9361 282.24 80.6756 283.406 81.6504 284.943C82.0158 285.52 82.4143 286.148 82.8818 286.849L82.8966 286.872L82.9137 286.892C95.5195 302.019 114.981 314.8 135.391 308.045H135.394H135.399H135.404H135.409H135.413H135.418H135.423H135.428H135.433H135.438H135.443H135.448H135.453H135.458H135.463H135.468H135.472H135.477H135.482H135.487H135.492H135.497H135.502H135.507H135.512H135.517H135.522H135.527H135.531H135.536H135.541H135.546H135.551H135.556H135.561H135.566H135.571H135.576H135.581H135.586H135.59H135.595H135.6H135.605H135.61H135.615H135.62H135.625H135.63H135.635H135.64H135.645H135.649H135.654H135.659H135.664H135.669H135.674H135.679H135.684H135.689H135.694H135.699H135.704H135.708H135.713H135.718H135.723H135.728H135.733H135.738H135.743H135.748H135.753H135.758H135.762H135.767H135.772H135.777H135.782H135.787H135.792H135.797H135.802H135.807H135.812H135.817H135.821H135.826H135.831H135.836H135.841H135.846H135.851H135.856H135.861H135.866H135.871H135.876H135.88H135.885H135.89H135.895H135.9H135.905H135.91H135.915H135.92H135.925H135.93H135.935H135.939H135.944H135.949H135.954H135.959H135.964H135.969H135.974H135.979H135.984H135.989H135.994H135.998H136.003H136.008H136.013H136.018H136.023H136.028H136.033H136.038H136.043H136.048H136.053H136.057H136.062H136.067H136.072H136.077H136.082H136.087H136.092H136.097H136.102H136.107H136.111H136.116H136.121H136.126H136.131H136.136H136.141H136.146H136.151H136.156H136.161H136.166H136.17H136.175H136.18H136.185H136.19H136.195H136.2H136.205H136.21H136.215H136.22H136.225H136.229H136.234H136.239H136.244H136.249H136.254H136.259H136.264H136.269H136.274H136.279H136.284H136.288H136.293H136.298H136.303H136.308H136.313H136.318H136.323H136.328H136.333H136.338H136.343H136.347H136.352H136.357H136.362H136.367H136.372H136.377H136.382H136.387H136.392H136.397H136.402H136.406H136.411H136.416H136.421H136.426H136.431H136.436H136.441H136.446H136.451H136.456H136.46H136.465H136.47H136.475H136.48H136.485H136.49H136.495H136.5H136.505H136.51H136.515H136.519H136.524H136.529H136.534H136.539H136.544H136.549H136.554H136.559H136.564H136.569H136.574H136.578H136.583H136.588H136.593H136.598H136.603H136.608H136.613H136.618H136.623H136.628H136.633H136.637H136.642H136.647H136.652H136.657H136.662H136.667H136.672H136.677H136.682H136.687H136.692H136.696H136.701H136.706H136.711H136.716H136.721H136.726H136.731H136.736H136.741H136.746H136.751H136.755H136.76H136.765H136.77H136.775H136.78H136.785H136.79H136.795H136.8H136.805H136.809H136.814H136.819H136.824H136.829H136.834H136.839H136.844H136.849H136.854H136.859H136.864H136.868H136.873H136.878H136.883H136.888H136.893H136.898H136.903H136.908H136.913H136.918H136.923H136.927H136.932H136.937H136.942H136.947H136.952H136.957H136.962H136.967H136.972H136.977H136.982H136.986H136.991H136.996H137.001H137.006H137.011H137.016H137.021H137.026H137.031H137.036H137.041H137.045H137.05H137.055H137.06H137.065H137.07H137.075H137.08H137.085H137.09H137.095H137.1H137.104H137.109H137.114H137.119H137.124H137.129H137.134H137.139H137.144H137.149H137.154H137.158H137.163H137.168H137.173H137.178H137.183H137.188H137.193H137.198H137.203H137.208H137.213H137.217H137.222H137.227H137.232H137.237H137.242H137.247H137.252H137.257H137.262H137.267H137.272H137.276H137.281H137.286H137.291H137.296H137.301H137.306H137.311H137.316H137.321H137.326H137.331H137.335H137.34H137.345H137.35H137.355H137.36H137.365H137.37H137.375H137.38H137.385H137.39H137.394H137.399H137.404H137.409H137.414H137.419H137.424H137.429H137.434H137.439H137.444H137.449H137.453H137.458H137.463H137.468H137.473H137.478H137.483H137.488H137.493H137.498H137.503H137.507H137.512H137.517H137.522H137.527H137.532H137.537H137.542H137.547H137.552H137.557H137.562H137.566H137.571H137.576H137.581H137.586H137.591H137.596H137.601H137.606H137.611H137.616H137.621H137.625H137.63H137.635H137.64H137.645H137.65H137.655H137.66H137.665H137.67H137.675H137.68H137.684H137.689H137.694H137.699H137.704H137.709H137.714H137.719H137.724H137.729H137.734H137.739H137.743H137.748H137.753H137.758H137.763H137.768H137.773H137.778H137.783H137.788H137.793H137.798H137.802H137.807H137.812H137.817H137.822H137.827H137.954L138.066 307.984C147.378 302.904 155.105 294.378 155.105 283.216C155.105 261.601 156.757 240.075 166.543 221.012C175.691 226.761 185.632 230.888 195.554 234.195L195.572 234.201L195.591 234.206C196.638 234.468 197.631 234.654 198.573 234.83C199.14 234.936 199.689 235.039 200.221 235.153C201.663 235.462 203.088 235.87 204.716 236.685C206.472 237.563 208.224 237.576 209.856 237.576C210.674 237.977 211.303 238.186 211.908 238.388L211.912 238.39C212.538 238.598 213.139 238.799 213.944 239.201L213.997 239.228L214.055 239.241C235.914 244.286 257.883 245.154 277.343 233.311C295.895 222.347 310.313 203.745 309.464 181.689L309.464 181.683C308.609 164.58 291.544 152.665 275.359 155.204C256.31 156.028 237.288 152.747 220.718 143.758C235.71 116.14 245.696 85.1415 239.829 53.2741C237.286 35.4992 227.126 21.13 211.944 10.165L211.944 10.1648L211.934 10.1583C198.415 0.863525 182.273 -2.57028 167.794 5.09494L167.778 5.10333L167.763 5.11283C160.946 9.37316 155.791 17.0588 155.783 24.8133C155.562 27.7973 155.37 30.7779 155.179 33.7498C153.924 53.2267 152.694 72.3311 143.491 89.5976C115.889 75.4317 84.8862 64.6093 53.0116 70.4792C37.3735 73.0165 22.3758 81.6776 12.4422 93.8304C2.51298 105.978 -2.37382 121.641 2.2651 138.163C2.29066 138.529 2.49217 138.79 2.70443 138.967C2.90703 139.136 3.16163 139.263 3.35477 139.359L3.37767 139.371C3.60156 139.483 3.75406 139.562 3.85793 139.649C3.94105 139.718 3.94047 139.747 3.94021 139.761L3.94019 139.763V139.833L3.95942 139.9C5.69054 145.959 10.0225 149.618 15.2461 151.963C20.4544 154.302 26.6004 155.358 32.0482 156.196L32.1274 156.208L32.2064 156.195Z" fill="#FF81AF" stroke="#232323"/>
<path d="M147.206 156.195C166.999 152.896 186.003 159.396 204.299 166.858C191.845 189.443 184.369 214.499 182.699 239.56L182.698 239.564C181.854 253.925 185.233 268.296 193.687 280.977L193.715 281.018L193.75 281.053C194.936 282.24 195.676 283.406 196.65 284.943C197.016 285.52 197.414 286.148 197.882 286.849L197.897 286.872L197.914 286.892C210.52 302.019 229.981 314.8 250.391 308.045H250.394H250.399H250.404H250.409H250.413H250.418H250.423H250.428H250.433H250.438H250.443H250.448H250.453H250.458H250.463H250.468H250.472H250.477H250.482H250.487H250.492H250.497H250.502H250.507H250.512H250.517H250.522H250.527H250.531H250.536H250.541H250.546H250.551H250.556H250.561H250.566H250.571H250.576H250.581H250.586H250.59H250.595H250.6H250.605H250.61H250.615H250.62H250.625H250.63H250.635H250.64H250.645H250.649H250.654H250.659H250.664H250.669H250.674H250.679H250.684H250.689H250.694H250.699H250.704H250.708H250.713H250.718H250.723H250.728H250.733H250.738H250.743H250.748H250.753H250.758H250.762H250.767H250.772H250.777H250.782H250.787H250.792H250.797H250.802H250.807H250.812H250.817H250.821H250.826H250.831H250.836H250.841H250.846H250.851H250.856H250.861H250.866H250.871H250.876H250.88H250.885H250.89H250.895H250.9H250.905H250.91H250.915H250.92H250.925H250.93H250.935H250.939H250.944H250.949H250.954H250.959H250.964H250.969H250.974H250.979H250.984H250.989H250.994H250.998H251.003H251.008H251.013H251.018H251.023H251.028H251.033H251.038H251.043H251.048H251.053H251.057H251.062H251.067H251.072H251.077H251.082H251.087H251.092H251.097H251.102H251.107H251.111H251.116H251.121H251.126H251.131H251.136H251.141H251.146H251.151H251.156H251.161H251.166H251.17H251.175H251.18H251.185H251.19H251.195H251.2H251.205H251.21H251.215H251.22H251.225H251.229H251.234H251.239H251.244H251.249H251.254H251.259H251.264H251.269H251.274H251.279H251.284H251.288H251.293H251.298H251.303H251.308H251.313H251.318H251.323H251.328H251.333H251.338H251.343H251.347H251.352H251.357H251.362H251.367H251.372H251.377H251.382H251.387H251.392H251.397H251.402H251.406H251.411H251.416H251.421H251.426H251.431H251.436H251.441H251.446H251.451H251.456H251.46H251.465H251.47H251.475H251.48H251.485H251.49H251.495H251.5H251.505H251.51H251.515H251.519H251.524H251.529H251.534H251.539H251.544H251.549H251.554H251.559H251.564H251.569H251.574H251.578H251.583H251.588H251.593H251.598H251.603H251.608H251.613H251.618H251.623H251.628H251.633H251.637H251.642H251.647H251.652H251.657H251.662H251.667H251.672H251.677H251.682H251.687H251.692H251.696H251.701H251.706H251.711H251.716H251.721H251.726H251.731H251.736H251.741H251.746H251.751H251.755H251.76H251.765H251.77H251.775H251.78H251.785H251.79H251.795H251.8H251.805H251.809H251.814H251.819H251.824H251.829H251.834H251.839H251.844H251.849H251.854H251.859H251.864H251.868H251.873H251.878H251.883H251.888H251.893H251.898H251.903H251.908H251.913H251.918H251.923H251.927H251.932H251.937H251.942H251.947H251.952H251.957H251.962H251.967H251.972H251.977H251.982H251.986H251.991H251.996H252.001H252.006H252.011H252.016H252.021H252.026H252.031H252.036H252.041H252.045H252.05H252.055H252.06H252.065H252.07H252.075H252.08H252.085H252.09H252.095H252.1H252.104H252.109H252.114H252.119H252.124H252.129H252.134H252.139H252.144H252.149H252.154H252.158H252.163H252.168H252.173H252.178H252.183H252.188H252.193H252.198H252.203H252.208H252.213H252.217H252.222H252.227H252.232H252.237H252.242H252.247H252.252H252.257H252.262H252.267H252.272H252.276H252.281H252.286H252.291H252.296H252.301H252.306H252.311H252.316H252.321H252.326H252.331H252.335H252.34H252.345H252.35H252.355H252.36H252.365H252.37H252.375H252.38H252.385H252.39H252.394H252.399H252.404H252.409H252.414H252.419H252.424H252.429H252.434H252.439H252.444H252.449H252.453H252.458H252.463H252.468H252.473H252.478H252.483H252.488H252.493H252.498H252.503H252.507H252.512H252.517H252.522H252.527H252.532H252.537H252.542H252.547H252.552H252.557H252.562H252.566H252.571H252.576H252.581H252.586H252.591H252.596H252.601H252.606H252.611H252.616H252.621H252.625H252.63H252.635H252.64H252.645H252.65H252.655H252.66H252.665H252.67H252.675H252.68H252.684H252.689H252.694H252.699H252.704H252.709H252.714H252.719H252.724H252.729H252.734H252.739H252.743H252.748H252.753H252.758H252.763H252.768H252.773H252.778H252.783H252.788H252.793H252.798H252.802H252.807H252.812H252.817H252.822H252.827H252.954L253.066 307.984C262.378 302.904 270.105 294.378 270.105 283.216C270.105 261.601 271.757 240.075 281.543 221.012C290.691 226.761 300.632 230.888 310.554 234.195L310.572 234.201L310.591 234.206C311.638 234.468 312.631 234.654 313.573 234.83C314.14 234.936 314.689 235.039 315.221 235.153C316.663 235.462 318.088 235.87 319.716 236.685C321.472 237.563 323.224 237.576 324.856 237.576C325.674 237.977 326.303 238.186 326.908 238.388L326.912 238.39C327.538 238.598 328.139 238.799 328.944 239.201L328.997 239.228L329.055 239.241C350.914 244.286 372.883 245.154 392.343 233.311C410.895 222.347 425.313 203.745 424.464 181.689L424.464 181.683C423.609 164.58 406.544 152.665 390.359 155.204C371.31 156.028 352.288 152.747 335.718 143.758C350.71 116.14 360.696 85.1415 354.829 53.2741C352.286 35.4992 342.126 21.13 326.944 10.165L326.944 10.1648L326.934 10.1583C313.415 0.863525 297.273 -2.57028 282.794 5.09494L282.778 5.10333L282.763 5.11283C275.946 9.37316 270.791 17.0588 270.783 24.8133C270.562 27.7973 270.37 30.7779 270.179 33.7498C268.924 53.2267 267.694 72.3311 258.491 89.5976C230.889 75.4317 199.886 64.6093 168.012 70.4792C152.373 73.0165 137.376 81.6776 127.442 93.8304C117.513 105.978 112.626 121.641 117.265 138.163C117.291 138.529 117.492 138.79 117.704 138.967C117.907 139.136 118.162 139.263 118.355 139.359L118.378 139.371C118.602 139.483 118.754 139.562 118.858 139.649C118.941 139.718 118.94 139.747 118.94 139.761L118.94 139.763V139.833L118.959 139.9C120.691 145.959 125.023 149.618 130.246 151.963C135.454 154.302 141.6 155.358 147.048 156.196L147.127 156.208L147.206 156.195Z" fill="#FE60A2" stroke="#232323"/>
<path d="M265.206 156.195C284.999 152.896 304.003 159.396 322.299 166.858C309.845 189.443 302.369 214.499 300.699 239.56L300.698 239.564C299.854 253.925 303.233 268.296 311.687 280.977L311.715 281.018L311.75 281.053C312.936 282.24 313.676 283.406 314.65 284.943C315.016 285.52 315.414 286.148 315.882 286.849L315.897 286.872L315.914 286.892C328.52 302.019 347.981 314.8 368.391 308.045H368.394H368.399H368.404H368.409H368.413H368.418H368.423H368.428H368.433H368.438H368.443H368.448H368.453H368.458H368.463H368.468H368.472H368.477H368.482H368.487H368.492H368.497H368.502H368.507H368.512H368.517H368.522H368.527H368.531H368.536H368.541H368.546H368.551H368.556H368.561H368.566H368.571H368.576H368.581H368.586H368.59H368.595H368.6H368.605H368.61H368.615H368.62H368.625H368.63H368.635H368.64H368.645H368.649H368.654H368.659H368.664H368.669H368.674H368.679H368.684H368.689H368.694H368.699H368.704H368.708H368.713H368.718H368.723H368.728H368.733H368.738H368.743H368.748H368.753H368.758H368.762H368.767H368.772H368.777H368.782H368.787H368.792H368.797H368.802H368.807H368.812H368.817H368.821H368.826H368.831H368.836H368.841H368.846H368.851H368.856H368.861H368.866H368.871H368.876H368.88H368.885H368.89H368.895H368.9H368.905H368.91H368.915H368.92H368.925H368.93H368.935H368.939H368.944H368.949H368.954H368.959H368.964H368.969H368.974H368.979H368.984H368.989H368.994H368.998H369.003H369.008H369.013H369.018H369.023H369.028H369.033H369.038H369.043H369.048H369.053H369.057H369.062H369.067H369.072H369.077H369.082H369.087H369.092H369.097H369.102H369.107H369.111H369.116H369.121H369.126H369.131H369.136H369.141H369.146H369.151H369.156H369.161H369.166H369.17H369.175H369.18H369.185H369.19H369.195H369.2H369.205H369.21H369.215H369.22H369.225H369.229H369.234H369.239H369.244H369.249H369.254H369.259H369.264H369.269H369.274H369.279H369.284H369.288H369.293H369.298H369.303H369.308H369.313H369.318H369.323H369.328H369.333H369.338H369.343H369.347H369.352H369.357H369.362H369.367H369.372H369.377H369.382H369.387H369.392H369.397H369.402H369.406H369.411H369.416H369.421H369.426H369.431H369.436H369.441H369.446H369.451H369.456H369.46H369.465H369.47H369.475H369.48H369.485H369.49H369.495H369.5H369.505H369.51H369.515H369.519H369.524H369.529H369.534H369.539H369.544H369.549H369.554H369.559H369.564H369.569H369.574H369.578H369.583H369.588H369.593H369.598H369.603H369.608H369.613H369.618H369.623H369.628H369.633H369.637H369.642H369.647H369.652H369.657H369.662H369.667H369.672H369.677H369.682H369.687H369.692H369.696H369.701H369.706H369.711H369.716H369.721H369.726H369.731H369.736H369.741H369.746H369.751H369.755H369.76H369.765H369.77H369.775H369.78H369.785H369.79H369.795H369.8H369.805H369.809H369.814H369.819H369.824H369.829H369.834H369.839H369.844H369.849H369.854H369.859H369.864H369.868H369.873H369.878H369.883H369.888H369.893H369.898H369.903H369.908H369.913H369.918H369.923H369.927H369.932H369.937H369.942H369.947H369.952H369.957H369.962H369.967H369.972H369.977H369.982H369.986H369.991H369.996H370.001H370.006H370.011H370.016H370.021H370.026H370.031H370.036H370.041H370.045H370.05H370.055H370.06H370.065H370.07H370.075H370.08H370.085H370.09H370.095H370.1H370.104H370.109H370.114H370.119H370.124H370.129H370.134H370.139H370.144H370.149H370.154H370.158H370.163H370.168H370.173H370.178H370.183H370.188H370.193H370.198H370.203H370.208H370.213H370.217H370.222H370.227H370.232H370.237H370.242H370.247H370.252H370.257H370.262H370.267H370.272H370.276H370.281H370.286H370.291H370.296H370.301H370.306H370.311H370.316H370.321H370.326H370.331H370.335H370.34H370.345H370.35H370.355H370.36H370.365H370.37H370.375H370.38H370.385H370.39H370.394H370.399H370.404H370.409H370.414H370.419H370.424H370.429H370.434H370.439H370.444H370.449H370.453H370.458H370.463H370.468H370.473H370.478H370.483H370.488H370.493H370.498H370.503H370.507H370.512H370.517H370.522H370.527H370.532H370.537H370.542H370.547H370.552H370.557H370.562H370.566H370.571H370.576H370.581H370.586H370.591H370.596H370.601H370.606H370.611H370.616H370.621H370.625H370.63H370.635H370.64H370.645H370.65H370.655H370.66H370.665H370.67H370.675H370.68H370.684H370.689H370.694H370.699H370.704H370.709H370.714H370.719H370.724H370.729H370.734H370.739H370.743H370.748H370.753H370.758H370.763H370.768H370.773H370.778H370.783H370.788H370.793H370.798H370.802H370.807H370.812H370.817H370.822H370.827H370.954L371.066 307.984C380.378 302.904 388.105 294.378 388.105 283.216C388.105 261.601 389.757 240.075 399.543 221.012C408.691 226.761 418.632 230.888 428.554 234.195L428.572 234.201L428.591 234.206C429.638 234.468 430.631 234.654 431.573 234.83C432.14 234.936 432.689 235.039 433.221 235.153C434.663 235.462 436.088 235.87 437.716 236.685C439.472 237.563 441.224 237.576 442.856 237.576C443.674 237.977 444.303 238.186 444.908 238.388L444.912 238.39C445.538 238.598 446.139 238.799 446.944 239.201L446.997 239.228L447.055 239.241C468.914 244.286 490.883 245.154 510.343 233.311C528.895 222.347 543.313 203.745 542.464 181.689L542.464 181.683C541.609 164.58 524.544 152.665 508.359 155.204C489.31 156.028 470.288 152.747 453.718 143.758C468.71 116.14 478.696 85.1415 472.829 53.2741C470.286 35.4992 460.126 21.13 444.944 10.165L444.944 10.1648L444.934 10.1583C431.415 0.863525 415.273 -2.57028 400.794 5.09494L400.778 5.10333L400.763 5.11283C393.946 9.37316 388.791 17.0588 388.783 24.8133C388.562 27.7973 388.37 30.7779 388.179 33.7498C386.924 53.2267 385.694 72.3311 376.491 89.5976C348.889 75.4317 317.886 64.6093 286.012 70.4792C270.373 73.0165 255.376 81.6776 245.442 93.8304C235.513 105.978 230.626 121.641 235.265 138.163C235.291 138.529 235.492 138.79 235.704 138.967C235.907 139.136 236.162 139.263 236.355 139.359L236.378 139.371C236.602 139.483 236.754 139.562 236.858 139.649C236.941 139.718 236.94 139.747 236.94 139.761L236.94 139.763V139.833L236.959 139.9C238.691 145.959 243.023 149.618 248.246 151.963C253.454 154.302 259.6 155.358 265.048 156.196L265.127 156.208L265.206 156.195Z" fill="#E63881" stroke="#232323"/>
</svg>
