<svg width="3157" height="869" viewBox="0 0 3157 869" fill="none" xmlns="http://www.w3.org/2000/svg">
<g clip-path="url(#clip0_2445_2943)">
<path d="M2994.72 747.93C3046.73 676.153 3040.48 575.072 2975.96 510.539C2906.18 440.738 2794.26 438.762 2722.17 504.942V495.723C2722.17 394.313 2639.88 312 2538.5 312C2437.12 312 2354.83 394.313 2354.83 495.723V504.942C2282.74 439.091 2170.82 440.738 2101.04 510.539C2036.2 575.402 2029.94 676.153 2082.28 747.93C1991.1 758.466 1920 836.169 1920 930.335C1920 1031.75 2002.29 1114.06 2103.67 1114.06H2112.89L2101.37 1125.58C2029.61 1197.36 2029.61 1313.58 2101.37 1385.36C2171.48 1455.49 2284.71 1457.14 2356.47 1389.31C2368.32 1479.2 2445.35 1549 2538.5 1549C2631.65 1549 2708.68 1479.53 2720.53 1389.31C2792.62 1456.81 2905.52 1455.49 2975.63 1385.36C3047.39 1313.58 3047.39 1197.36 2975.63 1125.58L2964.11 1114.06H2973.33C3074.71 1114.06 3157 1031.75 3157 930.335C3156.67 836.169 3085.9 758.466 2994.72 747.93Z" fill="#90F5BE"/>
<path d="M1074.72 747.93C1126.73 676.153 1120.48 575.072 1055.96 510.539C986.177 440.738 874.261 438.762 802.174 504.942V495.723C802.174 394.313 719.883 312 618.5 312C517.117 312 434.826 394.313 434.826 495.723V504.942C362.739 439.091 250.823 440.738 181.04 510.539C116.195 575.402 109.941 676.153 162.278 747.93C71.1 758.466 0 836.169 0 930.335C0 1031.75 82.291 1114.06 183.674 1114.06H192.89L181.37 1125.58C109.612 1197.36 109.612 1313.58 181.37 1385.36C251.482 1455.49 364.714 1457.14 436.472 1389.31C448.322 1479.2 525.346 1549 618.5 1549C711.654 1549 788.678 1479.53 800.528 1389.31C872.615 1456.81 985.518 1455.49 1055.63 1385.36C1127.39 1313.58 1127.39 1197.36 1055.63 1125.58L1044.11 1114.06H1053.33C1154.71 1114.06 1237 1031.75 1237 930.335C1236.67 836.169 1165.9 758.466 1074.72 747.93Z" fill="#90F5BE"/>
<path d="M2034.72 435.93C2086.73 364.153 2080.48 263.072 2015.96 198.539C1946.18 128.738 1834.26 126.762 1762.17 192.942V183.723C1762.17 82.313 1679.88 0 1578.5 0C1477.12 0 1394.83 82.313 1394.83 183.723V192.942C1322.74 127.091 1210.82 128.738 1141.04 198.539C1076.19 263.402 1069.94 364.153 1122.28 435.93C1031.1 446.466 960 524.169 960 618.335C960 719.745 1042.29 802.058 1143.67 802.058H1152.89L1141.37 813.582C1069.61 885.359 1069.61 1001.58 1141.37 1073.36C1211.48 1143.49 1324.71 1145.14 1396.47 1077.31C1408.32 1167.2 1485.35 1237 1578.5 1237C1671.65 1237 1748.68 1167.53 1760.53 1077.31C1832.62 1144.81 1945.52 1143.49 2015.63 1073.36C2087.39 1001.58 2087.39 885.359 2015.63 813.582L2004.11 802.058H2013.33C2114.71 802.058 2197 719.745 2197 618.335C2196.67 524.169 2125.9 446.466 2034.72 435.93Z" fill="#24EE81"/>
<g filter="url(#filter0_b_2445_2943)">
<path d="M2034.72 435.93C2086.73 364.153 2080.48 263.072 2015.96 198.539C1946.18 128.738 1834.26 126.762 1762.17 192.942V183.723C1762.17 82.313 1679.88 0 1578.5 0C1477.12 0 1394.83 82.313 1394.83 183.723V192.942C1322.74 127.091 1210.82 128.738 1141.04 198.539C1076.2 263.402 1069.94 364.153 1122.28 435.93C1031.1 446.466 960 524.169 960 618.335C960 719.745 1042.29 802.058 1143.67 802.058H1152.89L1141.37 813.582C1069.61 885.359 1069.61 1001.58 1141.37 1073.36C1211.48 1143.49 1324.71 1145.14 1396.47 1077.31C1408.32 1167.2 1485.35 1237 1578.5 1237C1671.65 1237 1748.68 1167.53 1760.53 1077.31C1832.62 1144.81 1945.52 1143.49 2015.63 1073.36C2087.39 1001.58 2087.39 885.359 2015.63 813.582L2004.11 802.058H2013.33C2114.71 802.058 2197 719.745 2197 618.335C2196.67 524.169 2125.9 446.466 2034.72 435.93Z" fill="#24EE81"/>
</g>
<path d="M1479.31 421.25V417.375H1497.84V421.25H1490.91V440H1486.25V421.25H1479.31ZM1505.88 440.344C1500.69 440.344 1497.5 436.969 1497.5 431.594C1497.5 426.344 1500.72 422.812 1505.69 422.812C1510.16 422.812 1513.66 425.625 1513.66 431.406V432.719H1502.06C1502.06 435.281 1503.59 436.875 1505.97 436.875C1507.53 436.875 1508.66 436.188 1509.12 435.156H1513.53C1512.88 438.281 1510.06 440.344 1505.88 440.344ZM1502.06 429.812H1509.28C1509.28 427.75 1507.84 426.281 1505.78 426.281C1503.66 426.281 1502.14 427.859 1502.06 429.812ZM1515.75 435.25C1515.75 431.469 1518.81 430.219 1522.06 430.031C1523.28 429.953 1525.56 429.844 1526.28 429.812V428.438C1526.25 427.031 1525.28 426.188 1523.56 426.188C1522 426.188 1521 426.906 1520.75 428.062H1516.34C1516.62 425.125 1519.19 422.812 1523.69 422.812C1527.38 422.812 1530.88 424.469 1530.88 428.562V440H1526.5V437.656H1526.38C1525.53 439.219 1523.94 440.312 1521.41 440.312C1518.16 440.312 1515.75 438.625 1515.75 435.25ZM1520.19 435.125C1520.19 436.438 1521.25 437.125 1522.72 437.125C1524.81 437.125 1526.31 435.719 1526.28 433.938V432.688C1525.58 432.719 1523.61 432.828 1522.81 432.906C1521.22 433.062 1520.19 433.812 1520.19 435.125ZM1534.41 440V423.031H1538.81V426H1539C1539.72 424.031 1541.44 422.812 1543.72 422.812C1546.06 422.812 1547.78 424.031 1548.34 426H1548.5C1549.22 424.062 1551.12 422.812 1553.62 422.812C1556.78 422.812 1558.97 424.906 1558.97 428.594V440H1554.34V429.5C1554.34 427.562 1553.22 426.625 1551.69 426.625C1549.94 426.625 1548.94 427.844 1548.94 429.625V440H1544.44V429.375C1544.44 427.688 1543.38 426.625 1541.81 426.625C1540.25 426.625 1539.03 427.875 1539.03 429.812V440H1534.41ZM1594.88 430.125V433.312H1583.81V442.875H1579.88V433.312H1568.94V430.125H1594.88ZM1592.56 415.938V419.062H1584.28C1584.67 421.844 1587.81 424.641 1593.66 425.344L1592.22 428.469C1587.22 427.797 1583.64 425.656 1581.94 422.719C1580.19 425.656 1576.64 427.797 1571.69 428.469L1570.22 425.344C1575.97 424.641 1579.14 421.844 1579.59 419.062H1571.28V415.938H1592.56ZM1619.88 416.938V420.25C1619.88 424.375 1619.88 428.344 1618.56 434.5L1614.59 434.125C1615.16 431.75 1615.47 429.672 1615.69 427.75L1599.19 428.562L1598.69 425.375L1615.88 424.75C1615.95 423.203 1615.95 421.719 1615.97 420.25V420.125H1599.56V416.938H1619.88ZM1622.53 436.219V439.469H1596.59V436.219H1622.53ZM1646.81 414.438V421.406H1650.66V424.625H1646.81V431.531H1642.81V414.438H1646.81ZM1646.81 432.781V442.875H1642.81V435.938H1627.66V432.781H1646.81ZM1629.06 416.219V420H1634.88V416.219H1638.88V430.031H1625.09V416.219H1629.06ZM1629.06 426.875H1634.88V423.094H1629.06V426.875ZM1666.88 418.188C1666.88 422.344 1670.56 426.812 1677 427.906L1675.25 431.219C1670.3 430.234 1666.61 427.453 1664.78 423.781C1662.89 427.422 1659.2 430.219 1654.28 431.219L1652.56 427.906C1658.88 426.781 1662.59 422.312 1662.62 418.188V416.125H1666.88V418.188ZM1677.94 436.094V439.375H1651.91V436.094H1677.94Z" fill="#232323"/>
<path d="M1471.1 452.742V464.054H1470.1V452.742H1471.1ZM1462.21 457.554C1462.22 455.154 1463.41 453.625 1465.09 453.618C1466.77 453.625 1467.98 455.154 1467.98 457.554C1467.98 459.959 1466.77 461.483 1465.09 461.477C1463.41 461.483 1462.22 459.959 1462.21 457.554ZM1463.18 457.554C1463.18 459.388 1463.96 460.594 1465.09 460.588C1466.23 460.594 1467.01 459.388 1467.01 457.554C1467.01 455.719 1466.23 454.513 1465.09 454.507C1463.96 454.513 1463.18 455.719 1463.18 457.554ZM1481.79 452.742V457.554H1483.59V458.392H1481.79V464.028H1480.79V452.742H1481.79ZM1472.89 461.02C1473.81 461.02 1474.88 461.013 1476 460.981V459.737C1474.69 459.585 1473.83 458.811 1473.84 457.693C1473.83 456.417 1474.91 455.592 1476.51 455.599C1478.08 455.592 1479.18 456.417 1479.19 457.693C1479.18 458.817 1478.31 459.585 1477 459.737V460.943C1478.05 460.893 1479.12 460.804 1480.1 460.664L1480.16 461.426C1477.7 461.845 1475.03 461.87 1473.05 461.87L1472.89 461.02ZM1473.09 454.938V454.126H1476V452.768H1477V454.126H1479.9V454.938H1473.09ZM1474.77 457.693C1474.77 458.474 1475.46 458.988 1476.51 458.976C1477.54 458.988 1478.23 458.474 1478.23 457.693C1478.23 456.906 1477.54 456.373 1476.51 456.373C1475.46 456.373 1474.77 456.906 1474.77 457.693ZM1487.3 453.618C1488.33 453.625 1489.18 454.228 1489.67 455.269H1492.63V452.742H1493.62V464.054H1492.63V459.674H1489.74C1489.27 460.816 1488.39 461.483 1487.3 461.477C1485.63 461.483 1484.46 459.959 1484.47 457.554C1484.46 455.154 1485.63 453.625 1487.3 453.618ZM1485.42 457.554C1485.43 459.388 1486.19 460.594 1487.3 460.588C1488.4 460.594 1489.18 459.388 1489.18 457.554C1489.18 455.719 1488.4 454.513 1487.3 454.507C1486.19 454.513 1485.43 455.719 1485.42 457.554ZM1489.95 456.106C1490.06 456.544 1490.12 457.027 1490.12 457.554C1490.12 458.017 1490.07 458.455 1489.99 458.849H1492.63V456.106H1489.95ZM1505.15 452.742V464.028H1504.2V458.112H1502.53V463.444H1501.62V452.996H1502.53V457.287H1504.2V452.742H1505.15ZM1495.92 461.235V454.126H1500.15V454.951H1496.91V460.385C1498.46 460.378 1499.54 460.321 1500.79 460.067L1500.88 460.905C1499.52 461.185 1498.38 461.229 1496.64 461.235H1495.92ZM1519.56 452.742V459.737H1518.6V452.742H1519.56ZM1509.93 457.135C1511.5 457.135 1514.05 457.109 1515.94 456.817L1516.02 457.49C1515.23 457.655 1514.36 457.757 1513.51 457.82V459.699H1512.55V457.877C1511.62 457.922 1510.75 457.922 1510.05 457.922L1509.93 457.135ZM1510.53 454.824C1510.53 453.777 1511.51 453.148 1512.99 453.148C1514.47 453.148 1515.46 453.777 1515.47 454.824C1515.46 455.846 1514.47 456.494 1512.99 456.487C1511.51 456.494 1510.53 455.846 1510.53 454.824ZM1511.44 454.824C1511.44 455.402 1512.05 455.764 1512.99 455.764C1513.94 455.764 1514.56 455.402 1514.57 454.824C1514.56 454.228 1513.94 453.859 1512.99 453.872C1512.05 453.859 1511.44 454.228 1511.44 454.824ZM1511.95 463.876V460.144H1512.93V461.21H1518.57V460.144H1519.56V463.876H1511.95ZM1512.93 463.076H1518.57V462.01H1512.93V463.076ZM1514.56 459.052V458.328H1516.56V452.945H1517.51V459.699H1516.56V459.052H1514.56ZM1534.13 452.742V464.028H1533.15V458.125H1531.59V463.47H1530.64V453.047H1531.59V457.3H1533.15V452.742H1534.13ZM1524.51 460.905C1527.13 459.439 1528.21 457.376 1528.38 455.04H1524.94V454.215H1529.36C1529.35 457.084 1528.34 459.794 1525.09 461.604L1524.51 460.905ZM1537.19 453.225V454.85H1540.48V453.225H1541.47V458.138H1536.21V453.225H1537.19ZM1537.19 457.325H1540.48V455.624H1537.19V457.325ZM1537.36 459.915V459.115H1544.55V461.845H1538.36V463.089H1544.97V463.901H1537.38V461.083H1543.56V459.915H1537.36ZM1543.56 458.582V452.742H1544.55V455.192H1546.26V456.03H1544.55V458.582H1543.56ZM1560.52 458.328V459.128H1550.23V458.328H1554.89V457.008H1551.54V453.275H1559.24V454.075H1552.51V456.195H1559.32V457.008H1555.85V458.328H1560.52ZM1551.47 461.984C1551.47 460.696 1552.93 459.959 1555.37 459.953C1557.79 459.959 1559.24 460.696 1559.26 461.984C1559.24 463.286 1557.79 464.016 1555.37 464.028C1552.93 464.016 1551.47 463.286 1551.47 461.984ZM1552.49 461.984C1552.48 462.778 1553.56 463.235 1555.37 463.229C1557.16 463.235 1558.25 462.778 1558.25 461.984C1558.25 461.204 1557.16 460.74 1555.37 460.74C1553.56 460.74 1552.48 461.204 1552.49 461.984ZM1564.49 453.618C1566.15 453.625 1567.33 455.154 1567.34 457.554C1567.33 459.959 1566.15 461.483 1564.49 461.477C1562.81 461.483 1561.64 459.959 1561.64 457.554C1561.64 455.154 1562.81 453.625 1564.49 453.618ZM1562.58 457.554C1562.59 459.388 1563.37 460.594 1564.49 460.588C1565.62 460.594 1566.38 459.388 1566.38 457.554C1566.38 455.719 1565.62 454.513 1564.49 454.507C1563.37 454.513 1562.59 455.719 1562.58 457.554ZM1569.21 464.028V452.742H1570.2V457.249H1572.09V458.112H1570.2V464.028H1569.21ZM1582.02 452.742V464.054H1581.03V452.742H1582.02ZM1573.33 454.621V453.796H1578.59V457.808H1574.38V460.474C1576.25 460.48 1577.92 460.391 1579.94 460.067L1580.04 460.905C1577.96 461.229 1576.25 461.312 1574.3 461.312H1573.36V456.995H1577.59V454.621H1573.33ZM1587.76 463V453.809H1593.33V454.824H1588.9V457.896H1593.04V458.899H1588.9V461.984H1593.39V463H1587.76ZM1595.13 463V453.809H1600.67V454.824H1596.27V457.896H1600.25V458.899H1596.27V463H1595.13ZM1608.39 453.809H1609.53V459.89C1609.53 461.781 1608.11 463.159 1605.95 463.165C1603.78 463.159 1602.37 461.781 1602.37 459.89V453.809H1603.51V459.801C1603.5 461.134 1604.43 462.092 1605.95 462.099C1607.47 462.092 1608.38 461.134 1608.39 459.801V453.809ZM1611.56 463V453.809H1614.78C1616.71 453.809 1617.62 454.894 1617.62 456.246C1617.62 457.427 1616.92 457.954 1616.12 458.176V458.265C1616.97 458.315 1617.98 459.103 1617.98 460.562C1617.98 461.94 1617.07 463 1614.9 463H1611.56ZM1612.7 461.984H1614.89C1616.33 461.984 1616.89 461.35 1616.88 460.55C1616.89 459.617 1616.13 458.823 1614.95 458.823H1612.7V461.984ZM1612.7 457.833H1614.75C1615.74 457.839 1616.52 457.217 1616.52 456.259C1616.52 455.459 1615.98 454.824 1614.78 454.824H1612.7V457.833ZM1622.49 461.121V460.182L1626.63 453.809H1628.04V460.118H1629.32V461.121H1628.04V463H1626.95V461.121H1622.49ZM1623.72 460.118H1626.95V455.256H1626.83L1623.72 460.042V460.118ZM1639.76 452.742V464.028H1638.75V452.742H1639.76ZM1630.56 461.096C1633.62 459.648 1635.18 457.484 1635.4 454.786H1631.09V453.974H1636.42C1636.4 457.217 1634.89 460.093 1631.11 461.908L1630.56 461.096ZM1650.5 456.119C1650.4 455.218 1649.56 454.697 1648.47 454.697C1647.25 454.697 1646.45 455.332 1646.45 456.208C1646.45 457.173 1647.53 457.535 1648.22 457.706L1649.14 457.96C1650.12 458.214 1651.74 458.779 1651.74 460.499C1651.74 461.997 1650.53 463.159 1648.4 463.165C1646.42 463.159 1645.2 462.137 1645.09 460.613H1646.26C1646.35 461.642 1647.31 462.13 1648.4 462.124C1649.67 462.13 1650.62 461.477 1650.62 460.474C1650.62 459.579 1649.77 459.236 1648.81 458.963L1647.68 458.658C1646.24 458.239 1645.34 457.503 1645.34 456.259C1645.34 454.704 1646.72 453.682 1648.5 453.682C1650.29 453.682 1651.57 454.723 1651.61 456.119H1650.5ZM1655.08 463L1652.57 453.809H1653.72L1655.64 461.248H1655.73L1657.67 453.809H1658.95L1660.91 461.248H1660.98L1662.9 453.809H1664.06L1661.54 463H1660.36L1658.35 455.726H1658.28L1656.26 463H1655.08ZM1670.28 456.119C1670.18 455.218 1669.34 454.697 1668.24 454.697C1667.03 454.697 1666.23 455.332 1666.23 456.208C1666.23 457.173 1667.31 457.535 1668 457.706L1668.92 457.96C1669.9 458.214 1671.52 458.779 1671.52 460.499C1671.52 461.997 1670.31 463.159 1668.18 463.165C1666.2 463.159 1664.98 462.137 1664.87 460.613H1666.04C1666.13 461.642 1667.09 462.13 1668.18 462.124C1669.45 462.13 1670.4 461.477 1670.4 460.474C1670.4 459.579 1669.55 459.236 1668.59 458.963L1667.46 458.658C1666.02 458.239 1665.12 457.503 1665.12 456.259C1665.12 454.704 1666.5 453.682 1668.28 453.682C1670.07 453.682 1671.35 454.723 1671.39 456.119H1670.28ZM1679.44 463.127C1677.61 463.127 1676.3 462.149 1676.24 460.689H1677.4C1677.46 461.565 1678.33 462.111 1679.43 462.111C1680.64 462.111 1681.52 461.458 1681.52 460.499C1681.52 459.496 1680.72 458.792 1679.29 458.785H1678.54V457.782H1679.29C1680.41 457.782 1681.19 457.154 1681.18 456.208C1681.19 455.288 1680.51 454.678 1679.47 454.672C1678.48 454.678 1677.59 455.218 1677.54 456.119H1676.43C1676.49 454.659 1677.85 453.682 1679.48 453.682C1681.23 453.682 1682.3 454.831 1682.29 456.145C1682.3 457.192 1681.69 457.954 1680.72 458.227V458.29C1681.92 458.474 1682.65 459.331 1682.64 460.499C1682.65 462.01 1681.28 463.127 1679.44 463.127ZM1689.95 453.44V454.266H1685.55V455.675H1689.64V456.475H1685.55V457.973C1687.95 457.979 1689.29 457.928 1690.88 457.655L1690.98 458.468C1689.34 458.753 1687.95 458.792 1685.46 458.785H1684.55V453.44H1689.95ZM1685.87 463.876V460.042H1693.2V463.876H1685.87ZM1686.84 463.063H1692.23V460.842H1686.84V463.063ZM1692.21 459.483V452.755H1693.2V459.483H1692.21Z" fill="#232323"/>
<rect x="1410.5" y="642.5" width="109" height="34" rx="17" stroke="#232323"/>
<path d="M1553.02 650.219V667.621H1551.48V650.219H1553.02ZM1543.78 651.566C1546.36 651.586 1548.21 653.93 1548.21 657.621C1548.21 661.312 1546.36 663.656 1543.78 663.656C1541.18 663.656 1539.35 661.312 1539.35 657.621C1539.35 653.93 1541.18 651.586 1543.78 651.566ZM1543.78 652.934C1542.04 652.953 1540.83 654.789 1540.83 657.621C1540.83 660.453 1542.04 662.289 1543.78 662.289C1545.52 662.289 1546.73 660.453 1546.73 657.621C1546.73 654.789 1545.52 652.953 1543.78 652.934ZM1561.07 655.551C1561.07 658.324 1562.49 661.176 1564.88 662.445L1563.98 663.598C1562.25 662.65 1561 660.873 1560.36 658.773C1559.74 661 1558.5 662.934 1556.77 663.949L1555.85 662.816C1558.2 661.449 1559.6 658.422 1559.62 655.551V654.75H1556.26V653.48H1559.62V650.863H1561.09V653.48H1564.41V654.75H1561.07V655.551ZM1570.91 650.219V667.582H1569.43V658.559H1567.06V666.703H1565.6V650.59H1567.06V657.25H1569.43V650.219H1570.91ZM1587.67 650.238V663.07H1586.12V658.383H1581.63C1580.83 659.408 1579.54 660.023 1578.06 660.023C1575.46 660.023 1573.55 658.227 1573.55 655.688C1573.55 653.148 1575.46 651.352 1578.06 651.332C1579.53 651.342 1580.79 651.947 1581.61 652.953H1586.12V650.238H1587.67ZM1588.16 665.922V667.211H1576.52V661.723H1578.06V665.922H1588.16ZM1578.06 652.699C1576.28 652.719 1575.01 653.949 1575.01 655.688C1575.01 657.426 1576.28 658.656 1578.06 658.656C1579.76 658.656 1581.07 657.426 1581.07 655.688C1581.07 653.949 1579.76 652.719 1578.06 652.699ZM1582.32 654.223C1582.46 654.672 1582.55 655.16 1582.55 655.688C1582.55 656.195 1582.46 656.674 1582.32 657.113H1586.12V654.223H1582.32Z" fill="#232323"/>
<path d="M1437.84 665H1434.33V653.688H1437.98C1441.28 653.688 1443.23 655.812 1443.23 659.328C1443.23 662.859 1441.28 665 1437.84 665ZM1435.73 663.75H1437.75C1440.53 663.75 1441.86 662.078 1441.86 659.328C1441.86 656.594 1440.53 654.938 1437.89 654.938H1435.73V663.75ZM1448.69 665.172C1446.23 665.172 1444.72 663.438 1444.72 660.828C1444.72 658.219 1446.25 656.406 1448.56 656.406C1450.34 656.406 1452.22 657.5 1452.22 660.641V661.203H1446.06C1446.12 663 1447.17 663.984 1448.69 663.984C1449.7 663.984 1450.34 663.547 1450.66 663.016H1452.09C1451.69 664.297 1450.44 665.172 1448.69 665.172ZM1446.08 660.062H1450.86C1450.86 658.641 1449.95 657.594 1448.56 657.594C1447.09 657.594 1446.16 658.75 1446.08 660.062ZM1458.69 658.719C1458.5 658.016 1457.97 657.547 1456.97 657.547C1455.92 657.547 1455.17 658.109 1455.17 658.828C1455.17 659.391 1455.62 659.781 1456.62 660.016L1457.89 660.328C1459.41 660.688 1460.16 661.438 1460.16 662.625C1460.16 664.094 1458.95 665.172 1456.83 665.172C1454.92 665.172 1453.78 664.328 1453.56 662.781H1454.97C1455.12 663.609 1455.73 664 1456.8 664C1458 664 1458.77 663.5 1458.77 662.703C1458.77 662.109 1458.34 661.703 1457.38 661.484L1456.09 661.188C1454.61 660.844 1453.83 660.031 1453.83 658.906C1453.83 657.453 1455.09 656.406 1456.97 656.406C1458.72 656.406 1459.83 657.344 1460 658.719H1458.69ZM1461.91 665V656.516H1463.25V665H1461.91ZM1462.58 655.109C1462.06 655.109 1461.64 654.719 1461.64 654.219C1461.64 653.719 1462.06 653.328 1462.58 653.328C1463.09 653.328 1463.53 653.719 1463.53 654.219C1463.53 654.719 1463.09 655.109 1462.58 655.109ZM1468.83 668.359C1466.78 668.359 1465.39 667.469 1465.23 665.891H1466.64C1466.83 666.75 1467.62 667.188 1468.83 667.188C1470.28 667.188 1471.17 666.562 1471.17 665.156V663.438H1471.06C1470.78 663.906 1470.23 664.875 1468.59 664.875C1466.53 664.875 1464.98 663.312 1464.98 660.641C1464.98 658.031 1466.48 656.406 1468.61 656.406C1470.25 656.406 1470.78 657.406 1471.09 657.859H1471.2V656.516H1472.52V665.234C1472.52 667.422 1470.89 668.359 1468.83 668.359ZM1468.78 663.672C1470.33 663.672 1471.2 662.562 1471.2 660.688C1471.2 658.875 1470.36 657.609 1468.78 657.609C1467.16 657.609 1466.34 658.984 1466.34 660.688C1466.34 662.453 1467.17 663.672 1468.78 663.672ZM1476 659.906V665H1474.66V656.516H1475.95V657.844H1476.06C1476.47 656.984 1477.25 656.406 1478.55 656.406C1480.27 656.406 1481.41 657.453 1481.41 659.609V665H1480.06V659.703C1480.06 658.391 1479.34 657.609 1478.14 657.609C1476.91 657.609 1476 658.438 1476 659.906ZM1487.12 665.172C1484.67 665.172 1483.16 663.438 1483.16 660.828C1483.16 658.219 1484.69 656.406 1487 656.406C1488.78 656.406 1490.66 657.5 1490.66 660.641V661.203H1484.5C1484.56 663 1485.61 663.984 1487.12 663.984C1488.14 663.984 1488.78 663.547 1489.09 663.016H1490.53C1490.12 664.297 1488.88 665.172 1487.12 665.172ZM1484.52 660.062H1489.3C1489.3 658.641 1488.39 657.594 1487 657.594C1485.53 657.594 1484.59 658.75 1484.52 660.062ZM1492.41 665V656.516H1493.7V657.812H1493.8C1494.11 656.953 1494.98 656.375 1495.98 656.375C1496.19 656.375 1496.53 656.391 1496.69 656.406V657.766C1496.59 657.734 1496.22 657.672 1495.88 657.672C1494.66 657.672 1493.75 658.516 1493.75 659.656V665H1492.41Z" fill="#232323"/>
<rect x="1410.5" y="593.5" width="109" height="34" rx="17" stroke="#232323"/>
<path d="M1553.02 601.219V618.621H1551.48V601.219H1553.02ZM1543.78 602.566C1546.36 602.586 1548.21 604.93 1548.21 608.621C1548.21 612.312 1546.36 614.656 1543.78 614.656C1541.18 614.656 1539.35 612.312 1539.35 608.621C1539.35 604.93 1541.18 602.586 1543.78 602.566ZM1543.78 603.934C1542.04 603.953 1540.83 605.789 1540.83 608.621C1540.83 611.453 1542.04 613.289 1543.78 613.289C1545.52 613.289 1546.73 611.453 1546.73 608.621C1546.73 605.789 1545.52 603.953 1543.78 603.934ZM1562.1 605.887C1562.1 609.031 1564.11 612.195 1566.63 613.348L1565.71 614.598C1563.74 613.582 1562.11 611.502 1561.34 609.031C1560.57 611.629 1558.94 613.855 1556.96 614.91L1555.97 613.68C1558.51 612.43 1560.54 609.09 1560.54 605.887V602.723H1562.1V605.887ZM1570.38 601.219V618.621H1568.86V608.406H1564.74V607.156H1568.86V601.219H1570.38ZM1587.67 601.238V614.48H1586.12V610.75H1583.12V609.5H1586.12V607.137H1583.12V605.867H1586.12V601.238H1587.67ZM1583.12 603.367V604.617H1573.29V603.367H1577.51V601.219H1579.04V603.367H1583.12ZM1578.25 605.574C1580.58 605.574 1582.22 606.902 1582.22 608.895C1582.22 610.867 1580.58 612.215 1578.25 612.215C1575.93 612.215 1574.31 610.867 1574.33 608.895C1574.31 606.902 1575.93 605.574 1578.25 605.574ZM1578.25 606.785C1576.77 606.805 1575.75 607.645 1575.75 608.895C1575.75 610.145 1576.77 610.984 1578.25 610.984C1579.74 610.984 1580.75 610.145 1580.77 608.895C1580.75 607.645 1579.74 606.805 1578.25 606.785ZM1588.06 616.922V618.211H1576.44V613.309H1577.98V616.922H1588.06ZM1593.41 615.691L1591.89 621.004H1590.44L1591.52 615.691H1593.41ZM1615.09 601.219V611.57H1613.55V607.02H1610.05V605.75H1613.55V601.219H1615.09ZM1609.33 612.117C1612.94 612.117 1615.15 613.289 1615.15 615.34C1615.15 617.391 1612.94 618.562 1609.33 618.582C1605.71 618.562 1603.51 617.391 1603.51 615.34C1603.51 613.289 1605.71 612.117 1609.33 612.117ZM1609.33 613.309C1606.67 613.309 1605.01 614.07 1605.03 615.34C1605.01 616.59 1606.67 617.352 1609.33 617.352C1611.98 617.352 1613.62 616.59 1613.62 615.34C1613.62 614.07 1611.98 613.309 1609.33 613.309ZM1606.73 604.402C1606.73 606.668 1608.47 608.816 1611.01 609.695L1610.21 610.926C1608.25 610.223 1606.74 608.768 1606.01 606.961C1605.25 609.002 1603.63 610.633 1601.57 611.414L1600.77 610.184C1603.35 609.246 1605.19 606.902 1605.19 604.422V603.777H1601.26V602.488H1610.62V603.777H1606.73V604.402ZM1633.86 611.121V612.391H1629.66V618.582H1628.12V612.391H1623.66V618.582H1622.08V612.391H1617.96V611.121H1633.86ZM1625.87 601.922C1629.52 601.922 1631.98 603.387 1631.98 605.711C1631.98 608.016 1629.52 609.48 1625.87 609.461C1622.22 609.48 1619.76 608.016 1619.76 605.711C1619.76 603.387 1622.22 601.922 1625.87 601.922ZM1625.87 603.172C1623.16 603.172 1621.32 604.168 1621.34 605.711C1621.32 607.254 1623.16 608.23 1625.87 608.23C1628.57 608.23 1630.42 607.254 1630.42 605.711C1630.42 604.168 1628.57 603.172 1625.87 603.172ZM1649.66 601.219V611.57H1648.12V607.02H1644.62V605.75H1648.12V601.219H1649.66ZM1643.9 612.117C1647.51 612.117 1649.72 613.289 1649.72 615.34C1649.72 617.391 1647.51 618.562 1643.9 618.582C1640.29 618.562 1638.08 617.391 1638.08 615.34C1638.08 613.289 1640.29 612.117 1643.9 612.117ZM1643.9 613.309C1641.24 613.309 1639.58 614.07 1639.6 615.34C1639.58 616.59 1641.24 617.352 1643.9 617.352C1646.55 617.352 1648.2 616.59 1648.2 615.34C1648.2 614.07 1646.55 613.309 1643.9 613.309ZM1641.3 604.402C1641.3 606.668 1643.04 608.816 1645.58 609.695L1644.78 610.926C1642.82 610.223 1641.31 608.768 1640.58 606.961C1639.82 609.002 1638.21 610.633 1636.14 611.414L1635.34 610.184C1637.92 609.246 1639.76 606.902 1639.76 604.422V603.777H1635.83V602.488H1645.19V603.777H1641.3V604.402ZM1655.4 615.691L1653.88 621.004H1652.43L1653.51 615.691H1655.4ZM1678.57 610.105V611.375H1671.5V614.93H1669.97V611.375H1662.67V610.105H1678.57ZM1676.5 602.078V608.113H1664.74V602.078H1676.5ZM1666.24 603.289V606.883H1674.97V603.289H1666.24ZM1676.79 616.922V618.211H1664.7V613.211H1666.24V616.922H1676.79ZM1693.41 601.219V608.387H1696.32V609.656H1693.41V618.582H1691.89V601.219H1693.41ZM1690.21 604.012V605.281H1679.88V604.012H1684.35V601.434H1685.87V604.012H1690.21ZM1685.13 606.727C1687.59 606.727 1689.37 608.367 1689.39 610.711C1689.37 613.055 1687.59 614.695 1685.13 614.695C1682.65 614.695 1680.85 613.055 1680.87 610.711C1680.85 608.367 1682.65 606.727 1685.13 606.727ZM1685.13 608.016C1683.51 608.016 1682.32 609.148 1682.34 610.711C1682.32 612.293 1683.51 613.406 1685.13 613.387C1686.73 613.406 1687.9 612.293 1687.92 610.711C1687.9 609.148 1686.73 608.016 1685.13 608.016ZM1702.04 602.273C1703.51 602.264 1704.76 602.811 1705.56 603.738H1710.11V601.219H1711.65V611.512H1710.11V609.031H1705.58C1704.76 609.959 1703.51 610.506 1702.04 610.496C1699.45 610.516 1697.53 608.816 1697.53 606.395C1697.53 603.953 1699.45 602.254 1702.04 602.273ZM1702.04 603.602C1700.27 603.582 1699 604.754 1699 606.395C1699 608.016 1700.27 609.188 1702.04 609.188C1703.76 609.188 1705.05 608.016 1705.05 606.395C1705.05 604.754 1703.76 603.582 1702.04 603.602ZM1705.89 611.922C1709.48 611.922 1711.71 613.133 1711.71 615.223C1711.71 617.332 1709.48 618.543 1705.89 618.543C1702.28 618.543 1700.07 617.332 1700.07 615.223C1700.07 613.133 1702.28 611.922 1705.89 611.922ZM1705.89 613.113C1703.23 613.113 1701.57 613.914 1701.57 615.223C1701.57 616.531 1703.23 617.312 1705.89 617.312C1708.57 617.312 1710.21 616.531 1710.21 615.223C1710.21 613.914 1708.57 613.113 1705.89 613.113ZM1706.3 604.988C1706.45 605.418 1706.54 605.887 1706.54 606.395C1706.54 606.883 1706.45 607.342 1706.3 607.762H1710.11V604.988H1706.3ZM1717.39 615.691L1715.87 621.004H1714.43L1715.5 615.691H1717.39ZM1738.23 601.238V606.473H1740.83V607.762H1738.23V613.016H1736.69V601.238H1738.23ZM1732.63 613.23C1736.24 613.211 1738.33 614.168 1738.35 615.906C1738.33 617.645 1736.24 618.562 1732.63 618.582C1729 618.562 1726.93 617.645 1726.93 615.906C1726.93 614.168 1729 613.211 1732.63 613.23ZM1732.63 614.383C1729.95 614.363 1728.45 614.93 1728.47 615.906C1728.45 616.844 1729.95 617.41 1732.63 617.41C1735.29 617.41 1736.79 616.844 1736.79 615.906C1736.79 614.93 1735.29 614.363 1732.63 614.383ZM1724.6 610.984C1726 610.984 1727.62 610.975 1729.31 610.926V609.539C1727.28 609.373 1725.99 608.465 1725.99 607.098C1725.99 605.555 1727.59 604.637 1730.05 604.637C1732.53 604.637 1734.11 605.555 1734.13 607.098C1734.11 608.455 1732.86 609.363 1730.83 609.539V610.848C1732.46 610.779 1734.1 610.652 1735.62 610.438L1735.75 611.512C1732.02 612.156 1727.86 612.215 1724.78 612.215L1724.6 610.984ZM1735.09 602.723V603.914H1725.03V602.723H1729.31V601.082H1730.83V602.723H1735.09ZM1730.05 605.711C1728.45 605.711 1727.45 606.258 1727.45 607.098C1727.45 607.977 1728.45 608.504 1730.05 608.504C1731.65 608.504 1732.67 607.977 1732.67 607.098C1732.67 606.258 1731.65 605.711 1730.05 605.711ZM1747.04 606.551C1747.04 609.324 1748.47 612.176 1750.85 613.445L1749.95 614.598C1748.22 613.65 1746.97 611.873 1746.34 609.773C1745.71 612 1744.47 613.934 1742.75 614.949L1741.83 613.816C1744.17 612.449 1745.58 609.422 1745.6 606.551V605.75H1742.24V604.48H1745.6V601.863H1747.06V604.48H1750.38V605.75H1747.04V606.551ZM1756.89 601.219V618.582H1755.4V609.559H1753.04V617.703H1751.57V601.59H1753.04V608.25H1755.4V601.219H1756.89ZM1773.57 601.238V614.012H1772.06V601.238H1773.57ZM1774.07 616.922V618.211H1762.18V613.016H1763.72V616.922H1774.07ZM1768.06 602.469V607.488H1761.65V610.262C1764.88 610.262 1767.16 610.164 1769.91 609.676L1770.07 610.945C1767.24 611.434 1764.89 611.531 1761.57 611.551H1760.17V606.277H1766.54V603.719H1760.13V602.469H1768.06Z" fill="#232323"/>
<path d="M1432.31 616V604.688H1436.28C1438.66 604.688 1439.77 606.016 1439.77 607.688C1439.77 609.141 1438.91 609.797 1437.92 610.062V610.172C1438.97 610.234 1440.22 611.203 1440.22 613C1440.22 614.703 1439.09 616 1436.42 616H1432.31ZM1436.41 614.75C1438.17 614.75 1438.86 613.969 1438.86 612.984C1438.86 611.828 1437.94 610.859 1436.48 610.859H1433.72V614.75H1436.41ZM1436.23 609.641C1437.45 609.641 1438.42 608.891 1438.42 607.703C1438.42 606.719 1437.77 605.938 1436.28 605.938H1433.72V609.641H1436.23ZM1441.64 613.594C1441.64 611.641 1443.36 611.203 1444.83 611.094C1445.37 611.055 1446.74 610.984 1447.12 610.969V610.281C1447.12 609.203 1446.48 608.578 1445.2 608.578C1444.12 608.578 1443.48 609.078 1443.3 609.719H1441.89C1442.06 608.359 1443.39 607.406 1445.27 607.406C1446.38 607.406 1448.45 607.734 1448.45 610.406V616H1447.12V614.844H1447.06C1446.78 615.422 1446 616.203 1444.53 616.203C1442.92 616.203 1441.64 615.25 1441.64 613.594ZM1442.98 613.656C1442.98 614.547 1443.73 615 1444.77 615C1446.28 615 1447.12 613.984 1447.12 612.922V612.062L1444.98 612.219C1443.77 612.297 1442.98 612.734 1442.98 613.656ZM1454.08 616.172C1451.67 616.172 1450.2 614.344 1450.2 611.797C1450.2 609.219 1451.73 607.406 1454.05 607.406C1455.86 607.406 1457.2 608.469 1457.42 610.078H1456.08C1455.89 609.297 1455.2 608.594 1454.08 608.594C1452.56 608.594 1451.55 609.844 1451.55 611.75C1451.55 613.719 1452.53 614.969 1454.08 614.969C1455.08 614.969 1455.84 614.438 1456.08 613.5H1457.42C1457.2 615.016 1455.97 616.172 1454.08 616.172ZM1459.08 616V604.688H1460.42V611.266H1460.58L1464.25 607.516H1465.91L1462.33 611.141L1466.17 616H1464.47L1461.33 612L1460.42 612.828V616H1459.08ZM1471.52 610.547V611.781H1466.56V610.547H1471.52ZM1473.75 616V604.688H1480.61V605.938H1475.16V609.719H1480.25V610.953H1475.16V614.75H1480.69V616H1473.75ZM1484 610.906V616H1482.66V607.516H1483.95V608.844H1484.06C1484.47 607.984 1485.25 607.406 1486.55 607.406C1488.27 607.406 1489.41 608.453 1489.41 610.609V616H1488.06V610.703C1488.06 609.391 1487.34 608.609 1486.14 608.609C1484.91 608.609 1484 609.438 1484 610.906ZM1494.77 616.172C1492.66 616.172 1491.16 614.469 1491.16 611.781C1491.16 609.094 1492.66 607.406 1494.78 607.406C1496.42 607.406 1496.95 608.406 1497.23 608.859H1497.33V604.688H1498.69V616H1497.38V614.703H1497.23C1496.94 615.172 1496.39 616.172 1494.77 616.172ZM1494.95 614.969C1496.5 614.969 1497.38 613.656 1497.38 611.75C1497.38 609.875 1496.53 608.609 1494.95 608.609C1493.33 608.609 1492.52 609.984 1492.52 611.75C1492.52 613.562 1493.34 614.969 1494.95 614.969Z" fill="#232323"/>
<rect x="1410.5" y="544.5" width="109" height="34" rx="17" stroke="#232323"/>
<path d="M1547.86 553.352C1547.86 557.746 1544.64 560.852 1539.52 562.219L1538.9 561.008C1543.2 559.875 1545.9 557.58 1546.24 554.602H1539.82V553.352H1547.86ZM1553.04 552.238V562.043H1551.52V552.238H1553.04ZM1553.04 562.883V569.348H1541.75V562.883H1553.04ZM1543.25 564.113V568.098H1551.54V564.113H1543.25ZM1565.05 553.742V561.789H1556.91V553.742H1565.05ZM1558.41 555.012V560.559H1563.55V555.012H1558.41ZM1570.32 552.238V564.719H1568.8V552.238H1570.32ZM1570.87 567.727V568.996H1559.11V563.508H1560.64V567.727H1570.87ZM1589.09 560.812V562.082H1573.27V560.812H1577.2V558.371C1575.81 557.834 1575.03 556.945 1575.03 555.773C1575.03 553.723 1577.38 552.551 1581.18 552.551C1584.95 552.551 1587.32 553.723 1587.32 555.773C1587.32 556.936 1586.54 557.824 1585.17 558.352V560.812H1589.09ZM1581.18 563.41C1584.91 563.41 1587.14 564.484 1587.16 566.477C1587.14 568.449 1584.91 569.543 1581.18 569.543C1577.41 569.543 1575.19 568.449 1575.19 566.477C1575.19 564.484 1577.41 563.41 1581.18 563.41ZM1581.18 564.582C1578.39 564.602 1576.73 565.285 1576.75 566.477C1576.73 567.648 1578.39 568.352 1581.18 568.352C1583.94 568.352 1585.62 567.648 1585.62 566.477C1585.62 565.285 1583.94 564.602 1581.18 564.582ZM1581.18 553.762C1578.35 553.762 1576.59 554.523 1576.61 555.773C1576.59 557.043 1578.35 557.785 1581.18 557.785C1584 557.785 1585.75 557.043 1585.75 555.773C1585.75 554.523 1584 553.762 1581.18 553.762ZM1578.72 560.812H1583.64V558.781C1582.91 558.908 1582.09 558.977 1581.18 558.977C1580.28 558.977 1579.46 558.908 1578.72 558.781V560.812ZM1593.41 566.691L1591.89 572.004H1590.44L1591.52 566.691H1593.41ZM1607.28 561.379V564.562C1608.95 564.494 1610.66 564.348 1612.26 564.113L1612.38 565.246C1608.41 565.969 1604.13 565.988 1601.01 565.988L1600.79 564.719C1602.25 564.709 1603.97 564.699 1605.77 564.641V561.379H1607.28ZM1611.36 554.504V555.773H1607.28C1607.32 558.02 1609.18 559.846 1611.75 560.578L1611.03 561.789C1608.94 561.164 1607.31 559.826 1606.54 558.059C1605.77 559.924 1604.15 561.311 1602.06 561.945L1601.32 560.773C1603.89 560.021 1605.7 558.117 1605.73 555.773H1601.75V554.504H1605.77V552.355H1607.28V554.504H1611.36ZM1614.93 552.219V569.621H1613.41V552.219H1614.93ZM1622.77 553.273C1624.23 553.264 1625.48 553.811 1626.28 554.738H1630.83V552.219H1632.38V562.512H1630.83V560.031H1626.3C1625.48 560.959 1624.23 561.506 1622.77 561.496C1620.17 561.516 1618.25 559.816 1618.25 557.395C1618.25 554.953 1620.17 553.254 1622.77 553.273ZM1622.77 554.602C1620.99 554.582 1619.72 555.754 1619.72 557.395C1619.72 559.016 1620.99 560.188 1622.77 560.188C1624.48 560.188 1625.77 559.016 1625.77 557.395C1625.77 555.754 1624.48 554.582 1622.77 554.602ZM1626.61 562.922C1630.21 562.922 1632.43 564.133 1632.43 566.223C1632.43 568.332 1630.21 569.543 1626.61 569.543C1623 569.543 1620.79 568.332 1620.79 566.223C1620.79 564.133 1623 562.922 1626.61 562.922ZM1626.61 564.113C1623.96 564.113 1622.3 564.914 1622.3 566.223C1622.3 567.531 1623.96 568.312 1626.61 568.312C1629.29 568.312 1630.93 567.531 1630.93 566.223C1630.93 564.914 1629.29 564.113 1626.61 564.113ZM1627.02 555.988C1627.17 556.418 1627.26 556.887 1627.26 557.395C1627.26 557.883 1627.17 558.342 1627.02 558.762H1630.83V555.988H1627.02ZM1641.38 556.887C1641.38 560.031 1643.39 563.195 1645.91 564.348L1644.99 565.598C1643.02 564.582 1641.39 562.502 1640.62 560.031C1639.85 562.629 1638.21 564.855 1636.24 565.91L1635.25 564.68C1637.79 563.43 1639.82 560.09 1639.82 556.887V553.723H1641.38V556.887ZM1649.66 552.219V569.621H1648.14V559.406H1644.02V558.156H1648.14V552.219H1649.66ZM1655.4 566.691L1653.88 572.004H1652.43L1653.51 566.691H1655.4ZM1677 552.219V569.621H1675.46V552.219H1677ZM1667.77 553.566C1670.34 553.586 1672.2 555.93 1672.2 559.621C1672.2 563.312 1670.34 565.656 1667.77 565.656C1665.17 565.656 1663.33 563.312 1663.33 559.621C1663.33 555.93 1665.17 553.586 1667.77 553.566ZM1667.77 554.934C1666.03 554.953 1664.82 556.789 1664.82 559.621C1664.82 562.453 1666.03 564.289 1667.77 564.289C1669.5 564.289 1670.71 562.453 1670.71 559.621C1670.71 556.789 1669.5 554.953 1667.77 554.934ZM1693.41 552.219V559.289H1696.22V560.578H1693.41V569.582H1691.89V552.219H1693.41ZM1688.92 554.094C1688.92 559.016 1686.61 563.488 1680.95 566.281L1680.09 565.07C1684.58 562.834 1687.02 559.494 1687.38 555.383H1680.89V554.094H1688.92ZM1699.7 553.469V556.379H1704.82V553.469H1706.34V562.023H1698.18V553.469H1699.7ZM1699.7 560.793H1704.82V557.59H1699.7V560.793ZM1711.59 552.238V565.051H1710.07V552.238H1711.59ZM1712 567.922V569.211H1700.27V563.762H1701.81V567.922H1712ZM1717.39 566.691L1715.87 572.004H1714.43L1715.5 566.691H1717.39ZM1731.26 561.379V564.562C1732.93 564.494 1734.64 564.348 1736.24 564.113L1736.36 565.246C1732.39 565.969 1728.12 565.988 1724.99 565.988L1724.78 564.719C1726.23 564.709 1727.95 564.699 1729.76 564.641V561.379H1731.26ZM1735.34 554.504V555.773H1731.26C1731.3 558.02 1733.17 559.846 1735.73 560.578L1735.01 561.789C1732.92 561.164 1731.29 559.826 1730.52 558.059C1729.76 559.924 1728.14 561.311 1726.05 561.945L1725.3 560.773C1727.87 560.021 1729.68 558.117 1729.72 555.773H1725.73V554.504H1729.76V552.355H1731.26V554.504H1735.34ZM1738.92 552.219V569.621H1737.39V552.219H1738.92ZM1749.88 552.668C1753.59 552.688 1755.99 554.016 1755.99 556.145C1755.99 558.273 1753.59 559.582 1749.88 559.582C1746.16 559.582 1743.74 558.273 1743.74 556.145C1743.74 554.016 1746.16 552.688 1749.88 552.668ZM1749.88 553.918C1747.18 553.918 1745.36 554.777 1745.38 556.145C1745.36 557.512 1747.18 558.352 1749.88 558.352C1752.57 558.352 1754.37 557.512 1754.37 556.145C1754.37 554.777 1752.57 553.918 1749.88 553.918ZM1757.8 560.93V562.199H1753.74V565.812H1752.22V562.199H1749.02V565.812H1747.49V562.199H1741.96V560.93H1757.8ZM1756.16 567.922V569.211H1743.92V564.348H1745.46V567.922H1756.16ZM1765.5 555.949C1765.5 558.293 1767.36 560.402 1769.95 561.223L1769.17 562.453C1767.15 561.77 1765.54 560.344 1764.76 558.508C1764 560.49 1762.37 562.053 1760.3 562.805L1759.5 561.574C1762.1 560.656 1763.96 558.41 1763.96 555.949V554.934H1759.89V553.684H1769.5V554.934H1765.5V555.949ZM1773.59 552.238V564.973H1772.06V552.238H1773.59ZM1774.13 567.922V569.211H1762.38V563.762H1763.9V567.922H1774.13Z" fill="#232323"/>
<path d="M1430.45 567V555.688H1437.27V556.938H1431.86V560.719H1436.75V561.953H1431.86V567H1430.45ZM1439.09 567V558.516H1440.39V559.812H1440.48C1440.8 558.953 1441.67 558.375 1442.67 558.375C1442.88 558.375 1443.22 558.391 1443.38 558.406V559.766C1443.28 559.734 1442.91 559.672 1442.56 559.672C1441.34 559.672 1440.44 560.516 1440.44 561.656V567H1439.09ZM1447.88 567.172C1445.56 567.172 1444 565.438 1444 562.797C1444 560.156 1445.56 558.406 1447.88 558.406C1450.17 558.406 1451.72 560.156 1451.72 562.797C1451.72 565.438 1450.17 567.172 1447.88 567.172ZM1447.88 565.984C1449.58 565.984 1450.38 564.484 1450.38 562.797C1450.38 561.109 1449.58 559.594 1447.88 559.594C1446.14 559.594 1445.34 561.109 1445.34 562.797C1445.34 564.484 1446.14 565.984 1447.88 565.984ZM1454.83 561.906V567H1453.48V558.516H1454.78V559.844H1454.89C1455.3 558.984 1456.08 558.406 1457.38 558.406C1459.09 558.406 1460.23 559.453 1460.23 561.609V567H1458.89V561.703C1458.89 560.391 1458.17 559.609 1456.97 559.609C1455.73 559.609 1454.83 560.438 1454.83 561.906ZM1466.09 558.516V559.641H1464.31V564.562C1464.31 565.656 1464.84 565.828 1465.42 565.828C1465.67 565.828 1466.02 565.812 1466.22 565.797V567.047C1466.02 567.078 1465.67 567.109 1465.28 567.109C1464.16 567.109 1462.95 566.406 1462.95 564.906V559.641H1461.67V558.516H1462.95V556.484H1464.31V558.516H1466.09ZM1472.38 561.547V562.781H1467.42V561.547H1472.38ZM1474.61 567V555.688H1481.47V556.938H1476.02V560.719H1481.11V561.953H1476.02V565.75H1481.55V567H1474.61ZM1484.86 561.906V567H1483.52V558.516H1484.81V559.844H1484.92C1485.33 558.984 1486.11 558.406 1487.41 558.406C1489.12 558.406 1490.27 559.453 1490.27 561.609V567H1488.92V561.703C1488.92 560.391 1488.2 559.609 1487 559.609C1485.77 559.609 1484.86 560.438 1484.86 561.906ZM1495.62 567.172C1493.52 567.172 1492.02 565.469 1492.02 562.781C1492.02 560.094 1493.52 558.406 1495.64 558.406C1497.28 558.406 1497.81 559.406 1498.09 559.859H1498.19V555.688H1499.55V567H1498.23V565.703H1498.09C1497.8 566.172 1497.25 567.172 1495.62 567.172ZM1495.81 565.969C1497.36 565.969 1498.23 564.656 1498.23 562.75C1498.23 560.875 1497.39 559.609 1495.81 559.609C1494.19 559.609 1493.38 560.984 1493.38 562.75C1493.38 564.562 1494.2 565.969 1495.81 565.969Z" fill="#232323"/>
<rect x="1410.5" y="495.5" width="109" height="34" rx="17" stroke="#232323"/>
<path d="M1553.02 503.219V520.621H1551.48V503.219H1553.02ZM1543.78 504.566C1546.36 504.586 1548.21 506.93 1548.21 510.621C1548.21 514.312 1546.36 516.656 1543.78 516.656C1541.18 516.656 1539.35 514.312 1539.35 510.621C1539.35 506.93 1541.18 504.586 1543.78 504.566ZM1543.78 505.934C1542.04 505.953 1540.83 507.789 1540.83 510.621C1540.83 513.453 1542.04 515.289 1543.78 515.289C1545.52 515.289 1546.73 513.453 1546.73 510.621C1546.73 507.789 1545.52 505.953 1543.78 505.934ZM1562.1 507.887C1562.1 511.031 1564.11 514.195 1566.63 515.348L1565.71 516.598C1563.74 515.582 1562.11 513.502 1561.34 511.031C1560.57 513.629 1558.94 515.855 1556.96 516.91L1555.97 515.68C1558.51 514.43 1560.54 511.09 1560.54 507.887V504.723H1562.1V507.887ZM1570.38 503.219V520.621H1568.86V510.406H1564.74V509.156H1568.86V503.219H1570.38ZM1587.67 503.238V516.48H1586.12V512.75H1583.12V511.5H1586.12V509.137H1583.12V507.867H1586.12V503.238H1587.67ZM1583.12 505.367V506.617H1573.29V505.367H1577.51V503.219H1579.04V505.367H1583.12ZM1578.25 507.574C1580.58 507.574 1582.22 508.902 1582.22 510.895C1582.22 512.867 1580.58 514.215 1578.25 514.215C1575.93 514.215 1574.31 512.867 1574.33 510.895C1574.31 508.902 1575.93 507.574 1578.25 507.574ZM1578.25 508.785C1576.77 508.805 1575.75 509.645 1575.75 510.895C1575.75 512.145 1576.77 512.984 1578.25 512.984C1579.74 512.984 1580.75 512.145 1580.77 510.895C1580.75 509.645 1579.74 508.805 1578.25 508.785ZM1588.06 518.922V520.211H1576.44V515.309H1577.98V518.922H1588.06Z" fill="#232323"/>
<path d="M1454.59 518V506.688H1458.44C1461.09 506.688 1462.3 508.266 1462.3 510.281C1462.3 512.281 1461.09 513.891 1458.45 513.891H1456V518H1454.59ZM1456 512.641H1458.39C1460.19 512.641 1460.91 511.625 1460.91 510.281C1460.91 508.922 1460.19 507.938 1458.38 507.938H1456V512.641ZM1464.27 506.688H1465.95L1469.77 516H1469.91L1473.72 506.688H1475.41V518H1474.08V509.453H1473.97L1470.45 518H1469.2L1465.69 509.453H1465.59V518H1464.27V506.688Z" fill="#232323"/>
<path d="M1507.31 260.219V263.469H1503.28V277.812H1499.28V249.438H1503.28V260.219H1507.31ZM1485.72 252.156V267.562C1489.36 267.516 1493.27 267.172 1497.38 266.344L1497.78 269.656C1493.03 270.625 1488.41 270.875 1484.22 270.875H1481.75V252.156H1485.72ZM1517.72 251.344C1522.22 251.312 1525.59 254.25 1525.59 258.312C1525.59 262.406 1522.22 265.312 1517.72 265.312C1513.22 265.312 1509.81 262.406 1509.81 258.312C1509.81 254.25 1513.22 251.312 1517.72 251.344ZM1517.72 254.781C1515.47 254.781 1513.75 256.094 1513.78 258.312C1513.75 260.562 1515.47 261.844 1517.72 261.844C1519.97 261.844 1521.69 260.562 1521.72 258.312C1521.69 256.094 1520 254.781 1517.72 254.781ZM1532.41 249.438V277.938H1528.44V249.438H1532.41ZM1508.62 268.875C1513.69 268.906 1520.72 268.812 1526.81 267.969L1527.12 270.844C1520.81 272.062 1514.06 272.125 1509.09 272.125L1508.62 268.875ZM1556.5 249.969C1562.81 249.969 1566.81 252.062 1566.84 255.531C1566.81 258.969 1562.81 261.062 1556.5 261.031C1550.22 261.062 1546.12 258.969 1546.12 255.531C1546.12 252.062 1550.22 249.969 1556.5 249.969ZM1556.5 253.062C1552.53 253.062 1550.25 253.906 1550.28 255.531C1550.25 257.125 1552.53 257.938 1556.5 257.938C1560.44 257.938 1562.72 257.125 1562.72 255.531C1562.72 253.906 1560.44 253.062 1556.5 253.062ZM1566.38 267.875V277.562H1546.53V267.875H1566.38ZM1550.47 271.031V274.375H1562.47V271.031H1550.47ZM1569.47 262.688V265.875H1543.53V262.688H1569.47ZM1579.19 251C1583.59 250.969 1586.94 253.906 1586.94 257.906C1586.94 262 1583.59 264.875 1579.19 264.875C1574.75 264.875 1571.38 262 1571.38 257.906C1571.38 253.906 1574.75 250.969 1579.19 251ZM1579.19 254.406C1576.94 254.406 1575.28 255.688 1575.31 257.906C1575.28 260.188 1576.94 261.5 1579.19 261.5C1581.38 261.5 1583.03 260.188 1583.06 257.906C1583.03 255.688 1581.38 254.406 1579.19 254.406ZM1593.75 249.438V256.125H1597.59V259.375H1593.75V266.062H1589.75V249.438H1593.75ZM1593.75 267.25V277.906H1589.75V270.469H1574.59V267.25H1593.75ZM1617.25 257.188C1617.25 261.781 1619.59 266.688 1624.38 268.688L1622.22 271.812C1618.86 270.391 1616.55 267.562 1615.28 264.094C1613.98 267.859 1611.62 270.984 1608.28 272.531L1606 269.375C1610.72 267.281 1613.16 262 1613.16 257.188V255.438H1607.12V252.188H1623.19V255.438H1617.25V257.188ZM1630.03 249.438V277.875H1626V249.438H1630.03ZM1657.06 262.156V265.312H1648.81V271.375H1659.91V274.625H1633.88V271.375H1644.84V265.312H1636.94V251.438H1656.84V254.625H1640.94V262.156H1657.06ZM1667.53 272.688L1664.84 281.594H1661.53L1663.09 272.688H1667.53Z" fill="#232323"/>
<path d="M1723.01 331.378C1765.06 331.378 1740.54 288.895 1719.5 325.316C1740.52 288.895 1691.46 288.895 1712.5 325.316C1691.48 288.895 1666.95 331.378 1708.99 331.378C1666.94 331.378 1691.46 373.861 1712.5 337.44C1691.48 373.861 1740.54 373.861 1719.5 337.44C1740.52 373.877 1765.05 331.378 1723.01 331.378Z" fill="#232323"/>
<path d="M1724.57 316.532C1723.96 317.195 1723.35 317.911 1722.75 318.682C1733.63 291.111 1698.36 291.106 1709.24 318.667L1716.6 365.736M1724.57 316.532C1724.3 317.39 1723.99 318.276 1723.62 319.188C1742.06 295.965 1759.7 326.515 1730.38 330.873C1731.35 331.014 1732.28 331.183 1733.16 331.378M1724.57 316.532C1726.1 311.671 1726.18 307.669 1725.28 304.552C1723.84 299.589 1719.96 297 1715.99 297C1712.03 297 1708.14 299.589 1706.71 304.552C1705.82 307.667 1705.89 311.663 1707.42 316.518C1703.98 312.769 1700.56 310.706 1697.41 309.927C1692.4 308.686 1688.22 310.753 1686.23 314.189C1684.75 316.75 1684.54 319.988 1686.01 323.013C1684 324.544 1682.59 326.83 1682.2 329.448C1678.39 327.149 1673.36 327.631 1670.07 330.923C1666.95 334.048 1666.35 338.718 1668.27 342.441C1664.08 343.597 1661 347.436 1661 351.992C1661 356.884 1664.55 360.952 1669.21 361.758C1666.25 365.644 1666.54 371.216 1670.09 374.769C1673.47 378.147 1678.7 378.582 1682.54 376.029C1683.8 380.058 1687.56 382.999 1692 382.999C1696.45 382.999 1700.21 380.067 1701.46 376.024C1705.31 378.567 1710.53 378.151 1713.91 374.769C1716.36 372.315 1717.26 368.896 1716.6 365.736M1724.57 316.532C1728.02 312.774 1731.45 310.707 1734.6 309.927C1739.61 308.686 1743.8 310.753 1745.78 314.189C1747.76 317.625 1747.46 322.281 1743.88 326.002C1741.63 328.339 1738.13 330.274 1733.16 331.378M1733.16 331.378C1732.28 331.573 1731.35 331.742 1730.38 331.883C1759.68 336.244 1742.06 366.787 1723.63 343.588C1724 344.5 1724.31 345.385 1724.58 346.243M1733.16 331.378C1738.13 332.483 1741.62 334.418 1743.87 336.756C1747.45 340.478 1747.75 345.136 1745.77 348.573C1743.78 352.01 1739.6 354.078 1734.59 352.835C1731.44 352.056 1728.02 349.993 1724.58 346.243M1724.58 346.243C1723.97 345.58 1723.37 344.864 1722.76 344.094C1728.09 357.612 1722.32 364.497 1716.35 364.748C1716.45 365.074 1716.54 365.403 1716.6 365.736M1724.58 346.243C1726.11 351.095 1726.18 355.09 1725.29 358.203C1723.93 362.916 1720.36 365.489 1716.6 365.736" stroke="#232323" stroke-width="2"/>
<path d="M1431.94 332.154C1432.74 332.154 1433.31 332.482 1433.67 333.139C1434.05 333.768 1434.24 334.492 1434.24 335.312C1434.24 335.723 1434.2 336.078 1434.12 336.379C1434.04 336.68 1433.87 336.967 1433.62 337.24C1433.38 337.486 1433.05 337.732 1432.64 337.979C1432.23 338.197 1431.7 338.443 1431.04 338.717C1429.51 339.373 1428.31 340.166 1427.43 341.096C1426.56 341.998 1426.12 342.9 1426.12 343.803C1426.12 344.377 1426.31 344.924 1426.69 345.443C1427.08 345.963 1427.68 346.428 1428.5 346.838C1429.32 347.221 1430.37 347.535 1431.66 347.781C1432.97 348 1434.54 348.109 1436.37 348.109C1438.26 348.109 1440.05 347.891 1441.75 347.453C1443.44 346.988 1444.92 346.346 1446.18 345.525C1447.46 344.705 1448.47 343.734 1449.21 342.613C1449.98 341.492 1450.36 340.275 1450.36 338.963C1450.36 337.979 1449.95 336.953 1449.13 335.887C1448.31 334.82 1447.01 333.713 1445.23 332.564C1442.09 330.514 1439.7 328.859 1438.05 327.602C1436.44 326.344 1435.44 325.551 1435.06 325.223C1433.01 323.418 1431.48 321.682 1430.47 320.014C1429.46 318.346 1428.95 316.609 1428.95 314.805C1428.95 313.137 1429.35 311.51 1430.14 309.924C1430.96 308.338 1432.05 306.848 1433.42 305.453C1434.79 304.059 1436.36 302.773 1438.14 301.598C1439.94 300.395 1441.81 299.369 1443.76 298.521C1445.72 297.674 1447.69 297.018 1449.66 296.553C1451.66 296.061 1453.54 295.814 1455.32 295.814C1456.66 295.814 1457.89 295.965 1459.01 296.266C1460.16 296.566 1461.16 297.045 1462.01 297.701C1462.86 298.33 1463.51 299.15 1463.98 300.162C1464.47 301.174 1464.71 302.391 1464.71 303.812C1464.71 305.863 1464.13 307.818 1462.95 309.678C1461.78 311.537 1459.98 313.273 1457.58 314.887C1456.51 315.625 1455.53 315.994 1454.62 315.994C1453.7 315.994 1452.96 315.666 1452.41 315.01C1451.86 314.326 1451.59 313.533 1451.59 312.631C1451.59 311.865 1451.81 311.1 1452.25 310.334C1452.71 309.568 1453.45 308.912 1454.46 308.365C1455.25 307.955 1455.95 307.408 1456.55 306.725C1457.18 306.014 1457.5 305.33 1457.5 304.674C1457.5 304.045 1457.28 303.635 1456.84 303.443C1456.43 303.252 1455.92 303.156 1455.32 303.156C1454.17 303.156 1452.92 303.307 1451.55 303.607C1450.21 303.881 1448.86 304.264 1447.49 304.756C1446.15 305.248 1444.84 305.836 1443.55 306.52C1442.29 307.203 1441.17 307.941 1440.19 308.734C1439.23 309.527 1438.45 310.375 1437.85 311.277C1437.28 312.152 1436.99 313.027 1436.99 313.902C1436.99 314.504 1437.11 315.064 1437.36 315.584C1437.6 316.104 1437.96 316.623 1438.42 317.143C1438.92 317.662 1439.5 318.209 1440.19 318.783C1440.87 319.33 1441.66 319.932 1442.57 320.588L1452.16 327.684C1453.39 328.586 1454.49 329.475 1455.45 330.35C1456.43 331.197 1457.25 332.059 1457.91 332.934C1458.56 333.781 1459.07 334.643 1459.42 335.518C1459.78 336.393 1459.96 337.322 1459.96 338.307C1459.96 340.494 1459.38 342.641 1458.23 344.746C1457.11 346.824 1455.5 348.684 1453.39 350.324C1451.32 351.965 1448.8 353.291 1445.85 354.303C1442.92 355.314 1439.67 355.82 1436.09 355.82C1432.75 355.82 1429.91 355.547 1427.55 355C1425.23 354.48 1423.32 353.77 1421.81 352.867C1420.31 351.938 1419.21 350.885 1418.53 349.709C1417.85 348.506 1417.51 347.248 1417.51 345.936C1417.51 344.568 1417.85 343.188 1418.53 341.793C1419.24 340.371 1420.23 339.031 1421.48 337.773C1422.77 336.516 1424.3 335.395 1426.08 334.41C1427.86 333.426 1429.81 332.674 1431.94 332.154ZM1479.07 332.4C1477.79 332.4 1476.54 332.729 1475.34 333.385C1474.16 334.014 1473.11 334.861 1472.18 335.928C1471.28 336.967 1470.55 338.156 1470.01 339.496C1469.46 340.809 1469.19 342.162 1469.19 343.557C1469.19 344.076 1469.23 344.65 1469.31 345.279C1469.39 345.881 1469.55 346.455 1469.8 347.002C1470.07 347.521 1470.46 347.959 1470.95 348.314C1471.44 348.67 1472.1 348.848 1472.92 348.848C1474.18 348.848 1475.39 348.52 1476.57 347.863C1477.77 347.18 1478.84 346.305 1479.77 345.238C1480.7 344.145 1481.44 342.914 1481.98 341.547C1482.53 340.18 1482.8 338.799 1482.8 337.404C1482.8 336.857 1482.76 336.297 1482.68 335.723C1482.62 335.121 1482.46 334.574 1482.19 334.082C1481.94 333.59 1481.57 333.193 1481.08 332.893C1480.59 332.564 1479.92 332.4 1479.07 332.4ZM1481.2 325.182C1482.24 325.182 1483.35 325.318 1484.53 325.592C1485.73 325.865 1486.84 326.33 1487.85 326.986C1488.86 327.643 1489.69 328.518 1490.35 329.611C1491.03 330.678 1491.38 332.004 1491.38 333.59C1491.38 334.41 1491.27 335.354 1491.05 336.42C1490.83 337.459 1490.5 338.553 1490.06 339.701C1490.34 340.029 1490.65 340.262 1491.01 340.398C1491.36 340.535 1491.74 340.604 1492.15 340.604C1492.73 340.604 1493.36 340.439 1494.04 340.111C1494.75 339.783 1495.48 339.359 1496.21 338.84C1496.95 338.32 1497.69 337.732 1498.43 337.076C1499.17 336.42 1499.87 335.764 1500.52 335.107C1501.18 334.451 1501.77 333.836 1502.29 333.262C1502.83 332.66 1503.28 332.154 1503.64 331.744C1503.83 331.553 1504.06 331.457 1504.34 331.457C1504.72 331.457 1505.06 331.662 1505.36 332.072C1505.66 332.455 1505.81 333.002 1505.81 333.713C1505.81 334.424 1505.59 335.244 1505.16 336.174C1504.75 337.104 1503.97 338.074 1502.82 339.086C1502.16 339.797 1501.41 340.617 1500.56 341.547C1499.71 342.477 1498.81 343.352 1497.86 344.172C1496.9 344.992 1495.9 345.689 1494.86 346.264C1493.82 346.838 1492.78 347.125 1491.74 347.125C1491.03 347.125 1490.34 347.016 1489.65 346.797C1489 346.578 1488.33 346.223 1487.64 345.73C1486.66 347.262 1485.54 348.656 1484.28 349.914C1483.02 351.172 1481.61 352.252 1480.05 353.154C1478.52 354.057 1476.86 354.754 1475.05 355.246C1473.27 355.766 1471.37 356.025 1469.35 356.025C1468.58 356.025 1467.7 355.875 1466.68 355.574C1465.67 355.273 1464.7 354.781 1463.77 354.098C1462.87 353.387 1462.1 352.471 1461.47 351.35C1460.85 350.229 1460.53 348.861 1460.53 347.248C1460.53 346.154 1460.71 344.842 1461.06 343.311C1461.42 341.779 1461.95 340.207 1462.66 338.594C1463.4 336.953 1464.32 335.34 1465.41 333.754C1466.53 332.141 1467.86 330.705 1469.39 329.447C1470.92 328.162 1472.67 327.137 1474.64 326.371C1476.61 325.578 1478.8 325.182 1481.2 325.182ZM1504.71 330.104C1505.25 328.928 1505.94 328.053 1506.76 327.479C1507.58 326.904 1508.38 326.617 1509.18 326.617C1509.83 326.617 1510.42 326.863 1510.94 327.355C1511.46 327.82 1511.72 328.518 1511.72 329.447C1511.72 329.803 1511.68 330.186 1511.6 330.596C1511.51 331.006 1511.36 331.443 1511.14 331.908C1511.75 331.143 1512.61 330.363 1513.73 329.57C1514.85 328.75 1516.08 328.025 1517.42 327.396C1518.79 326.74 1520.18 326.207 1521.6 325.797C1523.05 325.387 1524.42 325.182 1525.71 325.182C1527.15 325.182 1528.36 325.537 1529.31 326.248C1530.3 326.932 1530.79 328.107 1530.79 329.775C1530.79 330.76 1530.64 331.785 1530.34 332.852C1530.04 333.918 1529.64 334.984 1529.15 336.051C1528.69 337.117 1528.15 338.17 1527.55 339.209C1526.98 340.221 1526.4 341.178 1525.83 342.08C1525.25 342.982 1524.72 343.816 1524.23 344.582C1523.76 345.32 1523.39 345.936 1523.12 346.428C1522.77 346.865 1522.59 347.371 1522.59 347.945C1522.59 348.164 1522.66 348.355 1522.79 348.52C1522.93 348.684 1523.15 348.766 1523.45 348.766C1523.64 348.766 1523.86 348.752 1524.11 348.725C1524.35 348.67 1524.65 348.52 1525.01 348.273C1526.48 347.727 1527.99 347.043 1529.52 346.223C1531.08 345.402 1532.57 344.541 1533.99 343.639C1535.41 342.709 1536.71 341.793 1537.89 340.891C1539.09 339.961 1540.09 339.127 1540.88 338.389C1541.1 338.197 1541.32 338.061 1541.54 337.979C1541.76 337.896 1541.96 337.855 1542.15 337.855C1542.62 337.855 1542.97 338.033 1543.22 338.389C1543.49 338.744 1543.63 339.195 1543.63 339.742C1543.63 340.59 1543.36 341.533 1542.81 342.572C1542.29 343.611 1541.46 344.582 1540.31 345.484C1538.75 346.605 1537.31 347.631 1536 348.561C1534.71 349.49 1533.39 350.365 1532.02 351.186C1530.68 351.979 1529.23 352.73 1527.67 353.441C1526.14 354.125 1524.34 354.768 1522.26 355.369C1521.55 355.588 1520.89 355.752 1520.29 355.861C1519.72 355.971 1519.18 356.025 1518.69 356.025C1517.24 356.025 1516.18 355.629 1515.49 354.836C1514.84 354.016 1514.51 352.881 1514.51 351.432C1514.51 351.24 1514.51 351.062 1514.51 350.898C1514.54 350.707 1514.56 350.502 1514.59 350.283C1514.64 349.436 1514.86 348.506 1515.25 347.494C1515.66 346.482 1516.13 345.443 1516.68 344.377C1517.26 343.311 1517.86 342.258 1518.49 341.219C1519.12 340.152 1519.69 339.154 1520.21 338.225C1520.76 337.268 1521.21 336.42 1521.56 335.682C1521.92 334.943 1522.1 334.342 1522.1 333.877C1522.1 333.467 1521.97 333.125 1521.73 332.852C1521.51 332.551 1521.17 332.4 1520.7 332.4C1518.95 332.4 1517.28 332.92 1515.7 333.959C1514.14 334.998 1512.68 336.283 1511.31 337.814C1509.94 339.318 1508.68 340.918 1507.54 342.613C1506.39 344.309 1505.38 345.826 1504.5 347.166C1503.95 348.068 1503.45 349.039 1502.98 350.078C1502.54 351.09 1502.08 352.047 1501.59 352.949C1501.1 353.824 1500.54 354.549 1499.91 355.123C1499.3 355.725 1498.54 356.025 1497.61 356.025C1496.65 356.025 1495.9 355.725 1495.35 355.123C1494.81 354.521 1494.53 353.783 1494.53 352.908C1494.53 352.443 1494.72 351.691 1495.11 350.652C1495.49 349.613 1495.98 348.41 1496.58 347.043C1497.19 345.676 1497.86 344.213 1498.59 342.654C1499.36 341.068 1500.11 339.51 1500.85 337.979C1501.62 336.42 1502.34 334.957 1503.02 333.59C1503.71 332.223 1504.27 331.061 1504.71 330.104ZM1556.22 325.182C1557.42 325.182 1558.48 325.332 1559.38 325.633C1560.28 325.934 1561.05 326.262 1561.68 326.617C1562.39 327.055 1563.02 327.533 1563.56 328.053C1563.95 327.807 1564.36 327.574 1564.79 327.355C1565.18 327.164 1565.6 327 1566.06 326.863C1566.53 326.699 1566.99 326.617 1567.46 326.617C1568.66 326.617 1569.59 326.863 1570.25 327.355C1570.9 327.848 1571.23 328.436 1571.23 329.119C1571.23 329.475 1571.14 329.83 1570.95 330.186L1561.35 348.355L1562.13 347.658C1565.35 345.771 1568.01 344.295 1570.08 343.229C1572.16 342.135 1573.82 341.328 1575.05 340.809C1576.28 340.289 1577.15 339.975 1577.67 339.865C1578.22 339.729 1578.56 339.66 1578.7 339.66C1579.33 339.66 1579.8 339.906 1580.13 340.398C1580.49 340.863 1580.67 341.451 1580.67 342.162C1580.67 342.955 1580.43 343.762 1579.97 344.582C1579.53 345.402 1578.85 345.99 1577.92 346.346C1576.69 346.975 1575.25 347.658 1573.61 348.396C1571.97 349.107 1570.26 349.9 1568.48 350.775C1566.71 351.65 1564.92 352.635 1563.11 353.729C1561.33 354.795 1559.67 355.984 1558.11 357.297L1550.15 371.693C1549.49 373.252 1548.89 374.523 1548.35 375.508C1547.83 376.492 1547.31 377.271 1546.79 377.846C1546.27 378.42 1545.73 378.816 1545.19 379.035C1544.64 379.254 1544.01 379.363 1543.3 379.363C1542.23 379.363 1541.39 378.994 1540.76 378.256C1540.16 377.518 1539.86 376.629 1539.86 375.59C1539.86 374.496 1540.12 373.225 1540.63 371.775C1541.15 370.326 1541.88 368.754 1542.81 367.059C1543.77 365.391 1544.91 363.627 1546.25 361.768C1547.59 359.936 1549.08 358.062 1550.72 356.148L1555.81 349.668C1554.77 350.625 1553.75 351.445 1552.73 352.129C1551.72 352.812 1550.75 353.373 1549.82 353.811C1548.89 354.221 1548.02 354.521 1547.2 354.713C1546.4 354.904 1545.71 355 1545.11 355C1544.01 355 1543 354.754 1542.07 354.262C1541.14 353.742 1540.33 353.031 1539.65 352.129C1538.99 351.227 1538.47 350.16 1538.09 348.93C1537.71 347.699 1537.52 346.359 1537.52 344.91C1537.52 341.902 1538.09 339.182 1539.24 336.748C1540.42 334.314 1541.91 332.25 1543.71 330.555C1545.54 328.832 1547.55 327.506 1549.74 326.576C1551.96 325.646 1554.12 325.182 1556.22 325.182ZM1554.66 332.4C1553.38 332.4 1552.13 332.729 1550.93 333.385C1549.73 334.014 1548.66 334.861 1547.73 335.928C1546.8 336.967 1546.06 338.17 1545.52 339.537C1544.97 340.904 1544.7 342.312 1544.7 343.762C1544.7 344.199 1544.72 344.678 1544.78 345.197C1544.86 345.689 1545.01 346.154 1545.23 346.592C1545.47 347.029 1545.82 347.398 1546.25 347.699C1546.72 347.973 1547.35 348.109 1548.14 348.109C1548.71 348.109 1549.38 347.863 1550.15 347.371C1550.94 346.852 1551.75 346.209 1552.57 345.443C1553.42 344.65 1554.24 343.789 1555.03 342.859C1555.82 341.902 1556.54 340.973 1557.16 340.07C1557.82 339.168 1558.34 338.361 1558.72 337.65C1559.11 336.912 1559.3 336.365 1559.3 336.01C1559.3 335.408 1559.13 334.889 1558.8 334.451C1558.48 333.986 1558.07 333.604 1557.57 333.303C1557.11 333.002 1556.6 332.783 1556.06 332.646C1555.54 332.482 1555.07 332.4 1554.66 332.4ZM1602.9 332.975C1602.38 334.123 1601.8 335.504 1601.17 337.117C1600.54 338.73 1599.86 340.412 1599.12 342.162C1598.38 343.912 1597.59 345.648 1596.74 347.371C1595.92 349.094 1595.05 350.639 1594.12 352.006C1593.22 353.346 1592.27 354.439 1591.29 355.287C1590.33 356.135 1589.35 356.559 1588.34 356.559C1587.49 356.559 1586.79 356.422 1586.24 356.148C1585.7 355.902 1585.27 355.574 1584.97 355.164C1584.67 354.781 1584.45 354.357 1584.32 353.893C1584.21 353.4 1584.15 352.936 1584.15 352.498C1584.15 351.842 1584.25 351.172 1584.44 350.488C1584.66 349.805 1584.92 349.176 1585.22 348.602L1600.93 319.686C1601.61 318.482 1602.25 317.539 1602.86 316.855C1603.48 316.172 1604.06 315.666 1604.58 315.338C1605.12 315.01 1605.6 314.818 1606.01 314.764C1606.42 314.682 1606.77 314.641 1607.04 314.641C1607.53 314.641 1607.98 314.818 1608.39 315.174C1608.8 315.502 1609.01 316.117 1609.01 317.02C1609.01 317.895 1608.78 319.098 1608.31 320.629C1607.85 322.16 1606.98 324.129 1605.73 326.535C1607.86 326.371 1609.96 326.016 1612.04 325.469C1614.12 324.895 1615.98 324.115 1617.62 323.131C1619.29 322.146 1620.63 320.957 1621.64 319.562C1622.65 318.141 1623.16 316.5 1623.16 314.641C1623.16 313 1622.88 311.441 1622.34 309.965C1621.82 308.461 1621.04 307.148 1620 306.027C1618.99 304.879 1617.73 303.977 1616.23 303.32C1614.72 302.637 1612.99 302.295 1611.02 302.295C1608.34 302.295 1606.03 302.555 1604.09 303.074C1602.17 303.566 1600.52 304.223 1599.12 305.043C1597.76 305.863 1596.61 306.807 1595.68 307.873C1594.75 308.939 1593.94 310.02 1593.26 311.113C1592.6 312.207 1592.01 313.287 1591.49 314.354C1590.97 315.42 1590.43 316.363 1589.85 317.184C1589.31 318.004 1588.68 318.674 1587.97 319.193C1587.26 319.686 1586.38 319.932 1585.34 319.932C1584 319.932 1583 319.59 1582.35 318.906C1581.72 318.223 1581.4 317.252 1581.4 315.994C1581.4 314.736 1581.75 313.369 1582.43 311.893C1583.11 310.389 1584.08 308.885 1585.34 307.381C1586.6 305.877 1588.12 304.441 1589.89 303.074C1591.7 301.68 1593.72 300.449 1595.96 299.383C1598.21 298.316 1600.64 297.469 1603.27 296.84C1605.92 296.184 1608.71 295.855 1611.63 295.855C1614.37 295.855 1616.99 296.252 1619.51 297.045C1622.05 297.811 1624.29 298.973 1626.23 300.531C1628.18 302.09 1629.72 304.045 1630.87 306.396C1632.04 308.721 1632.63 311.455 1632.63 314.6C1632.63 317.471 1631.94 320.068 1630.54 322.393C1629.17 324.689 1627.31 326.645 1624.96 328.258C1622.64 329.844 1619.95 331.074 1616.88 331.949C1613.82 332.797 1610.59 333.221 1607.2 333.221C1606.49 333.221 1605.77 333.207 1605.03 333.18C1604.32 333.152 1603.61 333.084 1602.9 332.975ZM1634.68 319.521C1634.68 318.893 1634.79 318.25 1635.01 317.594C1635.26 316.91 1635.61 316.295 1636.08 315.748C1636.54 315.201 1637.12 314.75 1637.8 314.395C1638.51 314.039 1639.35 313.861 1640.3 313.861C1641.89 313.861 1643 314.176 1643.62 314.805C1644.25 315.406 1644.57 316.172 1644.57 317.102C1644.57 317.621 1644.46 318.195 1644.24 318.824C1644.05 319.453 1643.75 320.041 1643.34 320.588C1642.93 321.107 1642.39 321.545 1641.74 321.9C1641.08 322.256 1640.3 322.434 1639.4 322.434C1637.71 322.434 1636.52 322.174 1635.83 321.654C1635.15 321.107 1634.77 320.396 1634.68 319.521ZM1630.17 328.75C1630.64 327.984 1631.17 327.438 1631.77 327.109C1632.37 326.781 1632.99 326.617 1633.62 326.617C1634.66 326.617 1635.54 326.959 1636.28 327.643C1637.05 328.299 1637.43 329.146 1637.43 330.186C1637.4 330.432 1637.36 330.678 1637.31 330.924C1637.28 331.17 1637.2 331.416 1637.06 331.662C1636.68 332.373 1636.37 332.975 1636.12 333.467C1635.87 333.959 1635.64 334.424 1635.42 334.861C1635.23 335.271 1635.04 335.682 1634.85 336.092C1634.66 336.502 1634.42 336.994 1634.15 337.568C1633.82 338.252 1633.45 339.004 1633.04 339.824C1632.63 340.617 1632.24 341.438 1631.85 342.285C1631.5 343.133 1631.18 343.967 1630.91 344.787C1630.66 345.607 1630.54 346.359 1630.54 347.043C1630.54 347.781 1630.72 348.273 1631.07 348.52C1631.46 348.738 1631.99 348.848 1632.67 348.848C1633.44 348.848 1634.23 348.684 1635.05 348.355C1635.9 348.027 1636.75 347.604 1637.6 347.084C1638.44 346.564 1639.28 345.977 1640.1 345.32C1640.92 344.637 1641.68 343.953 1642.39 343.27C1643.13 342.586 1643.8 341.93 1644.4 341.301C1645.03 340.672 1645.55 340.111 1645.96 339.619C1646.51 339.1 1647.06 338.84 1647.6 338.84C1648.1 338.84 1648.49 339.059 1648.79 339.496C1649.12 339.934 1649.29 340.494 1649.29 341.178C1649.29 341.807 1649.12 342.477 1648.79 343.188C1648.49 343.898 1647.99 344.568 1647.28 345.197C1645.88 346.619 1644.46 347.986 1643.01 349.299C1641.56 350.584 1640.07 351.732 1638.54 352.744C1637.04 353.729 1635.52 354.521 1633.99 355.123C1632.46 355.725 1630.91 356.025 1629.35 356.025C1627.14 356.025 1625.39 355.465 1624.1 354.344C1622.84 353.195 1622.21 351.418 1622.21 349.012C1622.21 347.754 1622.39 346.523 1622.75 345.32C1623.1 344.117 1623.53 342.955 1624.02 341.834C1624.51 340.686 1625.03 339.592 1625.58 338.553C1626.12 337.486 1626.59 336.475 1626.97 335.518C1627.11 335.162 1627.34 334.615 1627.67 333.877C1628.03 333.139 1628.39 332.387 1628.78 331.621C1629.21 330.719 1629.68 329.762 1630.17 328.75ZM1651.05 330.104C1651.6 328.928 1652.28 328.053 1653.1 327.479C1653.92 326.904 1654.73 326.617 1655.52 326.617C1656.18 326.617 1656.76 326.863 1657.28 327.355C1657.8 327.82 1658.06 328.518 1658.06 329.447C1658.06 329.803 1658.02 330.186 1657.94 330.596C1657.86 331.006 1657.71 331.443 1657.49 331.908C1658.09 331.143 1658.95 330.363 1660.07 329.57C1661.19 328.75 1662.42 328.025 1663.76 327.396C1665.13 326.74 1666.53 326.207 1667.95 325.797C1669.4 325.387 1670.76 325.182 1672.05 325.182C1673.5 325.182 1674.7 325.537 1675.66 326.248C1676.64 326.932 1677.13 328.107 1677.13 329.775C1677.13 330.76 1676.98 331.785 1676.68 332.852C1676.38 333.918 1675.99 334.984 1675.49 336.051C1675.03 337.117 1674.5 338.17 1673.89 339.209C1673.32 340.221 1672.75 341.178 1672.17 342.08C1671.6 342.982 1671.06 343.816 1670.57 344.582C1670.11 345.32 1669.74 345.936 1669.46 346.428C1669.11 346.865 1668.93 347.371 1668.93 347.945C1668.93 348.164 1669 348.355 1669.14 348.52C1669.27 348.684 1669.49 348.766 1669.79 348.766C1669.98 348.766 1670.2 348.752 1670.45 348.725C1670.7 348.67 1671 348.52 1671.35 348.273C1672.83 347.727 1674.33 347.043 1675.86 346.223C1677.42 345.402 1678.91 344.541 1680.33 343.639C1681.76 342.709 1683.05 341.793 1684.23 340.891C1685.43 339.961 1686.43 339.127 1687.22 338.389C1687.44 338.197 1687.66 338.061 1687.88 337.979C1688.1 337.896 1688.3 337.855 1688.5 337.855C1688.96 337.855 1689.32 338.033 1689.56 338.389C1689.84 338.744 1689.97 339.195 1689.97 339.742C1689.97 340.59 1689.7 341.533 1689.15 342.572C1688.63 343.611 1687.8 344.582 1686.65 345.484C1685.09 346.605 1683.66 347.631 1682.34 348.561C1681.06 349.49 1679.73 350.365 1678.37 351.186C1677.03 351.979 1675.58 352.73 1674.02 353.441C1672.49 354.125 1670.68 354.768 1668.6 355.369C1667.89 355.588 1667.24 355.752 1666.63 355.861C1666.06 355.971 1665.53 356.025 1665.04 356.025C1663.59 356.025 1662.52 355.629 1661.84 354.836C1661.18 354.016 1660.85 352.881 1660.85 351.432C1660.85 351.24 1660.85 351.062 1660.85 350.898C1660.88 350.707 1660.91 350.502 1660.93 350.283C1660.99 349.436 1661.21 348.506 1661.59 347.494C1662 346.482 1662.48 345.443 1663.03 344.377C1663.6 343.311 1664.2 342.258 1664.83 341.219C1665.46 340.152 1666.03 339.154 1666.55 338.225C1667.1 337.268 1667.55 336.42 1667.91 335.682C1668.26 334.943 1668.44 334.342 1668.44 333.877C1668.44 333.467 1668.32 333.125 1668.07 332.852C1667.85 332.551 1667.51 332.4 1667.04 332.4C1665.29 332.4 1663.63 332.92 1662.04 333.959C1660.48 334.998 1659.02 336.283 1657.65 337.814C1656.29 339.318 1655.03 340.918 1653.88 342.613C1652.73 344.309 1651.72 345.826 1650.84 347.166C1650.3 348.068 1649.79 349.039 1649.33 350.078C1648.89 351.09 1648.42 352.047 1647.93 352.949C1647.44 353.824 1646.88 354.549 1646.25 355.123C1645.65 355.725 1644.88 356.025 1643.95 356.025C1643 356.025 1642.24 355.725 1641.7 355.123C1641.15 354.521 1640.88 353.783 1640.88 352.908C1640.88 352.443 1641.07 351.691 1641.45 350.652C1641.83 349.613 1642.33 348.41 1642.93 347.043C1643.53 345.676 1644.2 344.213 1644.94 342.654C1645.7 341.068 1646.46 339.51 1647.19 337.979C1647.96 336.42 1648.68 334.957 1649.37 333.59C1650.05 332.223 1650.61 331.061 1651.05 330.104Z" fill="#232323"/>
<path d="M1497.09 722.25C1496.72 719.75 1494.78 718.219 1492.16 718.219C1488.62 718.219 1486.31 720.938 1486.31 725.688C1486.31 730.562 1488.66 733.156 1492.12 733.156C1494.72 733.156 1496.62 731.719 1497.09 729.281L1501.84 729.312C1501.31 733.5 1497.81 737.312 1492.06 737.312C1486 737.312 1481.53 733.062 1481.53 725.688C1481.53 718.312 1486.09 714.062 1492.06 714.062C1497.28 714.062 1501.22 717.062 1501.84 722.25H1497.09ZM1512.66 737.344C1507.53 737.344 1504.34 733.812 1504.34 728.562C1504.34 723.312 1507.53 719.812 1512.66 719.812C1517.78 719.812 1521 723.312 1521 728.562C1521 733.812 1517.78 737.344 1512.66 737.344ZM1512.69 733.75C1515.06 733.75 1516.28 731.531 1516.28 728.562C1516.28 725.562 1515.06 723.344 1512.69 723.344C1510.28 723.344 1509.03 725.562 1509.03 728.562C1509.03 731.531 1510.28 733.75 1512.69 733.75ZM1528.53 727.188V737H1523.91V720.031H1528.31V723H1528.5C1529.28 721.031 1531.09 719.812 1533.59 719.812C1537.12 719.812 1539.47 722.219 1539.44 726.188V737H1534.84V727C1534.84 724.906 1533.69 723.656 1531.78 723.656C1529.84 723.656 1528.53 724.938 1528.53 727.188ZM1551.97 720.031V723.5H1548.78V731.781C1548.78 733.125 1549.44 733.469 1550.38 733.5C1550.84 733.5 1551.66 733.469 1552.22 733.406V737.062C1551.72 737.156 1550.91 737.219 1549.75 737.219C1546.41 737.219 1544.12 735.719 1544.16 732.438V723.5H1541.81V720.031H1544.16V715.969H1548.78V720.031H1551.97ZM1554.06 732.25C1554.06 728.469 1557.12 727.219 1560.38 727.031C1561.59 726.953 1563.88 726.844 1564.59 726.812V725.438C1564.56 724.031 1563.59 723.188 1561.88 723.188C1560.31 723.188 1559.31 723.906 1559.06 725.062H1554.66C1554.94 722.125 1557.5 719.812 1562 719.812C1565.69 719.812 1569.19 721.469 1569.19 725.562V737H1564.81V734.656H1564.69C1563.84 736.219 1562.25 737.312 1559.72 737.312C1556.47 737.312 1554.06 735.625 1554.06 732.25ZM1558.5 732.125C1558.5 733.438 1559.56 734.125 1561.03 734.125C1563.12 734.125 1564.62 732.719 1564.59 730.938V729.688C1563.89 729.719 1561.92 729.828 1561.12 729.906C1559.53 730.062 1558.5 730.812 1558.5 732.125ZM1580.34 737.344C1575.16 737.344 1572.03 733.75 1572.03 728.562C1572.03 723.375 1575.19 719.812 1580.34 719.812C1584.72 719.812 1587.69 722.375 1587.88 726.25H1583.53C1583.25 724.562 1582.16 723.406 1580.41 723.406C1578.19 723.406 1576.72 725.281 1576.72 728.5C1576.72 731.781 1578.16 733.656 1580.41 733.656C1582.03 733.656 1583.25 732.656 1583.53 730.844H1587.88C1587.66 734.688 1584.84 737.344 1580.34 737.344ZM1599.69 720.031V723.5H1596.5V731.781C1596.5 733.125 1597.16 733.469 1598.09 733.5C1598.56 733.5 1599.38 733.469 1599.94 733.406V737.062C1599.44 737.156 1598.62 737.219 1597.47 737.219C1594.12 737.219 1591.84 735.719 1591.88 732.438V723.5H1589.53V720.031H1591.88V715.969H1596.5V720.031H1599.69ZM1624.06 714.375H1628.78V729.062C1628.78 734.031 1625.03 737.312 1619.41 737.312C1613.78 737.312 1610.06 734.031 1610.06 729.062V714.375H1614.75V728.688C1614.75 731.281 1616.59 733.188 1619.41 733.188C1622.25 733.188 1624.06 731.281 1624.06 728.688V714.375ZM1642.19 725.062C1642 723.875 1640.94 723.094 1639.41 723.094C1637.91 723.094 1636.75 723.812 1636.78 724.844C1636.75 725.594 1637.38 726.188 1638.97 726.531L1642 727.156C1645.28 727.844 1646.88 729.312 1646.91 731.75C1646.88 735.094 1643.88 737.344 1639.38 737.344C1634.78 737.344 1632.09 735.281 1631.72 731.969H1636.38C1636.59 733.312 1637.69 734 1639.38 734C1641.06 734 1642.19 733.312 1642.19 732.219C1642.19 731.344 1641.47 730.812 1639.88 730.469L1637.06 729.906C1633.84 729.281 1632.16 727.594 1632.19 725.094C1632.16 721.844 1634.97 719.812 1639.34 719.812C1643.62 719.812 1646.28 721.844 1646.53 725.062H1642.19Z" fill="#232323"/>
<path d="M1434.35 776V764.688H1441.95V766.625H1436.7V769.375H1441.55V771.312H1436.7V774.062H1441.96V776H1434.35ZM1443.73 776V767.516H1445.93V769H1446.02C1446.38 768.016 1447.24 767.406 1448.38 767.406C1449.55 767.406 1450.41 768.016 1450.7 769H1450.77C1451.13 768.031 1452.09 767.406 1453.34 767.406C1454.91 767.406 1456.01 768.453 1456.01 770.297V776H1453.7V770.75C1453.7 769.781 1453.13 769.312 1452.37 769.312C1451.49 769.312 1450.99 769.922 1450.99 770.812V776H1448.74V770.688C1448.74 769.844 1448.21 769.312 1447.43 769.312C1446.65 769.312 1446.04 769.938 1446.04 770.906V776H1443.73ZM1457.38 773.625C1457.38 771.734 1458.91 771.109 1460.54 771.016C1461.15 770.977 1462.29 770.922 1462.65 770.906V770.219C1462.63 769.516 1462.15 769.094 1461.29 769.094C1460.51 769.094 1460.01 769.453 1459.88 770.031H1457.68C1457.82 768.562 1459.1 767.406 1461.35 767.406C1463.2 767.406 1464.95 768.234 1464.95 770.281V776H1462.76V774.828H1462.7C1462.27 775.609 1461.48 776.156 1460.21 776.156C1458.59 776.156 1457.38 775.312 1457.38 773.625ZM1459.6 773.562C1459.6 774.219 1460.13 774.562 1460.87 774.562C1461.91 774.562 1462.66 773.859 1462.65 772.969V772.344C1462.3 772.359 1461.31 772.414 1460.91 772.453C1460.12 772.531 1459.6 772.906 1459.6 773.562ZM1466.71 776V767.516H1469.02V776H1466.71ZM1467.87 766.406C1467.16 766.406 1466.6 765.875 1466.6 765.234C1466.6 764.578 1467.16 764.047 1467.87 764.047C1468.55 764.047 1469.12 764.578 1469.12 765.234C1469.12 765.875 1468.55 766.406 1467.87 766.406ZM1473.13 764.688V776H1470.82V764.688H1473.13ZM1479.98 776.141C1479.24 776.141 1478.65 775.547 1478.66 774.828C1478.65 774.109 1479.24 773.531 1479.98 773.531C1480.66 773.531 1481.27 774.109 1481.27 774.828C1481.27 775.547 1480.66 776.141 1479.98 776.141ZM1479.98 770.188C1479.24 770.188 1478.65 769.594 1478.66 768.875C1478.65 768.156 1479.24 767.578 1479.98 767.578C1480.66 767.578 1481.27 768.156 1481.27 768.875C1481.27 769.594 1480.66 770.188 1479.98 770.188ZM1491.66 770.031C1491.57 769.438 1491.04 769.047 1490.27 769.047C1489.52 769.047 1488.95 769.406 1488.96 769.922C1488.95 770.297 1489.26 770.594 1490.05 770.766L1491.57 771.078C1493.21 771.422 1494.01 772.156 1494.02 773.375C1494.01 775.047 1492.51 776.172 1490.26 776.172C1487.96 776.172 1486.62 775.141 1486.43 773.484H1488.76C1488.87 774.156 1489.41 774.5 1490.26 774.5C1491.1 774.5 1491.66 774.156 1491.66 773.609C1491.66 773.172 1491.3 772.906 1490.51 772.734L1489.1 772.453C1487.49 772.141 1486.65 771.297 1486.66 770.047C1486.65 768.422 1488.05 767.406 1490.24 767.406C1492.38 767.406 1493.71 768.422 1493.84 770.031H1491.66ZM1499.26 776.172C1496.7 776.172 1495.1 774.406 1495.1 771.781C1495.1 769.156 1496.7 767.406 1499.26 767.406C1501.82 767.406 1503.43 769.156 1503.43 771.781C1503.43 774.406 1501.82 776.172 1499.26 776.172ZM1499.27 774.375C1500.46 774.375 1501.07 773.266 1501.07 771.781C1501.07 770.281 1500.46 769.172 1499.27 769.172C1498.07 769.172 1497.45 770.281 1497.45 771.781C1497.45 773.266 1498.07 774.375 1499.27 774.375ZM1507.2 771.094V776H1504.88V767.516H1507.09V769H1507.18C1507.57 768.016 1508.48 767.406 1509.73 767.406C1511.49 767.406 1512.66 768.609 1512.65 770.594V776H1510.35V771C1510.35 769.953 1509.77 769.328 1508.82 769.328C1507.85 769.328 1507.2 769.969 1507.2 771.094ZM1518.26 779.359C1515.91 779.359 1514.48 778.312 1514.34 776.703H1516.62C1516.74 777.375 1517.38 777.688 1518.3 777.688C1519.38 777.688 1520.1 777.234 1520.1 776.047V774.5H1519.99C1519.68 775.188 1518.93 775.875 1517.57 775.875C1515.65 775.875 1514.12 774.531 1514.12 771.703C1514.12 768.828 1515.7 767.406 1517.57 767.406C1518.99 767.406 1519.68 768.25 1519.99 768.938H1520.09V767.516H1522.38V776.094C1522.38 778.25 1520.66 779.359 1518.26 779.359ZM1518.29 774.141C1519.45 774.141 1520.1 773.234 1520.1 771.734C1520.1 770.219 1519.45 769.25 1518.29 769.25C1517.12 769.25 1516.49 770.266 1516.49 771.734C1516.49 773.203 1517.12 774.141 1518.29 774.141ZM1524.18 779.188V767.516H1526.46V768.938H1526.55C1526.87 768.25 1527.55 767.406 1528.98 767.406C1530.85 767.406 1532.41 768.859 1532.41 771.766C1532.41 774.594 1530.91 776.141 1528.98 776.141C1527.59 776.141 1526.88 775.344 1526.55 774.641H1526.49V779.188H1524.18ZM1526.45 771.75C1526.45 773.281 1527.1 774.297 1528.24 774.297C1529.43 774.297 1530.05 773.25 1530.05 771.75C1530.05 770.266 1529.43 769.25 1528.24 769.25C1527.09 769.25 1526.45 770.219 1526.45 771.75ZM1533.91 776V767.516H1536.23V776H1533.91ZM1535.07 766.406C1534.37 766.406 1533.8 765.875 1533.8 765.234C1533.8 764.578 1534.37 764.047 1535.07 764.047C1535.76 764.047 1536.32 764.578 1536.32 765.234C1536.32 765.875 1535.76 766.406 1535.07 766.406ZM1540.34 771.094V776H1538.02V767.516H1540.23V769H1540.32C1540.71 768.016 1541.62 767.406 1542.87 767.406C1544.63 767.406 1545.8 768.609 1545.79 770.594V776H1543.49V771C1543.49 769.953 1542.91 769.328 1541.96 769.328C1540.99 769.328 1540.34 769.969 1540.34 771.094ZM1548.95 776.141C1548.21 776.141 1547.62 775.547 1547.63 774.828C1547.62 774.109 1548.21 773.531 1548.95 773.531C1549.63 773.531 1550.24 774.109 1550.24 774.828C1550.24 775.547 1549.63 776.141 1548.95 776.141ZM1555.91 776.172C1553.35 776.172 1551.76 774.406 1551.76 771.781C1551.76 769.156 1553.35 767.406 1555.91 767.406C1558.48 767.406 1560.09 769.156 1560.09 771.781C1560.09 774.406 1558.48 776.172 1555.91 776.172ZM1555.93 774.375C1557.12 774.375 1557.73 773.266 1557.73 771.781C1557.73 770.281 1557.12 769.172 1555.93 769.172C1554.73 769.172 1554.1 770.281 1554.1 771.781C1554.1 773.266 1554.73 774.375 1555.93 774.375ZM1566.05 767.516V769.25H1564.37V776H1562.05V769.25H1560.85V767.516H1562.05V766.875C1562.05 765.094 1563.13 764.156 1564.84 764.156C1565.37 764.156 1565.8 764.203 1566.21 764.297V766.047C1565.88 766.016 1565.63 766 1565.51 766C1564.76 766 1564.37 766.297 1564.37 767V767.516H1566.05ZM1571.93 767.516V769.25H1570.24V776H1567.93V769.25H1566.73V767.516H1567.93V766.875C1567.93 765.094 1569.01 764.156 1570.71 764.156C1571.24 764.156 1571.68 764.203 1572.09 764.297V766.047C1571.76 766.016 1571.51 766 1571.38 766C1570.63 766 1570.24 766.297 1570.24 767V767.516H1571.93ZM1573.29 776V767.516H1575.6V776H1573.29ZM1574.45 766.406C1573.74 766.406 1573.18 765.875 1573.18 765.234C1573.18 764.578 1573.74 764.047 1574.45 764.047C1575.13 764.047 1575.7 764.578 1575.7 765.234C1575.7 765.875 1575.13 766.406 1574.45 766.406ZM1581.21 776.172C1578.62 776.172 1577.05 774.375 1577.05 771.781C1577.05 769.188 1578.63 767.406 1581.21 767.406C1583.4 767.406 1584.88 768.688 1584.98 770.625H1582.8C1582.66 769.781 1582.12 769.203 1581.24 769.203C1580.13 769.203 1579.4 770.141 1579.4 771.75C1579.4 773.391 1580.12 774.328 1581.24 774.328C1582.05 774.328 1582.66 773.828 1582.8 772.922H1584.98C1584.87 774.844 1583.46 776.172 1581.21 776.172ZM1586.41 776V767.516H1588.73V776H1586.41ZM1587.57 766.406C1586.87 766.406 1586.3 765.875 1586.3 765.234C1586.3 764.578 1586.87 764.047 1587.57 764.047C1588.26 764.047 1588.82 764.578 1588.82 765.234C1588.82 765.875 1588.26 766.406 1587.57 766.406ZM1590.12 773.625C1590.12 771.734 1591.65 771.109 1593.27 771.016C1593.88 770.977 1595.02 770.922 1595.38 770.906V770.219C1595.37 769.516 1594.88 769.094 1594.02 769.094C1593.24 769.094 1592.74 769.453 1592.62 770.031H1590.41C1590.55 768.562 1591.84 767.406 1594.09 767.406C1595.93 767.406 1597.68 768.234 1597.68 770.281V776H1595.49V774.828H1595.43C1595.01 775.609 1594.21 776.156 1592.95 776.156C1591.32 776.156 1590.12 775.312 1590.12 773.625ZM1592.34 773.562C1592.34 774.219 1592.87 774.562 1593.6 774.562C1594.65 774.562 1595.4 773.859 1595.38 772.969V772.344C1595.03 772.359 1594.05 772.414 1593.65 772.453C1592.85 772.531 1592.34 772.906 1592.34 773.562ZM1601.76 764.688V776H1599.45V764.688H1601.76ZM1609.04 774.391C1607.65 774.391 1606.54 773.297 1606.54 771.219C1606.54 769.094 1607.71 768.062 1609.04 768.062C1609.99 768.062 1610.51 768.625 1610.73 769.109H1610.79V768.234H1612.48V772.188C1612.49 772.688 1612.68 772.922 1613.07 772.922C1613.79 772.922 1614.23 772.109 1614.24 770.828C1614.24 768.234 1612.43 766.516 1609.65 766.516C1606.85 766.516 1605.05 768.484 1605.05 771.219C1605.05 774.172 1606.62 775.953 1609.62 775.938C1610.74 775.938 1611.63 775.828 1612.48 775.609V777.234C1611.63 777.484 1610.66 777.625 1609.62 777.625C1605.65 777.625 1603.38 775.094 1603.38 771.219C1603.38 767.516 1605.96 764.828 1609.65 764.828C1613.34 764.828 1615.9 767.328 1615.9 770.781C1615.9 773.125 1614.73 774.469 1612.9 774.469C1611.84 774.453 1611.02 773.977 1610.84 773.297H1610.77C1610.55 773.781 1610.01 774.391 1609.04 774.391ZM1609.65 772.797C1610.41 772.812 1610.84 772.188 1610.84 771.219C1610.84 770.25 1610.41 769.641 1609.65 769.641C1608.9 769.641 1608.48 770.281 1608.49 771.219C1608.48 772.156 1608.91 772.797 1609.65 772.797ZM1621.35 779.359C1619.01 779.359 1617.57 778.312 1617.43 776.703H1619.71C1619.84 777.375 1620.48 777.688 1621.4 777.688C1622.48 777.688 1623.2 777.234 1623.2 776.047V774.5H1623.09C1622.77 775.188 1622.02 775.875 1620.66 775.875C1618.74 775.875 1617.21 774.531 1617.21 771.703C1617.21 768.828 1618.79 767.406 1620.66 767.406C1622.09 767.406 1622.77 768.25 1623.09 768.938H1623.18V767.516H1625.48V776.094C1625.48 778.25 1623.76 779.359 1621.35 779.359ZM1621.38 774.141C1622.54 774.141 1623.2 773.234 1623.2 771.734C1623.2 770.219 1622.54 769.25 1621.38 769.25C1620.21 769.25 1619.59 770.266 1619.59 771.734C1619.59 773.203 1620.21 774.141 1621.38 774.141ZM1627.27 776V767.516H1629.48V769H1629.57C1629.93 768.016 1630.79 767.406 1631.93 767.406C1633.1 767.406 1633.96 768.016 1634.24 769H1634.32C1634.68 768.031 1635.63 767.406 1636.88 767.406C1638.46 767.406 1639.55 768.453 1639.55 770.297V776H1637.24V770.75C1637.24 769.781 1636.68 769.312 1635.91 769.312C1635.04 769.312 1634.54 769.922 1634.54 770.812V776H1632.29V770.688C1632.29 769.844 1631.76 769.312 1630.98 769.312C1630.2 769.312 1629.59 769.938 1629.59 770.906V776H1627.27ZM1640.93 773.625C1640.93 771.734 1642.46 771.109 1644.09 771.016C1644.7 770.977 1645.84 770.922 1646.2 770.906V770.219C1646.18 769.516 1645.7 769.094 1644.84 769.094C1644.05 769.094 1643.55 769.453 1643.43 770.031H1641.23C1641.37 768.562 1642.65 767.406 1644.9 767.406C1646.74 767.406 1648.49 768.234 1648.49 770.281V776H1646.3V774.828H1646.24C1645.82 775.609 1645.02 776.156 1643.76 776.156C1642.13 776.156 1640.93 775.312 1640.93 773.625ZM1643.15 773.562C1643.15 774.219 1643.68 774.562 1644.41 774.562C1645.46 774.562 1646.21 773.859 1646.2 772.969V772.344C1645.84 772.359 1644.86 772.414 1644.46 772.453C1643.66 772.531 1643.15 772.906 1643.15 773.562ZM1650.26 776V767.516H1652.57V776H1650.26ZM1651.41 766.406C1650.71 766.406 1650.15 765.875 1650.15 765.234C1650.15 764.578 1650.71 764.047 1651.41 764.047C1652.1 764.047 1652.66 764.578 1652.66 765.234C1652.66 765.875 1652.1 766.406 1651.41 766.406ZM1656.68 764.688V776H1654.37V764.688H1656.68ZM1659.84 776.141C1659.1 776.141 1658.51 775.547 1658.52 774.828C1658.51 774.109 1659.1 773.531 1659.84 773.531C1660.52 773.531 1661.13 774.109 1661.13 774.828C1661.13 775.547 1660.52 776.141 1659.84 776.141ZM1666.8 776.172C1664.21 776.172 1662.65 774.375 1662.65 771.781C1662.65 769.188 1664.23 767.406 1666.8 767.406C1668.99 767.406 1670.48 768.688 1670.57 770.625H1668.4C1668.26 769.781 1667.71 769.203 1666.84 769.203C1665.73 769.203 1664.99 770.141 1664.99 771.75C1664.99 773.391 1665.71 774.328 1666.84 774.328C1667.65 774.328 1668.26 773.828 1668.4 772.922H1670.57C1670.46 774.844 1669.05 776.172 1666.8 776.172ZM1675.82 776.172C1673.26 776.172 1671.66 774.406 1671.66 771.781C1671.66 769.156 1673.26 767.406 1675.82 767.406C1678.38 767.406 1679.99 769.156 1679.99 771.781C1679.99 774.406 1678.38 776.172 1675.82 776.172ZM1675.84 774.375C1677.02 774.375 1677.63 773.266 1677.63 771.781C1677.63 770.281 1677.02 769.172 1675.84 769.172C1674.63 769.172 1674.01 770.281 1674.01 771.781C1674.01 773.266 1674.63 774.375 1675.84 774.375ZM1681.45 776V767.516H1683.65V769H1683.74C1684.1 768.016 1684.96 767.406 1686.1 767.406C1687.27 767.406 1688.13 768.016 1688.41 769H1688.49C1688.85 768.031 1689.8 767.406 1691.05 767.406C1692.63 767.406 1693.73 768.453 1693.73 770.297V776H1691.41V770.75C1691.41 769.781 1690.85 769.312 1690.09 769.312C1689.21 769.312 1688.71 769.922 1688.71 770.812V776H1686.46V770.688C1686.46 769.844 1685.93 769.312 1685.15 769.312C1684.37 769.312 1683.76 769.938 1683.76 770.906V776H1681.45ZM1456.6 788.688V800H1454.26V788.688H1456.6ZM1460.77 795.094V800H1458.46V791.516H1460.66V793H1460.76C1461.15 792.016 1462.05 791.406 1463.3 791.406C1465.07 791.406 1466.24 792.609 1466.23 794.594V800H1463.93V795C1463.93 793.953 1463.35 793.328 1462.4 793.328C1461.43 793.328 1460.77 793.969 1460.77 795.094ZM1472.87 794.031C1472.77 793.438 1472.24 793.047 1471.48 793.047C1470.73 793.047 1470.15 793.406 1470.16 793.922C1470.15 794.297 1470.46 794.594 1471.26 794.766L1472.77 795.078C1474.41 795.422 1475.21 796.156 1475.23 797.375C1475.21 799.047 1473.71 800.172 1471.46 800.172C1469.16 800.172 1467.82 799.141 1467.63 797.484H1469.96C1470.07 798.156 1470.62 798.5 1471.46 798.5C1472.3 798.5 1472.87 798.156 1472.87 797.609C1472.87 797.172 1472.51 796.906 1471.71 796.734L1470.3 796.453C1468.7 796.141 1467.85 795.297 1467.87 794.047C1467.85 792.422 1469.26 791.406 1471.45 791.406C1473.59 791.406 1474.91 792.422 1475.04 794.031H1472.87ZM1481.12 791.516V793.25H1479.52V797.391C1479.52 798.062 1479.85 798.234 1480.32 798.25C1480.55 798.25 1480.96 798.234 1481.24 798.203V800.031C1480.99 800.078 1480.59 800.109 1480.01 800.109C1478.34 800.109 1477.2 799.359 1477.21 797.719V793.25H1476.04V791.516H1477.21V789.484H1479.52V791.516H1481.12ZM1482.16 797.625C1482.16 795.734 1483.7 795.109 1485.32 795.016C1485.93 794.977 1487.07 794.922 1487.43 794.906V794.219C1487.41 793.516 1486.93 793.094 1486.07 793.094C1485.29 793.094 1484.79 793.453 1484.66 794.031H1482.46C1482.6 792.562 1483.88 791.406 1486.13 791.406C1487.98 791.406 1489.73 792.234 1489.73 794.281V800H1487.54V798.828H1487.48C1487.05 799.609 1486.26 800.156 1484.99 800.156C1483.37 800.156 1482.16 799.312 1482.16 797.625ZM1484.38 797.562C1484.38 798.219 1484.91 798.562 1485.65 798.562C1486.7 798.562 1487.45 797.859 1487.43 796.969V796.344C1487.08 796.359 1486.09 796.414 1485.7 796.453C1484.9 796.531 1484.38 796.906 1484.38 797.562ZM1495.3 803.359C1492.96 803.359 1491.52 802.312 1491.38 800.703H1493.66C1493.79 801.375 1494.43 801.688 1495.35 801.688C1496.43 801.688 1497.15 801.234 1497.15 800.047V798.5H1497.04C1496.73 799.188 1495.98 799.875 1494.62 799.875C1492.7 799.875 1491.16 798.531 1491.16 795.703C1491.16 792.828 1492.74 791.406 1494.62 791.406C1496.04 791.406 1496.73 792.25 1497.04 792.938H1497.13V791.516H1499.43V800.094C1499.43 802.25 1497.71 803.359 1495.3 803.359ZM1495.34 798.141C1496.49 798.141 1497.15 797.234 1497.15 795.734C1497.15 794.219 1496.49 793.25 1495.34 793.25C1494.16 793.25 1493.54 794.266 1493.54 795.734C1493.54 797.203 1494.16 798.141 1495.34 798.141ZM1501.23 800V791.516H1503.46V792.984H1503.55C1503.87 791.938 1504.65 791.391 1505.6 791.391C1505.84 791.391 1506.13 791.422 1506.34 791.469V793.531C1506.12 793.469 1505.68 793.406 1505.35 793.406C1504.3 793.406 1503.54 794.141 1503.54 795.172V800H1501.23ZM1506.82 797.625C1506.82 795.734 1508.35 795.109 1509.98 795.016C1510.59 794.977 1511.73 794.922 1512.09 794.906V794.219C1512.07 793.516 1511.59 793.094 1510.73 793.094C1509.95 793.094 1509.45 793.453 1509.32 794.031H1507.12C1507.26 792.562 1508.54 791.406 1510.79 791.406C1512.63 791.406 1514.38 792.234 1514.38 794.281V800H1512.2V798.828H1512.13C1511.71 799.609 1510.91 800.156 1509.65 800.156C1508.02 800.156 1506.82 799.312 1506.82 797.625ZM1509.04 797.562C1509.04 798.219 1509.57 798.562 1510.3 798.562C1511.35 798.562 1512.1 797.859 1512.09 796.969V796.344C1511.73 796.359 1510.75 796.414 1510.35 796.453C1509.55 796.531 1509.04 796.906 1509.04 797.562ZM1516.15 800V791.516H1518.35V793H1518.45C1518.8 792.016 1519.66 791.406 1520.8 791.406C1521.98 791.406 1522.84 792.016 1523.12 793H1523.2C1523.55 792.031 1524.51 791.406 1525.76 791.406C1527.34 791.406 1528.43 792.453 1528.43 794.297V800H1526.12V794.75C1526.12 793.781 1525.55 793.312 1524.79 793.312C1523.91 793.312 1523.41 793.922 1523.41 794.812V800H1521.16V794.688C1521.16 793.844 1520.63 793.312 1519.85 793.312C1519.07 793.312 1518.46 793.938 1518.46 794.906V800H1516.15ZM1535.26 800.141C1534.52 800.141 1533.93 799.547 1533.95 798.828C1533.93 798.109 1534.52 797.531 1535.26 797.531C1535.95 797.531 1536.55 798.109 1536.55 798.828C1536.55 799.547 1535.95 800.141 1535.26 800.141ZM1535.26 794.188C1534.52 794.188 1533.93 793.594 1533.95 792.875C1533.93 792.156 1534.52 791.578 1535.26 791.578C1535.95 791.578 1536.55 792.156 1536.55 792.875C1536.55 793.594 1535.95 794.188 1535.26 794.188ZM1547.59 798.391C1546.2 798.391 1545.09 797.297 1545.09 795.219C1545.09 793.094 1546.26 792.062 1547.59 792.062C1548.54 792.062 1549.05 792.625 1549.27 793.109H1549.34V792.234H1551.02V796.188C1551.04 796.688 1551.23 796.922 1551.62 796.922C1552.34 796.922 1552.77 796.109 1552.79 794.828C1552.79 792.234 1550.98 790.516 1548.2 790.516C1545.4 790.516 1543.6 792.484 1543.6 795.219C1543.6 798.172 1545.16 799.953 1548.16 799.938C1549.29 799.938 1550.18 799.828 1551.02 799.609V801.234C1550.18 801.484 1549.21 801.625 1548.16 801.625C1544.2 801.625 1541.93 799.094 1541.93 795.219C1541.93 791.516 1544.51 788.828 1548.2 788.828C1551.88 788.828 1554.45 791.328 1554.45 794.781C1554.45 797.125 1553.27 798.469 1551.45 798.469C1550.38 798.453 1549.57 797.977 1549.38 797.297H1549.32C1549.1 797.781 1548.55 798.391 1547.59 798.391ZM1548.2 796.797C1548.96 796.812 1549.38 796.188 1549.38 795.219C1549.38 794.25 1548.96 793.641 1548.2 793.641C1547.45 793.641 1547.02 794.281 1547.04 795.219C1547.02 796.156 1547.46 796.797 1548.2 796.797ZM1560.93 794.031C1560.84 793.438 1560.3 793.047 1559.54 793.047C1558.79 793.047 1558.21 793.406 1558.23 793.922C1558.21 794.297 1558.52 794.594 1559.32 794.766L1560.84 795.078C1562.48 795.422 1563.27 796.156 1563.29 797.375C1563.27 799.047 1561.77 800.172 1559.52 800.172C1557.23 800.172 1555.88 799.141 1555.7 797.484H1558.02C1558.13 798.156 1558.68 798.5 1559.52 798.5C1560.37 798.5 1560.93 798.156 1560.93 797.609C1560.93 797.172 1560.57 796.906 1559.77 796.734L1558.37 796.453C1556.76 796.141 1555.91 795.297 1555.93 794.047C1555.91 792.422 1557.32 791.406 1559.51 791.406C1561.65 791.406 1562.98 792.422 1563.1 794.031H1560.93ZM1568.52 800.172C1565.96 800.172 1564.37 798.406 1564.37 795.781C1564.37 793.156 1565.96 791.406 1568.52 791.406C1571.09 791.406 1572.7 793.156 1572.7 795.781C1572.7 798.406 1571.09 800.172 1568.52 800.172ZM1568.54 798.375C1569.73 798.375 1570.34 797.266 1570.34 795.781C1570.34 794.281 1569.73 793.172 1568.54 793.172C1567.34 793.172 1566.71 794.281 1566.71 795.781C1566.71 797.266 1567.34 798.375 1568.54 798.375ZM1576.46 795.094V800H1574.15V791.516H1576.35V793H1576.45C1576.84 792.016 1577.74 791.406 1578.99 791.406C1580.76 791.406 1581.93 792.609 1581.91 794.594V800H1579.62V795C1579.62 793.953 1579.04 793.328 1578.09 793.328C1577.12 793.328 1576.46 793.969 1576.46 795.094ZM1587.52 803.359C1585.18 803.359 1583.74 802.312 1583.6 800.703H1585.88C1586.01 801.375 1586.65 801.688 1587.57 801.688C1588.65 801.688 1589.37 801.234 1589.37 800.047V798.5H1589.26C1588.95 799.188 1588.2 799.875 1586.84 799.875C1584.91 799.875 1583.38 798.531 1583.38 795.703C1583.38 792.828 1584.96 791.406 1586.84 791.406C1588.26 791.406 1588.95 792.25 1589.26 792.938H1589.35V791.516H1591.65V800.094C1591.65 802.25 1589.93 803.359 1587.52 803.359ZM1587.55 798.141C1588.71 798.141 1589.37 797.234 1589.37 795.734C1589.37 794.219 1588.71 793.25 1587.55 793.25C1586.38 793.25 1585.76 794.266 1585.76 795.734C1585.76 797.203 1586.38 798.141 1587.55 798.141ZM1593.45 803.188V791.516H1595.73V792.938H1595.82C1596.13 792.25 1596.82 791.406 1598.24 791.406C1600.12 791.406 1601.68 792.859 1601.68 795.766C1601.68 798.594 1600.18 800.141 1598.24 800.141C1596.85 800.141 1596.15 799.344 1595.82 798.641H1595.76V803.188H1593.45ZM1595.71 795.75C1595.71 797.281 1596.37 798.297 1597.51 798.297C1598.7 798.297 1599.32 797.25 1599.32 795.75C1599.32 794.266 1598.7 793.25 1597.51 793.25C1596.35 793.25 1595.71 794.219 1595.71 795.75ZM1603.18 800V791.516H1605.49V800H1603.18ZM1604.34 790.406C1603.63 790.406 1603.07 789.875 1603.07 789.234C1603.07 788.578 1603.63 788.047 1604.34 788.047C1605.02 788.047 1605.59 788.578 1605.59 789.234C1605.59 789.875 1605.02 790.406 1604.34 790.406ZM1609.6 795.094V800H1607.29V791.516H1609.49V793H1609.59C1609.98 792.016 1610.88 791.406 1612.13 791.406C1613.9 791.406 1615.07 792.609 1615.05 794.594V800H1612.76V795C1612.76 793.953 1612.18 793.328 1611.23 793.328C1610.26 793.328 1609.6 793.969 1609.6 795.094ZM1623.3 800V801.766H1615.88V800H1623.3ZM1627.96 800.172C1625.4 800.172 1623.8 798.406 1623.8 795.781C1623.8 793.156 1625.4 791.406 1627.96 791.406C1630.52 791.406 1632.13 793.156 1632.13 795.781C1632.13 798.406 1630.52 800.172 1627.96 800.172ZM1627.98 798.375C1629.16 798.375 1629.77 797.266 1629.77 795.781C1629.77 794.281 1629.16 793.172 1627.98 793.172C1626.77 793.172 1626.15 794.281 1626.15 795.781C1626.15 797.266 1626.77 798.375 1627.98 798.375ZM1638.1 791.516V793.25H1636.41V800H1634.1V793.25H1632.9V791.516H1634.1V790.875C1634.1 789.094 1635.18 788.156 1636.88 788.156C1637.41 788.156 1637.85 788.203 1638.26 788.297V790.047C1637.93 790.016 1637.68 790 1637.55 790C1636.8 790 1636.41 790.297 1636.41 791V791.516H1638.1ZM1643.98 791.516V793.25H1642.29V800H1639.98V793.25H1638.77V791.516H1639.98V790.875C1639.98 789.094 1641.05 788.156 1642.76 788.156C1643.29 788.156 1643.73 788.203 1644.13 788.297V790.047C1643.8 790.016 1643.55 790 1643.43 790C1642.68 790 1642.29 790.297 1642.29 791V791.516H1643.98ZM1645.34 800V791.516H1647.65V800H1645.34ZM1646.49 790.406C1645.79 790.406 1645.23 789.875 1645.23 789.234C1645.23 788.578 1645.79 788.047 1646.49 788.047C1647.18 788.047 1647.74 788.578 1647.74 789.234C1647.74 789.875 1647.18 790.406 1646.49 790.406ZM1653.26 800.172C1650.66 800.172 1649.1 798.375 1649.1 795.781C1649.1 793.188 1650.68 791.406 1653.26 791.406C1655.45 791.406 1656.93 792.688 1657.02 794.625H1654.85C1654.71 793.781 1654.16 793.203 1653.29 793.203C1652.18 793.203 1651.45 794.141 1651.45 795.75C1651.45 797.391 1652.16 798.328 1653.29 798.328C1654.1 798.328 1654.71 797.828 1654.85 796.922H1657.02C1656.91 798.844 1655.51 800.172 1653.26 800.172ZM1658.46 800V791.516H1660.77V800H1658.46ZM1659.62 790.406C1658.91 790.406 1658.35 789.875 1658.35 789.234C1658.35 788.578 1658.91 788.047 1659.62 788.047C1660.3 788.047 1660.87 788.578 1660.87 789.234C1660.87 789.875 1660.3 790.406 1659.62 790.406ZM1662.16 797.625C1662.16 795.734 1663.7 795.109 1665.32 795.016C1665.93 794.977 1667.07 794.922 1667.43 794.906V794.219C1667.41 793.516 1666.93 793.094 1666.07 793.094C1665.29 793.094 1664.79 793.453 1664.66 794.031H1662.46C1662.6 792.562 1663.88 791.406 1666.13 791.406C1667.98 791.406 1669.73 792.234 1669.73 794.281V800H1667.54V798.828H1667.48C1667.05 799.609 1666.26 800.156 1664.99 800.156C1663.37 800.156 1662.16 799.312 1662.16 797.625ZM1664.38 797.562C1664.38 798.219 1664.91 798.562 1665.65 798.562C1666.7 798.562 1667.45 797.859 1667.43 796.969V796.344C1667.08 796.359 1666.09 796.414 1665.7 796.453C1664.9 796.531 1664.38 796.906 1664.38 797.562ZM1673.8 788.688V800H1671.49V788.688H1673.8Z" fill="#232323"/>
</g>
<defs>
<filter id="filter0_b_2445_2943" x="956" y="-4" width="1245" height="1245" filterUnits="userSpaceOnUse" color-interpolation-filters="sRGB">
<feFlood flood-opacity="0" result="BackgroundImageFix"/>
<feGaussianBlur in="BackgroundImageFix" stdDeviation="2"/>
<feComposite in2="SourceAlpha" operator="in" result="effect1_backgroundBlur_2445_2943"/>
<feBlend mode="normal" in="SourceGraphic" in2="effect1_backgroundBlur_2445_2943" result="shape"/>
</filter>
<clipPath id="clip0_2445_2943">
<rect width="3157" height="869" fill="white"/>
</clipPath>
</defs>
</svg>
