<svg width="1920" height="869" viewBox="0 0 1920 869" fill="none" xmlns="http://www.w3.org/2000/svg">
<path d="M2376.72 747.93C2428.73 676.153 2422.48 575.072 2357.96 510.539C2288.18 440.738 2176.26 438.762 2104.17 504.942V495.723C2104.17 394.313 2021.88 312 1920.5 312C1819.12 312 1736.83 394.313 1736.83 495.723V504.942C1664.74 439.091 1552.82 440.738 1483.04 510.539C1418.2 575.402 1411.94 676.153 1464.28 747.93C1373.1 758.466 1302 836.169 1302 930.335C1302 1031.75 1384.29 1114.06 1485.67 1114.06H1494.89L1483.37 1125.58C1411.61 1197.36 1411.61 1313.58 1483.37 1385.36C1553.48 1455.49 1666.71 1457.14 1738.47 1389.31C1750.32 1479.2 1827.35 1549 1920.5 1549C2013.65 1549 2090.68 1479.53 2102.53 1389.31C2174.61 1456.81 2287.52 1455.49 2357.63 1385.36C2429.39 1313.58 2429.39 1197.36 2357.63 1125.58L2346.11 1114.06H2355.33C2456.71 1114.06 2539 1031.75 2539 930.335C2538.67 836.169 2467.9 758.466 2376.72 747.93Z" fill="#90F5BE"/>
<path d="M456.722 747.93C508.73 676.153 502.476 575.072 437.96 510.539C368.177 440.738 256.261 438.762 184.174 504.942V495.723C184.174 394.313 101.883 312 0.5 312C-100.883 312 -183.174 394.313 -183.174 495.723V504.942C-255.261 439.091 -367.177 440.738 -436.96 510.539C-501.805 575.402 -508.059 676.153 -455.722 747.93C-546.9 758.466 -618 836.169 -618 930.335C-618 1031.75 -535.709 1114.06 -434.326 1114.06H-425.11L-436.63 1125.58C-508.388 1197.36 -508.388 1313.58 -436.63 1385.36C-366.518 1455.49 -253.286 1457.14 -181.528 1389.31C-169.678 1479.2 -92.6536 1549 0.5 1549C93.6536 1549 170.678 1479.53 182.528 1389.31C254.615 1456.81 367.518 1455.49 437.63 1385.36C509.388 1313.58 509.388 1197.36 437.63 1125.58L426.11 1114.06H435.326C536.709 1114.06 619 1031.75 619 930.335C618.671 836.169 547.901 758.466 456.722 747.93Z" fill="#90F5BE"/>
<g filter="url(#filter0_b_2349_4928)">
<path d="M1416.72 435.93C1468.73 364.153 1462.48 263.072 1397.96 198.539C1328.18 128.738 1216.26 126.762 1144.17 192.942V183.723C1144.17 82.313 1061.88 0 960.5 0C859.117 0 776.826 82.313 776.826 183.723V192.942C704.739 127.091 592.823 128.738 523.04 198.539C458.195 263.402 451.941 364.153 504.278 435.93C413.1 446.466 342 524.169 342 618.335C342 719.745 424.291 802.058 525.674 802.058H534.89L523.37 813.582C451.612 885.359 451.612 1001.58 523.37 1073.36C593.482 1143.49 706.714 1145.14 778.472 1077.31C790.322 1167.2 867.346 1237 960.5 1237C1053.65 1237 1130.68 1167.53 1142.53 1077.31C1214.61 1144.81 1327.52 1143.49 1397.63 1073.36C1469.39 1001.58 1469.39 885.359 1397.63 813.582L1386.11 802.058H1395.33C1496.71 802.058 1579 719.745 1579 618.335C1578.67 524.169 1507.9 446.466 1416.72 435.93Z" fill="#24EE81"/>
</g>
<rect x="777.5" y="633.5" width="109" height="34" rx="17" stroke="#232323"/>
<path d="M920.02 641.219V658.621H918.477V641.219H920.02ZM906.348 648.621C906.357 644.93 908.193 642.576 910.781 642.566C913.359 642.576 915.225 644.93 915.215 648.621C915.225 652.322 913.359 654.666 910.781 654.656C908.193 654.666 906.357 652.322 906.348 648.621ZM907.832 648.621C907.832 651.443 909.043 653.299 910.781 653.289C912.529 653.299 913.73 651.443 913.73 648.621C913.73 645.799 912.529 643.943 910.781 643.934C909.043 643.943 907.832 645.799 907.832 648.621ZM928.066 646.551C928.076 649.324 929.492 652.176 931.875 653.445L930.977 654.598C929.248 653.65 927.998 651.863 927.363 649.773C926.748 652 925.498 653.934 923.77 654.949L922.852 653.816C925.195 652.439 926.611 649.422 926.621 646.551V645.75H923.262V644.48H926.621V641.863H928.086V644.48H931.406V645.75H928.066V646.551ZM932.598 657.703V641.59H934.062V648.25H936.426V641.219H937.91V658.582H936.426V649.559H934.062V657.703H932.598ZM954.668 641.238V654.07H953.125V649.383H948.633C947.832 650.408 946.543 651.023 945.059 651.023C942.461 651.023 940.537 649.227 940.547 646.688C940.537 644.139 942.461 642.342 945.059 642.332C946.533 642.342 947.803 642.947 948.613 643.953H953.125V641.238H954.668ZM942.012 646.688C942.012 648.426 943.281 649.666 945.059 649.656C946.768 649.666 948.066 648.426 948.066 646.688C948.066 644.959 946.768 643.709 945.059 643.699C943.281 643.709 942.012 644.959 942.012 646.688ZM943.516 658.211V652.723H945.059V656.922H955.156V658.211H943.516ZM949.307 645.223C949.463 645.672 949.551 646.16 949.551 646.688C949.551 647.195 949.463 647.674 949.316 648.113H953.125V645.223H949.307Z" fill="#232323"/>
<path d="M804.844 656H801.328V644.688H804.984C808.289 644.688 810.234 646.805 810.234 650.328C810.234 653.859 808.289 656 804.844 656ZM802.734 654.75H804.75C807.523 654.75 808.859 653.07 808.859 650.328C808.859 647.594 807.523 645.938 804.891 645.938H802.734V654.75ZM815.688 656.172C813.234 656.18 811.719 654.43 811.719 651.828C811.719 649.219 813.258 647.406 815.562 647.406C817.344 647.406 819.227 648.5 819.219 651.641V652.203H813.062C813.133 654 814.18 654.984 815.688 654.984C816.703 654.984 817.344 654.539 817.656 654.016H819.094C818.695 655.305 817.438 656.18 815.688 656.172ZM813.07 651.062H817.859C817.852 649.648 816.961 648.594 815.562 648.594C814.094 648.594 813.164 649.75 813.07 651.062ZM825.688 649.719C825.5 649.016 824.961 648.555 823.969 648.547C822.922 648.555 822.18 649.117 822.172 649.828C822.18 650.391 822.633 650.773 823.625 651.016L824.891 651.328C826.406 651.688 827.148 652.445 827.156 653.625C827.148 655.094 825.953 656.18 823.828 656.172C821.922 656.18 820.789 655.328 820.562 653.781H821.969C822.125 654.609 822.727 655.008 823.797 655C825.008 655.008 825.766 654.5 825.766 653.703C825.766 653.102 825.336 652.711 824.375 652.484L823.094 652.188C821.617 651.844 820.828 651.039 820.828 649.906C820.828 648.453 822.102 647.406 823.969 647.406C825.727 647.406 826.828 648.344 827 649.719H825.688ZM828.906 656V647.516H830.25V656H828.906ZM828.641 645.219C828.633 644.719 829.062 644.32 829.578 644.328C830.094 644.32 830.523 644.719 830.531 645.219C830.523 645.711 830.094 646.109 829.578 646.109C829.062 646.109 828.633 645.711 828.641 645.219ZM835.828 659.359C833.773 659.359 832.383 658.461 832.234 656.891H833.641C833.82 657.758 834.625 658.188 835.828 658.188C837.281 658.188 838.172 657.555 838.172 656.156V654.438H838.062C837.773 654.906 837.234 655.867 835.594 655.875C833.531 655.867 831.984 654.312 831.984 651.641C831.984 649.031 833.477 647.406 835.609 647.406C837.258 647.406 837.789 648.406 838.094 648.859H838.203V647.516H839.516V656.234C839.508 658.422 837.898 659.359 835.828 659.359ZM833.344 651.688C833.344 653.445 834.172 654.672 835.781 654.672C837.336 654.672 838.195 653.555 838.203 651.688C838.195 649.867 837.359 648.609 835.781 648.609C834.148 648.609 833.344 649.977 833.344 651.688ZM843 650.906V656H841.656V647.516H842.953V648.844H843.062C843.461 647.977 844.258 647.406 845.547 647.406C847.266 647.406 848.414 648.453 848.406 650.609V656H847.062V650.703C847.062 649.391 846.344 648.609 845.141 648.609C843.906 648.609 843 649.438 843 650.906ZM854.125 656.172C851.672 656.18 850.156 654.43 850.156 651.828C850.156 649.219 851.695 647.406 854 647.406C855.781 647.406 857.664 648.5 857.656 651.641V652.203H851.5C851.57 654 852.617 654.984 854.125 654.984C855.141 654.984 855.781 654.539 856.094 654.016H857.531C857.133 655.305 855.875 656.18 854.125 656.172ZM851.508 651.062H856.297C856.289 649.648 855.398 648.594 854 648.594C852.531 648.594 851.602 649.75 851.508 651.062ZM859.406 656V647.516H860.703V648.812H860.797C861.102 647.953 861.984 647.383 862.984 647.375C863.188 647.383 863.531 647.391 863.688 647.406V648.766C863.586 648.742 863.227 648.672 862.875 648.672C861.656 648.672 860.75 649.516 860.75 650.656V656H859.406Z" fill="#232323"/>
<rect x="777.5" y="584.5" width="109" height="34" rx="17" stroke="#232323"/>
<path d="M920.02 592.219V609.621H918.477V592.219H920.02ZM906.348 599.621C906.357 595.93 908.193 593.576 910.781 593.566C913.359 593.576 915.225 595.93 915.215 599.621C915.225 603.322 913.359 605.666 910.781 605.656C908.193 605.666 906.357 603.322 906.348 599.621ZM907.832 599.621C907.832 602.443 909.043 604.299 910.781 604.289C912.529 604.299 913.73 602.443 913.73 599.621C913.73 596.799 912.529 594.943 910.781 594.934C909.043 594.943 907.832 596.799 907.832 599.621ZM929.102 596.887C929.092 600.031 931.113 603.195 933.633 604.348L932.715 605.598C930.742 604.582 929.111 602.512 928.34 600.041C927.568 602.639 925.938 604.865 923.965 605.91L922.969 604.68C925.518 603.43 927.529 600.09 927.539 596.887V593.723H929.102V596.887ZM931.738 599.406V598.156H935.859V592.219H937.383V609.621H935.859V599.406H931.738ZM954.668 592.238V605.48H953.125V601.75H950.117V600.5H953.125V598.137H950.117V596.867H953.125V592.238H954.668ZM940.293 595.617V594.367H944.512V592.219H946.035V594.367H950.117V595.617H940.293ZM941.328 599.895C941.309 597.902 942.93 596.574 945.254 596.574C947.578 596.574 949.209 597.902 949.219 599.895C949.209 601.867 947.578 603.205 945.254 603.215C942.93 603.205 941.309 601.867 941.328 599.895ZM942.754 599.895C942.744 601.145 943.77 601.994 945.254 601.984C946.738 601.994 947.764 601.145 947.773 599.895C947.764 598.645 946.738 597.805 945.254 597.785C943.77 597.805 942.744 598.645 942.754 599.895ZM943.438 609.211V604.309H944.98V607.922H955.059V609.211H943.438ZM960.41 606.691L958.887 612.004H957.441L958.516 606.691H960.41ZM982.09 592.219V602.57H980.547V598.02H977.051V596.75H980.547V592.219H982.09ZM967.773 601.184C970.352 600.256 972.188 597.902 972.188 595.422V594.777H968.262V593.488H977.617V594.777H973.73V595.402C973.73 597.668 975.469 599.826 978.008 600.695L977.207 601.926C975.264 601.223 973.75 599.758 972.998 597.971C972.256 600.002 970.645 601.623 968.574 602.414L967.773 601.184ZM970.508 606.34C970.498 604.299 972.715 603.107 976.328 603.117C979.932 603.107 982.148 604.299 982.148 606.34C982.148 608.391 979.932 609.562 976.328 609.582C972.715 609.562 970.498 608.391 970.508 606.34ZM972.031 606.34C972.021 607.6 973.662 608.361 976.328 608.352C978.984 608.361 980.625 607.6 980.625 606.34C980.625 605.07 978.984 604.309 976.328 604.309C973.662 604.309 972.021 605.07 972.031 606.34ZM1000.86 602.121V603.391H996.66V609.582H995.117V603.391H990.664V609.582H989.082V603.391H984.961V602.121H1000.86ZM986.758 596.711C986.768 594.396 989.219 592.932 992.871 592.922C996.514 592.932 998.984 594.396 998.984 596.711C998.984 599.025 996.514 600.471 992.871 600.461C989.219 600.471 986.768 599.025 986.758 596.711ZM988.34 596.711C988.32 598.244 990.166 599.23 992.871 599.23C995.576 599.23 997.412 598.244 997.422 596.711C997.412 595.168 995.576 594.172 992.871 594.172C990.166 594.172 988.32 595.168 988.34 596.711ZM1016.66 592.219V602.57H1015.12V598.02H1011.62V596.75H1015.12V592.219H1016.66ZM1002.34 601.184C1004.92 600.256 1006.76 597.902 1006.76 595.422V594.777H1002.83V593.488H1012.19V594.777H1008.3V595.402C1008.3 597.668 1010.04 599.826 1012.58 600.695L1011.78 601.926C1009.83 601.223 1008.32 599.758 1007.57 597.971C1006.83 600.002 1005.21 601.623 1003.14 602.414L1002.34 601.184ZM1005.08 606.34C1005.07 604.299 1007.29 603.107 1010.9 603.117C1014.5 603.107 1016.72 604.299 1016.72 606.34C1016.72 608.391 1014.5 609.562 1010.9 609.582C1007.29 609.562 1005.07 608.391 1005.08 606.34ZM1006.6 606.34C1006.59 607.6 1008.23 608.361 1010.9 608.352C1013.55 608.361 1015.2 607.6 1015.2 606.34C1015.2 605.07 1013.55 604.309 1010.9 604.309C1008.23 604.309 1006.59 605.07 1006.6 606.34ZM1022.4 606.691L1020.88 612.004H1019.43L1020.51 606.691H1022.4ZM1045.57 601.105V602.375H1038.5V605.93H1036.97V602.375H1029.67V601.105H1045.57ZM1031.7 609.211V604.211H1033.24V607.922H1043.79V609.211H1031.7ZM1031.74 599.113V593.078H1043.5V599.113H1031.74ZM1033.24 597.883H1041.97V594.289H1033.24V597.883ZM1060.41 592.219V599.387H1063.32V600.656H1060.41V609.582H1058.89V592.219H1060.41ZM1046.88 596.281V595.012H1051.35V592.434H1052.87V595.012H1057.21V596.281H1046.88ZM1047.87 601.711C1047.86 599.367 1049.66 597.727 1052.13 597.727C1054.58 597.727 1056.37 599.367 1056.39 601.711C1056.37 604.064 1054.58 605.695 1052.13 605.695C1049.66 605.695 1047.86 604.064 1047.87 601.711ZM1049.34 601.711C1049.33 603.293 1050.51 604.406 1052.13 604.387C1053.73 604.406 1054.9 603.293 1054.92 601.711C1054.9 600.139 1053.73 599.006 1052.13 599.016C1050.51 599.006 1049.33 600.139 1049.34 601.711ZM1069.04 593.273C1070.51 593.264 1071.75 593.82 1072.56 594.738H1077.11V592.219H1078.65V602.512H1077.11V600.031H1072.56C1071.76 600.949 1070.51 601.506 1069.04 601.496C1066.45 601.506 1064.52 599.807 1064.53 597.395C1064.52 594.963 1066.45 593.264 1069.04 593.273ZM1066 597.395C1066 599.006 1067.27 600.197 1069.04 600.188C1070.76 600.197 1072.05 599.006 1072.05 597.395C1072.05 595.744 1070.76 594.592 1069.04 594.602C1067.27 594.592 1066 595.744 1066 597.395ZM1067.07 606.223C1067.06 604.133 1069.29 602.922 1072.89 602.922C1076.48 602.922 1078.71 604.133 1078.71 606.223C1078.71 608.332 1076.48 609.543 1072.89 609.543C1069.29 609.543 1067.06 608.332 1067.07 606.223ZM1068.57 606.223C1068.56 607.531 1070.22 608.322 1072.89 608.312C1075.56 608.322 1077.22 607.531 1077.21 606.223C1077.22 604.904 1075.56 604.123 1072.89 604.113C1070.22 604.123 1068.56 604.904 1068.57 606.223ZM1073.29 595.988C1073.45 596.418 1073.54 596.887 1073.54 597.395C1073.54 597.883 1073.45 598.342 1073.3 598.762H1077.11V595.988H1073.29ZM1084.39 606.691L1082.87 612.004H1081.43L1082.5 606.691H1084.39ZM1105.23 592.238V597.473H1107.83V598.762H1105.23V604.016H1103.69V592.238H1105.23ZM1091.6 601.984C1092.99 601.984 1094.62 601.984 1096.31 601.926V600.549C1094.27 600.363 1092.98 599.475 1092.99 598.098C1092.98 596.545 1094.58 595.637 1097.05 595.637C1099.52 595.637 1101.11 596.545 1101.13 598.098C1101.11 599.465 1099.85 600.354 1097.83 600.539V601.867C1099.45 601.789 1101.09 601.652 1102.62 601.438L1102.75 602.512C1099.01 603.166 1094.85 603.225 1091.78 603.215L1091.6 601.984ZM1092.03 594.914V593.723H1096.31V592.082H1097.83V593.723H1102.09V594.914H1092.03ZM1093.93 606.906C1093.92 605.168 1096.01 604.211 1099.63 604.23C1103.24 604.211 1105.34 605.168 1105.35 606.906C1105.34 608.635 1103.24 609.562 1099.63 609.582C1096.01 609.562 1093.92 608.635 1093.93 606.906ZM1094.45 598.098C1094.44 598.967 1095.45 599.504 1097.05 599.504C1098.65 599.504 1099.67 598.967 1099.67 598.098C1099.67 597.258 1098.65 596.701 1097.05 596.711C1095.45 596.701 1094.44 597.258 1094.45 598.098ZM1095.47 606.906C1095.45 607.844 1096.95 608.41 1099.63 608.41C1102.29 608.41 1103.78 607.844 1103.79 606.906C1103.78 605.93 1102.29 605.363 1099.63 605.383C1096.95 605.363 1095.45 605.93 1095.47 606.906ZM1114.04 597.551C1114.05 600.324 1115.47 603.176 1117.85 604.445L1116.95 605.598C1115.22 604.65 1113.97 602.863 1113.34 600.773C1112.72 603 1111.47 604.934 1109.75 605.949L1108.83 604.816C1111.17 603.439 1112.59 600.422 1112.6 597.551V596.75H1109.24V595.48H1112.6V592.863H1114.06V595.48H1117.38V596.75H1114.04V597.551ZM1118.57 608.703V592.59H1120.04V599.25H1122.4V592.219H1123.89V609.582H1122.4V600.559H1120.04V608.703H1118.57ZM1140.57 592.238V605.012H1139.06V592.238H1140.57ZM1127.13 594.719V593.469H1135.06V598.488H1128.65V601.262C1131.88 601.262 1134.16 601.164 1136.91 600.676L1137.07 601.945C1134.24 602.434 1131.9 602.531 1128.57 602.551H1127.17V597.277H1133.54V594.719H1127.13ZM1129.18 609.211V604.016H1130.72V607.922H1141.07V609.211H1129.18Z" fill="#232323"/>
<path d="M799.312 607V595.688H803.281C805.656 595.688 806.773 597.023 806.766 598.688C806.773 600.141 805.906 600.789 804.922 601.062V601.172C805.977 601.234 807.211 602.203 807.219 604C807.211 605.695 806.094 607 803.422 607H799.312ZM800.719 605.75H803.406C805.18 605.75 805.867 604.969 805.859 603.984C805.867 602.836 804.938 601.859 803.484 601.859H800.719V605.75ZM800.719 600.641H803.234C804.461 600.648 805.422 599.883 805.422 598.703C805.422 597.719 804.758 596.938 803.281 596.938H800.719V600.641ZM808.641 604.594C808.641 602.648 810.359 602.203 811.828 602.094C812.375 602.055 813.742 601.977 814.125 601.969V601.281C814.125 600.203 813.484 599.578 812.203 599.578C811.133 599.578 810.484 600.07 810.297 600.719H808.891C809.062 599.352 810.391 598.406 812.266 598.406C813.375 598.406 815.461 598.734 815.453 601.406V607H814.125V605.844H814.062C813.781 606.414 813.008 607.195 811.531 607.203C809.922 607.195 808.641 606.25 808.641 604.594ZM809.984 604.656C809.992 605.555 810.734 606.008 811.766 606C813.281 606.008 814.125 604.992 814.125 603.922V603.07C813.727 603.094 812.391 603.195 811.984 603.219C810.766 603.297 809.992 603.727 809.984 604.656ZM821.078 607.172C818.672 607.18 817.203 605.344 817.203 602.797C817.203 600.219 818.742 598.406 821.047 598.406C822.852 598.406 824.211 599.477 824.422 601.078H823.078C822.883 600.305 822.211 599.594 821.078 599.594C819.562 599.594 818.555 600.844 818.547 602.75C818.555 604.711 819.539 605.969 821.078 605.969C822.078 605.969 822.844 605.43 823.078 604.5H824.422C824.211 606.016 822.961 607.18 821.078 607.172ZM826.078 607V595.688H827.422V602.266H827.578L831.25 598.516H832.906L829.328 602.148L833.172 607H831.469L828.32 603L827.422 603.836V607H826.078ZM838.516 601.547V602.781H833.562V601.547H838.516ZM840.75 607V595.688H847.609V596.938H842.156V600.719H847.25V601.953H842.156V605.75H847.688V607H840.75ZM851 601.906V607H849.656V598.516H850.953V599.844H851.062C851.461 598.977 852.258 598.406 853.547 598.406C855.266 598.406 856.414 599.453 856.406 601.609V607H855.062V601.703C855.062 600.391 854.344 599.609 853.141 599.609C851.906 599.609 851 600.438 851 601.906ZM861.766 607.172C859.648 607.18 858.156 605.477 858.156 602.781C858.156 600.094 859.648 598.406 861.781 598.406C863.43 598.406 863.945 599.406 864.234 599.859H864.328V595.688H865.688V607H864.375V605.703H864.234C863.938 606.172 863.383 607.18 861.766 607.172ZM859.516 602.75C859.516 604.555 860.344 605.969 861.953 605.969C863.508 605.969 864.367 604.656 864.375 602.75C864.367 600.867 863.531 599.609 861.953 599.609C860.32 599.609 859.516 600.977 859.516 602.75Z" fill="#232323"/>
<rect x="777.5" y="535.5" width="109" height="34" rx="17" stroke="#232323"/>
<path d="M914.863 544.352C914.863 548.736 911.641 551.861 906.523 553.219L905.898 552.008C910.186 550.875 912.9 548.57 913.232 545.602H906.816V544.352H914.863ZM908.75 560.348V553.883H920.039V560.348H908.75ZM910.254 559.098H918.535V555.113H910.254V559.098ZM918.516 553.043V543.238H920.039V553.043H918.516ZM932.051 544.742V552.789H923.906V544.742H932.051ZM925.41 551.559H930.547V546.012H925.41V551.559ZM926.113 559.996V554.508H927.637V558.727H937.871V559.996H926.113ZM935.801 555.719V543.238H937.324V555.719H935.801ZM956.094 551.812V553.082H940.273V551.812H944.199V549.361C942.812 548.824 942.031 547.945 942.031 546.773C942.031 544.732 944.375 543.561 948.184 543.551C951.963 543.561 954.307 544.732 954.316 546.773C954.307 547.936 953.535 548.814 952.168 549.361V551.812H956.094ZM942.188 557.477C942.178 555.494 944.414 554.4 948.184 554.41C951.904 554.4 954.141 555.494 954.16 557.477C954.141 559.459 951.904 560.543 948.184 560.543C944.414 560.543 942.178 559.459 942.188 557.477ZM943.613 546.773C943.604 548.043 945.342 548.775 948.184 548.785C950.996 548.775 952.744 548.043 952.754 546.773C952.744 545.523 950.996 544.762 948.184 544.762C945.342 544.762 943.604 545.523 943.613 546.773ZM943.75 557.477C943.73 558.658 945.4 559.361 948.184 559.352C950.938 559.361 952.607 558.658 952.617 557.477C952.607 556.295 950.938 555.602 948.184 555.582C945.4 555.602 943.73 556.295 943.75 557.477ZM945.723 551.812H950.645V549.771C949.912 549.908 949.092 549.977 948.184 549.977C947.275 549.977 946.455 549.908 945.723 549.781V551.812ZM960.41 557.691L958.887 563.004H957.441L958.516 557.691H960.41ZM974.277 552.379V555.582C975.957 555.494 977.656 555.357 979.258 555.113L979.375 556.246C975.4 556.969 971.133 556.998 968.008 556.988L967.793 555.719C969.248 555.709 970.967 555.699 972.773 555.641V552.379H974.277ZM968.32 551.773C970.889 551.012 972.695 549.107 972.734 546.773H968.75V545.504H972.773V543.355H974.277V545.504H978.359V546.773H974.277C974.326 549.01 976.182 550.846 978.75 551.578L978.027 552.789C975.947 552.164 974.307 550.826 973.525 549.068C972.773 550.924 971.152 552.311 969.062 552.945L968.32 551.773ZM980.41 560.621V543.219H981.934V560.621H980.41ZM989.766 544.273C991.23 544.264 992.471 544.82 993.281 545.738H997.832V543.219H999.375V553.512H997.832V551.031H993.281C992.48 551.949 991.23 552.506 989.766 552.496C987.168 552.506 985.244 550.807 985.254 548.395C985.244 545.963 987.168 544.264 989.766 544.273ZM986.719 548.395C986.719 550.006 987.988 551.197 989.766 551.188C991.484 551.197 992.773 550.006 992.773 548.395C992.773 546.744 991.484 545.592 989.766 545.602C987.988 545.592 986.719 546.744 986.719 548.395ZM987.793 557.223C987.783 555.133 990.01 553.922 993.613 553.922C997.207 553.922 999.434 555.133 999.434 557.223C999.434 559.332 997.207 560.543 993.613 560.543C990.01 560.543 987.783 559.332 987.793 557.223ZM989.297 557.223C989.287 558.531 990.947 559.322 993.613 559.312C996.279 559.322 997.939 558.531 997.93 557.223C997.939 555.904 996.279 555.123 993.613 555.113C990.947 555.123 989.287 555.904 989.297 557.223ZM994.014 546.988C994.17 547.418 994.258 547.887 994.258 548.395C994.258 548.883 994.17 549.342 994.023 549.762H997.832V546.988H994.014ZM1008.38 547.887C1008.37 551.031 1010.39 554.195 1012.91 555.348L1011.99 556.598C1010.02 555.582 1008.39 553.512 1007.62 551.041C1006.85 553.639 1005.21 555.865 1003.24 556.91L1002.25 555.68C1004.79 554.43 1006.81 551.09 1006.82 547.887V544.723H1008.38V547.887ZM1011.02 550.406V549.156H1015.14V543.219H1016.66V560.621H1015.14V550.406H1011.02ZM1022.4 557.691L1020.88 563.004H1019.43L1020.51 557.691H1022.4ZM1044 543.219V560.621H1042.46V543.219H1044ZM1030.33 550.621C1030.34 546.93 1032.18 544.576 1034.77 544.566C1037.34 544.576 1039.21 546.93 1039.2 550.621C1039.21 554.322 1037.34 556.666 1034.77 556.656C1032.18 556.666 1030.34 554.322 1030.33 550.621ZM1031.82 550.621C1031.82 553.443 1033.03 555.299 1034.77 555.289C1036.51 555.299 1037.71 553.443 1037.71 550.621C1037.71 547.799 1036.51 545.943 1034.77 545.934C1033.03 545.943 1031.82 547.799 1031.82 550.621ZM1060.41 543.219V550.289H1063.22V551.578H1060.41V560.582H1058.89V543.219H1060.41ZM1047.09 556.07C1051.57 553.844 1054.01 550.494 1054.37 546.383H1047.89V545.094H1055.92C1055.91 550.006 1053.6 554.488 1047.95 557.281L1047.09 556.07ZM1066.7 544.469V547.379H1071.82V544.469H1073.34V553.023H1065.18V544.469H1066.7ZM1066.7 551.793H1071.82V548.59H1066.7V551.793ZM1067.27 560.211V554.762H1068.81V558.922H1079V560.211H1067.27ZM1077.07 556.051V543.238H1078.59V556.051H1077.07ZM1084.39 557.691L1082.87 563.004H1081.43L1082.5 557.691H1084.39ZM1098.26 552.379V555.582C1099.94 555.494 1101.64 555.357 1103.24 555.113L1103.36 556.246C1099.38 556.969 1095.12 556.998 1091.99 556.988L1091.78 555.719C1093.23 555.709 1094.95 555.699 1096.76 555.641V552.379H1098.26ZM1092.3 551.773C1094.87 551.012 1096.68 549.107 1096.72 546.773H1092.73V545.504H1096.76V543.355H1098.26V545.504H1102.34V546.773H1098.26C1098.31 549.01 1100.17 550.846 1102.73 551.578L1102.01 552.789C1099.93 552.164 1098.29 550.826 1097.51 549.068C1096.76 550.924 1095.14 552.311 1093.05 552.945L1092.3 551.773ZM1104.39 560.621V543.219H1105.92V560.621H1104.39ZM1116.88 543.668C1120.59 543.678 1122.99 545.006 1122.99 547.145C1122.99 549.273 1120.59 550.592 1116.88 550.582C1113.16 550.592 1110.73 549.273 1110.74 547.145C1110.73 545.006 1113.16 543.678 1116.88 543.668ZM1108.96 553.199V551.93H1124.8V553.199H1120.74V556.812H1119.22V553.199H1116.02V556.812H1114.49V553.199H1108.96ZM1110.92 560.211V555.348H1112.46V558.922H1123.16V560.211H1110.92ZM1112.38 547.145C1112.36 548.502 1114.17 549.342 1116.88 549.352C1119.57 549.342 1121.37 548.502 1121.37 547.145C1121.37 545.777 1119.57 544.928 1116.88 544.918C1114.17 544.928 1112.36 545.777 1112.38 547.145ZM1132.5 546.949C1132.51 549.293 1134.36 551.402 1136.95 552.223L1136.17 553.453C1134.15 552.76 1132.55 551.334 1131.76 549.508C1131.01 551.48 1129.38 553.043 1127.3 553.805L1126.5 552.574C1129.11 551.666 1130.95 549.41 1130.96 546.949V545.934H1126.89V544.684H1136.5V545.934H1132.5V546.949ZM1129.38 560.211V554.762H1130.9V558.922H1141.13V560.211H1129.38ZM1139.06 555.973V543.238H1140.59V555.973H1139.06Z" fill="#232323"/>
<path d="M797.453 558V546.688H804.266V547.938H798.859V551.719H803.75V552.953H798.859V558H797.453ZM806.094 558V549.516H807.391V550.812H807.484C807.789 549.953 808.672 549.383 809.672 549.375C809.875 549.383 810.219 549.391 810.375 549.406V550.766C810.273 550.742 809.914 550.672 809.562 550.672C808.344 550.672 807.438 551.516 807.438 552.656V558H806.094ZM814.875 558.172C812.562 558.18 811 556.43 811 553.797C811 551.148 812.562 549.406 814.875 549.406C817.18 549.406 818.727 551.148 818.719 553.797C818.727 556.43 817.18 558.18 814.875 558.172ZM812.344 553.797C812.352 555.492 813.148 556.984 814.875 556.984C816.586 556.984 817.375 555.492 817.375 553.797C817.375 552.109 816.586 550.594 814.875 550.594C813.148 550.594 812.352 552.109 812.344 553.797ZM821.828 552.906V558H820.484V549.516H821.781V550.844H821.891C822.289 549.977 823.086 549.406 824.375 549.406C826.094 549.406 827.242 550.453 827.234 552.609V558H825.891V552.703C825.891 551.391 825.172 550.609 823.969 550.609C822.734 550.609 821.828 551.438 821.828 552.906ZM833.094 549.516V550.641H831.312V555.562C831.305 556.648 831.852 556.828 832.422 556.828C832.664 556.828 833.023 556.805 833.219 556.797V558.047C833.008 558.078 832.68 558.109 832.281 558.109C831.148 558.109 829.961 557.406 829.953 555.906V550.641H828.672V549.516H829.953V547.484H831.312V549.516H833.094ZM839.375 552.547V553.781H834.422V552.547H839.375ZM841.609 558V546.688H848.469V547.938H843.016V551.719H848.109V552.953H843.016V556.75H848.547V558H841.609ZM851.859 552.906V558H850.516V549.516H851.812V550.844H851.922C852.32 549.977 853.117 549.406 854.406 549.406C856.125 549.406 857.273 550.453 857.266 552.609V558H855.922V552.703C855.922 551.391 855.203 550.609 854 550.609C852.766 550.609 851.859 551.438 851.859 552.906ZM862.625 558.172C860.508 558.18 859.016 556.477 859.016 553.781C859.016 551.094 860.508 549.406 862.641 549.406C864.289 549.406 864.805 550.406 865.094 550.859H865.188V546.688H866.547V558H865.234V556.703H865.094C864.797 557.172 864.242 558.18 862.625 558.172ZM860.375 553.75C860.375 555.555 861.203 556.969 862.812 556.969C864.367 556.969 865.227 555.656 865.234 553.75C865.227 551.867 864.391 550.609 862.812 550.609C861.18 550.609 860.375 551.977 860.375 553.75Z" fill="#232323"/>
<rect x="777.5" y="486.5" width="109" height="34" rx="17" stroke="#232323"/>
<path d="M920.02 494.219V511.621H918.477V494.219H920.02ZM906.348 501.621C906.357 497.93 908.193 495.576 910.781 495.566C913.359 495.576 915.225 497.93 915.215 501.621C915.225 505.322 913.359 507.666 910.781 507.656C908.193 507.666 906.357 505.322 906.348 501.621ZM907.832 501.621C907.832 504.443 909.043 506.299 910.781 506.289C912.529 506.299 913.73 504.443 913.73 501.621C913.73 498.799 912.529 496.943 910.781 496.934C909.043 496.943 907.832 498.799 907.832 501.621ZM929.102 498.887C929.092 502.031 931.113 505.195 933.633 506.348L932.715 507.598C930.742 506.582 929.111 504.512 928.34 502.041C927.568 504.639 925.938 506.865 923.965 507.91L922.969 506.68C925.518 505.43 927.529 502.09 927.539 498.887V495.723H929.102V498.887ZM931.738 501.406V500.156H935.859V494.219H937.383V511.621H935.859V501.406H931.738ZM954.668 494.238V507.48H953.125V503.75H950.117V502.5H953.125V500.137H950.117V498.867H953.125V494.238H954.668ZM940.293 497.617V496.367H944.512V494.219H946.035V496.367H950.117V497.617H940.293ZM941.328 501.895C941.309 499.902 942.93 498.574 945.254 498.574C947.578 498.574 949.209 499.902 949.219 501.895C949.209 503.867 947.578 505.205 945.254 505.215C942.93 505.205 941.309 503.867 941.328 501.895ZM942.754 501.895C942.744 503.145 943.77 503.994 945.254 503.984C946.738 503.994 947.764 503.145 947.773 501.895C947.764 500.645 946.738 499.805 945.254 499.785C943.77 499.805 942.744 500.645 942.754 501.895ZM943.438 511.211V506.309H944.98V509.922H955.059V511.211H943.438Z" fill="#232323"/>
<path d="M821.594 509V497.688H825.438C828.086 497.688 829.297 499.266 829.297 501.281C829.297 503.289 828.086 504.891 825.453 504.891H823V509H821.594ZM823 503.641H825.391C827.195 503.641 827.898 502.625 827.906 501.281C827.898 499.93 827.195 498.938 825.375 498.938H823V503.641ZM831.266 497.688H832.953L836.766 507H836.906L840.719 497.688H842.406V509H841.078V500.453H840.969L837.453 509H836.203L832.688 500.453H832.594V509H831.266V497.688Z" fill="#232323"/>
<path d="M893.094 721.25C892.719 718.75 890.797 717.234 888.156 717.219C884.641 717.234 882.312 719.922 882.312 724.688C882.312 729.562 884.672 732.141 888.125 732.156C890.703 732.141 892.641 730.734 893.094 728.281L897.844 728.312C897.328 732.5 893.812 736.312 888.062 736.312C882.016 736.312 877.531 732.047 877.531 724.688C877.531 717.297 882.094 713.062 888.062 713.062C893.281 713.062 897.219 716.047 897.844 721.25H893.094ZM908.656 736.344C903.531 736.328 900.328 732.812 900.344 727.562C900.328 722.328 903.531 718.812 908.656 718.812C913.797 718.812 916.984 722.328 917 727.562C916.984 732.812 913.797 736.328 908.656 736.344ZM905.031 727.562C905.031 730.531 906.266 732.734 908.688 732.75C911.047 732.734 912.297 730.531 912.281 727.562C912.297 724.578 911.047 722.344 908.688 722.344C906.266 722.344 905.031 724.578 905.031 727.562ZM924.531 726.188V736H919.906V719.031H924.312V722H924.5C925.266 720.047 927.078 718.812 929.594 718.812C933.141 718.812 935.453 721.234 935.438 725.188V736H930.844V726C930.828 723.906 929.703 722.656 927.781 722.656C925.859 722.656 924.531 723.953 924.531 726.188ZM947.969 719.031V722.5H944.781V730.781C944.766 732.141 945.438 732.469 946.375 732.5C946.844 732.5 947.656 732.453 948.219 732.406V736.062C947.719 736.141 946.891 736.234 945.75 736.219C942.406 736.234 940.125 734.734 940.156 731.438V722.5H937.812V719.031H940.156V714.969H944.781V719.031H947.969ZM950.062 731.25C950.078 727.469 953.109 726.234 956.375 726.031C957.594 725.953 959.875 725.844 960.594 725.812V724.438C960.578 723.016 959.609 722.203 957.875 722.188C956.297 722.203 955.312 722.906 955.062 724.062H950.656C950.938 721.125 953.5 718.812 958 718.812C961.703 718.812 965.203 720.469 965.188 724.562V736H960.812V733.656H960.688C959.859 735.219 958.234 736.328 955.719 736.312C952.469 736.328 950.078 734.609 950.062 731.25ZM954.5 731.125C954.5 732.422 955.547 733.109 957.031 733.125C959.141 733.109 960.609 731.734 960.594 729.938V728.703C959.891 728.734 957.906 728.844 957.125 728.906C955.516 729.047 954.5 729.812 954.5 731.125ZM976.344 736.344C971.141 736.328 968.016 732.734 968.031 727.562C968.016 722.375 971.203 718.812 976.344 718.812C980.719 718.812 983.688 721.359 983.875 725.25H979.531C979.25 723.578 978.156 722.422 976.406 722.406C974.188 722.422 972.719 724.281 972.719 727.5C972.719 730.781 974.156 732.656 976.406 732.656C978.031 732.656 979.234 731.641 979.531 729.844H983.875C983.672 733.688 980.844 736.328 976.344 736.344ZM995.688 719.031V722.5H992.5V730.781C992.484 732.141 993.156 732.469 994.094 732.5C994.562 732.5 995.375 732.453 995.938 732.406V736.062C995.438 736.141 994.609 736.234 993.469 736.219C990.125 736.234 987.844 734.734 987.875 731.438V722.5H985.531V719.031H987.875V714.969H992.5V719.031H995.688ZM1020.06 713.375H1024.78V728.062C1024.78 733.016 1021.02 736.328 1015.41 736.312C1009.78 736.328 1006.06 733.016 1006.06 728.062V713.375H1010.75V727.688C1010.77 730.297 1012.61 732.172 1015.41 732.188C1018.23 732.172 1020.08 730.297 1020.06 727.688V713.375ZM1038.19 724.062C1037.98 722.875 1036.95 722.109 1035.41 722.094C1033.91 722.109 1032.77 722.812 1032.78 723.844C1032.77 724.609 1033.36 725.203 1034.97 725.531L1038 726.156C1041.3 726.844 1042.89 728.312 1042.91 730.75C1042.89 734.094 1039.89 736.328 1035.38 736.344C1030.8 736.328 1028.11 734.281 1027.72 730.969H1032.38C1032.59 732.297 1033.67 732.984 1035.38 733C1037.06 732.984 1038.19 732.312 1038.19 731.219C1038.19 730.344 1037.47 729.797 1035.88 729.469L1033.06 728.906C1029.83 728.266 1028.17 726.609 1028.19 724.094C1028.17 720.844 1030.97 718.812 1035.34 718.812C1039.62 718.812 1042.28 720.844 1042.53 724.062H1038.19Z" fill="#232323"/>
<path d="M830.352 775V763.688H837.945V765.625H832.695V768.375H837.555V770.312H832.695V773.062H837.961V775H830.352ZM839.727 775V766.516H841.93V768H842.023C842.383 767.008 843.242 766.406 844.383 766.406C845.547 766.406 846.414 767.023 846.695 768H846.773C847.125 767.039 848.094 766.406 849.336 766.406C850.906 766.406 852.008 767.445 852.008 769.297V775H849.695V769.75C849.703 768.781 849.125 768.312 848.367 768.312C847.5 768.312 846.984 768.914 846.992 769.812V775H844.742V769.688C844.75 768.852 844.219 768.312 843.43 768.312C842.641 768.312 842.031 768.945 842.039 769.906V775H839.727ZM853.383 772.625C853.391 770.734 854.906 770.117 856.539 770.016C857.148 769.977 858.289 769.922 858.648 769.906V769.219C858.641 768.508 858.156 768.102 857.289 768.094C856.5 768.102 856.008 768.453 855.883 769.031H853.68C853.82 767.562 855.102 766.406 857.352 766.406C859.203 766.406 860.953 767.234 860.945 769.281V775H858.758V773.828H858.695C858.281 774.609 857.469 775.164 856.211 775.156C854.586 775.164 853.391 774.305 853.383 772.625ZM855.602 772.562C855.602 773.211 856.125 773.555 856.867 773.562C857.922 773.555 858.656 772.867 858.648 771.969V771.352C858.297 771.367 857.305 771.422 856.914 771.453C856.109 771.523 855.602 771.906 855.602 772.562ZM862.711 775V766.516H865.023V775H862.711ZM862.602 764.234C862.602 763.578 863.172 763.055 863.867 763.047C864.555 763.055 865.125 763.578 865.117 764.234C865.125 764.875 864.555 765.406 863.867 765.406C863.172 765.406 862.602 764.875 862.602 764.234ZM869.133 763.688V775H866.82V763.688H869.133ZM875.977 775.141C875.242 775.141 874.648 774.555 874.664 773.828C874.648 773.109 875.242 772.523 875.977 772.531C876.672 772.523 877.273 773.109 877.273 773.828C877.273 774.555 876.672 775.141 875.977 775.141ZM874.664 767.875C874.648 767.156 875.242 766.57 875.977 766.578C876.672 766.57 877.273 767.156 877.273 767.875C877.273 768.602 876.672 769.188 875.977 769.188C875.242 769.188 874.648 768.602 874.664 767.875ZM887.664 769.031C887.562 768.438 887.047 768.055 886.273 768.047C885.523 768.055 884.953 768.406 884.961 768.922C884.953 769.305 885.25 769.602 886.055 769.766L887.57 770.078C889.219 770.422 890.016 771.156 890.023 772.375C890.016 774.047 888.516 775.164 886.258 775.172C883.969 775.164 882.625 774.141 882.43 772.484H884.758C884.867 773.148 885.406 773.492 886.258 773.5C887.102 773.492 887.664 773.156 887.664 772.609C887.664 772.172 887.305 771.898 886.508 771.734L885.102 771.453C883.484 771.133 882.656 770.305 882.664 769.047C882.656 767.422 884.055 766.406 886.242 766.406C888.383 766.406 889.711 767.422 889.836 769.031H887.664ZM895.258 775.172C892.695 775.164 891.094 773.406 891.102 770.781C891.094 768.164 892.695 766.406 895.258 766.406C897.828 766.406 899.422 768.164 899.43 770.781C899.422 773.406 897.828 775.164 895.258 775.172ZM893.445 770.781C893.445 772.266 894.062 773.367 895.273 773.375C896.453 773.367 897.078 772.266 897.07 770.781C897.078 769.289 896.453 768.172 895.273 768.172C894.062 768.172 893.445 769.289 893.445 770.781ZM903.195 770.094V775H900.883V766.516H903.086V768H903.18C903.562 767.023 904.469 766.406 905.727 766.406C907.5 766.406 908.656 767.617 908.648 769.594V775H906.352V770C906.344 768.953 905.781 768.328 904.82 768.328C903.859 768.328 903.195 768.977 903.195 770.094ZM914.258 778.359C911.914 778.359 910.469 777.305 910.336 775.703H912.617C912.742 776.383 913.383 776.688 914.305 776.688C915.375 776.688 916.094 776.227 916.102 775.047V773.5H915.992C915.688 774.188 914.938 774.883 913.57 774.875C911.656 774.883 910.117 773.531 910.117 770.703C910.117 767.836 911.695 766.406 913.57 766.406C914.992 766.406 915.68 767.25 915.992 767.938H916.086V766.516H918.383V775.094C918.375 777.258 916.672 778.359 914.258 778.359ZM912.492 770.734C912.484 772.203 913.117 773.133 914.289 773.141C915.445 773.133 916.102 772.242 916.102 770.734C916.102 769.227 915.453 768.25 914.289 768.25C913.109 768.25 912.484 769.273 912.492 770.734ZM920.18 778.188V766.516H922.461V767.938H922.555C922.875 767.25 923.547 766.406 924.977 766.406C926.852 766.406 928.422 767.859 928.414 770.766C928.422 773.602 926.914 775.141 924.977 775.141C923.594 775.141 922.883 774.344 922.555 773.641H922.492V778.188H920.18ZM922.445 770.75C922.438 772.281 923.094 773.289 924.242 773.297C925.422 773.289 926.062 772.25 926.055 770.75C926.062 769.273 925.438 768.25 924.242 768.25C923.086 768.25 922.438 769.227 922.445 770.75ZM929.914 775V766.516H932.227V775H929.914ZM929.805 764.234C929.805 763.578 930.375 763.055 931.07 763.047C931.758 763.055 932.328 763.578 932.32 764.234C932.328 764.875 931.758 765.406 931.07 765.406C930.375 765.406 929.805 764.875 929.805 764.234ZM936.336 770.094V775H934.023V766.516H936.227V768H936.32C936.703 767.023 937.609 766.406 938.867 766.406C940.641 766.406 941.797 767.617 941.789 769.594V775H939.492V770C939.484 768.953 938.922 768.328 937.961 768.328C937 768.328 936.336 768.977 936.336 770.094ZM944.945 775.141C944.211 775.141 943.617 774.555 943.633 773.828C943.617 773.109 944.211 772.523 944.945 772.531C945.641 772.523 946.242 773.109 946.242 773.828C946.242 774.555 945.641 775.141 944.945 775.141ZM951.914 775.172C949.352 775.164 947.75 773.406 947.758 770.781C947.75 768.164 949.352 766.406 951.914 766.406C954.484 766.406 956.078 768.164 956.086 770.781C956.078 773.406 954.484 775.164 951.914 775.172ZM950.102 770.781C950.102 772.266 950.719 773.367 951.93 773.375C953.109 773.367 953.734 772.266 953.727 770.781C953.734 769.289 953.109 768.172 951.93 768.172C950.719 768.172 950.102 769.289 950.102 770.781ZM962.055 766.516V768.25H960.367V775H958.055V768.25H956.852V766.516H958.055V765.875C958.055 764.086 959.133 763.156 960.836 763.156C961.359 763.156 961.805 763.203 962.211 763.297V765.047C961.875 765.016 961.633 765.008 961.508 765C960.766 765.008 960.367 765.289 960.367 766V766.516H962.055ZM967.93 766.516V768.25H966.242V775H963.93V768.25H962.727V766.516H963.93V765.875C963.93 764.086 965.008 763.156 966.711 763.156C967.234 763.156 967.68 763.203 968.086 763.297V765.047C967.75 765.016 967.508 765.008 967.383 765C966.641 765.008 966.242 765.289 966.242 766V766.516H967.93ZM969.289 775V766.516H971.602V775H969.289ZM969.18 764.234C969.18 763.578 969.75 763.055 970.445 763.047C971.133 763.055 971.703 763.578 971.695 764.234C971.703 764.875 971.133 765.406 970.445 765.406C969.75 765.406 969.18 764.875 969.18 764.234ZM977.211 775.172C974.609 775.164 973.047 773.367 973.055 770.781C973.047 768.188 974.641 766.406 977.211 766.406C979.398 766.406 980.883 767.68 980.977 769.625H978.805C978.664 768.789 978.117 768.211 977.242 768.203C976.133 768.211 975.398 769.141 975.398 770.75C975.398 772.391 976.117 773.328 977.242 773.328C978.055 773.328 978.656 772.82 978.805 771.922H980.977C980.875 773.844 979.461 775.164 977.211 775.172ZM982.414 775V766.516H984.727V775H982.414ZM982.305 764.234C982.305 763.578 982.875 763.055 983.57 763.047C984.258 763.055 984.828 763.578 984.82 764.234C984.828 764.875 984.258 765.406 983.57 765.406C982.875 765.406 982.305 764.875 982.305 764.234ZM986.117 772.625C986.125 770.734 987.641 770.117 989.273 770.016C989.883 769.977 991.023 769.922 991.383 769.906V769.219C991.375 768.508 990.891 768.102 990.023 768.094C989.234 768.102 988.742 768.453 988.617 769.031H986.414C986.555 767.562 987.836 766.406 990.086 766.406C991.938 766.406 993.688 767.234 993.68 769.281V775H991.492V773.828H991.43C991.016 774.609 990.203 775.164 988.945 775.156C987.32 775.164 986.125 774.305 986.117 772.625ZM988.336 772.562C988.336 773.211 988.859 773.555 989.602 773.562C990.656 773.555 991.391 772.867 991.383 771.969V771.352C991.031 771.367 990.039 771.422 989.648 771.453C988.844 771.523 988.336 771.906 988.336 772.562ZM997.758 763.688V775H995.445V763.688H997.758ZM1005.04 773.391C1003.66 773.383 1002.54 772.297 1002.54 770.219C1002.54 768.094 1003.71 767.07 1005.04 767.062C1005.98 767.07 1006.51 767.633 1006.73 768.109H1006.79V767.234H1008.48V771.188C1008.49 771.688 1008.68 771.93 1009.07 771.922C1009.78 771.93 1010.23 771.109 1010.24 769.828C1010.24 767.227 1008.43 765.516 1005.65 765.516C1002.85 765.516 1001.05 767.477 1001.05 770.219C1001.05 773.164 1002.62 774.953 1005.62 774.938C1006.73 774.938 1007.62 774.828 1008.48 774.609V776.234C1007.64 776.492 1006.66 776.625 1005.62 776.625C1001.65 776.625 999.383 774.102 999.383 770.219C999.383 766.516 1001.97 763.828 1005.65 763.828C1009.33 763.828 1011.91 766.336 1011.9 769.781C1011.9 772.125 1010.73 773.469 1008.9 773.469C1007.83 773.453 1007.02 772.984 1006.84 772.297H1006.77C1006.55 772.781 1006.02 773.383 1005.04 773.391ZM1004.49 770.219C1004.48 771.164 1004.91 771.805 1005.65 771.797C1006.41 771.805 1006.83 771.188 1006.84 770.219C1006.83 769.25 1006.41 768.648 1005.65 768.641C1004.91 768.648 1004.48 769.281 1004.49 770.219ZM1017.35 778.359C1015.01 778.359 1013.56 777.305 1013.43 775.703H1015.71C1015.84 776.383 1016.48 776.688 1017.4 776.688C1018.47 776.688 1019.19 776.227 1019.2 775.047V773.5H1019.09C1018.78 774.188 1018.03 774.883 1016.66 774.875C1014.75 774.883 1013.21 773.531 1013.21 770.703C1013.21 767.836 1014.79 766.406 1016.66 766.406C1018.09 766.406 1018.77 767.25 1019.09 767.938H1019.18V766.516H1021.48V775.094C1021.47 777.258 1019.77 778.359 1017.35 778.359ZM1015.59 770.734C1015.58 772.203 1016.21 773.133 1017.38 773.141C1018.54 773.133 1019.2 772.242 1019.2 770.734C1019.2 769.227 1018.55 768.25 1017.38 768.25C1016.2 768.25 1015.58 769.273 1015.59 770.734ZM1023.27 775V766.516H1025.48V768H1025.57C1025.93 767.008 1026.79 766.406 1027.93 766.406C1029.09 766.406 1029.96 767.023 1030.24 768H1030.32C1030.67 767.039 1031.64 766.406 1032.88 766.406C1034.45 766.406 1035.55 767.445 1035.55 769.297V775H1033.24V769.75C1033.25 768.781 1032.67 768.312 1031.91 768.312C1031.05 768.312 1030.53 768.914 1030.54 769.812V775H1028.29V769.688C1028.3 768.852 1027.77 768.312 1026.98 768.312C1026.19 768.312 1025.58 768.945 1025.59 769.906V775H1023.27ZM1036.93 772.625C1036.94 770.734 1038.45 770.117 1040.09 770.016C1040.7 769.977 1041.84 769.922 1042.2 769.906V769.219C1042.19 768.508 1041.7 768.102 1040.84 768.094C1040.05 768.102 1039.55 768.453 1039.43 769.031H1037.23C1037.37 767.562 1038.65 766.406 1040.9 766.406C1042.75 766.406 1044.5 767.234 1044.49 769.281V775H1042.3V773.828H1042.24C1041.83 774.609 1041.02 775.164 1039.76 775.156C1038.13 775.164 1036.94 774.305 1036.93 772.625ZM1039.15 772.562C1039.15 773.211 1039.67 773.555 1040.41 773.562C1041.47 773.555 1042.2 772.867 1042.2 771.969V771.352C1041.84 771.367 1040.85 771.422 1040.46 771.453C1039.66 771.523 1039.15 771.906 1039.15 772.562ZM1046.26 775V766.516H1048.57V775H1046.26ZM1046.15 764.234C1046.15 763.578 1046.72 763.055 1047.41 763.047C1048.1 763.055 1048.67 763.578 1048.66 764.234C1048.67 764.875 1048.1 765.406 1047.41 765.406C1046.72 765.406 1046.15 764.875 1046.15 764.234ZM1052.68 763.688V775H1050.37V763.688H1052.68ZM1055.84 775.141C1055.1 775.141 1054.51 774.555 1054.52 773.828C1054.51 773.109 1055.1 772.523 1055.84 772.531C1056.53 772.523 1057.13 773.109 1057.13 773.828C1057.13 774.555 1056.53 775.141 1055.84 775.141ZM1062.8 775.172C1060.2 775.164 1058.64 773.367 1058.65 770.781C1058.64 768.188 1060.23 766.406 1062.8 766.406C1064.99 766.406 1066.48 767.68 1066.57 769.625H1064.4C1064.26 768.789 1063.71 768.211 1062.84 768.203C1061.73 768.211 1060.99 769.141 1060.99 770.75C1060.99 772.391 1061.71 773.328 1062.84 773.328C1063.65 773.328 1064.25 772.82 1064.4 771.922H1066.57C1066.47 773.844 1065.05 775.164 1062.8 775.172ZM1071.82 775.172C1069.26 775.164 1067.66 773.406 1067.66 770.781C1067.66 768.164 1069.26 766.406 1071.82 766.406C1074.39 766.406 1075.98 768.164 1075.99 770.781C1075.98 773.406 1074.39 775.164 1071.82 775.172ZM1070.01 770.781C1070.01 772.266 1070.62 773.367 1071.84 773.375C1073.02 773.367 1073.64 772.266 1073.63 770.781C1073.64 769.289 1073.02 768.172 1071.84 768.172C1070.62 768.172 1070.01 769.289 1070.01 770.781ZM1077.45 775V766.516H1079.65V768H1079.74C1080.1 767.008 1080.96 766.406 1082.1 766.406C1083.27 766.406 1084.13 767.023 1084.41 768H1084.49C1084.84 767.039 1085.81 766.406 1087.05 766.406C1088.62 766.406 1089.73 767.445 1089.73 769.297V775H1087.41V769.75C1087.42 768.781 1086.84 768.312 1086.09 768.312C1085.22 768.312 1084.7 768.914 1084.71 769.812V775H1082.46V769.688C1082.47 768.852 1081.94 768.312 1081.15 768.312C1080.36 768.312 1079.75 768.945 1079.76 769.906V775H1077.45ZM852.602 787.688V799H850.258V787.688H852.602ZM856.773 794.094V799H854.461V790.516H856.664V792H856.758C857.141 791.023 858.047 790.406 859.305 790.406C861.078 790.406 862.234 791.617 862.227 793.594V799H859.93V794C859.922 792.953 859.359 792.328 858.398 792.328C857.438 792.328 856.773 792.977 856.773 794.094ZM868.867 793.031C868.766 792.438 868.25 792.055 867.477 792.047C866.727 792.055 866.156 792.406 866.164 792.922C866.156 793.305 866.453 793.602 867.258 793.766L868.773 794.078C870.422 794.422 871.219 795.156 871.227 796.375C871.219 798.047 869.719 799.164 867.461 799.172C865.172 799.164 863.828 798.141 863.633 796.484H865.961C866.07 797.148 866.609 797.492 867.461 797.5C868.305 797.492 868.867 797.156 868.867 796.609C868.867 796.172 868.508 795.898 867.711 795.734L866.305 795.453C864.688 795.133 863.859 794.305 863.867 793.047C863.859 791.422 865.258 790.406 867.445 790.406C869.586 790.406 870.914 791.422 871.039 793.031H868.867ZM877.117 790.516V792.25H875.523V796.391C875.516 797.07 875.852 797.234 876.32 797.25C876.555 797.25 876.961 797.227 877.242 797.203V799.031C876.992 799.07 876.578 799.117 876.008 799.109C874.336 799.117 873.195 798.367 873.211 796.719V792.25H872.039V790.516H873.211V788.484H875.523V790.516H877.117ZM878.164 796.625C878.172 794.734 879.688 794.117 881.32 794.016C881.93 793.977 883.07 793.922 883.43 793.906V793.219C883.422 792.508 882.938 792.102 882.07 792.094C881.281 792.102 880.789 792.453 880.664 793.031H878.461C878.602 791.562 879.883 790.406 882.133 790.406C883.984 790.406 885.734 791.234 885.727 793.281V799H883.539V797.828H883.477C883.062 798.609 882.25 799.164 880.992 799.156C879.367 799.164 878.172 798.305 878.164 796.625ZM880.383 796.562C880.383 797.211 880.906 797.555 881.648 797.562C882.703 797.555 883.438 796.867 883.43 795.969V795.352C883.078 795.367 882.086 795.422 881.695 795.453C880.891 795.523 880.383 795.906 880.383 796.562ZM891.305 802.359C888.961 802.359 887.516 801.305 887.383 799.703H889.664C889.789 800.383 890.43 800.688 891.352 800.688C892.422 800.688 893.141 800.227 893.148 799.047V797.5H893.039C892.734 798.188 891.984 798.883 890.617 798.875C888.703 798.883 887.164 797.531 887.164 794.703C887.164 791.836 888.742 790.406 890.617 790.406C892.039 790.406 892.727 791.25 893.039 791.938H893.133V790.516H895.43V799.094C895.422 801.258 893.719 802.359 891.305 802.359ZM889.539 794.734C889.531 796.203 890.164 797.133 891.336 797.141C892.492 797.133 893.148 796.242 893.148 794.734C893.148 793.227 892.5 792.25 891.336 792.25C890.156 792.25 889.531 793.273 889.539 794.734ZM897.227 799V790.516H899.461V791.984H899.555C899.859 790.945 900.648 790.391 901.602 790.391C901.836 790.391 902.133 790.422 902.336 790.469V792.531C902.117 792.461 901.672 792.406 901.352 792.406C900.305 792.406 899.531 793.133 899.539 794.172V799H897.227ZM902.82 796.625C902.828 794.734 904.344 794.117 905.977 794.016C906.586 793.977 907.727 793.922 908.086 793.906V793.219C908.078 792.508 907.594 792.102 906.727 792.094C905.938 792.102 905.445 792.453 905.32 793.031H903.117C903.258 791.562 904.539 790.406 906.789 790.406C908.641 790.406 910.391 791.234 910.383 793.281V799H908.195V797.828H908.133C907.719 798.609 906.906 799.164 905.648 799.156C904.023 799.164 902.828 798.305 902.82 796.625ZM905.039 796.562C905.039 797.211 905.562 797.555 906.305 797.562C907.359 797.555 908.094 796.867 908.086 795.969V795.352C907.734 795.367 906.742 795.422 906.352 795.453C905.547 795.523 905.039 795.906 905.039 796.562ZM912.148 799V790.516H914.352V792H914.445C914.805 791.008 915.664 790.406 916.805 790.406C917.969 790.406 918.836 791.023 919.117 792H919.195C919.547 791.039 920.516 790.406 921.758 790.406C923.328 790.406 924.43 791.445 924.43 793.297V799H922.117V793.75C922.125 792.781 921.547 792.312 920.789 792.312C919.922 792.312 919.406 792.914 919.414 793.812V799H917.164V793.688C917.172 792.852 916.641 792.312 915.852 792.312C915.062 792.312 914.453 792.945 914.461 793.906V799H912.148ZM931.258 799.141C930.523 799.141 929.93 798.555 929.945 797.828C929.93 797.109 930.523 796.523 931.258 796.531C931.953 796.523 932.555 797.109 932.555 797.828C932.555 798.555 931.953 799.141 931.258 799.141ZM929.945 791.875C929.93 791.156 930.523 790.57 931.258 790.578C931.953 790.57 932.555 791.156 932.555 791.875C932.555 792.602 931.953 793.188 931.258 793.188C930.523 793.188 929.93 792.602 929.945 791.875ZM943.586 797.391C942.203 797.383 941.086 796.297 941.086 794.219C941.086 792.094 942.258 791.07 943.586 791.062C944.531 791.07 945.055 791.633 945.273 792.109H945.336V791.234H947.023V795.188C947.039 795.688 947.227 795.93 947.617 795.922C948.328 795.93 948.781 795.109 948.789 793.828C948.789 791.227 946.977 789.516 944.195 789.516C941.398 789.516 939.602 791.477 939.602 794.219C939.602 797.164 941.172 798.953 944.164 798.938C945.281 798.938 946.172 798.828 947.023 798.609V800.234C946.188 800.492 945.203 800.625 944.164 800.625C940.195 800.625 937.93 798.102 937.93 794.219C937.93 790.516 940.516 787.828 944.195 787.828C947.875 787.828 950.453 790.336 950.445 793.781C950.445 796.125 949.273 797.469 947.445 797.469C946.375 797.453 945.57 796.984 945.383 796.297H945.32C945.094 796.781 944.562 797.383 943.586 797.391ZM943.039 794.219C943.031 795.164 943.453 795.805 944.195 795.797C944.961 795.805 945.375 795.188 945.383 794.219C945.375 793.25 944.961 792.648 944.195 792.641C943.453 792.648 943.031 793.281 943.039 794.219ZM956.93 793.031C956.828 792.438 956.312 792.055 955.539 792.047C954.789 792.055 954.219 792.406 954.227 792.922C954.219 793.305 954.516 793.602 955.32 793.766L956.836 794.078C958.484 794.422 959.281 795.156 959.289 796.375C959.281 798.047 957.781 799.164 955.523 799.172C953.234 799.164 951.891 798.141 951.695 796.484H954.023C954.133 797.148 954.672 797.492 955.523 797.5C956.367 797.492 956.93 797.156 956.93 796.609C956.93 796.172 956.57 795.898 955.773 795.734L954.367 795.453C952.75 795.133 951.922 794.305 951.93 793.047C951.922 791.422 953.32 790.406 955.508 790.406C957.648 790.406 958.977 791.422 959.102 793.031H956.93ZM964.523 799.172C961.961 799.164 960.359 797.406 960.367 794.781C960.359 792.164 961.961 790.406 964.523 790.406C967.094 790.406 968.688 792.164 968.695 794.781C968.688 797.406 967.094 799.164 964.523 799.172ZM962.711 794.781C962.711 796.266 963.328 797.367 964.539 797.375C965.719 797.367 966.344 796.266 966.336 794.781C966.344 793.289 965.719 792.172 964.539 792.172C963.328 792.172 962.711 793.289 962.711 794.781ZM972.461 794.094V799H970.148V790.516H972.352V792H972.445C972.828 791.023 973.734 790.406 974.992 790.406C976.766 790.406 977.922 791.617 977.914 793.594V799H975.617V794C975.609 792.953 975.047 792.328 974.086 792.328C973.125 792.328 972.461 792.977 972.461 794.094ZM983.523 802.359C981.18 802.359 979.734 801.305 979.602 799.703H981.883C982.008 800.383 982.648 800.688 983.57 800.688C984.641 800.688 985.359 800.227 985.367 799.047V797.5H985.258C984.953 798.188 984.203 798.883 982.836 798.875C980.922 798.883 979.383 797.531 979.383 794.703C979.383 791.836 980.961 790.406 982.836 790.406C984.258 790.406 984.945 791.25 985.258 791.938H985.352V790.516H987.648V799.094C987.641 801.258 985.938 802.359 983.523 802.359ZM981.758 794.734C981.75 796.203 982.383 797.133 983.555 797.141C984.711 797.133 985.367 796.242 985.367 794.734C985.367 793.227 984.719 792.25 983.555 792.25C982.375 792.25 981.75 793.273 981.758 794.734ZM989.445 802.188V790.516H991.727V791.938H991.82C992.141 791.25 992.812 790.406 994.242 790.406C996.117 790.406 997.688 791.859 997.68 794.766C997.688 797.602 996.18 799.141 994.242 799.141C992.859 799.141 992.148 798.344 991.82 797.641H991.758V802.188H989.445ZM991.711 794.75C991.703 796.281 992.359 797.289 993.508 797.297C994.688 797.289 995.328 796.25 995.32 794.75C995.328 793.273 994.703 792.25 993.508 792.25C992.352 792.25 991.703 793.227 991.711 794.75ZM999.18 799V790.516H1001.49V799H999.18ZM999.07 788.234C999.07 787.578 999.641 787.055 1000.34 787.047C1001.02 787.055 1001.59 787.578 1001.59 788.234C1001.59 788.875 1001.02 789.406 1000.34 789.406C999.641 789.406 999.07 788.875 999.07 788.234ZM1005.6 794.094V799H1003.29V790.516H1005.49V792H1005.59C1005.97 791.023 1006.88 790.406 1008.13 790.406C1009.91 790.406 1011.06 791.617 1011.05 793.594V799H1008.76V794C1008.75 792.953 1008.19 792.328 1007.23 792.328C1006.27 792.328 1005.6 792.977 1005.6 794.094ZM1019.3 799V800.766H1011.88V799H1019.3ZM1023.96 799.172C1021.4 799.164 1019.8 797.406 1019.8 794.781C1019.8 792.164 1021.4 790.406 1023.96 790.406C1026.53 790.406 1028.12 792.164 1028.13 794.781C1028.12 797.406 1026.53 799.164 1023.96 799.172ZM1022.15 794.781C1022.15 796.266 1022.77 797.367 1023.98 797.375C1025.16 797.367 1025.78 796.266 1025.77 794.781C1025.78 793.289 1025.16 792.172 1023.98 792.172C1022.77 792.172 1022.15 793.289 1022.15 794.781ZM1034.1 790.516V792.25H1032.41V799H1030.1V792.25H1028.9V790.516H1030.1V789.875C1030.1 788.086 1031.18 787.156 1032.88 787.156C1033.41 787.156 1033.85 787.203 1034.26 787.297V789.047C1033.92 789.016 1033.68 789.008 1033.55 789C1032.81 789.008 1032.41 789.289 1032.41 790V790.516H1034.1ZM1039.98 790.516V792.25H1038.29V799H1035.98V792.25H1034.77V790.516H1035.98V789.875C1035.98 788.086 1037.05 787.156 1038.76 787.156C1039.28 787.156 1039.73 787.203 1040.13 787.297V789.047C1039.8 789.016 1039.55 789.008 1039.43 789C1038.69 789.008 1038.29 789.289 1038.29 790V790.516H1039.98ZM1041.34 799V790.516H1043.65V799H1041.34ZM1041.23 788.234C1041.23 787.578 1041.8 787.055 1042.49 787.047C1043.18 787.055 1043.75 787.578 1043.74 788.234C1043.75 788.875 1043.18 789.406 1042.49 789.406C1041.8 789.406 1041.23 788.875 1041.23 788.234ZM1049.26 799.172C1046.66 799.164 1045.09 797.367 1045.1 794.781C1045.09 792.188 1046.69 790.406 1049.26 790.406C1051.45 790.406 1052.93 791.68 1053.02 793.625H1050.85C1050.71 792.789 1050.16 792.211 1049.29 792.203C1048.18 792.211 1047.45 793.141 1047.45 794.75C1047.45 796.391 1048.16 797.328 1049.29 797.328C1050.1 797.328 1050.7 796.82 1050.85 795.922H1053.02C1052.92 797.844 1051.51 799.164 1049.26 799.172ZM1054.46 799V790.516H1056.77V799H1054.46ZM1054.35 788.234C1054.35 787.578 1054.92 787.055 1055.62 787.047C1056.3 787.055 1056.88 787.578 1056.87 788.234C1056.88 788.875 1056.3 789.406 1055.62 789.406C1054.92 789.406 1054.35 788.875 1054.35 788.234ZM1058.16 796.625C1058.17 794.734 1059.69 794.117 1061.32 794.016C1061.93 793.977 1063.07 793.922 1063.43 793.906V793.219C1063.42 792.508 1062.94 792.102 1062.07 792.094C1061.28 792.102 1060.79 792.453 1060.66 793.031H1058.46C1058.6 791.562 1059.88 790.406 1062.13 790.406C1063.98 790.406 1065.73 791.234 1065.73 793.281V799H1063.54V797.828H1063.48C1063.06 798.609 1062.25 799.164 1060.99 799.156C1059.37 799.164 1058.17 798.305 1058.16 796.625ZM1060.38 796.562C1060.38 797.211 1060.91 797.555 1061.65 797.562C1062.7 797.555 1063.44 796.867 1063.43 795.969V795.352C1063.08 795.367 1062.09 795.422 1061.7 795.453C1060.89 795.523 1060.38 795.906 1060.38 796.562ZM1069.8 787.688V799H1067.49V787.688H1069.8Z" fill="#232323"/>
<path d="M889.312 247.219V250.469H885.281V264.812H881.281V236.438H885.281V247.219H889.312ZM863.75 257.875V239.156H867.719V254.578C871.359 254.516 875.266 254.172 879.375 253.344L879.781 256.656C875.016 257.625 870.406 257.875 866.219 257.875H863.75ZM899.719 238.344C904.234 238.328 907.578 241.234 907.594 245.312C907.578 249.406 904.234 252.297 899.719 252.312C895.234 252.297 891.797 249.406 891.812 245.312C891.797 241.234 895.234 238.328 899.719 238.344ZM890.625 255.875C895.703 255.891 902.734 255.828 908.812 254.969L909.125 257.844C902.812 259.078 896.062 259.125 891.094 259.125L890.625 255.875ZM895.781 245.312C895.766 247.562 897.469 248.859 899.719 248.844C901.984 248.859 903.703 247.562 903.719 245.312C903.703 243.094 901.984 241.781 899.719 241.781C897.469 241.781 895.766 243.094 895.781 245.312ZM910.438 264.938V236.438H914.406V264.938H910.438ZM938.5 236.969C944.828 236.953 948.828 239.062 948.844 242.531C948.828 245.984 944.828 248.047 938.5 248.031C932.203 248.047 928.125 245.984 928.125 242.531C928.125 239.062 932.203 236.953 938.5 236.969ZM925.531 252.875V249.688H951.469V252.875H925.531ZM928.531 264.562V254.875H948.375V264.562H928.531ZM932.281 242.531C932.25 244.125 934.516 244.938 938.5 244.938C942.422 244.938 944.719 244.125 944.719 242.531C944.719 240.891 942.422 240.062 938.5 240.062C934.516 240.062 932.25 240.891 932.281 242.531ZM932.469 261.375H944.469V258.031H932.469V261.375ZM961.188 238C965.594 237.984 968.938 240.891 968.938 244.906C968.938 249.016 965.594 251.891 961.188 251.875C956.734 251.891 953.359 249.016 953.375 244.906C953.359 240.891 956.734 237.984 961.188 238ZM956.594 257.469V254.25H975.75V264.906H971.75V257.469H956.594ZM957.312 244.906C957.281 247.203 958.953 248.516 961.188 248.5C963.375 248.516 965.047 247.203 965.062 244.906C965.047 242.688 963.375 241.391 961.188 241.406C958.953 241.391 957.281 242.688 957.312 244.906ZM971.75 253.062V236.438H975.75V243.125H979.594V246.375H975.75V253.062H971.75ZM999.25 244.188C999.234 248.781 1001.61 253.703 1006.38 255.688L1004.22 258.812C1000.88 257.391 998.562 254.562 997.281 251.125C996 254.859 993.641 257.984 990.281 259.531L988 256.375C992.719 254.266 995.156 249 995.156 244.188V242.438H989.125V239.188H1005.19V242.438H999.25V244.188ZM1008 264.875V236.438H1012.03V264.875H1008ZM1039.06 249.156V252.312H1030.81V258.375H1041.91V261.625H1015.88V258.375H1026.84V252.312H1018.94V238.438H1038.84V241.625H1022.94V249.156H1039.06ZM1049.53 259.688L1046.84 268.594H1043.53L1045.09 259.688H1049.53Z" fill="#232323"/>
<path d="M1105.01 318.378C1147.06 318.378 1122.54 275.895 1101.5 312.316C1122.52 275.895 1073.46 275.895 1094.5 312.316C1073.48 275.895 1048.95 318.378 1090.99 318.378C1048.94 318.378 1073.46 360.861 1094.5 324.44C1073.48 360.861 1122.54 360.861 1101.5 324.44C1122.52 360.877 1147.05 318.378 1105.01 318.378Z" fill="#232323"/>
<path d="M1106.57 303.532C1105.96 304.195 1105.35 304.911 1104.75 305.682C1115.63 278.111 1080.36 278.106 1091.24 305.667L1098.6 352.736M1106.57 303.532C1106.3 304.39 1105.99 305.276 1105.62 306.188C1124.06 282.965 1141.7 313.515 1112.38 317.873C1113.35 318.014 1114.28 318.183 1115.16 318.378M1106.57 303.532C1108.1 298.671 1108.18 294.669 1107.28 291.552C1105.84 286.589 1101.96 284 1097.99 284C1094.03 284 1090.14 286.589 1088.71 291.552C1087.82 294.667 1087.89 298.663 1089.42 303.518C1085.98 299.769 1082.56 297.706 1079.41 296.927C1074.4 295.686 1070.22 297.753 1068.23 301.189C1066.75 303.75 1066.54 306.988 1068.01 310.013C1066 311.544 1064.59 313.83 1064.2 316.448C1060.39 314.149 1055.36 314.631 1052.07 317.923C1048.95 321.048 1048.35 325.718 1050.27 329.441C1046.08 330.597 1043 334.436 1043 338.992C1043 343.884 1046.55 347.952 1051.21 348.758C1048.25 352.644 1048.54 358.216 1052.09 361.769C1055.47 365.147 1060.7 365.582 1064.54 363.029C1065.8 367.058 1069.56 369.999 1074 369.999C1078.45 369.999 1082.21 367.067 1083.46 363.024C1087.31 365.567 1092.53 365.151 1095.91 361.769C1098.36 359.315 1099.26 355.896 1098.6 352.736M1106.57 303.532C1110.02 299.774 1113.45 297.707 1116.6 296.927C1121.61 295.686 1125.8 297.753 1127.78 301.189C1129.76 304.625 1129.46 309.281 1125.88 313.002C1123.63 315.339 1120.13 317.274 1115.16 318.378M1115.16 318.378C1114.28 318.573 1113.35 318.742 1112.38 318.883C1141.68 323.244 1124.06 353.787 1105.63 330.588C1106 331.5 1106.31 332.385 1106.58 333.243M1115.16 318.378C1120.13 319.483 1123.62 321.418 1125.87 323.756C1129.45 327.478 1129.75 332.136 1127.77 335.573C1125.78 339.01 1121.6 341.078 1116.59 339.835C1113.44 339.056 1110.02 336.993 1106.58 333.243M1106.58 333.243C1105.97 332.58 1105.37 331.864 1104.76 331.094C1110.09 344.612 1104.32 351.497 1098.35 351.748C1098.45 352.074 1098.54 352.403 1098.6 352.736M1106.58 333.243C1108.11 338.095 1108.18 342.09 1107.29 345.203C1105.93 349.916 1102.36 352.489 1098.6 352.736" stroke="#232323" stroke-width="2"/>
<path d="M813.943 319.154C814.736 319.154 815.311 319.482 815.666 320.139C816.049 320.768 816.24 321.492 816.24 322.312C816.24 322.723 816.199 323.078 816.117 323.379C816.035 323.68 815.871 323.967 815.625 324.24C815.379 324.486 815.051 324.732 814.641 324.979C814.23 325.197 813.697 325.443 813.041 325.717C811.51 326.373 810.307 327.166 809.432 328.096C808.557 328.998 808.119 329.9 808.119 330.803C808.119 331.377 808.311 331.924 808.693 332.443C809.076 332.963 809.678 333.428 810.498 333.838C811.318 334.221 812.371 334.535 813.656 334.781C814.969 335 816.541 335.109 818.373 335.109C820.26 335.109 822.051 334.891 823.746 334.453C825.441 333.988 826.918 333.346 828.176 332.525C829.461 331.705 830.473 330.734 831.211 329.613C831.977 328.492 832.359 327.275 832.359 325.963C832.359 324.979 831.949 323.953 831.129 322.887C830.309 321.82 829.01 320.713 827.232 319.564C824.088 317.514 821.695 315.859 820.055 314.602C818.441 313.344 817.443 312.551 817.061 312.223C815.01 310.418 813.479 308.682 812.467 307.014C811.455 305.346 810.949 303.609 810.949 301.805C810.949 300.137 811.346 298.51 812.139 296.924C812.959 295.338 814.053 293.848 815.42 292.453C816.787 291.059 818.359 289.773 820.137 288.598C821.941 287.395 823.814 286.369 825.756 285.521C827.725 284.674 829.693 284.018 831.662 283.553C833.658 283.061 835.545 282.814 837.322 282.814C838.662 282.814 839.893 282.965 841.014 283.266C842.162 283.566 843.16 284.045 844.008 284.701C844.855 285.33 845.512 286.15 845.977 287.162C846.469 288.174 846.715 289.391 846.715 290.812C846.715 292.863 846.127 294.818 844.951 296.678C843.775 298.537 841.984 300.273 839.578 301.887C838.512 302.625 837.527 302.994 836.625 302.994C835.695 302.994 834.957 302.666 834.41 302.01C833.863 301.326 833.59 300.533 833.59 299.631C833.59 298.865 833.809 298.1 834.246 297.334C834.711 296.568 835.449 295.912 836.461 295.365C837.254 294.955 837.951 294.408 838.553 293.725C839.182 293.014 839.496 292.33 839.496 291.674C839.496 291.045 839.277 290.635 838.84 290.443C838.43 290.252 837.924 290.156 837.322 290.156C836.174 290.156 834.916 290.307 833.549 290.607C832.209 290.881 830.855 291.264 829.488 291.756C828.148 292.248 826.836 292.836 825.551 293.52C824.293 294.203 823.172 294.941 822.188 295.734C821.23 296.527 820.451 297.375 819.85 298.277C819.275 299.152 818.988 300.027 818.988 300.902C818.988 301.504 819.111 302.064 819.357 302.584C819.604 303.104 819.959 303.623 820.424 304.143C820.916 304.662 821.504 305.209 822.188 305.783C822.871 306.33 823.664 306.932 824.566 307.588L834.164 314.684C835.395 315.586 836.488 316.475 837.445 317.35C838.43 318.197 839.25 319.059 839.906 319.934C840.562 320.781 841.068 321.643 841.424 322.518C841.779 323.393 841.957 324.322 841.957 325.307C841.957 327.494 841.383 329.641 840.234 331.746C839.113 333.824 837.5 335.684 835.395 337.324C833.316 338.965 830.801 340.291 827.848 341.303C824.922 342.314 821.668 342.82 818.086 342.82C814.75 342.82 811.906 342.547 809.555 342C807.23 341.48 805.316 340.77 803.812 339.867C802.309 338.938 801.215 337.885 800.531 336.709C799.848 335.506 799.506 334.248 799.506 332.936C799.506 331.568 799.848 330.188 800.531 328.793C801.242 327.371 802.227 326.031 803.484 324.773C804.77 323.516 806.301 322.395 808.078 321.41C809.855 320.426 811.811 319.674 813.943 319.154ZM861.07 319.4C859.785 319.4 858.541 319.729 857.338 320.385C856.162 321.014 855.109 321.861 854.18 322.928C853.277 323.967 852.553 325.156 852.006 326.496C851.459 327.809 851.186 329.162 851.186 330.557C851.186 331.076 851.227 331.65 851.309 332.279C851.391 332.881 851.555 333.455 851.801 334.002C852.074 334.521 852.457 334.959 852.949 335.314C853.441 335.67 854.098 335.848 854.918 335.848C856.176 335.848 857.393 335.52 858.568 334.863C859.771 334.18 860.838 333.305 861.768 332.238C862.697 331.145 863.436 329.914 863.982 328.547C864.529 327.18 864.803 325.799 864.803 324.404C864.803 323.857 864.762 323.297 864.68 322.723C864.625 322.121 864.461 321.574 864.188 321.082C863.941 320.59 863.572 320.193 863.08 319.893C862.588 319.564 861.918 319.4 861.07 319.4ZM863.203 312.182C864.242 312.182 865.35 312.318 866.525 312.592C867.729 312.865 868.836 313.33 869.848 313.986C870.859 314.643 871.693 315.518 872.35 316.611C873.033 317.678 873.375 319.004 873.375 320.59C873.375 321.41 873.266 322.354 873.047 323.42C872.828 324.459 872.5 325.553 872.062 326.701C872.336 327.029 872.65 327.262 873.006 327.398C873.361 327.535 873.744 327.604 874.154 327.604C874.729 327.604 875.357 327.439 876.041 327.111C876.752 326.783 877.477 326.359 878.215 325.84C878.953 325.32 879.691 324.732 880.43 324.076C881.168 323.42 881.865 322.764 882.521 322.107C883.178 321.451 883.766 320.836 884.285 320.262C884.832 319.66 885.283 319.154 885.639 318.744C885.83 318.553 886.062 318.457 886.336 318.457C886.719 318.457 887.061 318.662 887.361 319.072C887.662 319.455 887.812 320.002 887.812 320.713C887.812 321.424 887.594 322.244 887.156 323.174C886.746 324.104 885.967 325.074 884.818 326.086C884.162 326.797 883.41 327.617 882.562 328.547C881.715 329.477 880.812 330.352 879.855 331.172C878.898 331.992 877.9 332.689 876.861 333.264C875.822 333.838 874.783 334.125 873.744 334.125C873.033 334.125 872.336 334.016 871.652 333.797C870.996 333.578 870.326 333.223 869.643 332.73C868.658 334.262 867.537 335.656 866.279 336.914C865.021 338.172 863.613 339.252 862.055 340.154C860.523 341.057 858.855 341.754 857.051 342.246C855.273 342.766 853.373 343.025 851.35 343.025C850.584 343.025 849.695 342.875 848.684 342.574C847.672 342.273 846.701 341.781 845.771 341.098C844.869 340.387 844.104 339.471 843.475 338.35C842.846 337.229 842.531 335.861 842.531 334.248C842.531 333.154 842.709 331.842 843.064 330.311C843.42 328.779 843.953 327.207 844.664 325.594C845.402 323.953 846.318 322.34 847.412 320.754C848.533 319.141 849.859 317.705 851.391 316.447C852.922 315.162 854.672 314.137 856.641 313.371C858.609 312.578 860.797 312.182 863.203 312.182ZM886.705 317.104C887.252 315.928 887.936 315.053 888.756 314.479C889.576 313.904 890.383 313.617 891.176 313.617C891.832 313.617 892.42 313.863 892.939 314.355C893.459 314.82 893.719 315.518 893.719 316.447C893.719 316.803 893.678 317.186 893.596 317.596C893.514 318.006 893.363 318.443 893.145 318.908C893.746 318.143 894.607 317.363 895.729 316.57C896.85 315.75 898.08 315.025 899.42 314.396C900.787 313.74 902.182 313.207 903.604 312.797C905.053 312.387 906.42 312.182 907.705 312.182C909.154 312.182 910.357 312.537 911.314 313.248C912.299 313.932 912.791 315.107 912.791 316.775C912.791 317.76 912.641 318.785 912.34 319.852C912.039 320.918 911.643 321.984 911.15 323.051C910.686 324.117 910.152 325.17 909.551 326.209C908.977 327.221 908.402 328.178 907.828 329.08C907.254 329.982 906.721 330.816 906.229 331.582C905.764 332.32 905.395 332.936 905.121 333.428C904.766 333.865 904.588 334.371 904.588 334.945C904.588 335.164 904.656 335.355 904.793 335.52C904.93 335.684 905.148 335.766 905.449 335.766C905.641 335.766 905.859 335.752 906.105 335.725C906.352 335.67 906.652 335.52 907.008 335.273C908.484 334.727 909.988 334.043 911.52 333.223C913.078 332.402 914.568 331.541 915.99 330.639C917.412 329.709 918.711 328.793 919.887 327.891C921.09 326.961 922.088 326.127 922.881 325.389C923.1 325.197 923.318 325.061 923.537 324.979C923.756 324.896 923.961 324.855 924.152 324.855C924.617 324.855 924.973 325.033 925.219 325.389C925.492 325.744 925.629 326.195 925.629 326.742C925.629 327.59 925.355 328.533 924.809 329.572C924.289 330.611 923.455 331.582 922.307 332.484C920.748 333.605 919.312 334.631 918 335.561C916.715 336.49 915.389 337.365 914.021 338.186C912.682 338.979 911.232 339.73 909.674 340.441C908.143 341.125 906.338 341.768 904.26 342.369C903.549 342.588 902.893 342.752 902.291 342.861C901.717 342.971 901.184 343.025 900.691 343.025C899.242 343.025 898.176 342.629 897.492 341.836C896.836 341.016 896.508 339.881 896.508 338.432C896.508 338.24 896.508 338.062 896.508 337.898C896.535 337.707 896.562 337.502 896.59 337.283C896.645 336.436 896.863 335.506 897.246 334.494C897.656 333.482 898.135 332.443 898.682 331.377C899.256 330.311 899.857 329.258 900.486 328.219C901.115 327.152 901.689 326.154 902.209 325.225C902.756 324.268 903.207 323.42 903.562 322.682C903.918 321.943 904.096 321.342 904.096 320.877C904.096 320.467 903.973 320.125 903.727 319.852C903.508 319.551 903.166 319.4 902.701 319.4C900.951 319.4 899.283 319.92 897.697 320.959C896.139 321.998 894.676 323.283 893.309 324.814C891.941 326.318 890.684 327.918 889.535 329.613C888.387 331.309 887.375 332.826 886.5 334.166C885.953 335.068 885.447 336.039 884.982 337.078C884.545 338.09 884.08 339.047 883.588 339.949C883.096 340.824 882.535 341.549 881.906 342.123C881.305 342.725 880.539 343.025 879.609 343.025C878.652 343.025 877.9 342.725 877.354 342.123C876.807 341.521 876.533 340.783 876.533 339.908C876.533 339.443 876.725 338.691 877.107 337.652C877.49 336.613 877.982 335.41 878.584 334.043C879.186 332.676 879.855 331.213 880.594 329.654C881.359 328.068 882.111 326.51 882.85 324.979C883.615 323.42 884.34 321.957 885.023 320.59C885.707 319.223 886.268 318.061 886.705 317.104ZM938.221 312.182C939.424 312.182 940.477 312.332 941.379 312.633C942.281 312.934 943.047 313.262 943.676 313.617C944.387 314.055 945.016 314.533 945.562 315.053C945.945 314.807 946.355 314.574 946.793 314.355C947.176 314.164 947.6 314 948.064 313.863C948.529 313.699 948.994 313.617 949.459 313.617C950.662 313.617 951.592 313.863 952.248 314.355C952.904 314.848 953.232 315.436 953.232 316.119C953.232 316.475 953.137 316.83 952.945 317.186L943.348 335.355L944.127 334.658C947.354 332.771 950.006 331.295 952.084 330.229C954.162 329.135 955.816 328.328 957.047 327.809C958.277 327.289 959.152 326.975 959.672 326.865C960.219 326.729 960.561 326.66 960.697 326.66C961.326 326.66 961.805 326.906 962.133 327.398C962.488 327.863 962.666 328.451 962.666 329.162C962.666 329.955 962.434 330.762 961.969 331.582C961.531 332.402 960.848 332.99 959.918 333.346C958.688 333.975 957.252 334.658 955.611 335.396C953.971 336.107 952.262 336.9 950.484 337.775C948.707 338.65 946.916 339.635 945.111 340.729C943.334 341.795 941.666 342.984 940.107 344.297L932.15 358.693C931.494 360.252 930.893 361.523 930.346 362.508C929.826 363.492 929.307 364.271 928.787 364.846C928.268 365.42 927.734 365.816 927.188 366.035C926.641 366.254 926.012 366.363 925.301 366.363C924.234 366.363 923.387 365.994 922.758 365.256C922.156 364.518 921.855 363.629 921.855 362.59C921.855 361.496 922.115 360.225 922.635 358.775C923.154 357.326 923.879 355.754 924.809 354.059C925.766 352.391 926.914 350.627 928.254 348.768C929.594 346.936 931.084 345.062 932.725 343.148L937.811 336.668C936.771 337.625 935.746 338.445 934.734 339.129C933.723 339.812 932.752 340.373 931.822 340.811C930.893 341.221 930.018 341.521 929.197 341.713C928.404 341.904 927.707 342 927.105 342C926.012 342 925 341.754 924.07 341.262C923.141 340.742 922.334 340.031 921.65 339.129C920.994 338.227 920.475 337.16 920.092 335.93C919.709 334.699 919.518 333.359 919.518 331.91C919.518 328.902 920.092 326.182 921.24 323.748C922.416 321.314 923.906 319.25 925.711 317.555C927.543 315.832 929.553 314.506 931.74 313.576C933.955 312.646 936.115 312.182 938.221 312.182ZM936.662 319.4C935.377 319.4 934.133 319.729 932.93 320.385C931.727 321.014 930.66 321.861 929.73 322.928C928.801 323.967 928.062 325.17 927.516 326.537C926.969 327.904 926.695 329.312 926.695 330.762C926.695 331.199 926.723 331.678 926.777 332.197C926.859 332.689 927.01 333.154 927.229 333.592C927.475 334.029 927.816 334.398 928.254 334.699C928.719 334.973 929.348 335.109 930.141 335.109C930.715 335.109 931.385 334.863 932.15 334.371C932.943 333.852 933.75 333.209 934.57 332.443C935.418 331.65 936.238 330.789 937.031 329.859C937.824 328.902 938.535 327.973 939.164 327.07C939.82 326.168 940.34 325.361 940.723 324.65C941.105 323.912 941.297 323.365 941.297 323.01C941.297 322.408 941.133 321.889 940.805 321.451C940.477 320.986 940.066 320.604 939.574 320.303C939.109 320.002 938.604 319.783 938.057 319.646C937.537 319.482 937.072 319.4 936.662 319.4ZM984.896 319.975C984.377 321.123 983.803 322.504 983.174 324.117C982.545 325.73 981.861 327.412 981.123 329.162C980.385 330.912 979.592 332.648 978.744 334.371C977.924 336.094 977.049 337.639 976.119 339.006C975.217 340.346 974.273 341.439 973.289 342.287C972.332 343.135 971.348 343.559 970.336 343.559C969.488 343.559 968.791 343.422 968.244 343.148C967.697 342.902 967.273 342.574 966.973 342.164C966.672 341.781 966.453 341.357 966.316 340.893C966.207 340.4 966.152 339.936 966.152 339.498C966.152 338.842 966.248 338.172 966.439 337.488C966.658 336.805 966.918 336.176 967.219 335.602L982.928 306.686C983.611 305.482 984.254 304.539 984.855 303.855C985.484 303.172 986.059 302.666 986.578 302.338C987.125 302.01 987.604 301.818 988.014 301.764C988.424 301.682 988.766 301.641 989.039 301.641C989.531 301.641 989.982 301.818 990.393 302.174C990.803 302.502 991.008 303.117 991.008 304.02C991.008 304.895 990.775 306.098 990.311 307.629C989.846 309.16 988.984 311.129 987.727 313.535C989.859 313.371 991.965 313.016 994.043 312.469C996.121 311.895 997.98 311.115 999.621 310.131C1001.29 309.146 1002.63 307.957 1003.64 306.562C1004.65 305.141 1005.16 303.5 1005.16 301.641C1005.16 300 1004.88 298.441 1004.34 296.965C1003.82 295.461 1003.04 294.148 1002 293.027C1000.99 291.879 999.73 290.977 998.227 290.32C996.723 289.637 994.986 289.295 993.018 289.295C990.338 289.295 988.027 289.555 986.086 290.074C984.172 290.566 982.518 291.223 981.123 292.043C979.756 292.863 978.607 293.807 977.678 294.873C976.748 295.939 975.941 297.02 975.258 298.113C974.602 299.207 974.014 300.287 973.494 301.354C972.975 302.42 972.428 303.363 971.854 304.184C971.307 305.004 970.678 305.674 969.967 306.193C969.256 306.686 968.381 306.932 967.342 306.932C966.002 306.932 965.004 306.59 964.348 305.906C963.719 305.223 963.404 304.252 963.404 302.994C963.404 301.736 963.746 300.369 964.43 298.893C965.113 297.389 966.084 295.885 967.342 294.381C968.6 292.877 970.117 291.441 971.895 290.074C973.699 288.68 975.723 287.449 977.965 286.383C980.207 285.316 982.641 284.469 985.266 283.84C987.918 283.184 990.707 282.855 993.633 282.855C996.367 282.855 998.992 283.252 1001.51 284.045C1004.05 284.811 1006.29 285.973 1008.23 287.531C1010.18 289.09 1011.72 291.045 1012.87 293.396C1014.04 295.721 1014.63 298.455 1014.63 301.6C1014.63 304.471 1013.94 307.068 1012.54 309.393C1011.17 311.689 1009.31 313.645 1006.96 315.258C1004.64 316.844 1001.95 318.074 998.883 318.949C995.82 319.797 992.594 320.221 989.203 320.221C988.492 320.221 987.768 320.207 987.029 320.18C986.318 320.152 985.607 320.084 984.896 319.975ZM1016.68 306.521C1016.68 305.893 1016.79 305.25 1017.01 304.594C1017.26 303.91 1017.61 303.295 1018.08 302.748C1018.54 302.201 1019.12 301.75 1019.8 301.395C1020.51 301.039 1021.35 300.861 1022.3 300.861C1023.89 300.861 1025 301.176 1025.62 301.805C1026.25 302.406 1026.57 303.172 1026.57 304.102C1026.57 304.621 1026.46 305.195 1026.24 305.824C1026.05 306.453 1025.75 307.041 1025.34 307.588C1024.93 308.107 1024.39 308.545 1023.74 308.9C1023.08 309.256 1022.3 309.434 1021.4 309.434C1019.71 309.434 1018.52 309.174 1017.83 308.654C1017.15 308.107 1016.77 307.396 1016.68 306.521ZM1012.17 315.75C1012.64 314.984 1013.17 314.438 1013.77 314.109C1014.37 313.781 1014.99 313.617 1015.62 313.617C1016.66 313.617 1017.54 313.959 1018.28 314.643C1019.05 315.299 1019.43 316.146 1019.43 317.186C1019.4 317.432 1019.36 317.678 1019.31 317.924C1019.28 318.17 1019.2 318.416 1019.06 318.662C1018.68 319.373 1018.37 319.975 1018.12 320.467C1017.87 320.959 1017.64 321.424 1017.42 321.861C1017.23 322.271 1017.04 322.682 1016.85 323.092C1016.66 323.502 1016.42 323.994 1016.15 324.568C1015.82 325.252 1015.45 326.004 1015.04 326.824C1014.63 327.617 1014.24 328.438 1013.85 329.285C1013.5 330.133 1013.18 330.967 1012.91 331.787C1012.66 332.607 1012.54 333.359 1012.54 334.043C1012.54 334.781 1012.72 335.273 1013.07 335.52C1013.46 335.738 1013.99 335.848 1014.67 335.848C1015.44 335.848 1016.23 335.684 1017.05 335.355C1017.9 335.027 1018.75 334.604 1019.6 334.084C1020.44 333.564 1021.28 332.977 1022.1 332.32C1022.92 331.637 1023.68 330.953 1024.39 330.27C1025.13 329.586 1025.8 328.93 1026.4 328.301C1027.03 327.672 1027.55 327.111 1027.96 326.619C1028.51 326.1 1029.06 325.84 1029.6 325.84C1030.1 325.84 1030.49 326.059 1030.79 326.496C1031.12 326.934 1031.29 327.494 1031.29 328.178C1031.29 328.807 1031.12 329.477 1030.79 330.188C1030.49 330.898 1029.99 331.568 1029.28 332.197C1027.88 333.619 1026.46 334.986 1025.01 336.299C1023.56 337.584 1022.07 338.732 1020.54 339.744C1019.04 340.729 1017.52 341.521 1015.99 342.123C1014.46 342.725 1012.91 343.025 1011.35 343.025C1009.14 343.025 1007.39 342.465 1006.1 341.344C1004.84 340.195 1004.21 338.418 1004.21 336.012C1004.21 334.754 1004.39 333.523 1004.75 332.32C1005.1 331.117 1005.53 329.955 1006.02 328.834C1006.51 327.686 1007.03 326.592 1007.58 325.553C1008.12 324.486 1008.59 323.475 1008.97 322.518C1009.11 322.162 1009.34 321.615 1009.67 320.877C1010.03 320.139 1010.39 319.387 1010.78 318.621C1011.21 317.719 1011.68 316.762 1012.17 315.75ZM1033.05 317.104C1033.6 315.928 1034.28 315.053 1035.1 314.479C1035.92 313.904 1036.73 313.617 1037.52 313.617C1038.18 313.617 1038.76 313.863 1039.28 314.355C1039.8 314.82 1040.06 315.518 1040.06 316.447C1040.06 316.803 1040.02 317.186 1039.94 317.596C1039.86 318.006 1039.71 318.443 1039.49 318.908C1040.09 318.143 1040.95 317.363 1042.07 316.57C1043.19 315.75 1044.42 315.025 1045.76 314.396C1047.13 313.74 1048.53 313.207 1049.95 312.797C1051.4 312.387 1052.76 312.182 1054.05 312.182C1055.5 312.182 1056.7 312.537 1057.66 313.248C1058.64 313.932 1059.13 315.107 1059.13 316.775C1059.13 317.76 1058.98 318.785 1058.68 319.852C1058.38 320.918 1057.99 321.984 1057.49 323.051C1057.03 324.117 1056.5 325.17 1055.89 326.209C1055.32 327.221 1054.75 328.178 1054.17 329.08C1053.6 329.982 1053.06 330.816 1052.57 331.582C1052.11 332.32 1051.74 332.936 1051.46 333.428C1051.11 333.865 1050.93 334.371 1050.93 334.945C1050.93 335.164 1051 335.355 1051.14 335.52C1051.27 335.684 1051.49 335.766 1051.79 335.766C1051.98 335.766 1052.2 335.752 1052.45 335.725C1052.7 335.67 1053 335.52 1053.35 335.273C1054.83 334.727 1056.33 334.043 1057.86 333.223C1059.42 332.402 1060.91 331.541 1062.33 330.639C1063.76 329.709 1065.05 328.793 1066.23 327.891C1067.43 326.961 1068.43 326.127 1069.22 325.389C1069.44 325.197 1069.66 325.061 1069.88 324.979C1070.1 324.896 1070.3 324.855 1070.5 324.855C1070.96 324.855 1071.32 325.033 1071.56 325.389C1071.84 325.744 1071.97 326.195 1071.97 326.742C1071.97 327.59 1071.7 328.533 1071.15 329.572C1070.63 330.611 1069.8 331.582 1068.65 332.484C1067.09 333.605 1065.66 334.631 1064.34 335.561C1063.06 336.49 1061.73 337.365 1060.37 338.186C1059.03 338.979 1057.58 339.73 1056.02 340.441C1054.49 341.125 1052.68 341.768 1050.6 342.369C1049.89 342.588 1049.24 342.752 1048.63 342.861C1048.06 342.971 1047.53 343.025 1047.04 343.025C1045.59 343.025 1044.52 342.629 1043.84 341.836C1043.18 341.016 1042.85 339.881 1042.85 338.432C1042.85 338.24 1042.85 338.062 1042.85 337.898C1042.88 337.707 1042.91 337.502 1042.93 337.283C1042.99 336.436 1043.21 335.506 1043.59 334.494C1044 333.482 1044.48 332.443 1045.03 331.377C1045.6 330.311 1046.2 329.258 1046.83 328.219C1047.46 327.152 1048.03 326.154 1048.55 325.225C1049.1 324.268 1049.55 323.42 1049.91 322.682C1050.26 321.943 1050.44 321.342 1050.44 320.877C1050.44 320.467 1050.32 320.125 1050.07 319.852C1049.85 319.551 1049.51 319.4 1049.04 319.4C1047.29 319.4 1045.63 319.92 1044.04 320.959C1042.48 321.998 1041.02 323.283 1039.65 324.814C1038.29 326.318 1037.03 327.918 1035.88 329.613C1034.73 331.309 1033.72 332.826 1032.84 334.166C1032.3 335.068 1031.79 336.039 1031.33 337.078C1030.89 338.09 1030.42 339.047 1029.93 339.949C1029.44 340.824 1028.88 341.549 1028.25 342.123C1027.65 342.725 1026.88 343.025 1025.95 343.025C1025 343.025 1024.24 342.725 1023.7 342.123C1023.15 341.521 1022.88 340.783 1022.88 339.908C1022.88 339.443 1023.07 338.691 1023.45 337.652C1023.83 336.613 1024.33 335.41 1024.93 334.043C1025.53 332.676 1026.2 331.213 1026.94 329.654C1027.7 328.068 1028.46 326.51 1029.19 324.979C1029.96 323.42 1030.68 321.957 1031.37 320.59C1032.05 319.223 1032.61 318.061 1033.05 317.104Z" fill="#232323"/>
<path d="M861.312 414.25V410.375H879.844V414.25H872.906V433H868.25V414.25H861.312ZM887.875 433.344C882.672 433.328 879.484 429.969 879.5 424.594C879.484 419.359 882.719 415.812 887.688 415.812C892.141 415.812 895.656 418.625 895.656 424.406V425.719H884.062C884.062 428.281 885.578 429.859 887.969 429.875C889.547 429.859 890.672 429.172 891.125 428.156H895.531C894.875 431.297 892.062 433.328 887.875 433.344ZM884.062 422.812H891.281C891.266 420.75 889.844 419.266 887.781 419.281C885.656 419.266 884.156 420.859 884.062 422.812ZM897.75 428.25C897.766 424.469 900.797 423.234 904.062 423.031C905.281 422.953 907.562 422.844 908.281 422.812V421.438C908.266 420.016 907.297 419.203 905.562 419.188C903.984 419.203 903 419.906 902.75 421.062H898.344C898.625 418.125 901.188 415.812 905.688 415.812C909.391 415.812 912.891 417.469 912.875 421.562V433H908.5V430.656H908.375C907.547 432.219 905.922 433.328 903.406 433.312C900.156 433.328 897.766 431.609 897.75 428.25ZM902.188 428.125C902.188 429.422 903.234 430.109 904.719 430.125C906.828 430.109 908.297 428.734 908.281 426.938V425.703C907.578 425.734 905.594 425.844 904.812 425.906C903.203 426.047 902.188 426.812 902.188 428.125ZM916.406 433V416.031H920.812V419H921C921.719 417.016 923.438 415.812 925.719 415.812C928.047 415.812 929.781 417.047 930.344 419H930.5C931.203 417.078 933.141 415.812 935.625 415.812C938.766 415.812 940.969 417.891 940.969 421.594V433H936.344V422.5C936.359 420.562 935.203 419.625 933.688 419.625C931.953 419.625 930.922 420.828 930.938 422.625V433H926.438V422.375C926.453 420.703 925.391 419.625 923.812 419.625C922.234 419.625 921.016 420.891 921.031 422.812V433H916.406ZM976.875 423.125V426.312H965.812V435.875H961.875V426.312H950.938V423.125H976.875ZM952.219 418.344C957.969 417.641 961.156 414.859 961.578 412.062H953.281V408.938H974.562V412.062H966.266C966.672 414.859 969.812 417.641 975.656 418.344L974.219 421.469C969.219 420.797 965.641 418.672 963.922 415.75C962.188 418.672 958.641 420.797 953.688 421.469L952.219 418.344ZM1001.88 409.938V413.25C1001.86 417.391 1001.86 421.328 1000.56 427.5L996.594 427.125C997.156 424.766 997.484 422.672 997.688 420.75L981.188 421.562L980.688 418.375L997.891 417.75C997.953 416.188 997.969 414.719 997.969 413.25V413.125H981.562V409.938H1001.88ZM978.594 432.469V429.219H1004.53V432.469H978.594ZM1028.81 407.438V414.406H1032.66V417.625H1028.81V424.531H1024.81V407.438H1028.81ZM1007.09 423.031V409.219H1011.06V413H1016.88V409.219H1020.88V423.031H1007.09ZM1009.66 428.938V425.781H1028.81V435.875H1024.81V428.938H1009.66ZM1011.06 419.875H1016.88V416.094H1011.06V419.875ZM1048.88 411.188C1048.86 415.359 1052.56 419.812 1059 420.906L1057.25 424.219C1052.28 423.234 1048.61 420.438 1046.77 416.797C1044.89 420.406 1041.2 423.219 1036.28 424.219L1034.56 420.906C1040.89 419.781 1044.59 415.312 1044.62 411.188V409.125H1048.88V411.188ZM1033.91 432.375V429.094H1059.94V432.375H1033.91Z" fill="#232323"/>
<path d="M853.099 445.742V457.054H852.096V445.742H853.099ZM844.212 450.554C844.219 448.154 845.412 446.625 847.094 446.618C848.77 446.625 849.982 448.154 849.976 450.554C849.982 452.959 848.77 454.483 847.094 454.477C845.412 454.483 844.219 452.959 844.212 450.554ZM845.177 450.554C845.177 452.388 845.964 453.594 847.094 453.588C848.23 453.594 849.011 452.388 849.011 450.554C849.011 448.719 848.23 447.513 847.094 447.507C845.964 447.513 845.177 448.719 845.177 450.554ZM863.789 445.742V450.554H865.591V451.392H863.789V457.028H862.786V445.742H863.789ZM854.889 454.02C855.81 454.02 856.882 454.013 858 453.981V452.737C856.686 452.585 855.829 451.811 855.841 450.693C855.829 449.417 856.908 448.592 858.507 448.599C860.082 448.592 861.18 449.417 861.186 450.693C861.18 451.817 860.31 452.585 859.002 452.737V453.943C860.05 453.893 861.116 453.804 862.1 453.664L862.164 454.426C859.701 454.845 857.035 454.87 855.054 454.87L854.889 454.02ZM855.092 447.938V447.126H858V445.768H859.002V447.126H861.897V447.938H855.092ZM856.768 450.693C856.774 451.474 857.46 451.988 858.507 451.976C859.536 451.988 860.228 451.474 860.234 450.693C860.228 449.906 859.536 449.373 858.507 449.373C857.46 449.373 856.774 449.906 856.768 450.693ZM869.298 446.618C870.333 446.625 871.177 447.228 871.666 448.269H874.63V445.742H875.621V457.054H874.63V452.674H871.736C871.266 453.816 870.39 454.483 869.298 454.477C867.629 454.483 866.461 452.959 866.467 450.554C866.461 448.154 867.629 446.625 869.298 446.618ZM867.419 450.554C867.426 452.388 868.188 453.594 869.298 453.588C870.403 453.594 871.177 452.388 871.177 450.554C871.177 448.719 870.403 447.513 869.298 447.507C868.188 447.513 867.426 448.719 867.419 450.554ZM871.952 449.106C872.06 449.544 872.117 450.027 872.117 450.554C872.117 451.017 872.072 451.455 871.99 451.849H874.63V449.106H871.952ZM887.148 445.742V457.028H886.196V451.112H884.533V456.444H883.619V445.996H884.533V450.287H886.196V445.742H887.148ZM877.918 454.235V447.126H882.146V447.951H878.909V453.385C880.464 453.378 881.537 453.321 882.793 453.067L882.882 453.905C881.524 454.185 880.375 454.229 878.642 454.235H877.918ZM901.557 445.742V452.737H900.605V445.742H901.557ZM891.934 450.135C893.496 450.135 896.047 450.109 897.939 449.817L898.015 450.49C897.228 450.655 896.365 450.757 895.514 450.82V452.699H894.549V450.877C893.616 450.922 892.747 450.922 892.048 450.922L891.934 450.135ZM892.531 447.824C892.531 446.777 893.515 446.148 894.994 446.148C896.466 446.148 897.463 446.777 897.469 447.824C897.463 448.846 896.466 449.494 894.994 449.487C893.515 449.494 892.531 448.846 892.531 447.824ZM893.445 447.824C893.445 448.402 894.048 448.764 894.994 448.764C895.939 448.764 896.562 448.402 896.568 447.824C896.562 447.228 895.939 446.859 894.994 446.872C894.048 446.859 893.445 447.228 893.445 447.824ZM893.953 456.876V453.144H894.93V454.21H900.567V453.144H901.557V456.876H893.953ZM894.93 456.076H900.567V455.01H894.93V456.076ZM896.555 452.052V451.328H898.561V445.945H899.513V452.699H898.561V452.052H896.555ZM916.131 445.742V457.028H915.154V451.125H913.592V456.47H912.64V446.047H913.592V450.3H915.154V445.742H916.131ZM906.508 453.905C909.13 452.439 910.209 450.376 910.38 448.04H906.94V447.215H911.358C911.345 450.084 910.336 452.794 907.092 454.604L906.508 453.905ZM919.191 446.225V447.85H922.479V446.225H923.469V451.138H918.213V446.225H919.191ZM919.191 450.325H922.479V448.624H919.191V450.325ZM919.356 452.915V452.115H926.554V454.845H920.359V456.089H926.973V456.901H919.381V454.083H925.564V452.915H919.356ZM925.564 451.582V445.742H926.554V448.192H928.255V449.03H926.554V451.582H925.564ZM942.525 451.328V452.128H932.229V451.328H936.888V450.008H933.537V446.275H941.243V447.075H934.514V449.195H941.319V450.008H937.853V451.328H942.525ZM933.473 454.984C933.467 453.696 934.933 452.959 937.371 452.953C939.789 452.959 941.243 453.696 941.255 454.984C941.243 456.286 939.789 457.016 937.371 457.028C934.933 457.016 933.467 456.286 933.473 454.984ZM934.489 454.984C934.476 455.778 935.562 456.235 937.371 456.229C939.161 456.235 940.246 455.778 940.252 454.984C940.246 454.204 939.161 453.74 937.371 453.74C935.562 453.74 934.476 454.204 934.489 454.984ZM946.486 446.618C948.149 446.625 949.33 448.154 949.342 450.554C949.33 452.959 948.149 454.483 946.486 454.477C944.81 454.483 943.636 452.959 943.642 450.554C943.636 448.154 944.81 446.625 946.486 446.618ZM944.582 450.554C944.588 452.388 945.369 453.594 946.486 453.588C947.616 453.594 948.377 452.388 948.377 450.554C948.377 448.719 947.616 447.513 946.486 447.507C945.369 447.513 944.588 448.719 944.582 450.554ZM951.208 457.028V445.742H952.199V450.249H954.09V451.112H952.199V457.028H951.208ZM964.018 445.742V457.054H963.028V445.742H964.018ZM955.334 447.621V446.796H960.59V450.808H956.375V453.474C958.248 453.48 959.917 453.391 961.936 453.067L962.038 453.905C959.962 454.229 958.248 454.312 956.299 454.312H955.36V449.995H959.587V447.621H955.334ZM969.756 456V446.809H975.33V447.824H970.899V450.896H975.038V451.899H970.899V454.984H975.393V456H969.756ZM977.132 456V446.809H982.667V447.824H978.275V450.896H982.249V451.899H978.275V456H977.132ZM990.386 446.809H991.529V452.89C991.529 454.781 990.113 456.159 987.949 456.165C985.778 456.159 984.369 454.781 984.369 452.89V446.809H985.511V452.801C985.505 454.134 986.432 455.092 987.949 455.099C989.466 455.092 990.38 454.134 990.386 452.801V446.809ZM993.56 456V446.809H996.785C998.714 446.809 999.622 447.894 999.616 449.246C999.622 450.427 998.917 450.954 998.118 451.176V451.265C998.975 451.315 999.978 452.103 999.984 453.562C999.978 454.94 999.07 456 996.899 456H993.56ZM994.703 454.984H996.886C998.327 454.984 998.886 454.35 998.879 453.55C998.886 452.617 998.13 451.823 996.95 451.823H994.703V454.984ZM994.703 450.833H996.747C997.743 450.839 998.524 450.217 998.524 449.259C998.524 448.459 997.984 447.824 996.785 447.824H994.703V450.833ZM1004.49 454.121V453.182L1008.63 446.809H1010.04V453.118H1011.32V454.121H1010.04V456H1008.95V454.121H1004.49ZM1005.72 453.118H1008.95V448.256H1008.83L1005.72 453.042V453.118ZM1021.76 445.742V457.028H1020.75V445.742H1021.76ZM1012.56 454.096C1015.62 452.648 1017.18 450.484 1017.4 447.786H1013.09V446.974H1018.42C1018.4 450.217 1016.89 453.093 1013.11 454.908L1012.56 454.096ZM1032.5 449.119C1032.4 448.218 1031.56 447.697 1030.47 447.697C1029.25 447.697 1028.45 448.332 1028.45 449.208C1028.45 450.173 1029.53 450.535 1030.22 450.706L1031.14 450.96C1032.12 451.214 1033.74 451.779 1033.74 453.499C1033.74 454.997 1032.53 456.159 1030.4 456.165C1028.42 456.159 1027.2 455.137 1027.09 453.613H1028.26C1028.35 454.642 1029.31 455.13 1030.4 455.124C1031.67 455.13 1032.62 454.477 1032.62 453.474C1032.62 452.579 1031.77 452.236 1030.81 451.963L1029.68 451.658C1028.24 451.239 1027.34 450.503 1027.34 449.259C1027.34 447.704 1028.72 446.682 1030.5 446.682C1032.29 446.682 1033.57 447.723 1033.61 449.119H1032.5ZM1037.08 456L1034.57 446.809H1035.72L1037.64 454.248H1037.73L1039.67 446.809H1040.95L1042.91 454.248H1042.98L1044.9 446.809H1046.06L1043.54 456H1042.36L1040.35 448.726H1040.28L1038.26 456H1037.08ZM1052.28 449.119C1052.18 448.218 1051.34 447.697 1050.24 447.697C1049.03 447.697 1048.23 448.332 1048.23 449.208C1048.23 450.173 1049.31 450.535 1050 450.706L1050.92 450.96C1051.9 451.214 1053.52 451.779 1053.52 453.499C1053.52 454.997 1052.31 456.159 1050.18 456.165C1048.2 456.159 1046.98 455.137 1046.87 453.613H1048.04C1048.13 454.642 1049.09 455.13 1050.18 455.124C1051.45 455.13 1052.4 454.477 1052.4 453.474C1052.4 452.579 1051.55 452.236 1050.59 451.963L1049.46 451.658C1048.02 451.239 1047.12 450.503 1047.12 449.259C1047.12 447.704 1048.5 446.682 1050.28 446.682C1052.07 446.682 1053.35 447.723 1053.39 449.119H1052.28ZM1061.44 456.127C1059.61 456.127 1058.3 455.149 1058.24 453.689H1059.4C1059.46 454.565 1060.33 455.111 1061.43 455.111C1062.64 455.111 1063.52 454.458 1063.52 453.499C1063.52 452.496 1062.72 451.792 1061.29 451.785H1060.54V450.782H1061.29C1062.41 450.782 1063.19 450.154 1063.18 449.208C1063.19 448.288 1062.51 447.678 1061.47 447.672C1060.48 447.678 1059.59 448.218 1059.54 449.119H1058.43C1058.49 447.659 1059.85 446.682 1061.48 446.682C1063.23 446.682 1064.3 447.831 1064.29 449.145C1064.3 450.192 1063.69 450.954 1062.72 451.227V451.29C1063.92 451.474 1064.65 452.331 1064.64 453.499C1064.65 455.01 1063.28 456.127 1061.44 456.127ZM1071.95 446.44V447.266H1067.55V448.675H1071.64V449.475H1067.55V450.973C1069.95 450.979 1071.29 450.928 1072.88 450.655L1072.98 451.468C1071.34 451.753 1069.95 451.792 1067.46 451.785H1066.55V446.44H1071.95ZM1067.87 456.876V453.042H1075.2V456.876H1067.87ZM1068.84 456.063H1074.23V453.842H1068.84V456.063ZM1074.21 452.483V445.755H1075.2V452.483H1074.21Z" fill="#232323"/>
<defs>
<filter id="filter0_b_2349_4928" x="338" y="-4" width="1245" height="1245" filterUnits="userSpaceOnUse" color-interpolation-filters="sRGB">
<feFlood flood-opacity="0" result="BackgroundImageFix"/>
<feGaussianBlur in="BackgroundImageFix" stdDeviation="2"/>
<feComposite in2="SourceAlpha" operator="in" result="effect1_backgroundBlur_2349_4928"/>
<feBlend mode="normal" in="SourceGraphic" in2="effect1_backgroundBlur_2349_4928" result="shape"/>
</filter>
</defs>
</svg>
