<svg width="240" height="29" viewBox="0 0 240 29" fill="none" xmlns="http://www.w3.org/2000/svg">
<path d="M13.125 0.96875C19.4375 0.96875 23.4375 3.0625 23.4688 6.53125C23.4375 9.96875 19.4375 12.0625 13.125 12.0312C6.84375 12.0625 2.75 9.96875 2.75 6.53125C2.75 3.0625 6.84375 0.96875 13.125 0.96875ZM13.125 4.0625C9.15625 4.0625 6.875 4.90625 6.90625 6.53125C6.875 8.125 9.15625 8.9375 13.125 8.9375C17.0625 8.9375 19.3438 8.125 19.3438 6.53125C19.3438 4.90625 17.0625 4.0625 13.125 4.0625ZM23 18.875V28.5625H3.15625V18.875H23ZM7.09375 22.0312V25.375H19.0938V22.0312H7.09375ZM26.0938 13.6875V16.875H0.15625V13.6875H26.0938ZM35.8125 2C40.2188 1.96875 43.5625 4.90625 43.5625 8.90625C43.5625 13 40.2188 15.875 35.8125 15.875C31.375 15.875 28 13 28 8.90625C28 4.90625 31.375 1.96875 35.8125 2ZM35.8125 5.40625C33.5625 5.40625 31.9062 6.6875 31.9375 8.90625C31.9062 11.1875 33.5625 12.5 35.8125 12.5C38 12.5 39.6562 11.1875 39.6875 8.90625C39.6562 6.6875 38 5.40625 35.8125 5.40625ZM50.375 0.4375V7.125H54.2188V10.375H50.375V17.0625H46.375V0.4375H50.375ZM50.375 18.25V28.9062H46.375V21.4688H31.2188V18.25H50.375ZM73.875 8.1875C73.875 12.7812 76.2188 17.6875 81 19.6875L78.8438 22.8125C75.4844 21.3906 73.1719 18.5625 71.9062 15.0938C70.6094 18.8594 68.25 21.9844 64.9062 23.5312L62.625 20.375C67.3438 18.2812 69.7812 13 69.7812 8.1875V6.4375H63.75V3.1875H79.8125V6.4375H73.875V8.1875ZM86.6562 0.4375V28.875H82.625V0.4375H86.6562ZM113.688 13.1562V16.3125H105.438V22.375H116.531V25.625H90.5V22.375H101.469V16.3125H93.5625V2.4375H113.469V5.625H97.5625V13.1562H113.688ZM151.562 22.3125V25.5625H125.531V22.3125H136.5V17.0625H128.281V2.25H132.281V6.65625H144.688V2.25H148.656V17.0625H140.469V22.3125H151.562ZM132.281 13.875H144.688V9.84375H132.281V13.875ZM177.156 0.4375V28.9375H173.188V13.9375H168.594V10.6875H173.188V0.4375H177.156ZM167 2.8125V13.4688H158.156V19.0312C162.078 19 165.406 18.8594 169.062 18.2188L169.375 21.4688C165.156 22.1562 161.281 22.3125 156.531 22.3125H154.188V10.3125H163.125V6.03125H154.125V2.8125H167ZM210.656 0.4375V11.3438H214.688V14.625H210.656V28.8125H206.656V0.4375H210.656ZM203.062 3.34375C203.031 11.8438 199.719 19.2188 190.156 23.9062L187.906 20.8438C194.641 17.4688 198.25 12.9375 199 6.59375H189.531V3.34375H203.062ZM239.781 0.4375V28.875H235.75V0.4375H239.781ZM231.25 3.40625C231.25 12.0312 228.219 19.1875 218.062 24L215.969 20.8125C223.312 17.3438 226.547 12.8438 227.188 6.53125H217.5V3.40625H231.25Z" fill="#232323"/>
</svg>
