<svg width="630.7" height="329" viewBox="0 0 901 470" fill="none" xmlns="http://www.w3.org/2000/svg">
<g filter="url(#filter0_b_226_33)">
<path d="M782.801 317.52C820.682 265.24 816.127 191.615 769.135 144.611C718.307 93.7692 636.79 92.3303 584.283 140.534V133.819C584.283 59.9548 524.345 0 450.5 0C376.655 0 316.717 59.9548 316.717 133.819V140.534C264.21 92.5702 182.693 93.7692 131.865 144.611C84.6336 191.855 80.0782 265.24 118.199 317.52C51.7871 325.195 0 381.792 0 450.38C0 524.244 59.9388 584.199 133.783 584.199H140.497L132.105 592.593C79.8385 644.873 79.8385 729.529 132.105 781.81C183.173 832.891 265.649 834.091 317.915 784.688C326.547 850.158 382.649 901 450.5 901C518.351 901 574.453 850.398 583.085 784.688C635.591 833.851 717.827 832.891 768.895 781.81C821.162 729.529 821.162 644.873 768.895 592.593L760.504 584.199H767.217C841.061 584.199 901 524.244 901 450.38C900.76 381.792 849.213 325.195 782.801 317.52Z" fill="#24EE81"/>
<path d="M781.181 316.347L779.176 319.115L782.571 319.507C847.98 327.065 898.764 382.815 899 450.387C898.996 523.144 839.954 582.199 767.217 582.199H760.504H755.676L759.089 585.613L767.481 594.007C818.966 645.506 818.966 728.896 767.481 780.396C717.181 830.709 636.176 831.659 584.452 783.228L581.609 780.566L581.102 784.427C572.599 849.157 517.332 899 450.5 899C383.671 899 328.401 848.92 319.898 784.426L319.387 780.545L316.542 783.234C265.065 831.891 183.825 830.714 133.52 780.396C82.0337 728.896 82.0337 645.506 133.52 594.007L141.911 585.613L145.324 582.199H140.497H133.783C61.0439 582.199 2 523.14 2 450.38C2 382.82 53.0136 327.066 118.429 319.507L121.836 319.113L119.815 316.342C82.2668 264.847 86.7537 192.563 133.28 146.025C183.344 95.9471 263.643 94.761 315.368 142.011L318.717 145.07V140.534V133.819C318.717 61.0588 377.76 2 450.5 2C523.24 2 582.283 61.0588 582.283 133.819V140.534V145.085L585.636 142.007C637.355 94.5265 717.652 95.9429 767.72 146.025C814.004 192.321 818.497 264.847 781.181 316.347Z" stroke="#FCFCFC" stroke-width="4"/>
</g>
<path d="M343.125 325.969C349.453 325.953 353.453 328.062 353.469 331.531C353.453 334.984 349.453 337.047 343.125 337.031C336.828 337.047 332.75 334.984 332.75 331.531C332.75 328.062 336.828 325.953 343.125 325.969ZM330.156 341.875V338.688H356.094V341.875H330.156ZM333.156 353.562V343.875H353V353.562H333.156ZM336.906 331.531C336.875 333.125 339.141 333.938 343.125 333.938C347.047 333.938 349.344 333.125 349.344 331.531C349.344 329.891 347.047 329.062 343.125 329.062C339.141 329.062 336.875 329.891 336.906 331.531ZM337.094 350.375H349.094V347.031H337.094V350.375ZM365.812 327C370.219 326.984 373.562 329.891 373.562 333.906C373.562 338.016 370.219 340.891 365.812 340.875C361.359 340.891 357.984 338.016 358 333.906C357.984 329.891 361.359 326.984 365.812 327ZM361.219 346.469V343.25H380.375V353.906H376.375V346.469H361.219ZM361.938 333.906C361.906 336.203 363.578 337.516 365.812 337.5C368 337.516 369.672 336.203 369.688 333.906C369.672 331.688 368 330.391 365.812 330.406C363.578 330.391 361.906 331.688 361.938 333.906ZM376.375 342.062V325.438H380.375V332.125H384.219V335.375H380.375V342.062H376.375ZM403.875 333.188C403.859 337.781 406.234 342.703 411 344.688L408.844 347.812C405.5 346.391 403.188 343.562 401.906 340.125C400.625 343.859 398.266 346.984 394.906 348.531L392.625 345.375C397.344 343.266 399.781 338 399.781 333.188V331.438H393.75V328.188H409.812V331.438H403.875V333.188ZM412.625 353.875V325.438H416.656V353.875H412.625ZM443.688 338.156V341.312H435.438V347.375H446.531V350.625H420.5V347.375H431.469V341.312H423.562V327.438H443.469V330.625H427.562V338.156H443.688ZM481.562 347.312V350.562H455.531V347.312H466.5V342.062H458.281V327.25H462.281V331.656H474.688V327.25H478.656V342.062H470.469V347.312H481.562ZM462.281 338.875H474.688V334.844H462.281V338.875ZM507.156 325.438V353.938H503.188V338.938H498.594V335.688H503.188V325.438H507.156ZM484.125 331.031V327.812H497V338.469H488.156V344.031C492.078 344 495.391 343.859 499.062 343.219L499.375 346.469C495.156 347.172 491.297 347.328 486.531 347.312H484.188V335.312H493.125V331.031H484.125ZM540.656 325.438V336.344H544.688V339.625H540.656V353.812H536.656V325.438H540.656ZM517.906 345.844C524.641 342.469 528.266 337.938 529.016 331.594H519.531V328.344H533.062C533.031 336.844 529.719 344.203 520.156 348.906L517.906 345.844ZM569.781 325.438V353.875H565.75V325.438H569.781ZM545.969 345.812C553.312 342.344 556.547 337.844 557.188 331.531H547.5V328.406H561.25C561.234 337.031 558.219 344.203 548.062 349L545.969 345.812Z" fill="#232323"/>
<defs>
<filter id="filter0_b_226_33" x="-4" y="-4" width="909" height="909" filterUnits="userSpaceOnUse" color-interpolation-filters="sRGB">
<feFlood flood-opacity="0" result="BackgroundImageFix"/>
<feGaussianBlur in="BackgroundImageFix" stdDeviation="2"/>
<feComposite in2="SourceAlpha" operator="in" result="effect1_backgroundBlur_226_33"/>
<feBlend mode="normal" in="SourceGraphic" in2="effect1_backgroundBlur_226_33" result="shape"/>
</filter>
</defs>
</svg>
