<svg width="901" height="470" viewBox="0 0 901 470" fill="none" xmlns="http://www.w3.org/2000/svg">
<g filter="url(#filter0_b_226_33)">
<path d="M782.801 317.52C820.682 265.24 816.127 191.615 769.135 144.611C718.307 93.7692 636.79 92.3303 584.283 140.534V133.819C584.283 59.9548 524.345 0 450.5 0C376.655 0 316.717 59.9548 316.717 133.819V140.534C264.21 92.5701 182.693 93.7692 131.865 144.611C84.6336 191.855 80.0782 265.24 118.199 317.52C51.7871 325.195 0 381.792 0 450.38C0 524.244 59.9388 584.199 133.783 584.199H140.497L132.105 592.593C79.8385 644.873 79.8385 729.529 132.105 781.81C183.173 832.891 265.649 834.091 317.915 784.688C326.547 850.158 382.649 901 450.5 901C518.351 901 574.453 850.398 583.085 784.688C635.591 833.851 717.827 832.891 768.895 781.81C821.162 729.529 821.162 644.873 768.895 592.593L760.504 584.199H767.217C841.061 584.199 901 524.244 901 450.38C900.76 381.792 849.213 325.195 782.801 317.52Z" fill="#24EE81"/>
<path d="M781.181 316.347L779.176 319.115L782.571 319.507C847.98 327.065 898.764 382.815 899 450.387C898.996 523.144 839.954 582.199 767.217 582.199H760.504H755.676L759.089 585.613L767.481 594.007C818.966 645.506 818.966 728.896 767.481 780.396C717.181 830.709 636.176 831.659 584.452 783.228L581.609 780.566L581.102 784.427C572.599 849.157 517.332 899 450.5 899C383.671 899 328.401 848.92 319.898 784.426L319.387 780.545L316.542 783.234C265.065 831.891 183.825 830.714 133.52 780.396C82.0337 728.896 82.0337 645.506 133.52 594.007L141.911 585.613L145.324 582.199H140.497H133.783C61.0439 582.199 2 523.14 2 450.38C2 382.82 53.0136 327.066 118.429 319.507L121.836 319.113L119.815 316.342C82.2668 264.847 86.7537 192.563 133.28 146.025C183.344 95.9471 263.643 94.761 315.368 142.011L318.717 145.07V140.534V133.819C318.717 61.0588 377.76 2 450.5 2C523.24 2 582.283 61.0588 582.283 133.819V140.534V145.085L585.636 142.007C637.355 94.5265 717.652 95.9429 767.72 146.025C814.004 192.321 818.497 264.847 781.181 316.347Z" stroke="white" stroke-width="4"/>
</g>
<path d="M346.812 325.969C353.141 325.953 357.141 328.062 357.156 331.531C357.141 334.984 353.141 337.047 346.812 337.031C340.516 337.047 336.438 334.984 336.438 331.531C336.438 328.062 340.516 325.953 346.812 325.969ZM333.844 341.875V338.688H359.781V341.875H333.844ZM336.844 353.562V343.875H356.688V353.562H336.844ZM340.594 331.531C340.562 333.125 342.828 333.938 346.812 333.938C350.734 333.938 353.031 333.125 353.031 331.531C353.031 329.891 350.734 329.062 346.812 329.062C342.828 329.062 340.562 329.891 340.594 331.531ZM340.781 350.375H352.781V347.031H340.781V350.375ZM369.5 327C373.906 326.984 377.25 329.891 377.25 333.906C377.25 338.016 373.906 340.891 369.5 340.875C365.047 340.891 361.672 338.016 361.688 333.906C361.672 329.891 365.047 326.984 369.5 327ZM364.906 346.469V343.25H384.062V353.906H380.062V346.469H364.906ZM365.625 333.906C365.594 336.203 367.266 337.516 369.5 337.5C371.688 337.516 373.359 336.203 373.375 333.906C373.359 331.688 371.688 330.391 369.5 330.406C367.266 330.391 365.594 331.688 365.625 333.906ZM380.062 342.062V325.438H384.062V332.125H387.906V335.375H384.062V342.062H380.062ZM400.188 333.188C400.172 337.781 402.547 342.703 407.312 344.688L405.156 347.812C401.812 346.391 399.5 343.562 398.219 340.125C396.938 343.859 394.578 346.984 391.219 348.531L388.938 345.375C393.656 343.266 396.094 338 396.094 333.188V331.438H390.062V328.188H406.125V331.438H400.188V333.188ZM408.938 353.875V325.438H412.969V353.875H408.938ZM440 338.156V341.312H431.75V347.375H442.844V350.625H416.812V347.375H427.781V341.312H419.875V327.438H439.781V330.625H423.875V338.156H440ZM477.875 347.312V350.562H451.844V347.312H462.812V342.062H454.594V327.25H458.594V331.656H471V327.25H474.969V342.062H466.781V347.312H477.875ZM458.594 338.875H471V334.844H458.594V338.875ZM503.469 325.438V353.938H499.5V338.938H494.906V335.688H499.5V325.438H503.469ZM480.438 331.031V327.812H493.312V338.469H484.469V344.031C488.391 344 491.703 343.859 495.375 343.219L495.688 346.469C491.469 347.172 487.609 347.328 482.844 347.312H480.5V335.312H489.438V331.031H480.438ZM536.969 325.438V336.344H541V339.625H536.969V353.812H532.969V325.438H536.969ZM514.219 345.844C520.953 342.469 524.578 337.938 525.328 331.594H515.844V328.344H529.375C529.344 336.844 526.031 344.203 516.469 348.906L514.219 345.844ZM566.094 325.438V353.875H562.062V325.438H566.094ZM542.281 345.812C549.625 342.344 552.859 337.844 553.5 331.531H543.812V328.406H557.562C557.547 337.031 554.531 344.203 544.375 349L542.281 345.812Z" fill="#232323"/>
<defs>
<filter id="filter0_b_226_33" x="-4" y="-4" width="909" height="909" filterUnits="userSpaceOnUse" color-interpolation-filters="sRGB">
<feFlood flood-opacity="0" result="BackgroundImageFix"/>
<feGaussianBlur in="BackgroundImageFix" stdDeviation="2"/>
<feComposite in2="SourceAlpha" operator="in" result="effect1_backgroundBlur_226_33"/>
<feBlend mode="normal" in="SourceGraphic" in2="effect1_backgroundBlur_226_33" result="shape"/>
</filter>
</defs>
</svg>
