<svg width="340" height="340" viewBox="0 0 567 567" fill="none" xmlns="http://www.w3.org/2000/svg">
<path d="M400.931 0C396.106 93.6959 473.304 170.894 567 166.069C497.428 228.948 497.428 338.052 567 400.931C473.304 396.106 396.106 473.304 400.931 567C338.052 497.428 228.948 497.428 166.069 567C170.894 473.304 93.6959 396.106 0 400.931C69.5715 338.052 69.5715 228.948 0 166.069C93.6959 170.894 170.894 93.6959 166.069 0C228.792 69.5715 338.052 69.5715 400.931 0Z" fill="#D8FF3B"/>
<path d="M220.078 240.219V243.469H216.047V257.812H212.047V229.438H216.047V240.219H220.078ZM194.516 250.875V232.156H198.484V247.578C202.125 247.516 206.031 247.172 210.141 246.344L210.547 249.656C205.781 250.625 201.172 250.875 196.984 250.875H194.516ZM230.484 231.344C235 231.328 238.344 234.234 238.359 238.312C238.344 242.406 235 245.297 230.484 245.312C226 245.297 222.562 242.406 222.578 238.312C222.562 234.234 226 231.328 230.484 231.344ZM221.391 248.875C226.469 248.891 233.5 248.828 239.578 247.969L239.891 250.844C233.578 252.078 226.828 252.125 221.859 252.125L221.391 248.875ZM226.547 238.312C226.531 240.562 228.234 241.859 230.484 241.844C232.75 241.859 234.469 240.562 234.484 238.312C234.469 236.094 232.75 234.781 230.484 234.781C228.234 234.781 226.531 236.094 226.547 238.312ZM241.203 257.938V229.438H245.172V257.938H241.203ZM269.266 229.969C275.594 229.953 279.594 232.062 279.609 235.531C279.594 238.984 275.594 241.047 269.266 241.031C262.969 241.047 258.891 238.984 258.891 235.531C258.891 232.062 262.969 229.953 269.266 229.969ZM256.297 245.875V242.688H282.234V245.875H256.297ZM259.297 257.562V247.875H279.141V257.562H259.297ZM263.047 235.531C263.016 237.125 265.281 237.938 269.266 237.938C273.188 237.938 275.484 237.125 275.484 235.531C275.484 233.891 273.188 233.062 269.266 233.062C265.281 233.062 263.016 233.891 263.047 235.531ZM263.234 254.375H275.234V251.031H263.234V254.375ZM291.953 231C296.359 230.984 299.703 233.891 299.703 237.906C299.703 242.016 296.359 244.891 291.953 244.875C287.5 244.891 284.125 242.016 284.141 237.906C284.125 233.891 287.5 230.984 291.953 231ZM287.359 250.469V247.25H306.516V257.906H302.516V250.469H287.359ZM288.078 237.906C288.047 240.203 289.719 241.516 291.953 241.5C294.141 241.516 295.812 240.203 295.828 237.906C295.812 235.688 294.141 234.391 291.953 234.406C289.719 234.391 288.047 235.688 288.078 237.906ZM302.516 246.062V229.438H306.516V236.125H310.359V239.375H306.516V246.062H302.516ZM322.641 237.188C322.625 241.781 325 246.703 329.766 248.688L327.609 251.812C324.266 250.391 321.953 247.562 320.672 244.125C319.391 247.859 317.031 250.984 313.672 252.531L311.391 249.375C316.109 247.266 318.547 242 318.547 237.188V235.438H312.516V232.188H328.578V235.438H322.641V237.188ZM331.391 257.875V229.438H335.422V257.875H331.391ZM362.453 242.156V245.312H354.203V251.375H365.297V254.625H339.266V251.375H350.234V245.312H342.328V231.438H362.234V234.625H346.328V242.156H362.453ZM372.922 252.688L370.234 261.594H366.922L368.484 252.688H372.922Z" fill="#232323"/>
<path d="M428.009 311.378C470.064 311.378 445.536 268.895 424.501 305.316C445.52 268.895 396.464 268.895 417.5 305.316C396.481 268.895 371.953 311.378 413.991 311.378C371.936 311.378 396.464 353.861 417.5 317.44C396.481 353.861 445.536 353.861 424.501 317.44C445.52 353.877 470.047 311.378 428.009 311.378Z" fill="#232323"/>
<path d="M429.572 296.532C428.963 297.195 428.355 297.911 427.747 298.682C438.631 271.111 403.365 271.106 414.244 298.667L421.605 345.736M429.572 296.532C429.301 297.39 428.986 298.276 428.622 299.188C447.063 275.965 464.703 306.515 435.384 310.873C436.355 311.014 437.279 311.183 438.157 311.378M429.572 296.532C431.102 291.671 431.177 287.669 430.277 284.552C428.844 279.589 424.962 277 420.994 277C417.026 277 413.145 279.589 411.714 284.552C410.816 287.667 410.892 291.663 412.42 296.518C408.981 292.769 405.558 290.706 402.413 289.927C397.4 288.686 393.217 290.753 391.233 294.189C389.754 296.75 389.544 299.988 391.015 303.013C388.999 304.544 387.586 306.83 387.198 309.448C383.389 307.149 378.365 307.631 375.074 310.923C371.95 314.048 371.347 318.718 373.265 322.441C369.082 323.597 366 327.436 366 331.992C366 336.884 369.55 340.952 374.212 341.758C371.245 345.644 371.538 351.216 375.09 354.769C378.467 358.147 383.7 358.582 387.541 356.029C388.797 360.058 392.556 362.999 397 362.999C401.446 362.999 405.209 360.067 406.462 356.024C410.309 358.567 415.529 358.151 418.91 354.769C421.364 352.315 422.262 348.896 421.605 345.736M429.572 296.532C433.017 292.774 436.446 290.707 439.597 289.927C444.611 288.686 448.795 290.753 450.78 294.189C452.764 297.625 452.463 302.281 448.881 306.002C446.632 308.339 443.13 310.274 438.157 311.378M438.157 311.378C437.279 311.573 436.355 311.742 435.383 311.883C464.679 316.244 447.056 346.787 428.633 323.588C428.996 324.5 429.312 325.385 429.582 326.243M438.157 311.378C443.126 312.483 446.625 314.418 448.872 316.756C452.452 320.478 452.752 325.136 450.767 328.573C448.783 332.01 444.6 334.078 439.587 332.835C436.442 332.056 433.02 329.993 429.582 326.243M429.582 326.243C428.974 325.58 428.365 324.864 427.758 324.094C433.092 337.612 427.323 344.497 421.345 344.748C421.449 345.074 421.535 345.403 421.605 345.736M429.582 326.243C431.109 331.095 431.184 335.09 430.286 338.203C428.928 342.916 425.359 345.489 421.605 345.736" stroke="#232323" stroke-width="2"/>
<path d="M136.943 312.154C137.736 312.154 138.311 312.482 138.666 313.139C139.049 313.768 139.24 314.492 139.24 315.312C139.24 315.723 139.199 316.078 139.117 316.379C139.035 316.68 138.871 316.967 138.625 317.24C138.379 317.486 138.051 317.732 137.641 317.979C137.23 318.197 136.697 318.443 136.041 318.717C134.51 319.373 133.307 320.166 132.432 321.096C131.557 321.998 131.119 322.9 131.119 323.803C131.119 324.377 131.311 324.924 131.693 325.443C132.076 325.963 132.678 326.428 133.498 326.838C134.318 327.221 135.371 327.535 136.656 327.781C137.969 328 139.541 328.109 141.373 328.109C143.26 328.109 145.051 327.891 146.746 327.453C148.441 326.988 149.918 326.346 151.176 325.525C152.461 324.705 153.473 323.734 154.211 322.613C154.977 321.492 155.359 320.275 155.359 318.963C155.359 317.979 154.949 316.953 154.129 315.887C153.309 314.82 152.01 313.713 150.232 312.564C147.088 310.514 144.695 308.859 143.055 307.602C141.441 306.344 140.443 305.551 140.061 305.223C138.01 303.418 136.479 301.682 135.467 300.014C134.455 298.346 133.949 296.609 133.949 294.805C133.949 293.137 134.346 291.51 135.139 289.924C135.959 288.338 137.053 286.848 138.42 285.453C139.787 284.059 141.359 282.773 143.137 281.598C144.941 280.395 146.814 279.369 148.756 278.521C150.725 277.674 152.693 277.018 154.662 276.553C156.658 276.061 158.545 275.814 160.322 275.814C161.662 275.814 162.893 275.965 164.014 276.266C165.162 276.566 166.16 277.045 167.008 277.701C167.855 278.33 168.512 279.15 168.977 280.162C169.469 281.174 169.715 282.391 169.715 283.812C169.715 285.863 169.127 287.818 167.951 289.678C166.775 291.537 164.984 293.273 162.578 294.887C161.512 295.625 160.527 295.994 159.625 295.994C158.695 295.994 157.957 295.666 157.41 295.01C156.863 294.326 156.59 293.533 156.59 292.631C156.59 291.865 156.809 291.1 157.246 290.334C157.711 289.568 158.449 288.912 159.461 288.365C160.254 287.955 160.951 287.408 161.553 286.725C162.182 286.014 162.496 285.33 162.496 284.674C162.496 284.045 162.277 283.635 161.84 283.443C161.43 283.252 160.924 283.156 160.322 283.156C159.174 283.156 157.916 283.307 156.549 283.607C155.209 283.881 153.855 284.264 152.488 284.756C151.148 285.248 149.836 285.836 148.551 286.52C147.293 287.203 146.172 287.941 145.188 288.734C144.23 289.527 143.451 290.375 142.85 291.277C142.275 292.152 141.988 293.027 141.988 293.902C141.988 294.504 142.111 295.064 142.357 295.584C142.604 296.104 142.959 296.623 143.424 297.143C143.916 297.662 144.504 298.209 145.188 298.783C145.871 299.33 146.664 299.932 147.566 300.588L157.164 307.684C158.395 308.586 159.488 309.475 160.445 310.35C161.43 311.197 162.25 312.059 162.906 312.934C163.562 313.781 164.068 314.643 164.424 315.518C164.779 316.393 164.957 317.322 164.957 318.307C164.957 320.494 164.383 322.641 163.234 324.746C162.113 326.824 160.5 328.684 158.395 330.324C156.316 331.965 153.801 333.291 150.848 334.303C147.922 335.314 144.668 335.82 141.086 335.82C137.75 335.82 134.906 335.547 132.555 335C130.23 334.48 128.316 333.77 126.812 332.867C125.309 331.938 124.215 330.885 123.531 329.709C122.848 328.506 122.506 327.248 122.506 325.936C122.506 324.568 122.848 323.188 123.531 321.793C124.242 320.371 125.227 319.031 126.484 317.773C127.77 316.516 129.301 315.395 131.078 314.41C132.855 313.426 134.811 312.674 136.943 312.154ZM184.07 312.4C182.785 312.4 181.541 312.729 180.338 313.385C179.162 314.014 178.109 314.861 177.18 315.928C176.277 316.967 175.553 318.156 175.006 319.496C174.459 320.809 174.186 322.162 174.186 323.557C174.186 324.076 174.227 324.65 174.309 325.279C174.391 325.881 174.555 326.455 174.801 327.002C175.074 327.521 175.457 327.959 175.949 328.314C176.441 328.67 177.098 328.848 177.918 328.848C179.176 328.848 180.393 328.52 181.568 327.863C182.771 327.18 183.838 326.305 184.768 325.238C185.697 324.145 186.436 322.914 186.982 321.547C187.529 320.18 187.803 318.799 187.803 317.404C187.803 316.857 187.762 316.297 187.68 315.723C187.625 315.121 187.461 314.574 187.188 314.082C186.941 313.59 186.572 313.193 186.08 312.893C185.588 312.564 184.918 312.4 184.07 312.4ZM186.203 305.182C187.242 305.182 188.35 305.318 189.525 305.592C190.729 305.865 191.836 306.33 192.848 306.986C193.859 307.643 194.693 308.518 195.35 309.611C196.033 310.678 196.375 312.004 196.375 313.59C196.375 314.41 196.266 315.354 196.047 316.42C195.828 317.459 195.5 318.553 195.062 319.701C195.336 320.029 195.65 320.262 196.006 320.398C196.361 320.535 196.744 320.604 197.154 320.604C197.729 320.604 198.357 320.439 199.041 320.111C199.752 319.783 200.477 319.359 201.215 318.84C201.953 318.32 202.691 317.732 203.43 317.076C204.168 316.42 204.865 315.764 205.521 315.107C206.178 314.451 206.766 313.836 207.285 313.262C207.832 312.66 208.283 312.154 208.639 311.744C208.83 311.553 209.062 311.457 209.336 311.457C209.719 311.457 210.061 311.662 210.361 312.072C210.662 312.455 210.812 313.002 210.812 313.713C210.812 314.424 210.594 315.244 210.156 316.174C209.746 317.104 208.967 318.074 207.818 319.086C207.162 319.797 206.41 320.617 205.562 321.547C204.715 322.477 203.812 323.352 202.855 324.172C201.898 324.992 200.9 325.689 199.861 326.264C198.822 326.838 197.783 327.125 196.744 327.125C196.033 327.125 195.336 327.016 194.652 326.797C193.996 326.578 193.326 326.223 192.643 325.73C191.658 327.262 190.537 328.656 189.279 329.914C188.021 331.172 186.613 332.252 185.055 333.154C183.523 334.057 181.855 334.754 180.051 335.246C178.273 335.766 176.373 336.025 174.35 336.025C173.584 336.025 172.695 335.875 171.684 335.574C170.672 335.273 169.701 334.781 168.771 334.098C167.869 333.387 167.104 332.471 166.475 331.35C165.846 330.229 165.531 328.861 165.531 327.248C165.531 326.154 165.709 324.842 166.064 323.311C166.42 321.779 166.953 320.207 167.664 318.594C168.402 316.953 169.318 315.34 170.412 313.754C171.533 312.141 172.859 310.705 174.391 309.447C175.922 308.162 177.672 307.137 179.641 306.371C181.609 305.578 183.797 305.182 186.203 305.182ZM209.705 310.104C210.252 308.928 210.936 308.053 211.756 307.479C212.576 306.904 213.383 306.617 214.176 306.617C214.832 306.617 215.42 306.863 215.939 307.355C216.459 307.82 216.719 308.518 216.719 309.447C216.719 309.803 216.678 310.186 216.596 310.596C216.514 311.006 216.363 311.443 216.145 311.908C216.746 311.143 217.607 310.363 218.729 309.57C219.85 308.75 221.08 308.025 222.42 307.396C223.787 306.74 225.182 306.207 226.604 305.797C228.053 305.387 229.42 305.182 230.705 305.182C232.154 305.182 233.357 305.537 234.314 306.248C235.299 306.932 235.791 308.107 235.791 309.775C235.791 310.76 235.641 311.785 235.34 312.852C235.039 313.918 234.643 314.984 234.15 316.051C233.686 317.117 233.152 318.17 232.551 319.209C231.977 320.221 231.402 321.178 230.828 322.08C230.254 322.982 229.721 323.816 229.229 324.582C228.764 325.32 228.395 325.936 228.121 326.428C227.766 326.865 227.588 327.371 227.588 327.945C227.588 328.164 227.656 328.355 227.793 328.52C227.93 328.684 228.148 328.766 228.449 328.766C228.641 328.766 228.859 328.752 229.105 328.725C229.352 328.67 229.652 328.52 230.008 328.273C231.484 327.727 232.988 327.043 234.52 326.223C236.078 325.402 237.568 324.541 238.99 323.639C240.412 322.709 241.711 321.793 242.887 320.891C244.09 319.961 245.088 319.127 245.881 318.389C246.1 318.197 246.318 318.061 246.537 317.979C246.756 317.896 246.961 317.855 247.152 317.855C247.617 317.855 247.973 318.033 248.219 318.389C248.492 318.744 248.629 319.195 248.629 319.742C248.629 320.59 248.355 321.533 247.809 322.572C247.289 323.611 246.455 324.582 245.307 325.484C243.748 326.605 242.312 327.631 241 328.561C239.715 329.49 238.389 330.365 237.021 331.186C235.682 331.979 234.232 332.73 232.674 333.441C231.143 334.125 229.338 334.768 227.26 335.369C226.549 335.588 225.893 335.752 225.291 335.861C224.717 335.971 224.184 336.025 223.691 336.025C222.242 336.025 221.176 335.629 220.492 334.836C219.836 334.016 219.508 332.881 219.508 331.432C219.508 331.24 219.508 331.062 219.508 330.898C219.535 330.707 219.562 330.502 219.59 330.283C219.645 329.436 219.863 328.506 220.246 327.494C220.656 326.482 221.135 325.443 221.682 324.377C222.256 323.311 222.857 322.258 223.486 321.219C224.115 320.152 224.689 319.154 225.209 318.225C225.756 317.268 226.207 316.42 226.562 315.682C226.918 314.943 227.096 314.342 227.096 313.877C227.096 313.467 226.973 313.125 226.727 312.852C226.508 312.551 226.166 312.4 225.701 312.4C223.951 312.4 222.283 312.92 220.697 313.959C219.139 314.998 217.676 316.283 216.309 317.814C214.941 319.318 213.684 320.918 212.535 322.613C211.387 324.309 210.375 325.826 209.5 327.166C208.953 328.068 208.447 329.039 207.982 330.078C207.545 331.09 207.08 332.047 206.588 332.949C206.096 333.824 205.535 334.549 204.906 335.123C204.305 335.725 203.539 336.025 202.609 336.025C201.652 336.025 200.9 335.725 200.354 335.123C199.807 334.521 199.533 333.783 199.533 332.908C199.533 332.443 199.725 331.691 200.107 330.652C200.49 329.613 200.982 328.41 201.584 327.043C202.186 325.676 202.855 324.213 203.594 322.654C204.359 321.068 205.111 319.51 205.85 317.979C206.615 316.42 207.34 314.957 208.023 313.59C208.707 312.223 209.268 311.061 209.705 310.104ZM261.221 305.182C262.424 305.182 263.477 305.332 264.379 305.633C265.281 305.934 266.047 306.262 266.676 306.617C267.387 307.055 268.016 307.533 268.562 308.053C268.945 307.807 269.355 307.574 269.793 307.355C270.176 307.164 270.6 307 271.064 306.863C271.529 306.699 271.994 306.617 272.459 306.617C273.662 306.617 274.592 306.863 275.248 307.355C275.904 307.848 276.232 308.436 276.232 309.119C276.232 309.475 276.137 309.83 275.945 310.186L266.348 328.355L267.127 327.658C270.354 325.771 273.006 324.295 275.084 323.229C277.162 322.135 278.816 321.328 280.047 320.809C281.277 320.289 282.152 319.975 282.672 319.865C283.219 319.729 283.561 319.66 283.697 319.66C284.326 319.66 284.805 319.906 285.133 320.398C285.488 320.863 285.666 321.451 285.666 322.162C285.666 322.955 285.434 323.762 284.969 324.582C284.531 325.402 283.848 325.99 282.918 326.346C281.688 326.975 280.252 327.658 278.611 328.396C276.971 329.107 275.262 329.9 273.484 330.775C271.707 331.65 269.916 332.635 268.111 333.729C266.334 334.795 264.666 335.984 263.107 337.297L255.15 351.693C254.494 353.252 253.893 354.523 253.346 355.508C252.826 356.492 252.307 357.271 251.787 357.846C251.268 358.42 250.734 358.816 250.188 359.035C249.641 359.254 249.012 359.363 248.301 359.363C247.234 359.363 246.387 358.994 245.758 358.256C245.156 357.518 244.855 356.629 244.855 355.59C244.855 354.496 245.115 353.225 245.635 351.775C246.154 350.326 246.879 348.754 247.809 347.059C248.766 345.391 249.914 343.627 251.254 341.768C252.594 339.936 254.084 338.062 255.725 336.148L260.811 329.668C259.771 330.625 258.746 331.445 257.734 332.129C256.723 332.812 255.752 333.373 254.822 333.811C253.893 334.221 253.018 334.521 252.197 334.713C251.404 334.904 250.707 335 250.105 335C249.012 335 248 334.754 247.07 334.262C246.141 333.742 245.334 333.031 244.65 332.129C243.994 331.227 243.475 330.16 243.092 328.93C242.709 327.699 242.518 326.359 242.518 324.91C242.518 321.902 243.092 319.182 244.24 316.748C245.416 314.314 246.906 312.25 248.711 310.555C250.543 308.832 252.553 307.506 254.74 306.576C256.955 305.646 259.115 305.182 261.221 305.182ZM259.662 312.4C258.377 312.4 257.133 312.729 255.93 313.385C254.727 314.014 253.66 314.861 252.73 315.928C251.801 316.967 251.062 318.17 250.516 319.537C249.969 320.904 249.695 322.312 249.695 323.762C249.695 324.199 249.723 324.678 249.777 325.197C249.859 325.689 250.01 326.154 250.229 326.592C250.475 327.029 250.816 327.398 251.254 327.699C251.719 327.973 252.348 328.109 253.141 328.109C253.715 328.109 254.385 327.863 255.15 327.371C255.943 326.852 256.75 326.209 257.57 325.443C258.418 324.65 259.238 323.789 260.031 322.859C260.824 321.902 261.535 320.973 262.164 320.07C262.82 319.168 263.34 318.361 263.723 317.65C264.105 316.912 264.297 316.365 264.297 316.01C264.297 315.408 264.133 314.889 263.805 314.451C263.477 313.986 263.066 313.604 262.574 313.303C262.109 313.002 261.604 312.783 261.057 312.646C260.537 312.482 260.072 312.4 259.662 312.4ZM307.896 312.975C307.377 314.123 306.803 315.504 306.174 317.117C305.545 318.73 304.861 320.412 304.123 322.162C303.385 323.912 302.592 325.648 301.744 327.371C300.924 329.094 300.049 330.639 299.119 332.006C298.217 333.346 297.273 334.439 296.289 335.287C295.332 336.135 294.348 336.559 293.336 336.559C292.488 336.559 291.791 336.422 291.244 336.148C290.697 335.902 290.273 335.574 289.973 335.164C289.672 334.781 289.453 334.357 289.316 333.893C289.207 333.4 289.152 332.936 289.152 332.498C289.152 331.842 289.248 331.172 289.439 330.488C289.658 329.805 289.918 329.176 290.219 328.602L305.928 299.686C306.611 298.482 307.254 297.539 307.855 296.855C308.484 296.172 309.059 295.666 309.578 295.338C310.125 295.01 310.604 294.818 311.014 294.764C311.424 294.682 311.766 294.641 312.039 294.641C312.531 294.641 312.982 294.818 313.393 295.174C313.803 295.502 314.008 296.117 314.008 297.02C314.008 297.895 313.775 299.098 313.311 300.629C312.846 302.16 311.984 304.129 310.727 306.535C312.859 306.371 314.965 306.016 317.043 305.469C319.121 304.895 320.98 304.115 322.621 303.131C324.289 302.146 325.629 300.957 326.641 299.562C327.652 298.141 328.158 296.5 328.158 294.641C328.158 293 327.885 291.441 327.338 289.965C326.818 288.461 326.039 287.148 325 286.027C323.988 284.879 322.73 283.977 321.227 283.32C319.723 282.637 317.986 282.295 316.018 282.295C313.338 282.295 311.027 282.555 309.086 283.074C307.172 283.566 305.518 284.223 304.123 285.043C302.756 285.863 301.607 286.807 300.678 287.873C299.748 288.939 298.941 290.02 298.258 291.113C297.602 292.207 297.014 293.287 296.494 294.354C295.975 295.42 295.428 296.363 294.854 297.184C294.307 298.004 293.678 298.674 292.967 299.193C292.256 299.686 291.381 299.932 290.342 299.932C289.002 299.932 288.004 299.59 287.348 298.906C286.719 298.223 286.404 297.252 286.404 295.994C286.404 294.736 286.746 293.369 287.43 291.893C288.113 290.389 289.084 288.885 290.342 287.381C291.6 285.877 293.117 284.441 294.895 283.074C296.699 281.68 298.723 280.449 300.965 279.383C303.207 278.316 305.641 277.469 308.266 276.84C310.918 276.184 313.707 275.855 316.633 275.855C319.367 275.855 321.992 276.252 324.508 277.045C327.051 277.811 329.293 278.973 331.234 280.531C333.176 282.09 334.721 284.045 335.869 286.396C337.045 288.721 337.633 291.455 337.633 294.6C337.633 297.471 336.936 300.068 335.541 302.393C334.174 304.689 332.314 306.645 329.963 308.258C327.639 309.844 324.945 311.074 321.883 311.949C318.82 312.797 315.594 313.221 312.203 313.221C311.492 313.221 310.768 313.207 310.029 313.18C309.318 313.152 308.607 313.084 307.896 312.975ZM339.684 299.521C339.684 298.893 339.793 298.25 340.012 297.594C340.258 296.91 340.613 296.295 341.078 295.748C341.543 295.201 342.117 294.75 342.801 294.395C343.512 294.039 344.346 293.861 345.303 293.861C346.889 293.861 347.996 294.176 348.625 294.805C349.254 295.406 349.568 296.172 349.568 297.102C349.568 297.621 349.459 298.195 349.24 298.824C349.049 299.453 348.748 300.041 348.338 300.588C347.928 301.107 347.395 301.545 346.738 301.9C346.082 302.256 345.303 302.434 344.4 302.434C342.705 302.434 341.516 302.174 340.832 301.654C340.148 301.107 339.766 300.396 339.684 299.521ZM335.172 308.75C335.637 307.984 336.17 307.438 336.771 307.109C337.373 306.781 337.988 306.617 338.617 306.617C339.656 306.617 340.545 306.959 341.283 307.643C342.049 308.299 342.432 309.146 342.432 310.186C342.404 310.432 342.363 310.678 342.309 310.924C342.281 311.17 342.199 311.416 342.062 311.662C341.68 312.373 341.365 312.975 341.119 313.467C340.873 313.959 340.641 314.424 340.422 314.861C340.23 315.271 340.039 315.682 339.848 316.092C339.656 316.502 339.424 316.994 339.15 317.568C338.822 318.252 338.453 319.004 338.043 319.824C337.633 320.617 337.236 321.438 336.854 322.285C336.498 323.133 336.184 323.967 335.91 324.787C335.664 325.607 335.541 326.359 335.541 327.043C335.541 327.781 335.719 328.273 336.074 328.52C336.457 328.738 336.99 328.848 337.674 328.848C338.439 328.848 339.232 328.684 340.053 328.355C340.9 328.027 341.748 327.604 342.596 327.084C343.443 326.564 344.277 325.977 345.098 325.32C345.918 324.637 346.684 323.953 347.395 323.27C348.133 322.586 348.803 321.93 349.404 321.301C350.033 320.672 350.553 320.111 350.963 319.619C351.51 319.1 352.057 318.84 352.604 318.84C353.096 318.84 353.492 319.059 353.793 319.496C354.121 319.934 354.285 320.494 354.285 321.178C354.285 321.807 354.121 322.477 353.793 323.188C353.492 323.898 352.986 324.568 352.275 325.197C350.881 326.619 349.459 327.986 348.01 329.299C346.561 330.584 345.07 331.732 343.539 332.744C342.035 333.729 340.518 334.521 338.986 335.123C337.455 335.725 335.91 336.025 334.352 336.025C332.137 336.025 330.387 335.465 329.102 334.344C327.844 333.195 327.215 331.418 327.215 329.012C327.215 327.754 327.393 326.523 327.748 325.32C328.104 324.117 328.527 322.955 329.02 321.834C329.512 320.686 330.031 319.592 330.578 318.553C331.125 317.486 331.59 316.475 331.973 315.518C332.109 315.162 332.342 314.615 332.67 313.877C333.025 313.139 333.395 312.387 333.777 311.621C334.215 310.719 334.68 309.762 335.172 308.75ZM356.049 310.104C356.596 308.928 357.279 308.053 358.1 307.479C358.92 306.904 359.727 306.617 360.52 306.617C361.176 306.617 361.764 306.863 362.283 307.355C362.803 307.82 363.062 308.518 363.062 309.447C363.062 309.803 363.021 310.186 362.939 310.596C362.857 311.006 362.707 311.443 362.488 311.908C363.09 311.143 363.951 310.363 365.072 309.57C366.193 308.75 367.424 308.025 368.764 307.396C370.131 306.74 371.525 306.207 372.947 305.797C374.396 305.387 375.764 305.182 377.049 305.182C378.498 305.182 379.701 305.537 380.658 306.248C381.643 306.932 382.135 308.107 382.135 309.775C382.135 310.76 381.984 311.785 381.684 312.852C381.383 313.918 380.986 314.984 380.494 316.051C380.029 317.117 379.496 318.17 378.895 319.209C378.32 320.221 377.746 321.178 377.172 322.08C376.598 322.982 376.064 323.816 375.572 324.582C375.107 325.32 374.738 325.936 374.465 326.428C374.109 326.865 373.932 327.371 373.932 327.945C373.932 328.164 374 328.355 374.137 328.52C374.273 328.684 374.492 328.766 374.793 328.766C374.984 328.766 375.203 328.752 375.449 328.725C375.695 328.67 375.996 328.52 376.352 328.273C377.828 327.727 379.332 327.043 380.863 326.223C382.422 325.402 383.912 324.541 385.334 323.639C386.756 322.709 388.055 321.793 389.23 320.891C390.434 319.961 391.432 319.127 392.225 318.389C392.443 318.197 392.662 318.061 392.881 317.979C393.1 317.896 393.305 317.855 393.496 317.855C393.961 317.855 394.316 318.033 394.562 318.389C394.836 318.744 394.973 319.195 394.973 319.742C394.973 320.59 394.699 321.533 394.152 322.572C393.633 323.611 392.799 324.582 391.65 325.484C390.092 326.605 388.656 327.631 387.344 328.561C386.059 329.49 384.732 330.365 383.365 331.186C382.025 331.979 380.576 332.73 379.018 333.441C377.486 334.125 375.682 334.768 373.604 335.369C372.893 335.588 372.236 335.752 371.635 335.861C371.061 335.971 370.527 336.025 370.035 336.025C368.586 336.025 367.52 335.629 366.836 334.836C366.18 334.016 365.852 332.881 365.852 331.432C365.852 331.24 365.852 331.062 365.852 330.898C365.879 330.707 365.906 330.502 365.934 330.283C365.988 329.436 366.207 328.506 366.59 327.494C367 326.482 367.479 325.443 368.025 324.377C368.6 323.311 369.201 322.258 369.83 321.219C370.459 320.152 371.033 319.154 371.553 318.225C372.1 317.268 372.551 316.42 372.906 315.682C373.262 314.943 373.439 314.342 373.439 313.877C373.439 313.467 373.316 313.125 373.07 312.852C372.852 312.551 372.51 312.4 372.045 312.4C370.295 312.4 368.627 312.92 367.041 313.959C365.482 314.998 364.02 316.283 362.652 317.814C361.285 319.318 360.027 320.918 358.879 322.613C357.73 324.309 356.719 325.826 355.844 327.166C355.297 328.068 354.791 329.039 354.326 330.078C353.889 331.09 353.424 332.047 352.932 332.949C352.439 333.824 351.879 334.549 351.25 335.123C350.648 335.725 349.883 336.025 348.953 336.025C347.996 336.025 347.244 335.725 346.697 335.123C346.15 334.521 345.877 333.783 345.877 332.908C345.877 332.443 346.068 331.691 346.451 330.652C346.834 329.613 347.326 328.41 347.928 327.043C348.529 325.676 349.199 324.213 349.938 322.654C350.703 321.068 351.455 319.51 352.193 317.979C352.959 316.42 353.684 314.957 354.367 313.59C355.051 312.223 355.611 311.061 356.049 310.104Z" fill="black"/>
</svg>
