<svg width="1920" height="869" viewBox="0 0 1920 869" fill="none" xmlns="http://www.w3.org/2000/svg">
<path d="M2376.72 747.93C2428.73 676.153 2422.48 575.072 2357.96 510.539C2288.18 440.738 2176.26 438.762 2104.17 504.942V495.723C2104.17 394.313 2021.88 312 1920.5 312C1819.12 312 1736.83 394.313 1736.83 495.723V504.942C1664.74 439.091 1552.82 440.738 1483.04 510.539C1418.2 575.402 1411.94 676.153 1464.28 747.93C1373.1 758.466 1302 836.169 1302 930.335C1302 1031.75 1384.29 1114.06 1485.67 1114.06H1494.89L1483.37 1125.58C1411.61 1197.36 1411.61 1313.58 1483.37 1385.36C1553.48 1455.49 1666.71 1457.14 1738.47 1389.31C1750.32 1479.2 1827.35 1549 1920.5 1549C2013.65 1549 2090.68 1479.53 2102.53 1389.31C2174.61 1456.81 2287.52 1455.49 2357.63 1385.36C2429.39 1313.58 2429.39 1197.36 2357.63 1125.58L2346.11 1114.06H2355.33C2456.71 1114.06 2539 1031.75 2539 930.335C2538.67 836.169 2467.9 758.466 2376.72 747.93Z" fill="#90F5BE"/>
<path d="M456.722 747.93C508.73 676.153 502.476 575.072 437.96 510.539C368.177 440.738 256.261 438.762 184.174 504.942V495.723C184.174 394.313 101.883 312 0.5 312C-100.883 312 -183.174 394.313 -183.174 495.723V504.942C-255.261 439.091 -367.177 440.738 -436.96 510.539C-501.805 575.402 -508.059 676.153 -455.722 747.93C-546.9 758.466 -618 836.169 -618 930.335C-618 1031.75 -535.709 1114.06 -434.326 1114.06H-425.11L-436.63 1125.58C-508.388 1197.36 -508.388 1313.58 -436.63 1385.36C-366.518 1455.49 -253.286 1457.14 -181.528 1389.31C-169.678 1479.2 -92.6536 1549 0.5 1549C93.6536 1549 170.678 1479.53 182.528 1389.31C254.615 1456.81 367.518 1455.49 437.63 1385.36C509.388 1313.58 509.388 1197.36 437.63 1125.58L426.11 1114.06H435.326C536.709 1114.06 619 1031.75 619 930.335C618.671 836.169 547.901 758.466 456.722 747.93Z" fill="#90F5BE"/>
<g filter="url(#filter0_b_2775_2893)">
<path d="M1416.72 435.93C1468.73 364.153 1462.48 263.072 1397.96 198.539C1328.18 128.738 1216.26 126.762 1144.17 192.942V183.723C1144.17 82.313 1061.88 0 960.5 0C859.117 0 776.826 82.313 776.826 183.723V192.942C704.739 127.091 592.823 128.738 523.04 198.539C458.195 263.402 451.941 364.153 504.278 435.93C413.1 446.466 342 524.169 342 618.335C342 719.745 424.291 802.058 525.674 802.058H534.89L523.37 813.582C451.612 885.359 451.612 1001.58 523.37 1073.36C593.482 1143.49 706.714 1145.14 778.472 1077.31C790.322 1167.2 867.346 1237 960.5 1237C1053.65 1237 1130.68 1167.53 1142.53 1077.31C1214.61 1144.81 1327.52 1143.49 1397.63 1073.36C1469.39 1001.58 1469.39 885.359 1397.63 813.582L1386.11 802.058H1395.33C1496.71 802.058 1579 719.745 1579 618.335C1578.67 524.169 1507.9 446.466 1416.72 435.93Z" fill="#24EE81"/>
</g>
<defs>
<filter id="filter0_b_2775_2893" x="338" y="-4" width="1245" height="1245" filterUnits="userSpaceOnUse" color-interpolation-filters="sRGB">
<feFlood flood-opacity="0" result="BackgroundImageFix"/>
<feGaussianBlur in="BackgroundImageFix" stdDeviation="2"/>
<feComposite in2="SourceAlpha" operator="in" result="effect1_backgroundBlur_2775_2893"/>
<feBlend mode="normal" in="SourceGraphic" in2="effect1_backgroundBlur_2775_2893" result="shape"/>
</filter>
</defs>
</svg>
