<svg width="541" height="308" viewBox="0 0 541 308" fill="none" xmlns="http://www.w3.org/2000/svg">
<path d="M213.904 128.707L213.05 129.56H214.258H307.498C307.229 156.567 285.258 178.44 258.108 178.44H214.183H212.976L213.83 179.293L279.847 245.295C260.55 264.207 229.511 264.089 210.36 244.943L179.262 213.852L178.408 212.999V214.206V307.498C151.395 307.229 129.517 285.263 129.517 258.121V214.206V212.999L128.663 213.852L62.6458 279.854C43.7292 260.562 43.8465 229.531 62.9976 210.384L94.0959 179.293L94.9497 178.44H93.7424H0.502482C0.770674 151.433 22.7422 129.56 49.8915 129.56H93.8169H95.0243L94.1705 128.707L28.153 62.7052C47.4498 43.7933 78.4886 43.9106 97.6397 63.0571L128.738 94.1478L129.592 95.0011V93.7942V0.50248C156.605 0.770542 178.483 22.7369 178.483 49.8794V93.7942V95.0011L179.337 94.1478L245.354 28.1462C264.271 47.4382 264.154 78.4694 245.002 97.6159L213.904 128.707Z" fill="#C071FF" stroke="#232323"/>
<path d="M328.904 128.707L328.05 129.56H329.258H422.498C422.229 156.567 400.258 178.44 373.108 178.44H329.183H327.976L328.83 179.293L394.847 245.295C375.55 264.207 344.511 264.089 325.36 244.943L294.262 213.852L293.408 212.999V214.206V307.498C266.395 307.229 244.517 285.263 244.517 258.121V214.206V212.999L243.663 213.852L177.646 279.854C158.729 260.562 158.846 229.531 177.998 210.384L209.096 179.293L209.95 178.44H208.742H115.502C115.771 151.433 137.742 129.56 164.892 129.56H208.817H210.024L209.17 128.707L143.153 62.7052C162.45 43.7933 193.489 43.9106 212.64 63.0571L243.738 94.1478L244.592 95.0011V93.7942V0.50248C271.605 0.770542 293.483 22.7369 293.483 49.8794V93.7942V95.0011L294.337 94.1478L360.354 28.1462C379.271 47.4382 379.154 78.4694 360.002 97.6159L328.904 128.707Z" fill="#B04BFF" stroke="#232323"/>
<path d="M446.904 128.707L446.05 129.56H447.258H540.498C540.229 156.567 518.258 178.44 491.108 178.44H447.183H445.976L446.83 179.293L512.847 245.295C493.55 264.207 462.511 264.089 443.36 244.943L412.262 213.852L411.408 212.999V214.206V307.498C384.395 307.229 362.517 285.263 362.517 258.121V214.206V212.999L361.663 213.852L295.646 279.854C276.729 260.562 276.846 229.531 295.998 210.384L327.096 179.293L327.95 178.44H326.742H233.502C233.771 151.433 255.742 129.56 282.892 129.56H326.817H328.024L327.17 128.707L261.153 62.7052C280.45 43.7933 311.489 43.9106 330.64 63.0571L361.738 94.1478L362.592 95.0011V93.7942V0.50248C389.605 0.770542 411.483 22.7369 411.483 49.8794V93.7942V95.0011L412.337 94.1478L478.354 28.1462C497.271 47.4382 497.154 78.4694 478.002 97.6159L446.904 128.707Z" fill="#9B3EE4" stroke="#232323"/>
</svg>
