<svg width="543" height="310" viewBox="0 0 543 310" fill="none" xmlns="http://www.w3.org/2000/svg">
<path d="M269.487 109.149C282.048 91.1293 280.313 66.1213 264.276 50.0806C246.98 32.7792 219.398 32.0326 201.233 47.9211V46.745C201.233 21.2191 180.519 0.5 155 0.5C129.48 0.5 108.767 21.2191 108.767 46.745V47.9247C90.6031 32.1133 63.0217 32.7779 45.7236 50.0806C29.6071 66.2014 27.869 91.1306 40.5104 109.15C17.9624 112.175 0.5 131.545 0.5 154.959C0.5 180.485 21.2134 201.204 46.7328 201.204H47.8208L45.8055 203.22C27.7434 221.287 27.7434 250.542 45.8055 268.609C63.2258 286.034 91.2228 286.664 109.317 270.255C112.709 292.42 131.88 309.5 155 309.5C178.122 309.5 197.296 292.496 200.685 270.25C218.853 286.582 246.772 286.037 264.194 268.609C282.257 250.542 282.257 221.287 264.194 203.22L262.179 201.204H263.267C288.787 201.204 309.5 180.485 309.5 154.959V154.957C309.418 131.545 292.036 112.174 269.487 109.149Z" fill="#90F50F" stroke="#232323"/>
<path d="M384.487 109.149C397.048 91.1293 395.313 66.1213 379.276 50.0806C361.98 32.7792 334.398 32.0326 316.233 47.9211V46.745C316.233 21.2191 295.519 0.5 270 0.5C244.48 0.5 223.767 21.2191 223.767 46.745V47.9247C205.603 32.1133 178.022 32.7779 160.724 50.0806C144.607 66.2014 142.869 91.1306 155.51 109.15C132.962 112.175 115.5 131.545 115.5 154.959C115.5 180.485 136.213 201.204 161.733 201.204H162.821L160.806 203.22C142.743 221.287 142.743 250.542 160.806 268.609C178.226 286.034 206.223 286.664 224.317 270.255C227.709 292.42 246.88 309.5 270 309.5C293.122 309.5 312.296 292.496 315.685 270.25C333.853 286.582 361.772 286.037 379.194 268.609C397.257 250.542 397.257 221.287 379.194 203.22L377.179 201.204H378.267C403.787 201.204 424.5 180.485 424.5 154.959V154.957C424.418 131.545 407.036 112.174 384.487 109.149Z" fill="#59DF28" stroke="#232323"/>
<path d="M502.487 109.15C515.048 91.1294 513.313 66.1214 497.276 50.0807C479.98 32.7793 452.398 32.0327 434.233 47.9212V46.7451C434.233 21.2192 413.519 0.500122 388 0.500122C362.48 0.500122 341.767 21.2192 341.767 46.7451V47.9248C323.603 32.1134 296.022 32.778 278.724 50.0807C262.607 66.2015 260.869 91.1307 273.51 109.15C250.962 112.175 233.5 131.545 233.5 154.959C233.5 180.485 254.213 201.204 279.733 201.204H280.821L278.806 203.22C260.743 221.287 260.743 250.542 278.806 268.609C296.226 286.034 324.223 286.664 342.317 270.255C345.709 292.42 364.88 309.5 388 309.5C411.122 309.5 430.296 292.496 433.685 270.25C451.853 286.582 479.772 286.037 497.194 268.609C515.257 250.542 515.257 221.287 497.194 203.22L495.179 201.204H496.267C521.787 201.204 542.5 180.485 542.5 154.959V154.957C542.418 131.545 525.036 112.174 502.487 109.15Z" fill="#26D13A" stroke="#232323"/>
</svg>
