<svg width="547" height="314" viewBox="0 0 547 314" fill="none" xmlns="http://www.w3.org/2000/svg">
<path d="M221.289 3.02571L221.361 1.62184L220.419 2.66474C186.461 40.2373 127.455 40.2366 93.5816 2.6652L92.6385 1.61909L92.7109 3.02571C95.3166 53.6262 53.6262 95.3166 3.02571 92.7109L1.62184 92.6386L2.66474 93.5812C40.237 127.539 40.237 186.461 2.66474 220.419L1.62184 221.361L3.02571 221.289C53.6262 218.683 95.3166 260.374 92.7109 310.974L92.6386 312.378L93.5812 311.335C127.539 273.763 186.461 273.763 220.419 311.335L221.361 312.378L221.289 310.974C218.683 260.374 260.374 218.683 310.974 221.289L312.378 221.361L311.335 220.419C273.763 186.461 273.763 127.539 311.335 93.5812L312.378 92.6386L310.974 92.7109C260.374 95.3166 218.683 53.6262 221.289 3.02571Z" fill="#FF8479" stroke="#232323"/>
<path d="M336.289 3.02571L336.361 1.62184L335.419 2.66474C301.461 40.2373 242.455 40.2366 208.582 2.6652L207.638 1.61909L207.711 3.02571C210.317 53.6262 168.626 95.3166 118.026 92.7109L116.622 92.6386L117.665 93.5812C155.237 127.539 155.237 186.461 117.665 220.419L116.622 221.361L118.026 221.289C168.626 218.683 210.317 260.374 207.711 310.974L207.639 312.378L208.581 311.335C242.539 273.763 301.461 273.763 335.419 311.335L336.361 312.378L336.289 310.974C333.683 260.374 375.374 218.683 425.974 221.289L427.378 221.361L426.335 220.419C388.763 186.461 388.763 127.539 426.335 93.5812L427.378 92.6386L425.974 92.7109C375.374 95.3166 333.683 53.6262 336.289 3.02571Z" fill="#FC6359" stroke="#232323"/>
<path d="M454.289 3.02571L454.361 1.62184L453.419 2.66474C419.461 40.2373 360.455 40.2366 326.582 2.6652L325.638 1.61909L325.711 3.02571C328.317 53.6262 286.626 95.3166 236.026 92.7109L234.622 92.6386L235.665 93.5812C273.237 127.539 273.237 186.461 235.665 220.419L234.622 221.361L236.026 221.289C286.626 218.683 328.317 260.374 325.711 310.974L325.639 312.378L326.581 311.335C360.539 273.763 419.461 273.763 453.419 311.335L454.361 312.378L454.289 310.974C451.683 260.374 493.374 218.683 543.974 221.289L545.378 221.361L544.335 220.419C506.763 186.461 506.763 127.539 544.335 93.5812L545.378 92.6386L543.974 92.7109C493.374 95.3166 451.683 53.6262 454.289 3.02571Z" fill="#EC4B41" stroke="#232323"/>
</svg>
