<svg width="80" height="80" viewBox="0 0 90 90" fill="none" xmlns="http://www.w3.org/2000/svg">
<path d="M80.1843 45.0921C74.5461 45.3372 68.908 44.3567 64.0053 41.6604C68.4177 33.5713 71.3594 24.5018 69.6434 15.1872C68.908 10.0396 65.9664 5.87255 61.5539 2.68596C57.6317 -0.0103823 52.9741 -0.990871 48.8068 1.21523C46.8457 2.44084 45.3749 4.64694 45.3749 6.85304C44.8846 13.4713 44.8846 20.0896 41.6979 25.9726C33.6084 21.8055 24.5383 18.6189 15.2232 20.3348C6.15311 21.8055 -2.18152 30.3848 0.514976 39.9445C0.514976 40.1896 1.00525 40.1896 1.00525 40.4348C1.98579 43.8665 5.90797 44.6018 9.09475 45.0921C14.978 44.1116 20.6162 46.0726 26.0092 48.2787C22.3321 54.897 20.1259 62.2506 19.6356 69.6043C19.3905 73.7714 20.371 77.9385 22.8224 81.6153C23.3127 82.1055 23.5578 82.5958 24.0481 83.3311C27.7251 87.7433 33.3632 91.4202 39.2465 89.4592C39.4916 89.4592 39.7368 89.4592 39.9819 89.4592C42.6784 87.9885 44.8846 85.5372 44.8846 82.3507C44.8846 75.9775 45.3749 69.6043 48.3165 63.9665C51.013 65.6823 53.9547 66.908 56.8963 67.8884C57.8769 68.1336 58.6123 68.1336 59.5928 68.6238C60.0831 68.8689 60.5734 68.8689 61.0636 68.8689C61.5539 69.1141 61.799 69.1141 62.2893 69.3592C68.6629 70.8299 75.0364 71.075 80.6745 67.6433C86.0675 64.4567 90.2349 59.064 89.9897 52.6909C89.7446 47.7884 84.8419 44.3567 80.1843 45.0921Z" fill="#FF588A"/>
</svg>
