<svg width="114" height="114" viewBox="0 0 114 114" fill="none" xmlns="http://www.w3.org/2000/svg">
<g opacity="0.9" filter="url(#filter0_f_2637_3151)">
<circle cx="57" cy="57" r="17" fill="#F557EF"/>
</g>
<g filter="url(#filter1_d_2637_3151)">
<mask id="path-2-outside-1_2637_3151" maskUnits="userSpaceOnUse" x="40" y="39" width="35" height="36" fill="black">
<rect fill="white" x="40" y="39" width="35" height="36"/>
<path d="M73 54.4089H69.5227C71.1491 52.9835 71.7686 50.6364 70.8935 48.5294L67.3698 49.9857C68.4385 48.0182 68.1365 45.5161 66.4792 43.8506L64.0242 46.3062C64.1249 44.1837 62.909 42.131 60.8335 41.2711L59.3853 44.757C58.7657 42.588 56.7677 41 54.4056 41V44.5556C52.9729 42.9831 50.6651 42.3943 48.5895 43.2542L49.9835 46.6316C48.0165 45.5626 45.515 45.8647 43.85 47.5224L46.4598 50.1329C44.3069 49.9935 42.2004 51.2174 41.333 53.3244L44.5857 54.6722C42.5024 55.3307 41 57.2827 41 59.5911H44.7948C43.091 61.001 42.425 63.4101 43.3156 65.5635L46.514 64.2389C45.5847 66.1678 45.9255 68.5536 47.5208 70.1494L50.2159 67.4536C49.9603 69.6923 51.1994 71.9155 53.3833 72.8218L54.7231 69.5839C55.4434 71.5747 57.3562 73 59.5944 73V69.2818C60.9961 71.0402 63.4434 71.7451 65.6273 70.8388L64.241 67.4924C66.1694 68.4219 68.5547 68.0811 70.15 66.4854L67.6176 63.9523C69.817 64.1537 71.9932 62.9221 72.8838 60.7763L69.4221 59.3355C71.4976 58.6616 73 56.7095 73 54.4089Z"/>
</mask>
<path d="M73 54.4089H69.5227C71.1491 52.9835 71.7686 50.6364 70.8935 48.5294L67.3698 49.9857C68.4385 48.0182 68.1365 45.5161 66.4792 43.8506L64.0242 46.3062C64.1249 44.1837 62.909 42.131 60.8335 41.2711L59.3853 44.757C58.7657 42.588 56.7677 41 54.4056 41V44.5556C52.9729 42.9831 50.6651 42.3943 48.5895 43.2542L49.9835 46.6316C48.0165 45.5626 45.515 45.8647 43.85 47.5224L46.4598 50.1329C44.3069 49.9935 42.2004 51.2174 41.333 53.3244L44.5857 54.6722C42.5024 55.3307 41 57.2827 41 59.5911H44.7948C43.091 61.001 42.425 63.4101 43.3156 65.5635L46.514 64.2389C45.5847 66.1678 45.9255 68.5536 47.5208 70.1494L50.2159 67.4536C49.9603 69.6923 51.1994 71.9155 53.3833 72.8218L54.7231 69.5839C55.4434 71.5747 57.3562 73 59.5944 73V69.2818C60.9961 71.0402 63.4434 71.7451 65.6273 70.8388L64.241 67.4924C66.1694 68.4219 68.5547 68.0811 70.15 66.4854L67.6176 63.9523C69.817 64.1537 71.9932 62.9221 72.8838 60.7763L69.4221 59.3355C71.4976 58.6616 73 56.7095 73 54.4089Z" fill="#F557EF"/>
<path d="M73 54.4089H69.5227C71.1491 52.9835 71.7686 50.6364 70.8935 48.5294L67.3698 49.9857C68.4385 48.0182 68.1365 45.5161 66.4792 43.8506L64.0242 46.3062C64.1249 44.1837 62.909 42.131 60.8335 41.2711L59.3853 44.757C58.7657 42.588 56.7677 41 54.4056 41V44.5556C52.9729 42.9831 50.6651 42.3943 48.5895 43.2542L49.9835 46.6316C48.0165 45.5626 45.515 45.8647 43.85 47.5224L46.4598 50.1329C44.3069 49.9935 42.2004 51.2174 41.333 53.3244L44.5857 54.6722C42.5024 55.3307 41 57.2827 41 59.5911H44.7948C43.091 61.001 42.425 63.4101 43.3156 65.5635L46.514 64.2389C45.5847 66.1678 45.9255 68.5536 47.5208 70.1494L50.2159 67.4536C49.9603 69.6923 51.1994 71.9155 53.3833 72.8218L54.7231 69.5839C55.4434 71.5747 57.3562 73 59.5944 73V69.2818C60.9961 71.0402 63.4434 71.7451 65.6273 70.8388L64.241 67.4924C66.1694 68.4219 68.5547 68.0811 70.15 66.4854L67.6176 63.9523C69.817 64.1537 71.9932 62.9221 72.8838 60.7763L69.4221 59.3355C71.4976 58.6616 73 56.7095 73 54.4089Z" stroke="#232323" stroke-width="2" mask="url(#path-2-outside-1_2637_3151)"/>
</g>
<defs>
<filter id="filter0_f_2637_3151" x="0" y="0" width="114" height="114" filterUnits="userSpaceOnUse" color-interpolation-filters="sRGB">
<feFlood flood-opacity="0" result="BackgroundImageFix"/>
<feBlend mode="normal" in="SourceGraphic" in2="BackgroundImageFix" result="shape"/>
<feGaussianBlur stdDeviation="20" result="effect1_foregroundBlur_2637_3151"/>
</filter>
<filter id="filter1_d_2637_3151" x="36" y="39.9649" width="42.1904" height="42.1642" filterUnits="userSpaceOnUse" color-interpolation-filters="sRGB">
<feFlood flood-opacity="0" result="BackgroundImageFix"/>
<feColorMatrix in="SourceAlpha" type="matrix" values="0 0 0 0 0 0 0 0 0 0 0 0 0 0 0 0 0 0 127 0" result="hardAlpha"/>
<feOffset dy="4"/>
<feGaussianBlur stdDeviation="2"/>
<feComposite in2="hardAlpha" operator="out"/>
<feColorMatrix type="matrix" values="0 0 0 0 0 0 0 0 0 0 0 0 0 0 0 0 0 0 0.25 0"/>
<feBlend mode="normal" in2="BackgroundImageFix" result="effect1_dropShadow_2637_3151"/>
<feBlend mode="normal" in="SourceGraphic" in2="effect1_dropShadow_2637_3151" result="shape"/>
</filter>
</defs>
</svg>
