<svg width="94" height="114" viewBox="0 0 94 114" fill="none" xmlns="http://www.w3.org/2000/svg">
<g opacity="0.9" filter="url(#filter0_f_2414_5624)">
<circle cx="37" cy="57" r="17" fill="#5452FF"/>
</g>
<g filter="url(#filter1_d_2414_5624)">
<mask id="path-2-outside-1_2414_5624" maskUnits="userSpaceOnUse" x="20" y="40" width="34" height="34" fill="black">
<rect fill="white" x="20" y="40" width="34" height="34"/>
<path d="M53 56.9915C53 56.3309 49.6543 55.7549 44.7247 55.4584C49.1715 53.2901 52.0344 51.486 51.7803 50.8761C51.5262 50.2663 48.2144 51.0116 43.5389 52.6294C46.8168 48.928 48.7734 46.1583 48.3076 45.684C47.8417 45.2181 45.072 47.1747 41.3706 50.4526C42.9799 45.7771 43.7337 42.4738 43.1154 42.2197C42.5056 41.9656 40.693 44.837 38.5246 49.2837C38.2282 44.3457 37.6522 41 36.9915 41C36.3309 41 35.7549 44.3457 35.4584 49.2753C33.2901 44.8285 31.486 41.9656 30.8761 42.2197C30.2663 42.4738 31.0116 45.7856 32.621 50.4526C28.9195 47.1747 26.1498 45.2181 25.684 45.684C25.2181 46.1498 27.1747 48.9195 30.4526 52.621C25.7771 51.0116 22.4738 50.2578 22.2197 50.8761C21.9656 51.486 24.837 53.2986 29.2753 55.4584C24.3372 55.7549 21 56.3309 21 56.9915C21 57.6522 24.3457 58.2282 29.2837 58.5246C24.837 60.693 21.9656 62.5056 22.2197 63.1154C22.4738 63.7253 25.7771 62.9799 30.4526 61.3706C27.1747 65.072 25.2181 67.8417 25.684 68.3076C26.1498 68.7734 28.9195 66.8168 32.6294 63.5389C31.0201 68.2144 30.2663 71.5262 30.8761 71.7803C31.486 72.0344 33.2986 69.163 35.4584 64.7247C35.7549 69.6628 36.3309 73 36.9915 73C37.6522 73 38.2282 69.6543 38.5246 64.7247C40.693 69.1715 42.4971 72.0429 43.1154 71.7888C43.7253 71.5347 42.9799 68.2229 41.3706 63.5558C45.072 66.8338 47.8417 68.7904 48.3076 68.3245C48.7734 67.8587 46.8168 65.0889 43.5389 61.3875C48.2144 62.9968 51.5177 63.7507 51.7718 63.1323C52.0259 62.5225 49.1546 60.7099 44.7078 58.5416C49.6543 58.2282 53 57.6522 53 56.9915Z"/>
</mask>
<path d="M53 56.9915C53 56.3309 49.6543 55.7549 44.7247 55.4584C49.1715 53.2901 52.0344 51.486 51.7803 50.8761C51.5262 50.2663 48.2144 51.0116 43.5389 52.6294C46.8168 48.928 48.7734 46.1583 48.3076 45.684C47.8417 45.2181 45.072 47.1747 41.3706 50.4526C42.9799 45.7771 43.7337 42.4738 43.1154 42.2197C42.5056 41.9656 40.693 44.837 38.5246 49.2837C38.2282 44.3457 37.6522 41 36.9915 41C36.3309 41 35.7549 44.3457 35.4584 49.2753C33.2901 44.8285 31.486 41.9656 30.8761 42.2197C30.2663 42.4738 31.0116 45.7856 32.621 50.4526C28.9195 47.1747 26.1498 45.2181 25.684 45.684C25.2181 46.1498 27.1747 48.9195 30.4526 52.621C25.7771 51.0116 22.4738 50.2578 22.2197 50.8761C21.9656 51.486 24.837 53.2986 29.2753 55.4584C24.3372 55.7549 21 56.3309 21 56.9915C21 57.6522 24.3457 58.2282 29.2837 58.5246C24.837 60.693 21.9656 62.5056 22.2197 63.1154C22.4738 63.7253 25.7771 62.9799 30.4526 61.3706C27.1747 65.072 25.2181 67.8417 25.684 68.3076C26.1498 68.7734 28.9195 66.8168 32.6294 63.5389C31.0201 68.2144 30.2663 71.5262 30.8761 71.7803C31.486 72.0344 33.2986 69.163 35.4584 64.7247C35.7549 69.6628 36.3309 73 36.9915 73C37.6522 73 38.2282 69.6543 38.5246 64.7247C40.693 69.1715 42.4971 72.0429 43.1154 71.7888C43.7253 71.5347 42.9799 68.2229 41.3706 63.5558C45.072 66.8338 47.8417 68.7904 48.3076 68.3245C48.7734 67.8587 46.8168 65.0889 43.5389 61.3875C48.2144 62.9968 51.5177 63.7507 51.7718 63.1323C52.0259 62.5225 49.1546 60.7099 44.7078 58.5416C49.6543 58.2282 53 57.6522 53 56.9915Z" fill="#5452FF"/>
<path d="M53 56.9915C53 56.3309 49.6543 55.7549 44.7247 55.4584C49.1715 53.2901 52.0344 51.486 51.7803 50.8761C51.5262 50.2663 48.2144 51.0116 43.5389 52.6294C46.8168 48.928 48.7734 46.1583 48.3076 45.684C47.8417 45.2181 45.072 47.1747 41.3706 50.4526C42.9799 45.7771 43.7337 42.4738 43.1154 42.2197C42.5056 41.9656 40.693 44.837 38.5246 49.2837C38.2282 44.3457 37.6522 41 36.9915 41C36.3309 41 35.7549 44.3457 35.4584 49.2753C33.2901 44.8285 31.486 41.9656 30.8761 42.2197C30.2663 42.4738 31.0116 45.7856 32.621 50.4526C28.9195 47.1747 26.1498 45.2181 25.684 45.684C25.2181 46.1498 27.1747 48.9195 30.4526 52.621C25.7771 51.0116 22.4738 50.2578 22.2197 50.8761C21.9656 51.486 24.837 53.2986 29.2753 55.4584C24.3372 55.7549 21 56.3309 21 56.9915C21 57.6522 24.3457 58.2282 29.2837 58.5246C24.837 60.693 21.9656 62.5056 22.2197 63.1154C22.4738 63.7253 25.7771 62.9799 30.4526 61.3706C27.1747 65.072 25.2181 67.8417 25.684 68.3076C26.1498 68.7734 28.9195 66.8168 32.6294 63.5389C31.0201 68.2144 30.2663 71.5262 30.8761 71.7803C31.486 72.0344 33.2986 69.163 35.4584 64.7247C35.7549 69.6628 36.3309 73 36.9915 73C37.6522 73 38.2282 69.6543 38.5246 64.7247C40.693 69.1715 42.4971 72.0429 43.1154 71.7888C43.7253 71.5347 42.9799 68.2229 41.3706 63.5558C45.072 66.8338 47.8417 68.7904 48.3076 68.3245C48.7734 67.8587 46.8168 65.0889 43.5389 61.3875C48.2144 62.9968 51.5177 63.7507 51.7718 63.1323C52.0259 62.5225 49.1546 60.7099 44.7078 58.5416C49.6543 58.2282 53 57.6522 53 56.9915Z" stroke="#232323" stroke-width="2" mask="url(#path-2-outside-1_2414_5624)"/>
</g>
<defs>
<filter id="filter0_f_2414_5624" x="-20" y="0" width="114" height="114" filterUnits="userSpaceOnUse" color-interpolation-filters="sRGB">
<feFlood flood-opacity="0" result="BackgroundImageFix"/>
<feBlend mode="normal" in="SourceGraphic" in2="BackgroundImageFix" result="shape"/>
<feGaussianBlur stdDeviation="20" result="effect1_foregroundBlur_2414_5624"/>
</filter>
<filter id="filter1_d_2414_5624" x="16" y="40" width="42" height="42" filterUnits="userSpaceOnUse" color-interpolation-filters="sRGB">
<feFlood flood-opacity="0" result="BackgroundImageFix"/>
<feColorMatrix in="SourceAlpha" type="matrix" values="0 0 0 0 0 0 0 0 0 0 0 0 0 0 0 0 0 0 127 0" result="hardAlpha"/>
<feOffset dy="4"/>
<feGaussianBlur stdDeviation="2"/>
<feComposite in2="hardAlpha" operator="out"/>
<feColorMatrix type="matrix" values="0 0 0 0 0 0 0 0 0 0 0 0 0 0 0 0 0 0 0.25 0"/>
<feBlend mode="normal" in2="BackgroundImageFix" result="effect1_dropShadow_2414_5624"/>
<feBlend mode="normal" in="SourceGraphic" in2="effect1_dropShadow_2414_5624" result="shape"/>
</filter>
</defs>
</svg>
