<svg width="94" height="114" viewBox="0 0 94 114" fill="none" xmlns="http://www.w3.org/2000/svg">
<g opacity="0.9" filter="url(#filter0_f_2414_5107)">
<circle cx="37" cy="57" r="17" fill="#1DDFEC"/>
</g>
<g filter="url(#filter1_d_2414_5107)">
<mask id="path-2-outside-1_2414_5107" maskUnits="userSpaceOnUse" x="19" y="38" width="36" height="38" fill="black">
<rect fill="white" x="19" y="38" width="36" height="38"/>
<path d="M40.7382 56.8015C63.1674 56.8015 50.0859 34.1439 38.8669 53.5684C50.0771 34.1439 23.9141 34.1439 35.1331 53.5684C23.9229 34.1439 10.8414 56.8015 33.2618 56.8015C10.8326 56.8015 23.9141 79.4591 35.1331 60.0345C23.9229 79.4591 50.0859 79.4591 38.8669 60.0345C50.0771 79.4679 63.1586 56.8015 40.7382 56.8015Z"/>
</mask>
<path d="M40.7382 56.8015C63.1674 56.8015 50.0859 34.1439 38.8669 53.5684C50.0771 34.1439 23.9141 34.1439 35.1331 53.5684C23.9229 34.1439 10.8414 56.8015 33.2618 56.8015C10.8326 56.8015 23.9141 79.4591 35.1331 60.0345C23.9229 79.4591 50.0859 79.4591 38.8669 60.0345C50.0771 79.4679 63.1586 56.8015 40.7382 56.8015Z" fill="#1DDFEC"/>
<path d="M40.7382 56.8015C63.1674 56.8015 50.0859 34.1439 38.8669 53.5684C50.0771 34.1439 23.9141 34.1439 35.1331 53.5684C23.9229 34.1439 10.8414 56.8015 33.2618 56.8015C10.8326 56.8015 23.9141 79.4591 35.1331 60.0345C23.9229 79.4591 50.0859 79.4591 38.8669 60.0345C50.0771 79.4679 63.1586 56.8015 40.7382 56.8015Z" stroke="#232323" stroke-width="2" mask="url(#path-2-outside-1_2414_5107)"/>
</g>
<defs>
<filter id="filter0_f_2414_5107" x="-20" y="0" width="114" height="114" filterUnits="userSpaceOnUse" color-interpolation-filters="sRGB">
<feFlood flood-opacity="0" result="BackgroundImageFix"/>
<feBlend mode="normal" in="SourceGraphic" in2="BackgroundImageFix" result="shape"/>
<feGaussianBlur stdDeviation="20" result="effect1_foregroundBlur_2414_5107"/>
</filter>
<filter id="filter1_d_2414_5107" x="15.9998" y="38" width="42.0005" height="45.603" filterUnits="userSpaceOnUse" color-interpolation-filters="sRGB">
<feFlood flood-opacity="0" result="BackgroundImageFix"/>
<feColorMatrix in="SourceAlpha" type="matrix" values="0 0 0 0 0 0 0 0 0 0 0 0 0 0 0 0 0 0 127 0" result="hardAlpha"/>
<feOffset dy="4"/>
<feGaussianBlur stdDeviation="2"/>
<feComposite in2="hardAlpha" operator="out"/>
<feColorMatrix type="matrix" values="0 0 0 0 0 0 0 0 0 0 0 0 0 0 0 0 0 0 0.25 0"/>
<feBlend mode="normal" in2="BackgroundImageFix" result="effect1_dropShadow_2414_5107"/>
<feBlend mode="normal" in="SourceGraphic" in2="effect1_dropShadow_2414_5107" result="shape"/>
</filter>
</defs>
</svg>
