<svg width="90" height="96" viewBox="0 0 90 96" fill="none" xmlns="http://www.w3.org/2000/svg">
<g opacity="0.9" filter="url(#filter0_f_2414_5320)">
<circle cx="57" cy="39" r="17" fill="#C071FF"/>
</g>
<g filter="url(#filter1_d_2414_5320)">
<path d="M66.138 25.4978L60.0956 31.5401V28.1835C60.0956 25.0401 57.5468 22.5 54.4121 22.5H53.9121V23V31.5401L51.5347 29.1627C49.3171 26.9451 45.7153 26.9451 43.4978 29.1627L43.1442 29.5162L43.4978 29.8698L49.5401 35.9121H46.1835C43.0401 35.9121 40.5 38.4609 40.5 41.5956V42.0956H41H49.5324L47.1549 44.4731C44.9374 46.6906 44.9374 50.2924 47.1549 52.51L47.5085 52.8635L47.862 52.51L53.9044 46.4676V49.8242C53.9044 52.9677 56.4532 55.5077 59.5879 55.5077H60.0879V55.0077V46.4676L62.4653 48.8451C64.6829 51.0626 68.2847 51.0626 70.5022 48.8451L70.8558 48.4915L70.5022 48.138L64.4599 42.0956H67.8165C70.9599 42.0956 73.5 39.5468 73.5 36.4121V35.9121H73H64.4676L66.8451 33.5347C69.0626 31.3171 69.0626 27.7153 66.8451 25.4978L66.4915 25.1442L66.138 25.4978Z" fill="#C071FF" stroke="#232323"/>
</g>
<defs>
<filter id="filter0_f_2414_5320" x="0" y="-18" width="114" height="114" filterUnits="userSpaceOnUse" color-interpolation-filters="sRGB">
<feFlood flood-opacity="0" result="BackgroundImageFix"/>
<feBlend mode="normal" in="SourceGraphic" in2="BackgroundImageFix" result="shape"/>
<feGaussianBlur stdDeviation="20" result="effect1_foregroundBlur_2414_5320"/>
</filter>
<filter id="filter1_d_2414_5320" x="36" y="22" width="42" height="42.0077" filterUnits="userSpaceOnUse" color-interpolation-filters="sRGB">
<feFlood flood-opacity="0" result="BackgroundImageFix"/>
<feColorMatrix in="SourceAlpha" type="matrix" values="0 0 0 0 0 0 0 0 0 0 0 0 0 0 0 0 0 0 127 0" result="hardAlpha"/>
<feOffset dy="4"/>
<feGaussianBlur stdDeviation="2"/>
<feComposite in2="hardAlpha" operator="out"/>
<feColorMatrix type="matrix" values="0 0 0 0 0 0 0 0 0 0 0 0 0 0 0 0 0 0 0.25 0"/>
<feBlend mode="normal" in2="BackgroundImageFix" result="effect1_dropShadow_2414_5320"/>
<feBlend mode="normal" in="SourceGraphic" in2="effect1_dropShadow_2414_5320" result="shape"/>
</filter>
</defs>
</svg>
