<svg width="94" height="114" viewBox="0 0 94 114" fill="none" xmlns="http://www.w3.org/2000/svg">
<g opacity="0.9" filter="url(#filter0_f_2414_4813)">
<circle cx="37" cy="57" r="17" fill="#90F50F"/>
</g>
<g filter="url(#filter1_d_2414_4813)">
<path d="M48.3971 51.9837L47.8957 52.6757L48.7446 52.7738C50.8522 53.0173 52.4918 54.815 52.5 56.9964C52.4996 59.3435 50.5947 61.2485 48.2485 61.2485H48.0101H46.8032L47.6565 62.102L47.9545 62.4001C49.6157 64.0616 49.6157 66.7518 47.9545 68.4133C46.333 70.0353 43.72 70.0671 42.0506 68.5041L41.3399 67.8386L41.2131 68.8039C40.9388 70.8925 39.1551 72.5 37 72.5C34.8456 72.5 33.0612 70.8847 32.7868 68.8037L32.6589 67.8334L31.9477 68.5057C30.2888 70.0737 27.6685 70.0368 26.0455 68.4133C24.3844 66.7518 24.3844 64.0616 26.0455 62.4001L26.3435 62.102L27.1968 61.2485H25.9899H25.7515C23.4051 61.2485 21.5 59.3431 21.5 56.9957C21.5 54.8167 23.1459 53.0175 25.2554 52.7738L26.1072 52.6753L25.602 51.9825C24.3912 50.322 24.5359 47.991 26.0369 46.4895C27.6513 44.8748 30.242 44.8355 31.9113 46.3604L32.7485 47.1252V45.9912V45.7527C32.7485 43.4054 34.6536 41.5 37 41.5C39.3464 41.5 41.2515 43.4054 41.2515 45.7527V45.9912V47.129L42.0896 46.3595C43.7576 44.8282 46.3477 44.8737 47.9631 46.4895C49.455 47.9819 49.6011 50.3221 48.3971 51.9837Z" fill="#90F50F" stroke="#232323"/>
</g>
<defs>
<filter id="filter0_f_2414_4813" x="-20" y="0" width="114" height="114" filterUnits="userSpaceOnUse" color-interpolation-filters="sRGB">
<feFlood flood-opacity="0" result="BackgroundImageFix"/>
<feBlend mode="normal" in="SourceGraphic" in2="BackgroundImageFix" result="shape"/>
<feGaussianBlur stdDeviation="20" result="effect1_foregroundBlur_2414_4813"/>
</filter>
<filter id="filter1_d_2414_4813" x="17" y="41" width="40" height="40" filterUnits="userSpaceOnUse" color-interpolation-filters="sRGB">
<feFlood flood-opacity="0" result="BackgroundImageFix"/>
<feColorMatrix in="SourceAlpha" type="matrix" values="0 0 0 0 0 0 0 0 0 0 0 0 0 0 0 0 0 0 127 0" result="hardAlpha"/>
<feOffset dy="4"/>
<feGaussianBlur stdDeviation="2"/>
<feComposite in2="hardAlpha" operator="out"/>
<feColorMatrix type="matrix" values="0 0 0 0 0 0 0 0 0 0 0 0 0 0 0 0 0 0 0.25 0"/>
<feBlend mode="normal" in2="BackgroundImageFix" result="effect1_dropShadow_2414_4813"/>
<feBlend mode="normal" in="SourceGraphic" in2="effect1_dropShadow_2414_4813" result="shape"/>
</filter>
</defs>
</svg>
