<svg width="94" height="114" viewBox="0 0 94 114" fill="none" xmlns="http://www.w3.org/2000/svg">
<g opacity="0.9" filter="url(#filter0_f_2414_5471)">
<circle cx="37" cy="57" r="17" fill="#FE60A2"/>
</g>
<g filter="url(#filter1_d_2414_5471)">
<path d="M48.7281 57.0316C46.8487 57.1133 44.9693 56.7864 43.3351 55.8876C44.8059 53.1911 45.7865 50.1677 45.2145 47.0627C44.9693 45.3467 43.9888 43.9576 42.518 42.8954C41.2106 41.9965 39.658 41.6697 38.2689 42.4051C37.6152 42.8137 37.125 43.5491 37.125 44.2845C36.9615 46.4907 36.9615 48.6969 35.8993 50.658C33.2028 49.2689 30.1794 48.2067 27.0744 48.7786C24.051 49.2689 21.2728 52.1288 22.1717 55.3156C22.1717 55.3973 22.3351 55.3973 22.3351 55.479C22.6619 56.623 23.9693 56.8681 25.0316 57.0316C26.9927 56.7047 28.8721 57.3584 30.6697 58.0938C29.444 60.3001 28.7086 62.7514 28.5452 65.2028C28.4635 66.5919 28.7903 67.981 29.6075 69.2067C29.7709 69.3701 29.8526 69.5335 30.016 69.7787C31.2417 71.2495 33.1211 72.4752 35.0822 71.8215C35.1639 71.8215 35.2456 71.8215 35.3273 71.8215C36.2261 71.3312 36.9615 70.5141 36.9615 69.4518C36.9615 67.3273 37.125 65.2028 38.1055 63.3234C39.0043 63.8954 39.9849 64.3039 40.9654 64.6308C41.2923 64.7125 41.5374 64.7125 41.8643 64.8759C42.0277 64.9576 42.1911 64.9576 42.3545 64.9576C42.518 65.0394 42.5997 65.0394 42.7631 65.1211C44.8876 65.6113 47.0121 65.6931 48.8915 64.5491C50.6892 63.4868 52.0783 61.6892 51.9966 59.5646C51.9149 57.9304 50.2806 56.7864 48.7281 57.0316Z" fill="#FE60A2"/>
<path d="M25.1138 57.5248C26.7488 57.2523 28.345 57.7149 29.9656 58.3501C28.8653 60.4865 28.2026 62.8259 28.0463 65.1695H28.0463L28.0461 65.1734C27.9585 66.6621 28.3092 68.1607 29.1914 69.484L29.2189 69.5252L29.2539 69.5602C29.3326 69.6389 29.3716 69.7004 29.4498 69.8241C29.4877 69.8838 29.5348 69.9582 29.6 70.056L29.6148 70.0782L29.6319 70.0987C30.8808 71.5975 32.9261 73.0173 35.1607 72.3215H35.1612H35.1616H35.1621H35.1626H35.1631H35.1636H35.164H35.1645H35.165H35.1655H35.166H35.1664H35.1669H35.1674H35.1679H35.1684H35.1688H35.1693H35.1698H35.1703H35.1707H35.1712H35.1717H35.1722H35.1727H35.1731H35.1736H35.1741H35.1746H35.1751H35.1755H35.176H35.1765H35.177H35.1774H35.1779H35.1784H35.1789H35.1794H35.1798H35.1803H35.1808H35.1813H35.1818H35.1822H35.1827H35.1832H35.1837H35.1841H35.1846H35.1851H35.1856H35.1861H35.1865H35.187H35.1875H35.188H35.1885H35.1889H35.1894H35.1899H35.1904H35.1909H35.1913H35.1918H35.1923H35.1928H35.1932H35.1937H35.1942H35.1947H35.1952H35.1956H35.1961H35.1966H35.1971H35.1976H35.198H35.1985H35.199H35.1995H35.1999H35.2004H35.2009H35.2014H35.2019H35.2023H35.2028H35.2033H35.2038H35.2043H35.2047H35.2052H35.2057H35.2062H35.2067H35.2071H35.2076H35.2081H35.2086H35.209H35.2095H35.21H35.2105H35.211H35.2114H35.2119H35.2124H35.2129H35.2134H35.2138H35.2143H35.2148H35.2153H35.2157H35.2162H35.2167H35.2172H35.2177H35.2181H35.2186H35.2191H35.2196H35.2201H35.2205H35.221H35.2215H35.222H35.2225H35.2229H35.2234H35.2239H35.2244H35.2248H35.2253H35.2258H35.2263H35.2268H35.2272H35.2277H35.2282H35.2287H35.2292H35.2296H35.2301H35.2306H35.2311H35.2315H35.232H35.2325H35.233H35.2335H35.2339H35.2344H35.2349H35.2354H35.2359H35.2363H35.2368H35.2373H35.2378H35.2383H35.2387H35.2392H35.2397H35.2402H35.2406H35.2411H35.2416H35.2421H35.2426H35.243H35.2435H35.244H35.2445H35.245H35.2454H35.2459H35.2464H35.2469H35.2473H35.2478H35.2483H35.2488H35.2493H35.2497H35.2502H35.2507H35.2512H35.2517H35.2521H35.2526H35.2531H35.2536H35.2541H35.2545H35.255H35.2555H35.256H35.2564H35.2569H35.2574H35.2579H35.2584H35.2588H35.2593H35.2598H35.2603H35.2608H35.2612H35.2617H35.2622H35.2627H35.2631H35.2636H35.2641H35.2646H35.2651H35.2655H35.266H35.2665H35.267H35.2675H35.2679H35.2684H35.2689H35.2694H35.2699H35.2703H35.2708H35.2713H35.2718H35.2722H35.2727H35.2732H35.2737H35.2742H35.2746H35.2751H35.2756H35.2761H35.2766H35.277H35.2775H35.278H35.2785H35.2789H35.2794H35.2799H35.2804H35.2809H35.2813H35.2818H35.2823H35.2828H35.2833H35.2837H35.2842H35.2847H35.2852H35.2857H35.2861H35.2866H35.2871H35.2876H35.288H35.2885H35.289H35.2895H35.29H35.2904H35.2909H35.2914H35.2919H35.2924H35.2928H35.2933H35.2938H35.2943H35.2947H35.2952H35.2957H35.2962H35.2967H35.2971H35.2976H35.2981H35.2986H35.2991H35.2995H35.3H35.3005H35.301H35.3015H35.3019H35.3024H35.3029H35.3034H35.3038H35.3043H35.3048H35.3053H35.3058H35.3062H35.3067H35.3072H35.3077H35.3082H35.3086H35.3091H35.3096H35.3101H35.3105H35.311H35.3115H35.312H35.3125H35.3129H35.3134H35.3139H35.3144H35.3149H35.3153H35.3158H35.3163H35.3168H35.3173H35.3177H35.3182H35.3187H35.3192H35.3196H35.3201H35.3206H35.3211H35.3216H35.322H35.3225H35.323H35.3235H35.324H35.3244H35.3249H35.3254H35.3259H35.3263H35.3268H35.3273H35.4548L35.5667 72.2604C36.5496 71.7243 37.4615 70.7703 37.4615 69.4518C37.4615 67.5295 37.5991 65.6822 38.3196 64.0338C39.1255 64.4869 39.9732 64.8271 40.8073 65.1051L40.8255 65.1112L40.8442 65.1159C40.9551 65.1436 41.0883 65.1688 41.1907 65.1883C41.2393 65.1975 41.281 65.2054 41.3101 65.2116C41.4267 65.2366 41.5264 65.266 41.6407 65.3231C41.8657 65.4356 42.088 65.4543 42.2457 65.4572C42.3062 65.4822 42.3568 65.4991 42.3976 65.5127L42.4007 65.5137C42.4586 65.533 42.4915 65.5443 42.5395 65.5683L42.5927 65.5949L42.6507 65.6083C44.8222 66.1094 47.1043 66.2209 49.1487 64.9779C51.0418 63.8582 52.5873 61.9141 52.4962 59.5454L52.4962 59.5454L52.4959 59.5397C52.398 57.5815 50.4785 56.2667 48.6796 56.5332C47.0488 56.6006 45.44 56.3468 44.0151 55.6736C45.3775 53.0423 46.2731 50.0661 45.708 46.9819C45.4373 45.1083 44.3636 43.6115 42.8107 42.49L42.8108 42.4899L42.8012 42.4834C41.3968 41.5178 39.6414 41.1128 38.035 41.9632L38.0191 41.9716L38.0039 41.9811C37.2449 42.4555 36.6335 43.3264 36.6251 44.2648C36.6035 44.5577 36.5846 44.8472 36.566 45.1333C36.4521 46.8812 36.3466 48.5021 35.6754 49.9849C33.0578 48.6917 30.0787 47.7185 26.989 48.286C25.3591 48.5517 23.8016 49.4514 22.7651 50.7195C21.7281 51.9881 21.1956 53.6518 21.6811 55.4177C21.6924 55.4783 21.7135 55.5353 21.7424 55.587C21.7849 55.6628 21.8372 55.715 21.8771 55.7482C21.8862 55.7558 21.8952 55.7629 21.904 55.7694C22.1468 56.4351 22.6576 56.8344 23.2028 57.0791C23.7732 57.3353 24.4295 57.4448 24.9556 57.5258L25.0347 57.5379L25.1138 57.5248Z" stroke="#232323"/>
</g>
<defs>
<filter id="filter0_f_2414_5471" x="-20" y="0" width="114" height="114" filterUnits="userSpaceOnUse" color-interpolation-filters="sRGB">
<feFlood flood-opacity="0" result="BackgroundImageFix"/>
<feBlend mode="normal" in="SourceGraphic" in2="BackgroundImageFix" result="shape"/>
<feGaussianBlur stdDeviation="20" result="effect1_foregroundBlur_2414_5471"/>
</filter>
<filter id="filter1_d_2414_5471" x="16.9995" y="40.9989" width="40.0005" height="40.0063" filterUnits="userSpaceOnUse" color-interpolation-filters="sRGB">
<feFlood flood-opacity="0" result="BackgroundImageFix"/>
<feColorMatrix in="SourceAlpha" type="matrix" values="0 0 0 0 0 0 0 0 0 0 0 0 0 0 0 0 0 0 127 0" result="hardAlpha"/>
<feOffset dy="4"/>
<feGaussianBlur stdDeviation="2"/>
<feComposite in2="hardAlpha" operator="out"/>
<feColorMatrix type="matrix" values="0 0 0 0 0 0 0 0 0 0 0 0 0 0 0 0 0 0 0.25 0"/>
<feBlend mode="normal" in2="BackgroundImageFix" result="effect1_dropShadow_2414_5471"/>
<feBlend mode="normal" in="SourceGraphic" in2="effect1_dropShadow_2414_5471" result="shape"/>
</filter>
</defs>
</svg>
