<svg width="114" height="114" viewBox="0 0 114 114" fill="none" xmlns="http://www.w3.org/2000/svg">
<g opacity="0.9" filter="url(#filter0_f_2637_3135)">
<circle cx="57" cy="57" r="17" fill="#FC6359"/>
</g>
<g filter="url(#filter1_d_2637_3135)">
<mask id="path-2-outside-1_2637_3135" maskUnits="userSpaceOnUse" x="38" y="38" width="38" height="38" fill="black">
<rect fill="white" x="38" y="38" width="38" height="38"/>
<path d="M63.6275 41C63.3552 46.2879 67.7121 50.6448 73 50.3725C69.0736 53.9212 69.0736 60.0788 73 63.6275C67.7121 63.3552 63.3552 67.7121 63.6275 73C60.0788 69.0736 53.9212 69.0736 50.3725 73C50.6448 67.7121 46.2879 63.3552 41 63.6275C44.9264 60.0788 44.9264 53.9212 41 50.3725C46.2879 50.6448 50.6448 46.2879 50.3725 41C53.9124 44.9264 60.0788 44.9264 63.6275 41Z"/>
</mask>
<path d="M63.6275 41C63.3552 46.2879 67.7121 50.6448 73 50.3725C69.0736 53.9212 69.0736 60.0788 73 63.6275C67.7121 63.3552 63.3552 67.7121 63.6275 73C60.0788 69.0736 53.9212 69.0736 50.3725 73C50.6448 67.7121 46.2879 63.3552 41 63.6275C44.9264 60.0788 44.9264 53.9212 41 50.3725C46.2879 50.6448 50.6448 46.2879 50.3725 41C53.9124 44.9264 60.0788 44.9264 63.6275 41Z" fill="#FC6359"/>
<path d="M63.6275 41C63.3552 46.2879 67.7121 50.6448 73 50.3725C69.0736 53.9212 69.0736 60.0788 73 63.6275C67.7121 63.3552 63.3552 67.7121 63.6275 73C60.0788 69.0736 53.9212 69.0736 50.3725 73C50.6448 67.7121 46.2879 63.3552 41 63.6275C44.9264 60.0788 44.9264 53.9212 41 50.3725C46.2879 50.6448 50.6448 46.2879 50.3725 41C53.9124 44.9264 60.0788 44.9264 63.6275 41Z" stroke="#232323" stroke-width="2" mask="url(#path-2-outside-1_2637_3135)"/>
</g>
<defs>
<filter id="filter0_f_2637_3135" x="0" y="0" width="114" height="114" filterUnits="userSpaceOnUse" color-interpolation-filters="sRGB">
<feFlood flood-opacity="0" result="BackgroundImageFix"/>
<feBlend mode="normal" in="SourceGraphic" in2="BackgroundImageFix" result="shape"/>
<feGaussianBlur stdDeviation="20" result="effect1_foregroundBlur_2637_3135"/>
</filter>
<filter id="filter1_d_2637_3135" x="34.2437" y="38.2382" width="45.5127" height="45.5181" filterUnits="userSpaceOnUse" color-interpolation-filters="sRGB">
<feFlood flood-opacity="0" result="BackgroundImageFix"/>
<feColorMatrix in="SourceAlpha" type="matrix" values="0 0 0 0 0 0 0 0 0 0 0 0 0 0 0 0 0 0 127 0" result="hardAlpha"/>
<feOffset dy="4"/>
<feGaussianBlur stdDeviation="2"/>
<feComposite in2="hardAlpha" operator="out"/>
<feColorMatrix type="matrix" values="0 0 0 0 0 0 0 0 0 0 0 0 0 0 0 0 0 0 0.25 0"/>
<feBlend mode="normal" in2="BackgroundImageFix" result="effect1_dropShadow_2637_3135"/>
<feBlend mode="normal" in="SourceGraphic" in2="effect1_dropShadow_2637_3135" result="shape"/>
</filter>
</defs>
</svg>
