<svg width="94" height="95" viewBox="0 0 94 95" fill="none" xmlns="http://www.w3.org/2000/svg">
<g opacity="0.9" filter="url(#filter0_f_2414_5011)">
<circle cx="37" cy="57" r="17" fill="#F557EF"/>
</g>
<g filter="url(#filter1_d_2414_5011)">
<path d="M53.5 54.4089V53.9089H53H50.6616C51.8183 52.3573 52.1525 50.257 51.3553 48.3376L51.1638 47.8767L50.7025 48.0673L48.2801 49.0685C48.8237 47.1514 48.3381 45.0098 46.8336 43.498L46.48 43.1426L46.1256 43.4971L44.4586 45.1645C44.1574 43.2814 42.9176 41.5933 41.0249 40.8092L40.5634 40.618L40.3718 41.0793L39.3858 43.4524C38.42 41.6932 36.5503 40.5 34.4056 40.5H33.9056V41V43.4419C32.3599 42.3231 30.2914 42.0079 28.3982 42.7922L27.9369 42.9834L28.1274 43.4449L29.0669 45.7213C27.1501 45.1774 25.0088 45.6631 23.4972 47.1681L23.1421 47.5216L23.4964 47.8759L25.3025 49.6825C23.3886 49.9637 21.6612 51.2136 20.8707 53.134L20.6808 53.5953L21.1416 53.7863L23.3183 54.6883C21.6304 55.6656 20.5 57.4951 20.5 59.5911V60.0911H21H23.6179C22.4072 61.6497 22.0444 63.7982 22.8535 65.7546L23.0447 66.2169L23.5069 66.0255L25.6659 65.1313C25.2101 66.9969 25.7134 69.0487 27.1672 70.5029L27.5208 70.8566L27.8744 70.5029L29.7173 68.6595C29.9387 70.6508 31.2106 72.4615 33.1917 73.2836L33.654 73.4755L33.8454 73.013L34.7602 70.8021C35.7609 72.42 37.5538 73.5 39.5944 73.5H40.0944V73V70.4855C41.6577 71.7354 43.8363 72.1234 45.8189 71.3006L46.2805 71.1091L46.0892 70.6474L45.1337 68.3407C46.9988 68.7964 49.05 68.2929 50.5036 66.8389L50.8571 66.4854L50.5036 66.1318L48.8007 64.4285C50.758 64.1798 52.5357 62.9192 53.3456 60.968L53.5371 60.5067L53.076 60.3147L50.6789 59.317C52.3653 58.3327 53.5 56.5029 53.5 54.4089Z" fill="#F557EF" stroke="#232323"/>
</g>
<defs>
<filter id="filter0_f_2414_5011" x="-20" y="0" width="114" height="114" filterUnits="userSpaceOnUse" color-interpolation-filters="sRGB">
<feFlood flood-opacity="0" result="BackgroundImageFix"/>
<feBlend mode="normal" in="SourceGraphic" in2="BackgroundImageFix" result="shape"/>
<feGaussianBlur stdDeviation="20" result="effect1_foregroundBlur_2414_5011"/>
</filter>
<filter id="filter1_d_2414_5011" x="16" y="39.9649" width="42.1904" height="42.1642" filterUnits="userSpaceOnUse" color-interpolation-filters="sRGB">
<feFlood flood-opacity="0" result="BackgroundImageFix"/>
<feColorMatrix in="SourceAlpha" type="matrix" values="0 0 0 0 0 0 0 0 0 0 0 0 0 0 0 0 0 0 127 0" result="hardAlpha"/>
<feOffset dy="4"/>
<feGaussianBlur stdDeviation="2"/>
<feComposite in2="hardAlpha" operator="out"/>
<feColorMatrix type="matrix" values="0 0 0 0 0 0 0 0 0 0 0 0 0 0 0 0 0 0 0.25 0"/>
<feBlend mode="normal" in2="BackgroundImageFix" result="effect1_dropShadow_2414_5011"/>
<feBlend mode="normal" in="SourceGraphic" in2="effect1_dropShadow_2414_5011" result="shape"/>
</filter>
</defs>
</svg>
