<svg width="43" height="43" viewBox="0 0 43 43" fill="none" xmlns="http://www.w3.org/2000/svg">
<g id="pin_title_pop">
<path id="Vector" d="M37.359 15.1536C39.1668 12.6585 38.9494 9.1448 36.7068 6.90152C34.281 4.47511 30.3906 4.40644 27.8848 6.70695V6.38648C27.8848 2.86133 25.0242 0 21.5 0C17.9758 0 15.1152 2.86133 15.1152 6.38648V6.70695C12.6094 4.41789 8.719 4.47511 6.29324 6.90152C4.03912 9.15624 3.82171 12.6585 5.64103 15.1536C2.47153 15.5198 0 18.2209 0 21.4943C0 25.0194 2.86056 27.8808 6.38478 27.8808H6.70516L6.30468 28.2813C3.81027 30.7764 3.81027 34.8166 6.30468 37.3117C8.74188 39.7495 12.678 39.8068 15.1724 37.449C15.5844 40.5736 18.2618 43 21.5 43C24.7382 43 27.4156 40.585 27.8276 37.449C30.3334 39.7953 34.2581 39.7495 36.6953 37.3117C39.1897 34.8166 39.1897 30.7764 36.6953 28.2813L36.2948 27.8808H36.6152C40.1394 27.8808 43 25.0194 43 21.4943C42.9886 18.2209 40.5285 15.5198 37.359 15.1536Z" fill="#24EE81"/>
</g>
</svg>
