<svg width="22" height="21" viewBox="0 0 22 21" fill="none" xmlns="http://www.w3.org/2000/svg">
<path d="M15.3041 8.79956L17.5254 6.67974C18.9157 5.35294 18.9157 3.19753 17.5254 1.87073L12.7845 6.39506V3.40087C12.7845 1.51997 11.1864 0 9.22082 0V6.39506L6.99952 4.27524C5.6092 2.94844 3.35061 2.94844 1.96029 4.27524L6.70121 8.79956H3.56368C1.59274 8.79956 0 10.3246 0 12.2004H6.69588L4.47458 14.3203C3.08426 15.6471 3.08426 17.8025 4.47458 19.1293L9.2155 14.6049V17.5991C9.2155 19.48 10.8136 21 12.7792 21V14.6049L15.0005 16.7248C16.3908 18.0516 18.6494 18.0516 20.0397 16.7248L15.2988 12.2004H18.4363C20.4073 12.2004 22 10.6754 22 8.79956H15.3041Z" fill="#C071FF"/>
</svg>
