<svg width="22" height="22" viewBox="0 0 22 22" fill="none" xmlns="http://www.w3.org/2000/svg">
<path d="M12.3226 3.90588L18.1131 0.387297C20.3913 -0.99862 22.9986 1.60868 21.6127 3.88689L18.0941 9.67737C17.6005 10.4874 17.6005 11.5063 18.0941 12.3226L21.6127 18.1131C22.9986 20.3913 20.3913 22.9986 18.1131 21.6127L12.3226 18.0941C11.5126 17.6005 10.4937 17.6005 9.67737 18.0941L3.88689 21.6127C1.60867 22.9986 -0.99862 20.3913 0.387297 18.1131L3.90588 12.3226C4.39949 11.5126 4.39949 10.4937 3.90588 9.67737L0.387297 3.88689C-0.99862 1.60868 1.60867 -0.99862 3.88689 0.387297L9.67737 3.90588C10.4874 4.39949 11.5063 4.39949 12.3226 3.90588Z" fill="#FEE92B"/>
</svg>
