<svg width="32" height="32" viewBox="0 0 32 32" fill="none" xmlns="http://www.w3.org/2000/svg">
<path d="M32 15.9915C32 15.3309 28.6543 14.7549 23.7247 14.4584C28.1715 12.2901 31.0344 10.486 30.7803 9.87613C30.5262 9.26628 27.2144 10.0116 22.5389 11.6294C25.8168 7.928 27.7734 5.15829 27.3076 4.68396C26.8417 4.21811 24.072 6.1747 20.3706 9.45262C21.9799 4.77713 22.7337 1.4738 22.1154 1.21969C21.5056 0.96559 19.693 3.83695 17.5246 8.28375C17.2282 3.34569 16.6522 0 15.9915 0C15.3309 0 14.7549 3.34569 14.4584 8.27528C12.2901 3.82848 10.486 0.96559 9.87613 1.21969C9.26628 1.4738 10.0116 4.7856 11.621 9.45262C7.91953 6.1747 5.14981 4.21811 4.68396 4.68396C4.21811 5.14981 6.1747 7.91953 9.45262 11.621C4.77713 10.0116 1.4738 9.25781 1.21969 9.87613C0.96559 10.486 3.83695 12.2986 8.27528 14.4584C3.33722 14.7549 0 15.3309 0 15.9915C0 16.6522 3.34569 17.2282 8.28375 17.5246C3.83695 19.693 0.96559 21.5056 1.21969 22.1154C1.4738 22.7253 4.77713 21.9799 9.45262 20.3706C6.1747 24.072 4.21811 26.8417 4.68396 27.3076C5.14981 27.7734 7.91953 25.8168 11.6294 22.5389C10.0201 27.2144 9.26628 30.5262 9.87613 30.7803C10.486 31.0344 12.2986 28.1631 14.4584 23.7247C14.7549 28.6628 15.3309 32 15.9915 32C16.6522 32 17.2282 28.6543 17.5246 23.7247C19.693 28.1715 21.4971 31.0429 22.1154 30.7888C22.7253 30.5347 21.9799 27.2229 20.3706 22.5558C24.072 25.8338 26.8417 27.7904 27.3076 27.3245C27.7734 26.8587 25.8168 24.0889 22.5389 20.3875C27.2144 21.9968 30.5177 22.7507 30.7718 22.1323C31.0259 21.5225 28.1546 19.7099 23.7078 17.5416C28.6543 17.2282 32 16.6522 32 15.9915Z" fill="#5452FF"/>
</svg>
