<svg width="24" height="24" viewBox="0 0 24 24" fill="none" xmlns="http://www.w3.org/2000/svg">
<path d="M24 11.9936C24 11.4981 21.4907 11.0662 17.7935 10.8438C21.1286 9.21758 23.2758 7.86448 23.0852 7.40709C22.8947 6.94971 20.4108 7.50874 16.9042 8.72208C19.3626 5.946 20.8301 3.86871 20.4807 3.51297C20.1313 3.16358 18.054 4.63102 15.2779 7.08947C16.4849 3.58285 17.0503 1.10535 16.5866 0.91477C16.1292 0.724193 14.7697 2.87771 13.1435 6.21281C12.9211 2.50926 12.4891 0 11.9936 0C11.4981 0 11.0662 2.50926 10.8438 6.20646C9.21758 2.87136 7.86448 0.724193 7.40709 0.91477C6.94971 1.10535 7.50873 3.5892 8.71572 7.08947C5.93965 4.63102 3.86236 3.16358 3.51297 3.51297C3.16358 3.86236 4.63102 5.93965 7.08947 8.71572C3.58285 7.50873 1.10535 6.94336 0.91477 7.40709C0.724193 7.86448 2.87771 9.22393 6.20646 10.8438C2.50291 11.0662 0 11.4981 0 11.9936C0 12.4891 2.50926 12.9211 6.21281 13.1435C2.87771 14.7697 0.724193 16.1292 0.91477 16.5866C1.10535 17.0439 3.58285 16.4849 7.08947 15.2779C4.63102 18.054 3.16358 20.1313 3.51297 20.4807C3.86236 20.8301 5.93965 19.3626 8.72208 16.9042C7.51509 20.4108 6.94971 22.8947 7.40709 23.0852C7.86448 23.2758 9.22393 21.1223 10.8438 17.7935C11.0662 21.4971 11.4981 24 11.9936 24C12.4891 24 12.9211 21.4907 13.1435 17.7935C14.7697 21.1286 16.1228 23.2822 16.5866 23.0916C17.0439 22.901 16.4849 20.4172 15.2779 16.9169C18.054 19.3753 20.1313 20.8428 20.4807 20.4934C20.8301 20.144 19.3626 18.0667 16.9042 15.2906C20.4108 16.4976 22.8883 17.063 23.0789 16.5993C23.2695 16.1419 21.1159 14.7824 17.7808 13.1562C21.4907 12.9211 24 12.4891 24 11.9936Z" fill="#5452FF"/>
</svg>
