<svg width="36" height="36" viewBox="0 0 60 60" fill="none" xmlns="http://www.w3.org/2000/svg">
<path d="M60 29.9841C60 28.7454 53.7268 27.6654 44.4839 27.1096C52.8216 23.0439 58.1895 19.6612 57.7131 18.5177C57.2366 17.3743 51.027 18.7718 42.2605 21.8052C48.4066 14.865 52.0752 9.67178 51.2017 8.78242C50.3282 7.90895 45.135 11.5776 38.1948 17.7237C41.2123 8.95712 42.6257 2.76337 41.4664 2.28692C40.3229 1.81048 36.9243 7.19428 32.8587 15.532C32.3028 6.27316 31.2229 0 29.9841 0C28.7454 0 27.6654 6.27316 27.1096 15.5161C23.0439 7.1784 19.6612 1.81048 18.5177 2.28692C17.3743 2.76337 18.7718 8.973 21.7893 17.7237C14.8491 11.5776 9.6559 7.90895 8.78242 8.78242C7.90895 9.6559 11.5776 14.8491 17.7237 21.7893C8.95712 18.7718 2.76337 17.3584 2.28692 18.5177C1.81048 19.6612 7.19428 23.0598 15.5161 27.1096C6.25728 27.6654 0 28.7454 0 29.9841C0 31.2229 6.27316 32.3028 15.532 32.8587C7.19428 36.9243 1.81048 40.3229 2.28692 41.4664C2.76337 42.6098 8.95712 41.2123 17.7237 38.1948C11.5776 45.135 7.90895 50.3282 8.78242 51.2017C9.6559 52.0752 14.8491 48.4066 21.8052 42.2605C18.7877 51.027 17.3743 57.2366 18.5177 57.7131C19.6612 58.1895 23.0598 52.8057 27.1096 44.4839C27.6654 53.7427 28.7454 60 29.9841 60C31.2229 60 32.3028 53.7268 32.8587 44.4839C36.9243 52.8216 40.307 58.2054 41.4664 57.729C42.6098 57.2525 41.2123 51.0429 38.1948 42.2922C45.135 48.4383 50.3282 52.1069 51.2017 51.2335C52.0752 50.36 48.4066 45.1668 42.2605 38.2266C51.027 41.244 57.2208 42.6575 57.6972 41.4981C58.1736 40.3547 52.7898 36.9561 44.4521 32.8904C53.7268 32.3028 60 31.2229 60 29.9841Z" fill="#5452FF"/>
</svg>
