<svg width="20" height="21" viewBox="0 0 20 21" fill="none" xmlns="http://www.w3.org/2000/svg">
<path d="M20 10.2466C20 9.83365 17.9089 9.47367 14.828 9.28839C17.6072 7.93317 19.3965 6.80559 19.2377 6.42444C19.0789 6.04329 17.009 6.50914 14.0868 7.52026C16.1355 5.20686 17.3584 3.47579 17.0672 3.17934C16.7761 2.88818 15.045 4.11105 12.7316 6.15975C13.7374 3.23757 14.2086 1.17298 13.8221 1.01417C13.441 0.855356 12.3081 2.64996 10.9529 5.4292C10.7676 2.34292 10.4076 0.251862 9.99471 0.251862C9.58179 0.251862 9.22181 2.34291 9.03653 5.42391C7.68131 2.64466 6.55373 0.855356 6.17258 1.01417C5.79142 1.17298 6.25728 3.24286 7.2631 6.15975C4.94971 4.11105 3.21863 2.88818 2.92747 3.17934C2.63632 3.4705 3.85918 5.20157 5.90789 7.51496C2.98571 6.50914 0.921122 6.03799 0.762308 6.42444C0.603494 6.80559 2.39809 7.93847 5.17205 9.28839C2.08576 9.47367 0 9.83365 0 10.2466C0 10.6595 2.09105 11.0195 5.17734 11.2047C2.39809 12.56 0.603494 13.6928 0.762308 14.074C0.921122 14.4551 2.98571 13.9893 5.90789 12.9835C3.85918 15.2969 2.63632 17.0279 2.92747 17.3191C3.21863 17.6103 4.94971 16.3874 7.2684 14.3387C6.26257 17.2609 5.79142 19.3307 6.17258 19.4896C6.55373 19.6484 7.68661 17.8538 9.03653 15.0798C9.22181 18.1661 9.58179 20.2519 9.99471 20.2519C10.4076 20.2519 10.7676 18.1608 10.9529 15.0798C12.3081 17.8591 13.4357 19.6537 13.8221 19.4948C14.2033 19.336 13.7374 17.2662 12.7316 14.3493C15.045 16.398 16.7761 17.6208 17.0672 17.3297C17.3584 17.0385 16.1355 15.3074 14.0868 12.9941C17.009 13.9999 19.0736 14.471 19.2324 14.0846C19.3912 13.7034 17.5966 12.5705 14.8174 11.2153C17.9089 11.0195 20 10.6595 20 10.2466Z" fill="#413EFF"/>
</svg>
