<svg width="22" height="21" viewBox="0 0 22 21" fill="none" xmlns="http://www.w3.org/2000/svg">
<path d="M22 8.79956H19.6094C20.7275 7.8642 21.1534 6.32389 20.5518 4.94118L18.1292 5.89688C18.864 4.60566 18.6563 2.96369 17.5169 1.87073L15.8291 3.48221C15.8984 2.08932 15.0624 0.742193 13.6355 0.177923L12.6399 2.4655C12.2139 1.04212 10.8403 0 9.21636 0V2.33333C8.23137 1.30138 6.64472 0.915033 5.21781 1.4793L6.17619 3.69571C4.82381 2.99419 3.10407 3.19245 1.95934 4.28032L3.75363 5.99346C2.27348 5.90196 0.825266 6.70516 0.228945 8.08787L2.46515 8.9724C1.03291 9.4045 0 10.6855 0 12.2004H2.60891C1.43756 13.1256 0.979671 14.7066 1.59197 16.1198L3.7909 15.2505C3.15198 16.5163 3.38625 18.0821 4.48306 19.1293L6.33591 17.3602C6.16021 18.8293 7.0121 20.2883 8.51355 20.8831L9.43466 18.7582C9.92982 20.0646 11.2449 21 12.7836 21V18.5599C13.7473 19.7139 15.4298 20.1765 16.9313 19.5817L15.9782 17.3856C17.304 17.9956 18.9439 17.772 20.0407 16.7248L18.2996 15.0625C19.8117 15.1946 21.3078 14.3863 21.9201 12.9782L19.5402 12.0327C20.9671 11.5904 22 10.3094 22 8.79956Z" fill="#F557EF"/>
</svg>
