<svg width="85" height="85" viewBox="0 0 85 85" fill="none" xmlns="http://www.w3.org/2000/svg">
<path d="M59.1094 25.9378C56.5583 28.7031 53.4313 30.8887 49.8457 31.9173C48.1311 26.0184 45.2602 20.3468 40.0715 16.748C37.3047 14.6591 33.9554 14.0707 30.3712 14.637C27.2493 15.2049 24.586 16.9298 23.652 19.9314C23.3005 21.4325 23.6417 23.167 24.6784 24.2103C27.5566 27.5707 30.6668 30.7007 31.9243 34.9804C26.1405 36.8109 20.3538 39.5659 16.755 44.7546C13.1568 49.7121 13.247 57.686 19.0146 60.94C19.1298 61.0559 19.3616 60.8256 19.4768 60.9415C21.5532 62.1037 23.7536 60.6084 25.491 59.3428C27.8124 56.1145 31.4003 54.3926 34.9873 52.9017C36.3586 57.7596 38.7709 62.2741 41.9948 65.9822C43.8371 68.0681 46.259 69.5781 49.1461 70.1651C49.6083 70.1666 49.9546 70.2832 50.5321 70.4006C54.3444 70.7595 58.7385 69.849 60.5992 66.157C60.7151 66.0418 60.8311 65.9266 60.947 65.8114C61.531 63.8488 61.4225 61.6528 59.925 60.1458C56.9301 57.1317 54.167 53.8873 52.9087 49.8387C54.9902 49.3831 56.9573 48.5805 58.8092 47.6619C59.388 47.3171 59.7358 46.9715 60.4299 46.7426C60.7769 46.6281 61.0088 46.3977 61.2406 46.1674C61.5877 46.0529 61.7036 45.9377 62.0507 45.8233C65.7559 43.5239 68.8851 40.6449 69.9388 36.3725C70.9917 32.3313 70.4282 27.8227 67.3174 24.9239C64.8976 22.7205 60.9665 23.4014 59.1094 25.9378Z" fill="#FE60A2"/>
</svg>
