<svg width="22" height="22" viewBox="0 0 22 22" fill="none" xmlns="http://www.w3.org/2000/svg">
<path d="M19.6006 11.0225C18.2224 11.0824 16.8442 10.8428 15.6457 10.1836C16.7243 8.20633 17.4434 5.98934 17.0239 3.71242C16.8442 2.45413 16.1251 1.43551 15.0465 0.656568C14.0878 -0.00253789 12.9492 -0.242213 11.9306 0.297056C11.4512 0.59665 11.0916 1.13592 11.0916 1.67519C10.9718 3.29299 10.9718 4.9108 10.1928 6.34885C8.21538 5.33023 5.99826 4.55129 3.72122 4.97072C1.50409 5.33023 -0.533261 7.42739 0.125883 9.76422C0.125883 9.82414 0.245728 9.82414 0.245728 9.88405C0.485416 10.7229 1.44417 10.9027 2.22316 11.0225C3.66129 10.7828 5.0395 11.2622 6.35779 11.8015C5.45896 13.4193 4.91966 15.2168 4.79982 17.0144C4.73989 18.033 4.97958 19.0516 5.5788 19.9504C5.69865 20.0702 5.75857 20.1901 5.87841 20.3698C6.77725 21.4484 8.15546 22.3472 9.59359 21.8678C9.65351 21.8678 9.71344 21.8678 9.77336 21.8678C10.4325 21.5083 10.9718 20.9091 10.9718 20.1302C10.9718 18.5723 11.0916 17.0144 11.8107 15.6363C12.4699 16.0557 13.1889 16.3553 13.908 16.595C14.1477 16.6549 14.3274 16.6549 14.5671 16.7747C14.687 16.8346 14.8068 16.8346 14.9267 16.8346C15.0465 16.8945 15.1064 16.8945 15.2263 16.9545C16.7843 17.314 18.3422 17.3739 19.7204 16.535C21.0387 15.7561 22.0574 14.4379 21.9975 12.88C21.9376 11.6816 20.7391 10.8428 19.6006 11.0225Z" fill="#FE60A2"/>
</svg>
