<svg width="20" height="21" viewBox="0 0 20 21" fill="none" xmlns="http://www.w3.org/2000/svg">
<path d="M17.8187 10.2729C16.5658 10.3274 15.3129 10.1095 14.2234 9.51026C15.2039 7.71259 15.8576 5.69703 15.4763 3.62699C15.3129 2.48302 14.6592 1.55695 13.6786 0.848776C12.8071 0.249554 11.772 0.0316554 10.846 0.521928C10.4102 0.794302 10.0833 1.28457 10.0833 1.77485C9.97437 3.24566 9.97437 4.71648 9.26619 6.02388C7.46853 5.09781 5.45296 4.38963 3.38292 4.77096C1.36736 5.09781 -0.484783 7.00442 0.114439 9.12894C0.114439 9.18341 0.223389 9.18341 0.223389 9.23789C0.441288 10.0005 1.31288 10.164 2.02105 10.2729C3.32845 10.055 4.58137 10.4908 5.77981 10.9811C4.96269 12.4519 4.47242 14.0861 4.36347 15.7204C4.30899 16.6465 4.52689 17.5725 5.07164 18.3896C5.18059 18.4986 5.23506 18.6075 5.34401 18.771C6.16113 19.7515 7.41405 20.5686 8.72145 20.1328C8.77592 20.1328 8.8304 20.1328 8.88487 20.1328C9.48409 19.806 9.97437 19.2612 9.97437 18.5531C9.97437 17.1367 10.0833 15.7204 10.737 14.4675C11.3362 14.8488 11.9899 15.1212 12.6436 15.3391C12.8615 15.3935 13.0249 15.3935 13.2428 15.5025C13.3518 15.557 13.4607 15.557 13.5697 15.557C13.6786 15.6114 13.7331 15.6114 13.8421 15.6659C15.2584 15.9928 16.6748 16.0472 17.9277 15.2846C19.1261 14.5764 20.0522 13.378 19.9977 11.9616C19.9432 10.8721 18.8537 10.1095 17.8187 10.2729Z" fill="#FE60A2"/>
</svg>
