<svg width="80" height="80" viewBox="0 0 80 80" fill="none" xmlns="http://www.w3.org/2000/svg">
<g opacity="0.8">
<path d="M63.8165 40.9412C67.5399 38.7915 69.2628 34.1913 67.6825 30.057C65.9731 25.5851 61.0559 23.2833 56.5541 24.7879L56.7365 24.3796C58.7429 19.8886 56.7272 14.6151 52.2374 12.6093C47.7476 10.6034 42.4747 12.6205 40.4683 17.1115L40.2859 17.5198C38.3963 13.1773 33.4075 11.0359 28.936 12.7464C24.781 14.336 22.5106 18.6741 23.4083 22.8882C19.1619 21.5509 14.4758 23.5853 12.6127 27.7555C10.6063 32.2465 12.6221 37.5199 17.1119 39.5258L17.52 39.7082L16.7818 39.9906C12.1839 41.7495 9.88429 46.8967 11.642 51.4951C13.3594 55.9881 18.3414 58.3013 22.8612 56.7174C21.6076 60.9325 23.6376 65.5476 27.763 67.3907C31.8884 69.2338 36.674 67.6811 38.9837 63.9203C40.8407 68.3357 45.8668 70.5112 50.3593 68.7926C54.9573 67.0337 57.2568 61.8865 55.4991 57.2881L55.2169 56.5498L55.6251 56.7321C60.1149 58.738 65.3878 56.7209 67.3942 52.2299C69.2427 48.0531 67.646 43.2118 63.8165 40.9412Z" fill="#ADFB49"/>
</g>
</svg>
