<svg width="24" height="24" viewBox="0 0 24 24" fill="none" xmlns="http://www.w3.org/2000/svg">
<path d="M20.4466 8.16444L19.9452 8.85642L20.7941 8.95451C22.3121 9.12991 23.494 10.4251 23.5 11.9975C23.4996 13.6887 22.1269 15.0614 20.4364 15.0614H20.2576H19.0507L19.904 15.9149L20.1275 16.1384C21.3245 17.3358 21.3245 19.2743 20.1275 20.4716C18.9594 21.6401 17.0766 21.6634 15.8734 20.5368L15.1627 19.8714L15.0359 20.8367C14.8382 22.3418 13.5527 23.5 12 23.5C10.448 23.5 9.16176 22.3361 8.96405 20.8364L8.83613 19.8661L8.12488 20.5384C6.93007 21.6678 5.0421 21.6415 3.87249 20.4716C2.67546 19.2743 2.67546 17.3358 3.87249 16.1384L4.09602 15.9149L4.9493 15.0614H3.74242H3.5636C1.87286 15.0614 0.5 13.6883 0.5 11.9968C0.5 10.4268 1.68608 9.13013 3.20588 8.95451L4.05769 8.85608L3.55249 8.16323C2.68018 6.96692 2.78442 5.28749 3.86611 4.20552C5.02912 3.0422 6.89604 3.01352 8.09918 4.11257L8.9364 4.87737V3.74341V3.56455C8.9364 1.87304 10.3093 0.5 12 0.5C13.6907 0.5 15.0636 1.87304 15.0636 3.56455V3.74341V4.88119L15.9017 4.11174C17.1035 3.00844 18.9698 3.04114 20.1339 4.20552C21.2086 5.28054 21.3143 6.96698 20.4466 8.16444Z" fill="#90F50F" stroke="#90F50F"/>
</svg>
