<svg width="20" height="20" viewBox="0 0 20 20" fill="none" xmlns="http://www.w3.org/2000/svg">
<path d="M20 9.99471C20 9.58179 17.9089 9.22181 14.828 9.03653C17.6072 7.68131 19.3965 6.55373 19.2377 6.17258C19.0789 5.79142 17.009 6.25728 14.0868 7.2684C16.1355 4.955 17.3584 3.22393 17.0672 2.92747C16.7761 2.63632 15.045 3.85918 12.7316 5.90789C13.7374 2.98571 14.2086 0.921122 13.8221 0.762308C13.441 0.603494 12.3081 2.39809 10.9529 5.17734C10.7676 2.09105 10.4076 0 9.99471 0C9.58179 0 9.22181 2.09105 9.03653 5.17205C7.68131 2.3928 6.55373 0.603494 6.17258 0.762308C5.79142 0.921122 6.25728 2.991 7.2631 5.90789C4.94971 3.85918 3.21863 2.63632 2.92747 2.92747C2.63632 3.21863 3.85918 4.94971 5.90789 7.2631C2.98571 6.25728 0.921122 5.78613 0.762308 6.17258C0.603494 6.55373 2.39809 7.68661 5.17205 9.03653C2.08576 9.22181 0 9.58179 0 9.99471C0 10.4076 2.09105 10.7676 5.17734 10.9529C2.39809 12.3081 0.603494 13.441 0.762308 13.8221C0.921122 14.2033 2.98571 13.7374 5.90789 12.7316C3.85918 15.045 2.63632 16.7761 2.92747 17.0672C3.21863 17.3584 4.94971 16.1355 7.2684 14.0868C6.26257 17.009 5.79142 19.0789 6.17258 19.2377C6.55373 19.3965 7.68661 17.6019 9.03653 14.828C9.22181 17.9142 9.58179 20 9.99471 20C10.4076 20 10.7676 17.9089 10.9529 14.828C12.3081 17.6072 13.4357 19.4018 13.8221 19.243C14.2033 19.0842 13.7374 17.0143 12.7316 14.0974C15.045 16.1461 16.7761 17.369 17.0672 17.0778C17.3584 16.7867 16.1355 15.0556 14.0868 12.7422C17.009 13.748 19.0736 14.2192 19.2324 13.8327C19.3912 13.4516 17.5966 12.3187 14.8174 10.9635C17.9089 10.7676 20 10.4076 20 9.99471Z" fill="#232323"/>
</svg>
