<svg width="338" height="115" viewBox="0 0 338 115" fill="none" xmlns="http://www.w3.org/2000/svg">
<path d="M313.009 61.3777C355.064 61.3777 330.536 18.8948 309.501 55.3157C330.52 18.8948 281.464 18.8948 302.5 55.3157C281.481 18.8948 256.953 61.3777 298.991 61.3777C256.936 61.3777 281.464 103.861 302.5 67.4396C281.481 103.861 330.536 103.861 309.501 67.4396C330.52 103.877 355.047 61.3777 313.009 61.3777Z" fill="#232323"/>
<path d="M314.572 46.5317C313.963 47.1951 313.355 47.9113 312.747 48.6824C323.631 21.1109 288.365 21.1059 299.244 48.6673L306.605 95.7357M314.572 46.5317C314.301 47.3902 313.986 48.2756 313.622 49.1876C332.063 25.9653 349.703 56.5146 320.384 60.8728C321.355 61.0138 322.279 61.1831 323.157 61.3783M314.572 46.5317C316.102 41.6707 316.177 37.6692 315.277 34.5515C313.844 29.5892 309.962 27 305.994 27C302.026 27 298.145 29.5893 296.714 34.5519C295.816 37.6666 295.892 41.6634 297.42 46.518C293.981 42.7689 290.558 40.7063 287.413 39.9271C282.4 38.6856 278.217 40.7529 276.233 44.1887C274.754 46.7496 274.544 49.9885 276.015 53.0129C273.999 54.5443 272.586 56.83 272.198 59.4484C268.389 57.1493 263.365 57.631 260.074 60.9227C256.95 64.0475 256.347 68.7184 258.265 72.441C254.082 73.5971 251 77.4365 251 81.9916C251 86.8839 254.55 90.9522 259.212 91.758C256.245 95.6437 256.538 101.216 260.09 104.769C263.467 108.147 268.7 108.582 272.541 106.029C273.797 110.058 277.556 112.999 282 112.999C286.446 112.999 290.209 110.067 291.462 106.024C295.309 108.567 300.529 108.151 303.91 104.769C306.364 102.315 307.262 98.896 306.605 95.7357M314.572 46.5317C318.017 42.7738 321.446 40.7071 324.597 39.9271C329.611 38.6857 333.795 40.7527 335.78 44.1887C337.764 47.6248 337.463 52.2812 333.881 56.0023C331.632 58.3393 328.13 60.2742 323.157 61.3783M323.157 61.3783C322.279 61.5733 321.355 61.7424 320.383 61.8832C349.679 66.2436 332.056 96.7872 313.633 73.5885C313.996 74.5 314.312 75.3849 314.582 76.243M323.157 61.3783C328.126 62.4831 331.625 64.4183 333.872 66.7557C337.452 70.4783 337.752 75.136 335.767 78.5727C333.783 82.0095 329.6 84.0775 324.587 82.8351C321.442 82.0556 318.02 79.9925 314.582 76.243M314.582 76.243C313.974 75.58 313.365 74.8643 312.758 74.0936C318.092 87.6125 312.323 94.4974 306.345 94.7482C306.449 95.0736 306.535 95.4032 306.605 95.7357M314.582 76.243C316.109 81.095 316.184 85.09 315.286 88.2034C313.928 92.9162 310.359 95.4886 306.605 95.7357" stroke="#232323" stroke-width="2"/>
<path d="M21.9434 62.1543C22.7363 62.1543 23.3105 62.4824 23.666 63.1387C24.0488 63.7676 24.2402 64.4922 24.2402 65.3125C24.2402 65.7227 24.1992 66.0781 24.1172 66.3789C24.0352 66.6797 23.8711 66.9668 23.625 67.2402C23.3789 67.4863 23.0508 67.7324 22.6406 67.9785C22.2305 68.1973 21.6973 68.4434 21.041 68.7168C19.5098 69.373 18.3066 70.166 17.4316 71.0957C16.5566 71.998 16.1191 72.9004 16.1191 73.8027C16.1191 74.377 16.3105 74.9238 16.6934 75.4434C17.0762 75.9629 17.6777 76.4277 18.498 76.8379C19.3184 77.2207 20.3711 77.5352 21.6562 77.7812C22.9688 78 24.541 78.1094 26.373 78.1094C28.2598 78.1094 30.0508 77.8906 31.7461 77.4531C33.4414 76.9883 34.918 76.3457 36.1758 75.5254C37.4609 74.7051 38.4727 73.7344 39.2109 72.6133C39.9766 71.4922 40.3594 70.2754 40.3594 68.9629C40.3594 67.9785 39.9492 66.9531 39.1289 65.8867C38.3086 64.8203 37.0098 63.7129 35.2324 62.5645C32.0879 60.5137 29.6953 58.8594 28.0547 57.6016C26.4414 56.3438 25.4434 55.5508 25.0605 55.2227C23.0098 53.418 21.4785 51.6816 20.4668 50.0137C19.4551 48.3457 18.9492 46.6094 18.9492 44.8047C18.9492 43.1367 19.3457 41.5098 20.1387 39.9238C20.959 38.3379 22.0527 36.8477 23.4199 35.4531C24.7871 34.0586 26.3594 32.7734 28.1367 31.5977C29.9414 30.3945 31.8145 29.3691 33.7559 28.5215C35.7246 27.6738 37.6934 27.0176 39.6621 26.5527C41.6582 26.0605 43.5449 25.8145 45.3223 25.8145C46.6621 25.8145 47.8926 25.9648 49.0137 26.2656C50.1621 26.5664 51.1602 27.0449 52.0078 27.7012C52.8555 28.3301 53.5117 29.1504 53.9766 30.1621C54.4688 31.1738 54.7148 32.3906 54.7148 33.8125C54.7148 35.8633 54.127 37.8184 52.9512 39.6777C51.7754 41.5371 49.9844 43.2734 47.5781 44.8867C46.5117 45.625 45.5273 45.9941 44.625 45.9941C43.6953 45.9941 42.957 45.666 42.4102 45.0098C41.8633 44.3262 41.5898 43.5332 41.5898 42.6309C41.5898 41.8652 41.8086 41.0996 42.2461 40.334C42.7109 39.5684 43.4492 38.9121 44.4609 38.3652C45.2539 37.9551 45.9512 37.4082 46.5527 36.7246C47.1816 36.0137 47.4961 35.3301 47.4961 34.6738C47.4961 34.0449 47.2773 33.6348 46.8398 33.4434C46.4297 33.252 45.9238 33.1562 45.3223 33.1562C44.1738 33.1562 42.916 33.3066 41.5488 33.6074C40.209 33.8809 38.8555 34.2637 37.4883 34.7559C36.1484 35.248 34.8359 35.8359 33.5508 36.5195C32.293 37.2031 31.1719 37.9414 30.1875 38.7344C29.2305 39.5273 28.4512 40.375 27.8496 41.2773C27.2754 42.1523 26.9883 43.0273 26.9883 43.9023C26.9883 44.5039 27.1113 45.0645 27.3574 45.584C27.6035 46.1035 27.959 46.623 28.4238 47.1426C28.916 47.6621 29.5039 48.209 30.1875 48.7832C30.8711 49.3301 31.6641 49.9316 32.5664 50.5879L42.1641 57.6836C43.3945 58.5859 44.4883 59.4746 45.4453 60.3496C46.4297 61.1973 47.25 62.0586 47.9062 62.9336C48.5625 63.7812 49.0684 64.6426 49.4238 65.5176C49.7793 66.3926 49.957 67.3223 49.957 68.3066C49.957 70.4941 49.3828 72.6406 48.2344 74.7461C47.1133 76.8242 45.5 78.6836 43.3945 80.3242C41.3164 81.9648 38.8008 83.291 35.8477 84.3027C32.9219 85.3145 29.668 85.8203 26.0859 85.8203C22.75 85.8203 19.9062 85.5469 17.5547 85C15.2305 84.4805 13.3164 83.7695 11.8125 82.8672C10.3086 81.9375 9.21484 80.8848 8.53125 79.709C7.84766 78.5059 7.50586 77.248 7.50586 75.9355C7.50586 74.5684 7.84766 73.1875 8.53125 71.793C9.24219 70.3711 10.2266 69.0312 11.4844 67.7734C12.7695 66.5156 14.3008 65.3945 16.0781 64.4102C17.8555 63.4258 19.8105 62.6738 21.9434 62.1543ZM69.0703 62.4004C67.7852 62.4004 66.541 62.7285 65.3379 63.3848C64.1621 64.0137 63.1094 64.8613 62.1797 65.9277C61.2773 66.9668 60.5527 68.1562 60.0059 69.4961C59.459 70.8086 59.1855 72.1621 59.1855 73.5566C59.1855 74.0762 59.2266 74.6504 59.3086 75.2793C59.3906 75.8809 59.5547 76.4551 59.8008 77.002C60.0742 77.5215 60.457 77.959 60.9492 78.3145C61.4414 78.6699 62.0977 78.8477 62.918 78.8477C64.1758 78.8477 65.3926 78.5195 66.5684 77.8633C67.7715 77.1797 68.8379 76.3047 69.7676 75.2383C70.6973 74.1445 71.4355 72.9141 71.9824 71.5469C72.5293 70.1797 72.8027 68.7988 72.8027 67.4043C72.8027 66.8574 72.7617 66.2969 72.6797 65.7227C72.625 65.1211 72.4609 64.5742 72.1875 64.082C71.9414 63.5898 71.5723 63.1934 71.0801 62.8926C70.5879 62.5645 69.918 62.4004 69.0703 62.4004ZM71.2031 55.1816C72.2422 55.1816 73.3496 55.3184 74.5254 55.5918C75.7285 55.8652 76.8359 56.3301 77.8477 56.9863C78.8594 57.6426 79.6934 58.5176 80.3496 59.6113C81.0332 60.6777 81.375 62.0039 81.375 63.5898C81.375 64.4102 81.2656 65.3535 81.0469 66.4199C80.8281 67.459 80.5 68.5527 80.0625 69.7012C80.3359 70.0293 80.6504 70.2617 81.0059 70.3984C81.3613 70.5352 81.7441 70.6035 82.1543 70.6035C82.7285 70.6035 83.3574 70.4395 84.041 70.1113C84.752 69.7832 85.4766 69.3594 86.2148 68.8398C86.9531 68.3203 87.6914 67.7324 88.4297 67.0762C89.168 66.4199 89.8652 65.7637 90.5215 65.1074C91.1777 64.4512 91.7656 63.8359 92.2852 63.2617C92.832 62.6602 93.2832 62.1543 93.6387 61.7441C93.8301 61.5527 94.0625 61.457 94.3359 61.457C94.7188 61.457 95.0605 61.6621 95.3613 62.0723C95.6621 62.4551 95.8125 63.002 95.8125 63.7129C95.8125 64.4238 95.5938 65.2441 95.1562 66.1738C94.7461 67.1035 93.9668 68.0742 92.8184 69.0859C92.1621 69.7969 91.4102 70.6172 90.5625 71.5469C89.7148 72.4766 88.8125 73.3516 87.8555 74.1719C86.8984 74.9922 85.9004 75.6895 84.8613 76.2637C83.8223 76.8379 82.7832 77.125 81.7441 77.125C81.0332 77.125 80.3359 77.0156 79.6523 76.7969C78.9961 76.5781 78.3262 76.2227 77.6426 75.7305C76.6582 77.2617 75.5371 78.6562 74.2793 79.9141C73.0215 81.1719 71.6133 82.252 70.0547 83.1543C68.5234 84.0566 66.8555 84.7539 65.0508 85.2461C63.2734 85.7656 61.373 86.0254 59.3496 86.0254C58.584 86.0254 57.6953 85.875 56.6836 85.5742C55.6719 85.2734 54.7012 84.7812 53.7715 84.0977C52.8691 83.3867 52.1035 82.4707 51.4746 81.3496C50.8457 80.2285 50.5312 78.8613 50.5312 77.248C50.5312 76.1543 50.709 74.8418 51.0645 73.3105C51.4199 71.7793 51.9531 70.207 52.6641 68.5938C53.4023 66.9531 54.3184 65.3398 55.4121 63.7539C56.5332 62.1406 57.8594 60.7051 59.3906 59.4473C60.9219 58.1621 62.6719 57.1367 64.6406 56.3711C66.6094 55.5781 68.7969 55.1816 71.2031 55.1816ZM94.7051 60.1035C95.252 58.9277 95.9355 58.0527 96.7559 57.4785C97.5762 56.9043 98.3828 56.6172 99.1758 56.6172C99.832 56.6172 100.42 56.8633 100.939 57.3555C101.459 57.8203 101.719 58.5176 101.719 59.4473C101.719 59.8027 101.678 60.1855 101.596 60.5957C101.514 61.0059 101.363 61.4434 101.145 61.9082C101.746 61.1426 102.607 60.3633 103.729 59.5703C104.85 58.75 106.08 58.0254 107.42 57.3965C108.787 56.7402 110.182 56.207 111.604 55.7969C113.053 55.3867 114.42 55.1816 115.705 55.1816C117.154 55.1816 118.357 55.5371 119.314 56.248C120.299 56.9316 120.791 58.1074 120.791 59.7754C120.791 60.7598 120.641 61.7852 120.34 62.8516C120.039 63.918 119.643 64.9844 119.15 66.0508C118.686 67.1172 118.152 68.1699 117.551 69.209C116.977 70.2207 116.402 71.1777 115.828 72.0801C115.254 72.9824 114.721 73.8164 114.229 74.582C113.764 75.3203 113.395 75.9355 113.121 76.4277C112.766 76.8652 112.588 77.3711 112.588 77.9453C112.588 78.1641 112.656 78.3555 112.793 78.5195C112.93 78.6836 113.148 78.7656 113.449 78.7656C113.641 78.7656 113.859 78.752 114.105 78.7246C114.352 78.6699 114.652 78.5195 115.008 78.2734C116.484 77.7266 117.988 77.043 119.52 76.2227C121.078 75.4023 122.568 74.541 123.99 73.6387C125.412 72.709 126.711 71.793 127.887 70.8906C129.09 69.9609 130.088 69.127 130.881 68.3887C131.1 68.1973 131.318 68.0605 131.537 67.9785C131.756 67.8965 131.961 67.8555 132.152 67.8555C132.617 67.8555 132.973 68.0332 133.219 68.3887C133.492 68.7441 133.629 69.1953 133.629 69.7422C133.629 70.5898 133.355 71.5332 132.809 72.5723C132.289 73.6113 131.455 74.582 130.307 75.4844C128.748 76.6055 127.312 77.6309 126 78.5605C124.715 79.4902 123.389 80.3652 122.021 81.1855C120.682 81.9785 119.232 82.7305 117.674 83.4414C116.143 84.125 114.338 84.7676 112.26 85.3691C111.549 85.5879 110.893 85.752 110.291 85.8613C109.717 85.9707 109.184 86.0254 108.691 86.0254C107.242 86.0254 106.176 85.6289 105.492 84.8359C104.836 84.0156 104.508 82.8809 104.508 81.4316C104.508 81.2402 104.508 81.0625 104.508 80.8984C104.535 80.707 104.562 80.502 104.59 80.2832C104.645 79.4355 104.863 78.5059 105.246 77.4941C105.656 76.4824 106.135 75.4434 106.682 74.377C107.256 73.3105 107.857 72.2578 108.486 71.2188C109.115 70.1523 109.689 69.1543 110.209 68.2246C110.756 67.2676 111.207 66.4199 111.562 65.6816C111.918 64.9434 112.096 64.3418 112.096 63.877C112.096 63.4668 111.973 63.125 111.727 62.8516C111.508 62.5508 111.166 62.4004 110.701 62.4004C108.951 62.4004 107.283 62.9199 105.697 63.959C104.139 64.998 102.676 66.2832 101.309 67.8145C99.9414 69.3184 98.6836 70.918 97.5352 72.6133C96.3867 74.3086 95.375 75.8262 94.5 77.166C93.9531 78.0684 93.4473 79.0391 92.9824 80.0781C92.5449 81.0898 92.0801 82.0469 91.5879 82.9492C91.0957 83.8242 90.5352 84.5488 89.9062 85.123C89.3047 85.7246 88.5391 86.0254 87.6094 86.0254C86.6523 86.0254 85.9004 85.7246 85.3535 85.123C84.8066 84.5215 84.5332 83.7832 84.5332 82.9082C84.5332 82.4434 84.7246 81.6914 85.1074 80.6523C85.4902 79.6133 85.9824 78.4102 86.584 77.043C87.1855 75.6758 87.8555 74.2129 88.5938 72.6543C89.3594 71.0684 90.1113 69.5098 90.8496 67.9785C91.6152 66.4199 92.3398 64.957 93.0234 63.5898C93.707 62.2227 94.2676 61.0605 94.7051 60.1035ZM146.221 55.1816C147.424 55.1816 148.477 55.332 149.379 55.6328C150.281 55.9336 151.047 56.2617 151.676 56.6172C152.387 57.0547 153.016 57.5332 153.562 58.0527C153.945 57.8066 154.355 57.5742 154.793 57.3555C155.176 57.1641 155.6 57 156.064 56.8633C156.529 56.6992 156.994 56.6172 157.459 56.6172C158.662 56.6172 159.592 56.8633 160.248 57.3555C160.904 57.8477 161.232 58.4355 161.232 59.1191C161.232 59.4746 161.137 59.8301 160.945 60.1855L151.348 78.3555L152.127 77.6582C155.354 75.7715 158.006 74.2949 160.084 73.2285C162.162 72.1348 163.816 71.3281 165.047 70.8086C166.277 70.2891 167.152 69.9746 167.672 69.8652C168.219 69.7285 168.561 69.6602 168.697 69.6602C169.326 69.6602 169.805 69.9062 170.133 70.3984C170.488 70.8633 170.666 71.4512 170.666 72.1621C170.666 72.9551 170.434 73.7617 169.969 74.582C169.531 75.4023 168.848 75.9902 167.918 76.3457C166.688 76.9746 165.252 77.6582 163.611 78.3965C161.971 79.1074 160.262 79.9004 158.484 80.7754C156.707 81.6504 154.916 82.6348 153.111 83.7285C151.334 84.7949 149.666 85.9844 148.107 87.2969L140.15 101.693C139.494 103.252 138.893 104.523 138.346 105.508C137.826 106.492 137.307 107.271 136.787 107.846C136.268 108.42 135.734 108.816 135.188 109.035C134.641 109.254 134.012 109.363 133.301 109.363C132.234 109.363 131.387 108.994 130.758 108.256C130.156 107.518 129.855 106.629 129.855 105.59C129.855 104.496 130.115 103.225 130.635 101.775C131.154 100.326 131.879 98.7539 132.809 97.0586C133.766 95.3906 134.914 93.627 136.254 91.7676C137.594 89.9355 139.084 88.0625 140.725 86.1484L145.811 79.668C144.771 80.625 143.746 81.4453 142.734 82.1289C141.723 82.8125 140.752 83.373 139.822 83.8105C138.893 84.2207 138.018 84.5215 137.197 84.7129C136.404 84.9043 135.707 85 135.105 85C134.012 85 133 84.7539 132.07 84.2617C131.141 83.7422 130.334 83.0312 129.65 82.1289C128.994 81.2266 128.475 80.1602 128.092 78.9297C127.709 77.6992 127.518 76.3594 127.518 74.9102C127.518 71.9023 128.092 69.1816 129.24 66.748C130.416 64.3145 131.906 62.25 133.711 60.5547C135.543 58.832 137.553 57.5059 139.74 56.5762C141.955 55.6465 144.115 55.1816 146.221 55.1816ZM144.662 62.4004C143.377 62.4004 142.133 62.7285 140.93 63.3848C139.727 64.0137 138.66 64.8613 137.73 65.9277C136.801 66.9668 136.062 68.1699 135.516 69.5371C134.969 70.9043 134.695 72.3125 134.695 73.7617C134.695 74.1992 134.723 74.6777 134.777 75.1973C134.859 75.6895 135.01 76.1543 135.229 76.5918C135.475 77.0293 135.816 77.3984 136.254 77.6992C136.719 77.9727 137.348 78.1094 138.141 78.1094C138.715 78.1094 139.385 77.8633 140.15 77.3711C140.943 76.8516 141.75 76.209 142.57 75.4434C143.418 74.6504 144.238 73.7891 145.031 72.8594C145.824 71.9023 146.535 70.9727 147.164 70.0703C147.82 69.168 148.34 68.3613 148.723 67.6504C149.105 66.9121 149.297 66.3652 149.297 66.0098C149.297 65.4082 149.133 64.8887 148.805 64.4512C148.477 63.9863 148.066 63.6035 147.574 63.3027C147.109 63.002 146.604 62.7832 146.057 62.6465C145.537 62.4824 145.072 62.4004 144.662 62.4004ZM192.896 62.9746C192.377 64.123 191.803 65.5039 191.174 67.1172C190.545 68.7305 189.861 70.4121 189.123 72.1621C188.385 73.9121 187.592 75.6484 186.744 77.3711C185.924 79.0938 185.049 80.6387 184.119 82.0059C183.217 83.3457 182.273 84.4395 181.289 85.2871C180.332 86.1348 179.348 86.5586 178.336 86.5586C177.488 86.5586 176.791 86.4219 176.244 86.1484C175.697 85.9023 175.273 85.5742 174.973 85.1641C174.672 84.7812 174.453 84.3574 174.316 83.8926C174.207 83.4004 174.152 82.9355 174.152 82.498C174.152 81.8418 174.248 81.1719 174.439 80.4883C174.658 79.8047 174.918 79.1758 175.219 78.6016L190.928 49.6855C191.611 48.4824 192.254 47.5391 192.855 46.8555C193.484 46.1719 194.059 45.666 194.578 45.3379C195.125 45.0098 195.604 44.8184 196.014 44.7637C196.424 44.6816 196.766 44.6406 197.039 44.6406C197.531 44.6406 197.982 44.8184 198.393 45.1738C198.803 45.502 199.008 46.1172 199.008 47.0195C199.008 47.8945 198.775 49.0977 198.311 50.6289C197.846 52.1602 196.984 54.1289 195.727 56.5352C197.859 56.3711 199.965 56.0156 202.043 55.4688C204.121 54.8945 205.98 54.1152 207.621 53.1309C209.289 52.1465 210.629 50.957 211.641 49.5625C212.652 48.1406 213.158 46.5 213.158 44.6406C213.158 43 212.885 41.4414 212.338 39.9648C211.818 38.4609 211.039 37.1484 210 36.0273C208.988 34.8789 207.73 33.9766 206.227 33.3203C204.723 32.6367 202.986 32.2949 201.018 32.2949C198.338 32.2949 196.027 32.5547 194.086 33.0742C192.172 33.5664 190.518 34.2227 189.123 35.043C187.756 35.8633 186.607 36.8066 185.678 37.873C184.748 38.9395 183.941 40.0195 183.258 41.1133C182.602 42.207 182.014 43.2871 181.494 44.3535C180.975 45.4199 180.428 46.3633 179.854 47.1836C179.307 48.0039 178.678 48.6738 177.967 49.1934C177.256 49.6855 176.381 49.9316 175.342 49.9316C174.002 49.9316 173.004 49.5898 172.348 48.9062C171.719 48.2227 171.404 47.252 171.404 45.9941C171.404 44.7363 171.746 43.3691 172.43 41.8926C173.113 40.3887 174.084 38.8848 175.342 37.3809C176.6 35.877 178.117 34.4414 179.895 33.0742C181.699 31.6797 183.723 30.4492 185.965 29.3828C188.207 28.3164 190.641 27.4687 193.266 26.8398C195.918 26.1836 198.707 25.8555 201.633 25.8555C204.367 25.8555 206.992 26.252 209.508 27.0449C212.051 27.8105 214.293 28.9727 216.234 30.5312C218.176 32.0898 219.721 34.0449 220.869 36.3965C222.045 38.7207 222.633 41.4551 222.633 44.5996C222.633 47.4707 221.936 50.0684 220.541 52.3926C219.174 54.6895 217.314 56.6445 214.963 58.2578C212.639 59.8438 209.945 61.0742 206.883 61.9492C203.82 62.7969 200.594 63.2207 197.203 63.2207C196.492 63.2207 195.768 63.207 195.029 63.1797C194.318 63.1523 193.607 63.084 192.896 62.9746ZM224.684 49.5215C224.684 48.8926 224.793 48.25 225.012 47.5938C225.258 46.9102 225.613 46.2949 226.078 45.748C226.543 45.2012 227.117 44.75 227.801 44.3945C228.512 44.0391 229.346 43.8613 230.303 43.8613C231.889 43.8613 232.996 44.1758 233.625 44.8047C234.254 45.4062 234.568 46.1719 234.568 47.1016C234.568 47.6211 234.459 48.1953 234.24 48.8242C234.049 49.4531 233.748 50.041 233.338 50.5879C232.928 51.1074 232.395 51.5449 231.738 51.9004C231.082 52.2559 230.303 52.4336 229.4 52.4336C227.705 52.4336 226.516 52.1738 225.832 51.6543C225.148 51.1074 224.766 50.3965 224.684 49.5215ZM220.172 58.75C220.637 57.9844 221.17 57.4375 221.771 57.1094C222.373 56.7812 222.988 56.6172 223.617 56.6172C224.656 56.6172 225.545 56.959 226.283 57.6426C227.049 58.2988 227.432 59.1465 227.432 60.1855C227.404 60.4316 227.363 60.6777 227.309 60.9238C227.281 61.1699 227.199 61.416 227.062 61.6621C226.68 62.373 226.365 62.9746 226.119 63.4668C225.873 63.959 225.641 64.4238 225.422 64.8613C225.23 65.2715 225.039 65.6816 224.848 66.0918C224.656 66.502 224.424 66.9941 224.15 67.5684C223.822 68.252 223.453 69.0039 223.043 69.8242C222.633 70.6172 222.236 71.4375 221.854 72.2852C221.498 73.1328 221.184 73.9668 220.91 74.7871C220.664 75.6074 220.541 76.3594 220.541 77.043C220.541 77.7812 220.719 78.2734 221.074 78.5195C221.457 78.7383 221.99 78.8477 222.674 78.8477C223.439 78.8477 224.232 78.6836 225.053 78.3555C225.9 78.0273 226.748 77.6035 227.596 77.084C228.443 76.5645 229.277 75.9766 230.098 75.3203C230.918 74.6367 231.684 73.9531 232.395 73.2695C233.133 72.5859 233.803 71.9297 234.404 71.3008C235.033 70.6719 235.553 70.1113 235.963 69.6191C236.51 69.0996 237.057 68.8398 237.604 68.8398C238.096 68.8398 238.492 69.0586 238.793 69.4961C239.121 69.9336 239.285 70.4941 239.285 71.1777C239.285 71.8066 239.121 72.4766 238.793 73.1875C238.492 73.8984 237.986 74.5684 237.275 75.1973C235.881 76.6191 234.459 77.9863 233.01 79.2988C231.561 80.584 230.07 81.7324 228.539 82.7441C227.035 83.7285 225.518 84.5215 223.986 85.123C222.455 85.7246 220.91 86.0254 219.352 86.0254C217.137 86.0254 215.387 85.4648 214.102 84.3438C212.844 83.1953 212.215 81.418 212.215 79.0117C212.215 77.7539 212.393 76.5234 212.748 75.3203C213.104 74.1172 213.527 72.9551 214.02 71.834C214.512 70.6855 215.031 69.5918 215.578 68.5527C216.125 67.4863 216.59 66.4746 216.973 65.5176C217.109 65.1621 217.342 64.6152 217.67 63.877C218.025 63.1387 218.395 62.3867 218.777 61.6211C219.215 60.7188 219.68 59.7617 220.172 58.75ZM241.049 60.1035C241.596 58.9277 242.279 58.0527 243.1 57.4785C243.92 56.9043 244.727 56.6172 245.52 56.6172C246.176 56.6172 246.764 56.8633 247.283 57.3555C247.803 57.8203 248.062 58.5176 248.062 59.4473C248.062 59.8027 248.021 60.1855 247.939 60.5957C247.857 61.0059 247.707 61.4434 247.488 61.9082C248.09 61.1426 248.951 60.3633 250.072 59.5703C251.193 58.75 252.424 58.0254 253.764 57.3965C255.131 56.7402 256.525 56.207 257.947 55.7969C259.396 55.3867 260.764 55.1816 262.049 55.1816C263.498 55.1816 264.701 55.5371 265.658 56.248C266.643 56.9316 267.135 58.1074 267.135 59.7754C267.135 60.7598 266.984 61.7852 266.684 62.8516C266.383 63.918 265.986 64.9844 265.494 66.0508C265.029 67.1172 264.496 68.1699 263.895 69.209C263.32 70.2207 262.746 71.1777 262.172 72.0801C261.598 72.9824 261.064 73.8164 260.572 74.582C260.107 75.3203 259.738 75.9355 259.465 76.4277C259.109 76.8652 258.932 77.3711 258.932 77.9453C258.932 78.1641 259 78.3555 259.137 78.5195C259.273 78.6836 259.492 78.7656 259.793 78.7656C259.984 78.7656 260.203 78.752 260.449 78.7246C260.695 78.6699 260.996 78.5195 261.352 78.2734C262.828 77.7266 264.332 77.043 265.863 76.2227C267.422 75.4023 268.912 74.541 270.334 73.6387C271.756 72.709 273.055 71.793 274.23 70.8906C275.434 69.9609 276.432 69.127 277.225 68.3887C277.443 68.1973 277.662 68.0605 277.881 67.9785C278.1 67.8965 278.305 67.8555 278.496 67.8555C278.961 67.8555 279.316 68.0332 279.562 68.3887C279.836 68.7441 279.973 69.1953 279.973 69.7422C279.973 70.5898 279.699 71.5332 279.152 72.5723C278.633 73.6113 277.799 74.582 276.65 75.4844C275.092 76.6055 273.656 77.6309 272.344 78.5605C271.059 79.4902 269.732 80.3652 268.365 81.1855C267.025 81.9785 265.576 82.7305 264.018 83.4414C262.486 84.125 260.682 84.7676 258.604 85.3691C257.893 85.5879 257.236 85.752 256.635 85.8613C256.061 85.9707 255.527 86.0254 255.035 86.0254C253.586 86.0254 252.52 85.6289 251.836 84.8359C251.18 84.0156 250.852 82.8809 250.852 81.4316C250.852 81.2402 250.852 81.0625 250.852 80.8984C250.879 80.707 250.906 80.502 250.934 80.2832C250.988 79.4355 251.207 78.5059 251.59 77.4941C252 76.4824 252.479 75.4434 253.025 74.377C253.6 73.3105 254.201 72.2578 254.83 71.2188C255.459 70.1523 256.033 69.1543 256.553 68.2246C257.1 67.2676 257.551 66.4199 257.906 65.6816C258.262 64.9434 258.439 64.3418 258.439 63.877C258.439 63.4668 258.316 63.125 258.07 62.8516C257.852 62.5508 257.51 62.4004 257.045 62.4004C255.295 62.4004 253.627 62.9199 252.041 63.959C250.482 64.998 249.02 66.2832 247.652 67.8145C246.285 69.3184 245.027 70.918 243.879 72.6133C242.73 74.3086 241.719 75.8262 240.844 77.166C240.297 78.0684 239.791 79.0391 239.326 80.0781C238.889 81.0898 238.424 82.0469 237.932 82.9492C237.439 83.8242 236.879 84.5488 236.25 85.123C235.648 85.7246 234.883 86.0254 233.953 86.0254C232.996 86.0254 232.244 85.7246 231.697 85.123C231.15 84.5215 230.877 83.7832 230.877 82.9082C230.877 82.4434 231.068 81.6914 231.451 80.6523C231.834 79.6133 232.326 78.4102 232.928 77.043C233.529 75.6758 234.199 74.2129 234.938 72.6543C235.703 71.0684 236.455 69.5098 237.193 67.9785C237.959 66.4199 238.684 64.957 239.367 63.5898C240.051 62.2227 240.611 61.0605 241.049 60.1035Z" fill="#232323"/>
</svg>
