<svg width="20" height="20" viewBox="0 0 20 20" fill="none" xmlns="http://www.w3.org/2000/svg">
<path d="M17.8187 10.0206C16.5658 10.075 15.3129 9.85713 14.2234 9.25791C15.2039 7.46024 15.8576 5.44468 15.4763 3.37464C15.3129 2.23067 14.6592 1.3046 13.6786 0.596426C12.807 -0.00279559 11.772 -0.220694 10.846 0.269578C10.4102 0.541952 10.0833 1.03222 10.0833 1.5225C9.97437 2.99331 9.97437 4.46413 9.26619 5.77153C7.46853 4.84546 5.45296 4.13728 3.38292 4.51861C1.36736 4.84546 -0.484783 6.75207 0.114439 8.87659C0.114439 8.93106 0.223389 8.93106 0.223389 8.98554C0.441288 9.74818 1.31288 9.91161 2.02105 10.0206C3.32845 9.80266 4.58137 10.2385 5.77981 10.7287C4.96269 12.1995 4.47242 13.8338 4.36347 15.468C4.30899 16.3941 4.52689 17.3202 5.07164 18.1373C5.18059 18.2462 5.23506 18.3552 5.34401 18.5186C6.16113 19.4992 7.41405 20.3163 8.72145 19.8805C8.77592 19.8805 8.8304 19.8805 8.88487 19.8805C9.48409 19.5536 9.97437 19.0089 9.97437 18.3007C9.97437 16.8844 10.0833 15.468 10.737 14.2151C11.3362 14.5964 11.9899 14.8688 12.6436 15.0867C12.8615 15.1412 13.0249 15.1412 13.2428 15.2501C13.3518 15.3046 13.4607 15.3046 13.5697 15.3046C13.6786 15.3591 13.7331 15.3591 13.8421 15.4136C15.2584 15.7404 16.6748 15.7949 17.9277 15.0322C19.1261 14.3241 20.0522 13.1256 19.9977 11.7093C19.9432 10.6198 18.8537 9.85713 17.8187 10.0206Z" fill="#fcfcfc"/>
</svg>
