<svg xmlns="http://www.w3.org/2000/svg" width="30" height="30" viewBox="0 0 30 30" fill="none">
  <mask id="mask0_824_9112" style="mask-type:alpha" maskUnits="userSpaceOnUse" x="0" y="0" width="30" height="30">
    <rect width="30" height="30" fill="#D9D9D9"/>
  </mask>
  <g mask="url(#mask0_824_9112)">
    <path d="M22.5028 26.875C21.6355 26.875 20.8974 26.5711 20.2884 25.9634C19.6795 25.3559 19.375 24.6181 19.375 23.75C19.375 23.5837 19.3894 23.4116 19.4181 23.2334C19.4471 23.0553 19.4904 22.8877 19.5481 22.7306L9.87031 17.0288C9.56406 17.3733 9.20823 17.6422 8.80281 17.8353C8.3974 18.0284 7.96312 18.125 7.5 18.125C6.63188 18.125 5.89406 17.8215 5.28656 17.2144C4.67885 16.6073 4.375 15.8701 4.375 15.0028C4.375 14.1355 4.67885 13.3974 5.28656 12.7884C5.89406 12.1795 6.63188 11.875 7.5 11.875C7.96312 11.875 8.3974 11.9716 8.80281 12.1647C9.20823 12.3578 9.56406 12.6267 9.87031 12.9713L19.5481 7.26937C19.4904 7.11229 19.4471 6.94469 19.4181 6.76656C19.3894 6.58844 19.375 6.41625 19.375 6.25C19.375 5.38188 19.6785 4.64406 20.2856 4.03656C20.8927 3.42885 21.6299 3.125 22.4972 3.125C23.3645 3.125 24.1026 3.42854 24.7116 4.03563C25.3205 4.64271 25.625 5.37989 25.625 6.24719C25.625 7.11448 25.3211 7.8526 24.7134 8.46156C24.1059 9.07052 23.3681 9.375 22.5 9.375C22.0369 9.375 21.6026 9.27844 21.1972 9.08531C20.7918 8.89219 20.4359 8.62333 20.1297 8.27875L10.4519 13.9806C10.5096 14.1377 10.5529 14.3048 10.5819 14.4819C10.6106 14.6588 10.625 14.8298 10.625 14.995C10.625 15.1602 10.6106 15.3329 10.5819 15.5131C10.5529 15.6935 10.5096 15.8623 10.4519 16.0194L20.1297 21.7212C20.4359 21.3767 20.7918 21.1078 21.1972 20.9147C21.6026 20.7216 22.0369 20.625 22.5 20.625C23.3681 20.625 24.1059 20.9285 24.7134 21.5356C25.3211 22.1427 25.625 22.8799 25.625 23.7472C25.625 24.6145 25.3215 25.3526 24.7144 25.9616C24.1073 26.5705 23.3701 26.875 22.5028 26.875ZM22.5 8.125C23.0144 8.125 23.4555 7.94114 23.8234 7.57344C24.1911 7.20552 24.375 6.76437 24.375 6.25C24.375 5.73563 24.1911 5.29448 23.8234 4.92656C23.4555 4.55886 23.0144 4.375 22.5 4.375C21.9856 4.375 21.5445 4.55886 21.1766 4.92656C20.8089 5.29448 20.625 5.73563 20.625 6.25C20.625 6.76437 20.8089 7.20552 21.1766 7.57344C21.5445 7.94114 21.9856 8.125 22.5 8.125ZM7.5 16.875C8.01437 16.875 8.45552 16.6911 8.82344 16.3234C9.19115 15.9555 9.375 15.5144 9.375 15C9.375 14.4856 9.19115 14.0445 8.82344 13.6766C8.45552 13.3089 8.01437 13.125 7.5 13.125C6.98563 13.125 6.54448 13.3089 6.17656 13.6766C5.80885 14.0445 5.625 14.4856 5.625 15C5.625 15.5144 5.80885 15.9555 6.17656 16.3234C6.54448 16.6911 6.98563 16.875 7.5 16.875ZM22.5 25.625C23.0144 25.625 23.4555 25.4411 23.8234 25.0734C24.1911 24.7055 24.375 24.2644 24.375 23.75C24.375 23.2356 24.1911 22.7945 23.8234 22.4266C23.4555 22.0589 23.0144 21.875 22.5 21.875C21.9856 21.875 21.5445 22.0589 21.1766 22.4266C20.8089 22.7945 20.625 23.2356 20.625 23.75C20.625 24.2644 20.8089 24.7055 21.1766 25.0734C21.5445 25.4411 21.9856 25.625 22.5 25.625Z" fill="#232323"/>
  </g>
</svg>