<svg width="30" height="30" viewBox="0 0 30 30" fill="none" xmlns="http://www.w3.org/2000/svg">
<g opacity="0.8">
<path d="M25.6595 10.2789L25.1581 10.9709L26.007 11.069C27.9672 11.2955 29.4924 12.9676 29.5 14.9967C29.4996 17.1798 27.7278 18.9517 25.5455 18.9517H25.322H24.1151L24.9684 19.8052L25.2478 20.0847C26.7929 21.6302 26.7929 24.1324 25.2478 25.6779C23.7396 27.1865 21.3092 27.2162 19.7563 25.7622L19.0456 25.0968L18.9188 26.0621C18.6637 28.0049 17.0045 29.5 15 29.5C12.9962 29.5 11.3363 27.9976 11.0811 26.0619L10.9532 25.0916L10.242 25.7639C8.6991 27.2222 6.2619 27.188 4.75222 25.6779C3.20713 24.1324 3.20713 21.6302 4.75222 20.0847L5.03162 19.8052L5.8849 18.9517H4.67802H4.4545C2.27201 18.9517 0.5 17.1794 0.5 14.996C0.5 12.9692 2.03095 11.2957 3.993 11.069L4.84481 10.9705L4.33961 10.2777C3.21344 8.73322 3.34802 6.5651 4.74423 5.16852C6.24572 3.66663 8.65548 3.62997 10.2083 5.04843L11.0455 5.81322V4.67927V4.45568C11.0455 2.27229 12.8175 0.5 15 0.5C17.1825 0.5 18.9545 2.27229 18.9545 4.45568V4.67927V5.81704L19.7926 5.04759C21.3441 3.62329 23.7532 3.66558 25.2558 5.16852C26.6434 6.55655 26.7794 8.73329 25.6595 10.2789Z" fill="#8BF800" stroke="black"/>
</g>
</svg>
