<svg width="32" height="36" viewBox="0 0 32 36" fill="none" xmlns="http://www.w3.org/2000/svg">
<path d="M20.2858 10.2659C21.0511 7.83538 21.0884 5.8346 20.6383 4.27578C19.9219 1.79459 17.9807 0.5 15.9969 0.5C14.013 0.5 12.0723 1.79466 11.357 4.27598C10.9081 5.83332 10.9458 7.83175 11.71 10.2591C9.99052 8.38448 8.27916 7.35315 6.70632 6.96359C4.19997 6.34283 2.10851 7.37647 1.11635 9.09439C0.124209 10.8123 0.274056 13.1404 2.06384 15.0011C3.18756 16.1693 4.93685 17.1365 7.42112 17.6887C4.93475 18.2408 3.18399 19.2081 2.05931 20.3766C0.268483 22.2372 0.117954 24.5654 1.11018 26.2834C2.10239 28.0014 4.1944 29.0349 6.70164 28.4142C8.27702 28.0242 9.99151 26.9909 11.7142 25.1119C10.9489 27.5424 10.9116 29.5432 11.3617 31.102C12.0781 33.5832 14.0193 34.8778 16.0031 34.8778C17.987 34.8778 19.9277 33.5831 20.643 31.1018C21.0918 29.5451 21.0542 27.5476 20.2909 25.1216C22.01 26.9964 23.721 28.0279 25.2936 28.4177C27.8001 29.0389 29.8916 28.0049 30.8837 26.2864C31.8758 24.5681 31.726 22.2392 29.9362 20.3779C28.8124 19.2092 27.063 18.2416 24.5785 17.6892C27.0651 17.1371 28.8159 16.1697 29.9407 15.0012C31.7315 13.1406 31.882 10.8124 30.8898 9.09439C29.8976 7.37637 27.8056 6.34288 25.2984 6.96358C23.723 7.35359 22.0085 8.38693 20.2858 10.2659Z" fill="#1DDFEC" stroke="#232323"/>
</svg>
