<svg width="32" height="33" viewBox="0 0 32 33" fill="none" xmlns="http://www.w3.org/2000/svg">
<path d="M6.30031 1.5354L14.1964 6.33346C15.301 7.00657 16.6904 7.00657 17.8036 6.33346L17.5439 5.90616L17.5443 5.90595C16.5896 6.4829 15.4006 6.48173 14.4566 5.90649L14.4561 5.90616L6.56017 1.10823L6.30031 1.5354ZM6.30031 1.5354C3.19365 -0.354491 -0.361754 3.20091 1.52813 6.30757M6.30031 1.5354L1.52813 6.30757M1.52813 6.30757L6.3262 14.2037C6.99931 15.3169 6.99931 16.7063 6.3262 17.8109L1.52813 6.30757ZM25.4398 1.10823L17.5449 5.9056L6.55996 1.1081C3.00591 -1.05368 -1.06095 3.01318 1.10083 6.56722C1.10088 6.56729 1.10092 6.56736 1.10096 6.56743L5.89833 14.4624C5.89841 14.4625 5.8985 14.4627 5.89858 14.4628C6.47564 15.4175 6.47451 16.6066 5.89923 17.5507L5.8989 17.5512L1.10096 25.4471C-1.06111 29.0012 3.00584 33.0683 6.55996 30.9064C6.56003 30.9064 6.5601 30.9063 6.56017 30.9063L14.4551 26.1089C14.4553 26.1088 14.4554 26.1088 14.4555 26.1087C15.4102 25.5316 16.5994 25.5328 17.5434 26.108L17.5439 26.1084L25.4398 30.9063C28.994 33.0684 33.0612 29.0013 30.899 25.4471L26.1017 17.5521C26.1015 17.552 26.1014 17.5518 26.1013 17.5516C25.5244 16.5969 25.5255 15.4078 26.1008 14.4639L26.1011 14.4633L30.899 6.56743C30.8991 6.56736 30.8991 6.56729 30.8992 6.56722C33.061 3.01311 28.9939 -1.05385 25.4398 1.10823Z" fill="#FEE92B" stroke="#232323"/>
</svg>
