<svg width="32" height="33" viewBox="0 0 32 33" fill="none" xmlns="http://www.w3.org/2000/svg">
<path d="M4.11378 16.9026C5.7488 16.6301 7.34504 17.0927 8.96559 17.7279C7.86532 19.8643 7.20255 22.2037 7.04631 24.5473H7.04629L7.04606 24.5512C6.95849 26.0399 7.3092 27.5385 8.19143 28.8618L8.2189 28.903L8.25391 28.938C8.33259 29.0167 8.37155 29.0782 8.44983 29.2019C8.4877 29.2617 8.53477 29.336 8.59999 29.4338L8.61481 29.456L8.63191 29.4766C9.88085 30.9753 11.9261 32.3951 14.1607 31.6993H14.1612H14.1616H14.1621H14.1626H14.1631H14.1636H14.164H14.1645H14.165H14.1655H14.166H14.1664H14.1669H14.1674H14.1679H14.1684H14.1688H14.1693H14.1698H14.1703H14.1707H14.1712H14.1717H14.1722H14.1727H14.1731H14.1736H14.1741H14.1746H14.1751H14.1755H14.176H14.1765H14.177H14.1774H14.1779H14.1784H14.1789H14.1794H14.1798H14.1803H14.1808H14.1813H14.1818H14.1822H14.1827H14.1832H14.1837H14.1841H14.1846H14.1851H14.1856H14.1861H14.1865H14.187H14.1875H14.188H14.1885H14.1889H14.1894H14.1899H14.1904H14.1909H14.1913H14.1918H14.1923H14.1928H14.1932H14.1937H14.1942H14.1947H14.1952H14.1956H14.1961H14.1966H14.1971H14.1976H14.198H14.1985H14.199H14.1995H14.1999H14.2004H14.2009H14.2014H14.2019H14.2023H14.2028H14.2033H14.2038H14.2043H14.2047H14.2052H14.2057H14.2062H14.2067H14.2071H14.2076H14.2081H14.2086H14.209H14.2095H14.21H14.2105H14.211H14.2114H14.2119H14.2124H14.2129H14.2134H14.2138H14.2143H14.2148H14.2153H14.2157H14.2162H14.2167H14.2172H14.2177H14.2181H14.2186H14.2191H14.2196H14.2201H14.2205H14.221H14.2215H14.222H14.2225H14.2229H14.2234H14.2239H14.2244H14.2248H14.2253H14.2258H14.2263H14.2268H14.2272H14.2277H14.2282H14.2287H14.2292H14.2296H14.2301H14.2306H14.2311H14.2315H14.232H14.2325H14.233H14.2335H14.2339H14.2344H14.2349H14.2354H14.2359H14.2363H14.2368H14.2373H14.2378H14.2383H14.2387H14.2392H14.2397H14.2402H14.2406H14.2411H14.2416H14.2421H14.2426H14.243H14.2435H14.244H14.2445H14.245H14.2454H14.2459H14.2464H14.2469H14.2473H14.2478H14.2483H14.2488H14.2493H14.2497H14.2502H14.2507H14.2512H14.2517H14.2521H14.2526H14.2531H14.2536H14.2541H14.2545H14.255H14.2555H14.256H14.2564H14.2569H14.2574H14.2579H14.2584H14.2588H14.2593H14.2598H14.2603H14.2608H14.2612H14.2617H14.2622H14.2627H14.2631H14.2636H14.2641H14.2646H14.2651H14.2655H14.266H14.2665H14.267H14.2675H14.2679H14.2684H14.2689H14.2694H14.2699H14.2703H14.2708H14.2713H14.2718H14.2722H14.2727H14.2732H14.2737H14.2742H14.2746H14.2751H14.2756H14.2761H14.2766H14.277H14.2775H14.278H14.2785H14.2789H14.2794H14.2799H14.2804H14.2809H14.2813H14.2818H14.2823H14.2828H14.2833H14.2837H14.2842H14.2847H14.2852H14.2857H14.2861H14.2866H14.2871H14.2876H14.288H14.2885H14.289H14.2895H14.29H14.2904H14.2909H14.2914H14.2919H14.2924H14.2928H14.2933H14.2938H14.2943H14.2947H14.2952H14.2957H14.2962H14.2967H14.2971H14.2976H14.2981H14.2986H14.2991H14.2995H14.3H14.3005H14.301H14.3015H14.3019H14.3024H14.3029H14.3034H14.3038H14.3043H14.3048H14.3053H14.3058H14.3062H14.3067H14.3072H14.3077H14.3082H14.3086H14.3091H14.3096H14.3101H14.3105H14.311H14.3115H14.312H14.3125H14.3129H14.3134H14.3139H14.3144H14.3149H14.3153H14.3158H14.3163H14.3168H14.3173H14.3177H14.3182H14.3187H14.3192H14.3196H14.3201H14.3206H14.3211H14.3216H14.322H14.3225H14.323H14.3235H14.324H14.3244H14.3249H14.3254H14.3259H14.3263H14.3268H14.3273H14.4548L14.5667 31.6382C15.5496 31.1021 16.4615 30.1481 16.4615 28.8296C16.4615 26.9073 16.5991 25.06 17.3196 23.4116C18.1255 23.8647 18.9732 24.2049 19.8073 24.4829L19.8255 24.489L19.8442 24.4937C19.9551 24.5214 20.0883 24.5467 20.1907 24.5661C20.2393 24.5753 20.281 24.5832 20.3101 24.5894C20.4267 24.6144 20.5264 24.6438 20.6407 24.701C20.8657 24.8134 21.088 24.8321 21.2457 24.835C21.3062 24.86 21.3568 24.8769 21.3976 24.8905L21.4007 24.8915C21.4586 24.9108 21.4915 24.9221 21.5395 24.9461L21.5927 24.9727L21.6507 24.9861C23.8222 25.4872 26.1044 25.5987 28.1487 24.3557C30.0418 23.236 31.5873 21.2919 31.4962 18.9232H31.4962L31.4959 18.9175C31.398 16.9593 29.4785 15.6445 27.6796 15.911C26.0488 15.9784 24.44 15.7246 23.0151 15.0514C24.3775 12.4201 25.2731 9.44394 24.708 6.35974C24.4373 4.48614 23.3636 2.98934 21.8107 1.86784L21.8108 1.86773L21.8012 1.86116C20.3968 0.895596 18.6414 0.490585 17.035 1.34101L17.0191 1.3494L17.0039 1.35891C16.2449 1.83332 15.6335 2.70421 15.6251 3.64263C15.6035 3.93549 15.5846 4.225 15.566 4.51111C15.4521 6.259 15.3466 7.87995 14.6754 9.36276C12.0578 8.06947 9.07874 7.09632 5.98903 7.66376C4.3591 7.92948 2.8016 8.82922 1.76508 10.0973C0.72813 11.3659 0.195567 13.0296 0.681078 14.7956C0.692367 14.8561 0.713454 14.9131 0.742428 14.9649C0.784855 15.0406 0.837205 15.0928 0.877101 15.126C0.886226 15.1337 0.895227 15.1407 0.903961 15.1472C1.14681 15.8129 1.65756 16.2122 2.20276 16.4569C2.77321 16.7131 3.42952 16.8226 3.95555 16.9036L4.03475 16.9157L4.11378 16.9026Z" fill="#FE60A2" stroke="#232323"/>
</svg>
