<svg width="32" height="32" viewBox="0 0 32 32" fill="none" xmlns="http://www.w3.org/2000/svg">
<path d="M6.90097 14.1852C5.53897 13.4839 4.39116 12.8368 3.53031 12.2822C2.94001 11.902 2.4643 11.5524 2.14588 11.248C1.98875 11.0978 1.84651 10.9368 1.75248 10.769C1.66404 10.6113 1.56499 10.3485 1.68147 10.0677C1.68162 10.0673 1.68177 10.0669 1.68192 10.0666L2.14346 10.2589L6.90097 14.1852ZM6.90097 14.1852C5.37081 14.3117 4.06145 14.4704 3.05365 14.6534C2.36307 14.7788 1.79037 14.9198 1.38011 15.0792C1.17763 15.1579 0.984837 15.2522 0.833891 15.3712C0.691642 15.4834 0.5 15.6882 0.5 15.9921C0.5 16.2964 0.692399 16.5013 0.83467 16.6132C0.985817 16.7321 1.17888 16.8264 1.38167 16.905C1.79259 17.0644 2.36621 17.2053 3.05775 17.3307C4.06752 17.5138 5.3792 17.6726 6.91116 17.7992C5.54473 18.5036 4.39385 19.1529 3.53121 19.7089C2.94045 20.0896 2.46452 20.4395 2.146 20.7439C1.98882 20.8942 1.84656 21.0552 1.7525 21.223C1.66394 21.381 1.56472 21.6442 1.68192 21.9255C1.79866 22.2057 2.05401 22.3212 2.22825 22.3702C2.41323 22.4223 2.62742 22.4357 2.84463 22.4308C3.2847 22.4211 3.86776 22.3323 4.55375 22.1842C5.55574 21.9679 6.82742 21.6139 8.29107 21.1463C7.29813 22.3193 6.48347 23.3588 5.89936 24.2019C5.49946 24.7791 5.19379 25.2838 5.01596 25.6864C4.92821 25.8851 4.85834 26.088 4.83544 26.2787C4.81391 26.458 4.82235 26.7391 5.03766 26.9544C5.25297 27.1697 5.53404 27.1782 5.71335 27.1566C5.90403 27.1337 6.10694 27.0639 6.30569 26.9761C6.70845 26.7983 7.21338 26.4927 7.79101 26.0928C8.63565 25.5081 9.67772 24.6924 10.8544 23.698C10.3856 25.1636 10.0298 26.4377 9.81193 27.4417C9.66287 28.1286 9.57305 28.7125 9.56248 29.1532C9.55726 29.3707 9.57018 29.5851 9.62187 29.7703C9.6705 29.9446 9.78561 30.201 10.0666 30.3181C10.3478 30.4353 10.6111 30.3361 10.769 30.2475C10.9368 30.1535 11.0978 30.0113 11.248 29.8541C11.5524 29.5357 11.902 29.06 12.2822 28.4697C12.8368 27.6088 13.4839 26.461 14.1852 25.099C14.3117 26.6292 14.4704 27.9385 14.6534 28.9464C14.7789 29.6369 14.9198 30.2096 15.0792 30.6199C15.1579 30.8224 15.2522 31.0152 15.3712 31.1661C15.4834 31.3084 15.6882 31.5 15.9921 31.5C16.2964 31.5 16.5013 31.3076 16.6132 31.1654C16.7321 31.0143 16.8264 30.8212 16.905 30.6185C17.0643 30.2077 17.2053 29.6344 17.3307 28.9433C17.5137 27.9349 17.6724 26.6255 17.7989 25.097C18.5026 26.4632 19.1506 27.6139 19.7058 28.4765C20.086 29.0672 20.4357 29.5434 20.7408 29.8622C20.8915 30.0196 21.053 30.1619 21.2217 30.256C21.3814 30.3451 21.6433 30.442 21.9233 30.327L21.9255 30.326C22.206 30.2091 22.3214 29.9532 22.3703 29.7791C22.4223 29.5941 22.4356 29.3797 22.4308 29.1622C22.4211 28.7216 22.3323 28.1378 22.1842 27.4513C21.9681 26.4493 21.6145 25.1786 21.1474 23.7178C22.3199 24.7103 23.3591 25.5246 24.2019 26.1086C24.7791 26.5085 25.2838 26.8142 25.6864 26.992C25.8851 27.0797 26.088 27.1496 26.2787 27.1725C26.458 27.194 26.7391 27.1856 26.9544 26.9703C27.1697 26.755 27.1782 26.4739 27.1566 26.2946C27.1337 26.1039 27.0638 25.901 26.9761 25.7023C26.7983 25.2996 26.4926 24.7949 26.0927 24.2178C25.5087 23.3748 24.6942 22.3355 23.7014 21.1627C25.1647 21.6308 26.4361 21.986 27.438 22.203C28.1239 22.3516 28.7073 22.4407 29.1479 22.4501C29.3654 22.4547 29.5802 22.4409 29.7659 22.3878C29.9421 22.3374 30.1958 22.2196 30.3111 21.9391L29.8488 21.7491L30.3101 21.9414C30.4273 21.6601 30.3281 21.3968 30.2396 21.2389C30.1455 21.0711 30.0032 20.9101 29.8461 20.7598C29.5275 20.4554 29.0516 20.1055 28.4608 19.7248C27.5963 19.1676 26.4423 18.5166 25.0719 17.8104C26.6114 17.6793 27.9287 17.5177 28.9419 17.3326C29.6338 17.2062 30.2075 17.0647 30.6184 16.9052C30.8212 16.8265 31.0143 16.7321 31.1654 16.6132C31.3076 16.5013 31.5 16.2964 31.5 15.9921C31.5 15.6877 31.3076 15.4828 31.1654 15.3709C31.0143 15.252 30.8212 15.1577 30.6185 15.0791C30.2077 14.9198 29.6344 14.7788 28.9433 14.6534C27.9349 14.4704 26.6254 14.3117 25.0967 14.1852C26.4622 13.4815 27.6115 12.8338 28.4726 12.2793C29.0623 11.8996 29.5374 11.5507 29.8552 11.2469C30.0121 11.097 30.1541 10.9362 30.248 10.7684C30.3366 10.6102 30.4351 10.3473 30.3181 10.0666C30.2012 9.78603 29.9453 9.67066 29.7711 9.62176C29.586 9.56977 29.3716 9.55647 29.154 9.56134C28.7132 9.57122 28.1292 9.66028 27.4421 9.80888C26.4393 10.0258 25.1672 10.3807 23.7041 10.85C24.6956 9.67844 25.5093 8.63995 26.0928 7.79696C26.4928 7.21921 26.7985 6.71365 26.9763 6.30969C27.0641 6.11025 27.1338 5.90682 27.1567 5.71559C27.1782 5.53528 27.1692 5.25635 26.9576 5.04086L26.9576 5.04084L26.9544 5.03766C26.7391 4.82235 26.458 4.81391 26.2787 4.83544C26.088 4.85834 25.8851 4.92821 25.6864 5.01596C25.2838 5.19379 24.7791 5.49946 24.2019 5.89936C23.3589 6.48338 22.3196 7.29789 21.1468 8.29062C21.6149 6.82738 21.9701 5.55594 22.1871 4.5541C22.3357 3.86816 22.4249 3.28472 22.4342 2.84415C22.4388 2.6267 22.4251 2.41185 22.3719 2.22617C22.3215 2.04997 22.2038 1.79627 21.9232 1.68099L21.7332 2.14346M6.90097 14.1852L17.8722 7.87051C19.7061 4.21693 21.2035 1.92277 21.7332 2.14346M21.7332 2.14346L21.9255 1.68192C21.6442 1.56472 21.381 1.66394 21.223 1.7525C21.0552 1.84656 20.8942 1.98882 20.7439 2.146C20.4395 2.46452 20.0896 2.94045 19.7089 3.53121C19.1529 4.39385 18.5036 5.54474 17.7992 6.91116M21.7332 2.14346C22.2702 2.36417 21.7031 5.03864 20.417 8.91652L17.7992 6.91116M17.7992 6.91116C17.6726 5.3792 17.5138 4.06752 17.3307 3.05775C17.2053 2.36621 17.0644 1.79259 16.905 1.38167C16.8264 1.17888 16.7321 0.985817 16.6132 0.83467C16.5013 0.692399 16.2964 0.5 15.9921 0.5C15.6877 0.5 15.4828 0.692383 15.3709 0.834624C15.252 0.985744 15.1577 1.17876 15.0791 1.38149C14.9198 1.79228 14.7788 2.36565 14.6534 3.05669C14.4704 4.06515 14.3117 5.37463 14.1852 6.90329C13.4815 5.53779 12.8338 4.38852 12.2793 3.52742C11.8996 2.93767 11.5507 2.46265 11.2469 2.14478C11.097 1.98792 10.9362 1.84587 10.7684 1.75199C10.6102 1.66342 10.3473 1.56493 10.0666 1.68192C9.78605 1.7988 9.67068 2.0547 9.62177 2.22879C9.56976 2.41387 9.55641 2.62825 9.56122 2.84572C9.57096 3.28637 9.65974 3.87012 9.80783 4.55666C10.024 5.55863 10.3776 6.82934 10.8447 8.29017C9.67214 7.29764 8.63299 6.48329 7.79018 5.89936C7.21301 5.49946 6.7083 5.19379 6.30563 5.01596C6.10692 4.92821 5.90402 4.85834 5.71334 4.83544C5.53403 4.81391 5.25297 4.82235 5.03766 5.03766C4.82235 5.25297 4.81391 5.53403 4.83544 5.71334C4.85834 5.90402 4.92821 6.10692 5.01596 6.30563C5.19379 6.7083 5.49946 7.21301 5.89936 7.79018C6.48338 8.63312 7.29789 9.67246 8.29062 10.8452C6.82738 10.3771 5.55594 10.0219 4.5541 9.80494L17.7992 6.91116Z" fill="#5452FF" stroke="#232323"/>
</svg>
