<svg width="32" height="33" viewBox="0 0 32 33" fill="none" xmlns="http://www.w3.org/2000/svg">
<path d="M27.8652 11.5979C28.8182 9.73614 28.5185 7.39524 26.963 5.83928C25.3185 4.1944 22.8062 3.94573 20.9005 5.09998C20.5458 2.71192 18.4859 0.877777 16 0.877777C13.5134 0.877777 11.4529 2.71303 11.0992 5.10214C9.19449 3.95259 6.68244 4.19344 5.03703 5.83928C3.47502 7.40171 3.17336 9.73714 4.13269 11.5985C2.04103 12.1765 0.5 14.0962 0.5 16.3738C0.5 18.8199 2.27485 20.8541 4.60608 21.257C3.12267 23.1999 3.26898 25.9862 5.04502 27.7627C6.73351 29.4516 9.35 29.6689 11.2705 28.3924C11.8983 30.4072 13.778 31.8778 16 31.8778C18.2231 31.8778 20.1045 30.4118 20.731 28.3899C22.6543 29.6614 25.2647 29.4534 26.955 27.7627C28.731 25.9862 28.8773 23.1999 27.3939 21.257C29.7251 20.8541 31.5 18.8199 31.5 16.3738L31.5 16.372C31.492 14.0962 29.9574 12.1754 27.8652 11.5979Z" fill="#90F50F" stroke="#232323"/>
</svg>
