<svg width="34" height="34" viewBox="0 0 34 34" fill="none" xmlns="http://www.w3.org/2000/svg">
<mask id="path-1-outside-1_2742_3197" maskUnits="userSpaceOnUse" x="0" y="0" width="34" height="34" fill="black">
<rect fill="white" width="34" height="34"/>
<path d="M33 16.9915C33 16.3309 29.6543 15.7549 24.7247 15.4584C29.1715 13.2901 32.0344 11.486 31.7803 10.8761C31.5262 10.2663 28.2144 11.0116 23.5389 12.6294C26.8168 8.928 28.7734 6.15829 28.3076 5.68396C27.8417 5.21811 25.072 7.1747 21.3706 10.4526C22.9799 5.77713 23.7337 2.4738 23.1154 2.21969C22.5056 1.96559 20.693 4.83695 18.5246 9.28375C18.2282 4.34569 17.6522 1 16.9915 1C16.3309 1 15.7549 4.34569 15.4584 9.27528C13.2901 4.82848 11.486 1.96559 10.8761 2.21969C10.2663 2.4738 11.0116 5.7856 12.621 10.4526C8.91953 7.1747 6.14981 5.21811 5.68396 5.68396C5.21811 6.14981 7.1747 8.91953 10.4526 12.621C5.77713 11.0116 2.4738 10.2578 2.21969 10.8761C1.96559 11.486 4.83695 13.2986 9.27528 15.4584C4.33722 15.7549 1 16.3309 1 16.9915C1 17.6522 4.34569 18.2282 9.28375 18.5246C4.83695 20.693 1.96559 22.5056 2.21969 23.1154C2.4738 23.7253 5.77713 22.9799 10.4526 21.3706C7.1747 25.072 5.21811 27.8417 5.68396 28.3076C6.14981 28.7734 8.91953 26.8168 12.6294 23.5389C11.0201 28.2144 10.2663 31.5262 10.8761 31.7803C11.486 32.0344 13.2986 29.1631 15.4584 24.7247C15.7549 29.6628 16.3309 33 16.9915 33C17.6522 33 18.2282 29.6543 18.5246 24.7247C20.693 29.1715 22.4971 32.0429 23.1154 31.7888C23.7253 31.5347 22.9799 28.2229 21.3706 23.5558C25.072 26.8338 27.8417 28.7904 28.3076 28.3245C28.7734 27.8587 26.8168 25.0889 23.5389 21.3875C28.2144 22.9968 31.5177 23.7507 31.7718 23.1323C32.0259 22.5225 29.1546 20.7099 24.7078 18.5416C29.6543 18.2282 33 17.6522 33 16.9915Z"/>
</mask>
<path d="M33 16.9915C33 16.3309 29.6543 15.7549 24.7247 15.4584C29.1715 13.2901 32.0344 11.486 31.7803 10.8761C31.5262 10.2663 28.2144 11.0116 23.5389 12.6294C26.8168 8.928 28.7734 6.15829 28.3076 5.68396C27.8417 5.21811 25.072 7.1747 21.3706 10.4526C22.9799 5.77713 23.7337 2.4738 23.1154 2.21969C22.5056 1.96559 20.693 4.83695 18.5246 9.28375C18.2282 4.34569 17.6522 1 16.9915 1C16.3309 1 15.7549 4.34569 15.4584 9.27528C13.2901 4.82848 11.486 1.96559 10.8761 2.21969C10.2663 2.4738 11.0116 5.7856 12.621 10.4526C8.91953 7.1747 6.14981 5.21811 5.68396 5.68396C5.21811 6.14981 7.1747 8.91953 10.4526 12.621C5.77713 11.0116 2.4738 10.2578 2.21969 10.8761C1.96559 11.486 4.83695 13.2986 9.27528 15.4584C4.33722 15.7549 1 16.3309 1 16.9915C1 17.6522 4.34569 18.2282 9.28375 18.5246C4.83695 20.693 1.96559 22.5056 2.21969 23.1154C2.4738 23.7253 5.77713 22.9799 10.4526 21.3706C7.1747 25.072 5.21811 27.8417 5.68396 28.3076C6.14981 28.7734 8.91953 26.8168 12.6294 23.5389C11.0201 28.2144 10.2663 31.5262 10.8761 31.7803C11.486 32.0344 13.2986 29.1631 15.4584 24.7247C15.7549 29.6628 16.3309 33 16.9915 33C17.6522 33 18.2282 29.6543 18.5246 24.7247C20.693 29.1715 22.4971 32.0429 23.1154 31.7888C23.7253 31.5347 22.9799 28.2229 21.3706 23.5558C25.072 26.8338 27.8417 28.7904 28.3076 28.3245C28.7734 27.8587 26.8168 25.0889 23.5389 21.3875C28.2144 22.9968 31.5177 23.7507 31.7718 23.1323C32.0259 22.5225 29.1546 20.7099 24.7078 18.5416C29.6543 18.2282 33 17.6522 33 16.9915Z" fill="#5452FF"/>
<path d="M33 16.9915C33 16.3309 29.6543 15.7549 24.7247 15.4584C29.1715 13.2901 32.0344 11.486 31.7803 10.8761C31.5262 10.2663 28.2144 11.0116 23.5389 12.6294C26.8168 8.928 28.7734 6.15829 28.3076 5.68396C27.8417 5.21811 25.072 7.1747 21.3706 10.4526C22.9799 5.77713 23.7337 2.4738 23.1154 2.21969C22.5056 1.96559 20.693 4.83695 18.5246 9.28375C18.2282 4.34569 17.6522 1 16.9915 1C16.3309 1 15.7549 4.34569 15.4584 9.27528C13.2901 4.82848 11.486 1.96559 10.8761 2.21969C10.2663 2.4738 11.0116 5.7856 12.621 10.4526C8.91953 7.1747 6.14981 5.21811 5.68396 5.68396C5.21811 6.14981 7.1747 8.91953 10.4526 12.621C5.77713 11.0116 2.4738 10.2578 2.21969 10.8761C1.96559 11.486 4.83695 13.2986 9.27528 15.4584C4.33722 15.7549 1 16.3309 1 16.9915C1 17.6522 4.34569 18.2282 9.28375 18.5246C4.83695 20.693 1.96559 22.5056 2.21969 23.1154C2.4738 23.7253 5.77713 22.9799 10.4526 21.3706C7.1747 25.072 5.21811 27.8417 5.68396 28.3076C6.14981 28.7734 8.91953 26.8168 12.6294 23.5389C11.0201 28.2144 10.2663 31.5262 10.8761 31.7803C11.486 32.0344 13.2986 29.1631 15.4584 24.7247C15.7549 29.6628 16.3309 33 16.9915 33C17.6522 33 18.2282 29.6543 18.5246 24.7247C20.693 29.1715 22.4971 32.0429 23.1154 31.7888C23.7253 31.5347 22.9799 28.2229 21.3706 23.5558C25.072 26.8338 27.8417 28.7904 28.3076 28.3245C28.7734 27.8587 26.8168 25.0889 23.5389 21.3875C28.2144 22.9968 31.5177 23.7507 31.7718 23.1323C32.0259 22.5225 29.1546 20.7099 24.7078 18.5416C29.6543 18.2282 33 17.6522 33 16.9915Z" stroke="#232323" stroke-width="2" mask="url(#path-1-outside-1_2742_3197)"/>
</svg>
