<svg width="33" height="33" viewBox="0 0 33 33" fill="none" xmlns="http://www.w3.org/2000/svg">
<path d="M31.5 13.9503V13.4503H31H28.8696C29.9305 11.9923 30.2302 10.0361 29.4869 8.24655L29.2955 7.78561L28.8342 7.97625L26.6223 8.8904C27.1072 7.09854 26.6437 5.10871 25.2412 3.69931L24.8876 3.34397L24.5331 3.69848L23.0133 5.21866C22.7127 3.46719 21.55 1.90287 19.7853 1.17176L19.3238 0.980588L19.1322 1.44186L18.2326 3.60704C17.3131 1.97916 15.5672 0.879517 13.5678 0.879517H13.0678V1.37952V3.60808C11.6157 2.58191 9.68903 2.29959 7.92383 3.03088L7.46251 3.22199L7.65302 3.68357L8.50943 5.75849C6.71782 5.27334 4.72822 5.73697 3.31906 7.13993L2.96398 7.49343L3.31823 7.84777L4.96787 9.4978C3.18754 9.7804 1.58696 10.9527 0.849842 12.7433L0.659949 13.2046L1.12079 13.3955L3.10343 14.2171C1.54179 15.1463 0.5 16.8547 0.5 18.8087V19.3087H1H3.39094C2.28027 20.7742 1.95451 22.775 2.70882 24.5989L2.9 25.0612L3.36218 24.8698L5.32974 24.0549C4.92495 25.7981 5.40424 27.7048 6.75967 29.0606L7.11326 29.4142L7.46686 29.0606L9.14899 27.378C9.37764 29.2304 10.5709 30.9079 12.4177 31.6743L12.88 31.8661L13.0714 31.4037L13.9059 29.3869C14.8555 30.884 16.5297 31.8795 18.4322 31.8795H18.9322V31.3795V29.0866C20.4025 30.2334 22.4314 30.5822 24.2797 29.8152L24.7413 29.6237L24.55 29.162L23.6776 27.056C25.4203 27.4607 27.3264 26.9812 28.6818 25.6255L29.0352 25.272L28.6818 24.9185L27.1299 23.3663C28.9507 23.1131 30.5978 21.9306 31.3529 20.1115L31.5444 19.6502L31.0832 19.4582L28.8936 18.5469C30.454 17.6113 31.5 15.9027 31.5 13.9503Z" fill="#F557EF" stroke="#232323"/>
</svg>
