<svg width="60" height="60" viewBox="0 0 60 60" fill="none" xmlns="http://www.w3.org/2000/svg">
<circle cx="30" cy="30" r="30" fill="#FFCFCF"/>
<path fill-rule="evenodd" clip-rule="evenodd" d="M9.55322 51.9533C14.1594 45.3331 21.8236 41 30.4998 41C38.9253 41 46.3965 45.0863 51.0395 51.3853C45.6248 56.713 38.1962 60 29.9998 60C22.0988 60 14.9111 56.9456 9.55322 51.9533Z" fill="#FF3844"/>
<path d="M34.5564 13C34.3692 16.6355 37.3645 19.6308 41 19.4436C38.3006 21.8833 38.3006 26.1167 41 28.5564C37.3645 28.3692 34.3692 31.3645 34.5564 35C32.1167 32.3006 27.8833 32.3006 25.4436 35C25.6308 31.3645 22.6355 28.3692 19 28.5564C21.6994 26.1167 21.6994 21.8833 19 19.4436C22.6355 19.6308 25.6308 16.6355 25.4436 13C27.8773 15.6994 32.1167 15.6994 34.5564 13Z" fill="#FF3844"/>
</svg>
